G04 #@! TF.GenerationSoftware,KiCad,Pcbnew,(6.0.7)*
G04 #@! TF.CreationDate,2022-09-08T11:09:16+03:00*
G04 #@! TF.ProjectId,MCU_M_V3,4d43555f-4d5f-4563-932e-6b696361645f,rev?*
G04 #@! TF.SameCoordinates,Original*
G04 #@! TF.FileFunction,Legend,Top*
G04 #@! TF.FilePolarity,Positive*
%FSLAX46Y46*%
G04 Gerber Fmt 4.6, Leading zero omitted, Abs format (unit mm)*
G04 Created by KiCad (PCBNEW (6.0.7)) date 2022-09-08 11:09:16*
%MOMM*%
%LPD*%
G01*
G04 APERTURE LIST*
%ADD10C,0.100000*%
%ADD11C,0.120000*%
%ADD12C,0.254000*%
%ADD13C,0.200000*%
%ADD14R,1.000000X1.000000*%
%ADD15C,1.000000*%
G04 APERTURE END LIST*
D10*
G04 #@! TO.C,Y12*
X180100000Y-91700000D02*
X180100000Y-91700000D01*
X180100000Y-91800000D02*
X180100000Y-91800000D01*
X180100000Y-91800000D02*
G75*
G03*
X180100000Y-91700000I0J50000D01*
G01*
X180100000Y-91700000D02*
G75*
G03*
X180100000Y-91800000I0J-50000D01*
G01*
D11*
G04 #@! TO.C,U2*
X190990000Y-93190000D02*
X194810000Y-93190000D01*
X194810000Y-93190000D02*
X194810000Y-97010000D01*
X190990000Y-96110000D02*
X190990000Y-93190000D01*
X194810000Y-97010000D02*
X191890000Y-97010000D01*
D12*
G04 #@! TO.C,R11*
X180915000Y-97330000D02*
G75*
G03*
X180915000Y-97330000I-50000J0D01*
G01*
D11*
G04 #@! TO.C,U1*
X187209500Y-92863500D02*
X187209500Y-97336500D01*
X182990500Y-92863500D02*
X187209500Y-92863500D01*
X187209500Y-97336500D02*
X183982750Y-97336500D01*
X182990500Y-96344250D02*
X182990500Y-92863500D01*
D13*
G04 #@! TO.C,J1*
X171000000Y-93180000D02*
X171000000Y-96220000D01*
X172100000Y-93180000D02*
X171000000Y-93180000D01*
X171000000Y-96220000D02*
X173200000Y-96220000D01*
X173200000Y-96220000D02*
X173200000Y-94065000D01*
D12*
G04 #@! TO.C,R12*
X181385000Y-98490000D02*
G75*
G03*
X181385000Y-98490000I-50000J0D01*
G01*
D10*
G04 #@! TO.C,Y11*
X184500000Y-92090000D02*
X184500000Y-92090000D01*
X184600000Y-92090000D02*
X184600000Y-92090000D01*
X184600000Y-92090000D02*
G75*
G03*
X184500000Y-92090000I-50000J0D01*
G01*
X184500000Y-92090000D02*
G75*
G03*
X184600000Y-92090000I50000J0D01*
G01*
D13*
G04 #@! TO.C,Q1*
X172550000Y-90160000D02*
X172450000Y-90160000D01*
X174200000Y-90200000D02*
X172900000Y-90200000D01*
X172450000Y-90160000D02*
X172450000Y-87240000D01*
X172450000Y-87240000D02*
X172550000Y-87240000D01*
X172550000Y-87240000D02*
X172550000Y-90160000D01*
D11*
G04 #@! TO.C,D1*
X179200000Y-87340000D02*
X177525000Y-87340000D01*
X179200000Y-90460000D02*
X179850000Y-90460000D01*
X179200000Y-90460000D02*
X178550000Y-90460000D01*
X179200000Y-87340000D02*
X179850000Y-87340000D01*
D13*
G04 #@! TO.C,J2*
X171000000Y-100855000D02*
X173200000Y-100855000D01*
X173200000Y-100855000D02*
X173200000Y-97430000D01*
X171000000Y-96545000D02*
X171000000Y-100855000D01*
X172100000Y-96545000D02*
X171000000Y-96545000D01*
G04 #@! TD*
D14*
G04 #@! TO.C,J1*
X172100000Y-94065000D03*
D15*
X172100000Y-95335000D03*
G04 #@! TD*
D14*
G04 #@! TO.C,J2*
X172100000Y-97430000D03*
D15*
X172100000Y-98700000D03*
X172100000Y-99970000D03*
G04 #@! TD*
M02*
