M48
; DRILL file {KiCad (6.0.7)} date Thu Sep  1 19:33:16 2022
; FORMAT={-:-/ absolute / inch / decimal}
; #@! TF.CreationDate,2022-09-01T19:33:16+03:00
; #@! TF.GenerationSoftware,Kicad,Pcbnew,(6.0.7)
; #@! TF.FileFunction,Plated,1,2,Blind
FMAT,2
INCH
; #@! TA.AperFunction,Plated,Buried,ViaDrill
T1C0.0039
; #@! TA.AperFunction,Plated,Buried,ViaDrill
T2C0.0059
%
G90
G05
T1
X7.0547Y-3.9169
X7.063Y-3.9343
X7.0878Y-3.8531
X7.1087Y-3.8531
X7.2165Y-3.7441
X7.2169Y-3.7594
X7.2319Y-3.7602
X7.2327Y-3.728
X7.2327Y-3.7437
X7.2476Y-3.665
X7.248Y-3.7283
X7.2484Y-3.7122
X7.2598Y-3.9004
X7.2638Y-3.7126
X7.2642Y-3.6657
X7.2789Y-3.7124
X7.2791Y-3.6654
X7.2795Y-3.8228
X7.2799Y-3.7913
X7.3114Y-3.8071
X7.3114Y-3.824
X7.3268Y-3.7283
X7.3272Y-3.776
X7.3319Y-3.8571
X7.3413Y-3.9878
X7.3425Y-3.7126
X7.3425Y-3.728
X7.3425Y-3.7756
X7.3425Y-3.8071
X7.3579Y-3.7602
X7.3583Y-3.6807
X7.374Y-3.9378
X7.387Y-3.7779
X7.3874Y-3.7657
X7.4291Y-3.7795
X7.4402Y-3.7685
X7.5508Y-3.8472
X7.5752Y-3.7441
X7.5752Y-3.7642
X7.5846Y-3.6799
X7.5945Y-3.7437
X7.5945Y-3.7638
X7.6043Y-3.6799
X7.6138Y-3.7047
X7.6295Y-3.8469
X7.6348Y-3.7057
X7.6543Y-3.7429
T2
X7.0307Y-3.5587
X7.1909Y-3.7114
X7.2138Y-3.6146
X7.2671Y-3.6142
X7.2787Y-3.6142
X7.3937Y-3.5976
X7.4051Y-3.5976
X7.4169Y-3.5976
X7.5413Y-3.628
T0
M30
