M48
; DRILL file {KiCad (6.0.7)} date Mon Sep 12 14:42:11 2022
; FORMAT={-:-/ absolute / inch / decimal}
; #@! TF.CreationDate,2022-09-12T14:42:11+03:00
; #@! TF.GenerationSoftware,Kicad,Pcbnew,(6.0.7)
; #@! TF.FileFunction,Plated,2,3,Buried
FMAT,2
INCH
; #@! TA.AperFunction,Plated,Buried,ViaDrill
T1C0.0079
%
G90
G05
T1
X6.9972Y-3.8752
X7.0252Y-3.9024
X7.0252Y-3.922
X7.0272Y-3.9416
X7.048Y-3.961
X7.0598Y-3.6677
X7.0697Y-3.6498
X7.0701Y-3.689
X7.1024Y-3.6913
X7.1718Y-3.9223
X7.1783Y-3.6799
X7.1799Y-3.9043
X7.1823Y-3.9618
X7.1886Y-4.0325
X7.2126Y-3.9047
X7.2164Y-4.0396
X7.2774Y-3.9339
X7.3583Y-3.6224
X7.3691Y-3.8154
X7.3701Y-3.599
X7.4004Y-3.689
X7.4181Y-3.8563
X7.4362Y-3.7902
X7.4457Y-3.6614
X7.4551Y-3.8673
X7.4762Y-3.8406
T0
M30
