M48
; DRILL file {KiCad (6.0.7)} date Mon Sep 12 14:42:11 2022
; FORMAT={-:-/ absolute / inch / decimal}
; #@! TF.CreationDate,2022-09-12T14:42:11+03:00
; #@! TF.GenerationSoftware,Kicad,Pcbnew,(6.0.7)
; #@! TF.FileFunction,Plated,1,4,PTH
FMAT,2
INCH
; #@! TA.AperFunction,Plated,PTH,ViaDrill
T1C0.0039
; #@! TA.AperFunction,Plated,PTH,ViaDrill
T2C0.0079
; #@! TA.AperFunction,Plated,PTH,ComponentDrill
T3C0.0276
%
G90
G05
T1
X7.2717Y-3.689
X7.2874Y-3.7362
X7.2874Y-3.7047
X7.2874Y-3.752
X7.2874Y-3.7677
X7.2874Y-3.7205
X7.3031Y-3.7205
X7.3031Y-3.7677
X7.3189Y-3.689
T2
X6.7343Y-3.7461
X6.8069Y-3.7033
X6.8559Y-3.7846
X6.9945Y-3.6811
X6.9945Y-3.7268
X7.113Y-3.8327
X7.1136Y-3.8126
X7.1699Y-3.8135
X7.1892Y-3.8603
X7.2016Y-3.6248
X7.2031Y-3.7057
X7.2319Y-3.4614
X7.2648Y-3.8557
X7.3087Y-3.4618
X7.3193Y-3.8843
X7.3925Y-3.4622
X7.437Y-3.5114
X7.4449Y-3.6358
X7.4661Y-4.0063
X7.4874Y-3.6098
X7.6166Y-3.992
X7.6327Y-3.6201
X7.6488Y-3.6201
X7.6693Y-3.4811
T3
X6.7307Y-4.1181
X6.7308Y-3.3701
X6.7817Y-4.1181
X6.7817Y-3.3701
X6.8326Y-4.1181
X6.8327Y-3.3701
X6.8835Y-4.1181
X6.8836Y-3.3701
X6.9345Y-4.1181
X6.9346Y-3.3701
X6.9854Y-4.1181
X6.9855Y-3.3701
X7.0364Y-4.1181
X7.0365Y-3.3701
X7.0873Y-4.1181
X7.0874Y-3.3701
X7.1382Y-4.1181
X7.1383Y-3.3701
X7.1892Y-4.1181
X7.1893Y-3.3701
X7.2401Y-4.1181
X7.2402Y-3.3701
X7.2911Y-4.1181
X7.2912Y-3.3701
X7.342Y-4.1181
X7.3421Y-3.3701
X7.393Y-4.1181
X7.3931Y-3.3701
X7.4439Y-4.1181
X7.444Y-3.3701
X7.4948Y-4.1181
X7.4949Y-3.3701
X7.5458Y-4.1181
X7.5459Y-3.3701
X7.5967Y-4.1181
X7.5968Y-3.3701
X7.6477Y-4.1181
X7.6477Y-3.3701
X7.6986Y-4.1181
X7.6987Y-3.3701
X7.7496Y-4.1181
X7.7496Y-3.3701
T0
M30
