G04 #@! TF.GenerationSoftware,KiCad,Pcbnew,(6.0.7)*
G04 #@! TF.CreationDate,2022-09-08T11:09:16+03:00*
G04 #@! TF.ProjectId,MCU_M_V3,4d43555f-4d5f-4563-932e-6b696361645f,rev?*
G04 #@! TF.SameCoordinates,Original*
G04 #@! TF.FileFunction,Copper,L4,Bot*
G04 #@! TF.FilePolarity,Positive*
%FSLAX46Y46*%
G04 Gerber Fmt 4.6, Leading zero omitted, Abs format (unit mm)*
G04 Created by KiCad (PCBNEW (6.0.7)) date 2022-09-08 11:09:16*
%MOMM*%
%LPD*%
G01*
G04 APERTURE LIST*
G04 #@! TA.AperFunction,ComponentPad*
%ADD10R,1.000000X1.000000*%
G04 #@! TD*
G04 #@! TA.AperFunction,ComponentPad*
%ADD11C,1.000000*%
G04 #@! TD*
G04 #@! TA.AperFunction,ComponentPad*
%ADD12R,0.800000X1.400000*%
G04 #@! TD*
G04 #@! TA.AperFunction,ViaPad*
%ADD13C,0.400000*%
G04 #@! TD*
G04 #@! TA.AperFunction,ViaPad*
%ADD14C,0.300000*%
G04 #@! TD*
G04 #@! TA.AperFunction,Conductor*
%ADD15C,0.300000*%
G04 #@! TD*
G04 #@! TA.AperFunction,Conductor*
%ADD16C,0.250000*%
G04 #@! TD*
G04 #@! TA.AperFunction,Conductor*
%ADD17C,0.150000*%
G04 #@! TD*
G04 APERTURE END LIST*
D10*
G04 #@! TO.P,J1,1,1*
G04 #@! TO.N,GND*
X172100000Y-94065000D03*
D11*
G04 #@! TO.P,J1,2,2*
G04 #@! TO.N,/VBAT*
X172100000Y-95335000D03*
G04 #@! TD*
D10*
G04 #@! TO.P,J2,1,1*
G04 #@! TO.N,GND*
X172100000Y-97430000D03*
D11*
G04 #@! TO.P,J2,2,2*
G04 #@! TO.N,/SW_CLK*
X172100000Y-98700000D03*
G04 #@! TO.P,J2,3,3*
G04 #@! TO.N,/SW_IO*
X172100000Y-99970000D03*
G04 #@! TD*
D12*
G04 #@! TO.P,H2,21*
G04 #@! TO.N,/P0_D3*
X196839116Y-104300000D03*
G04 #@! TO.P,H2,20*
G04 #@! TO.N,/P0_D2*
X195545088Y-104300000D03*
G04 #@! TO.P,H2,19*
G04 #@! TO.N,/P0_D1*
X194251059Y-104300000D03*
G04 #@! TO.P,H2,18*
G04 #@! TO.N,GND*
X192957082Y-104300000D03*
G04 #@! TO.P,H2,17*
G04 #@! TO.N,/M2_D1*
X191663053Y-104300000D03*
G04 #@! TO.P,H2,16*
G04 #@! TO.N,/M2_D2*
X190369025Y-104300000D03*
G04 #@! TO.P,H2,15*
G04 #@! TO.N,/M2_D3*
X189074997Y-104300000D03*
G04 #@! TO.P,H2,14*
G04 #@! TO.N,/M2_D4*
X187780968Y-104300000D03*
G04 #@! TO.P,H2,13*
G04 #@! TO.N,/M2_D5*
X186486940Y-104300000D03*
G04 #@! TO.P,H2,12*
G04 #@! TO.N,GND*
X185192911Y-104300000D03*
G04 #@! TO.P,H2,11*
G04 #@! TO.N,/B4*
X183898934Y-104300000D03*
G04 #@! TO.P,H2,10*
G04 #@! TO.N,/B5*
X182604905Y-104300000D03*
G04 #@! TO.P,H2,9*
G04 #@! TO.N,/B3*
X181310877Y-104300000D03*
G04 #@! TO.P,H2,8*
G04 #@! TO.N,/B2*
X180017103Y-104300000D03*
G04 #@! TO.P,H2,7*
G04 #@! TO.N,/B1*
X178723379Y-104300000D03*
G04 #@! TO.P,H2,6*
G04 #@! TO.N,/M3_D7*
X177429605Y-104300000D03*
G04 #@! TO.P,H2,5*
G04 #@! TO.N,/M4_D7*
X176135881Y-104300000D03*
G04 #@! TO.P,H2,4*
G04 #@! TO.N,/M1_D3*
X174842107Y-104300000D03*
G04 #@! TO.P,H2,3*
G04 #@! TO.N,/M1_D4*
X173548383Y-104300000D03*
G04 #@! TO.P,H2,2*
G04 #@! TO.N,/M1_D1*
X172254609Y-104300000D03*
G04 #@! TO.P,H2,1*
G04 #@! TO.N,/M1_D2*
X170960885Y-104300000D03*
G04 #@! TD*
G04 #@! TO.P,H1,21*
G04 #@! TO.N,/M1_D6*
X170961852Y-85900000D03*
G04 #@! TO.P,H1,20*
G04 #@! TO.N,/M1_D5*
X172255880Y-85900000D03*
G04 #@! TO.P,H1,19*
G04 #@! TO.N,/M4_D6*
X173549909Y-85900000D03*
G04 #@! TO.P,H1,18*
G04 #@! TO.N,/M4_D5*
X174843886Y-85900000D03*
G04 #@! TO.P,H1,17*
G04 #@! TO.N,/M3_D2*
X176137915Y-85900000D03*
G04 #@! TO.P,H1,16*
G04 #@! TO.N,/M3_D1*
X177431943Y-85900000D03*
G04 #@! TO.P,H1,15*
G04 #@! TO.N,unconnected-(H1-Pad15)*
X178725971Y-85900000D03*
G04 #@! TO.P,H1,14*
G04 #@! TO.N,GND*
X180020000Y-85900000D03*
G04 #@! TO.P,H1,13*
G04 #@! TO.N,/M1_D7*
X181314028Y-85900000D03*
G04 #@! TO.P,H1,12*
G04 #@! TO.N,/M4_D2*
X182608057Y-85900000D03*
G04 #@! TO.P,H1,11*
G04 #@! TO.N,/M4_D1*
X183902034Y-85900000D03*
G04 #@! TO.P,H1,10*
G04 #@! TO.N,/M4_D4*
X185196063Y-85900000D03*
G04 #@! TO.P,H1,9*
G04 #@! TO.N,/M4_D3*
X186490091Y-85900000D03*
G04 #@! TO.P,H1,8*
G04 #@! TO.N,GND*
X187783865Y-85900000D03*
G04 #@! TO.P,H1,7*
G04 #@! TO.N,/M2_D10*
X189077589Y-85900000D03*
G04 #@! TO.P,H1,6*
G04 #@! TO.N,/M2_D9*
X190371363Y-85900000D03*
G04 #@! TO.P,H1,5*
G04 #@! TO.N,/M2_D8*
X191665087Y-85900000D03*
G04 #@! TO.P,H1,4*
G04 #@! TO.N,/M2_D7*
X192958861Y-85900000D03*
G04 #@! TO.P,H1,3*
G04 #@! TO.N,/M2_D6*
X194252585Y-85900000D03*
G04 #@! TO.P,H1,2*
G04 #@! TO.N,/+5*
X195546359Y-85900000D03*
G04 #@! TO.P,H1,1*
G04 #@! TO.N,/+3.3*
X196840083Y-85900000D03*
G04 #@! TD*
D13*
G04 #@! TO.N,GND*
X195230000Y-88220000D03*
X189640000Y-101760000D03*
X193462000Y-101398000D03*
D14*
G04 #@! TO.N,/+3.3*
X185099944Y-94900099D03*
D13*
G04 #@! TO.N,GND*
X190030000Y-91540000D03*
X193870000Y-91950000D03*
X194280000Y-91950000D03*
X184524812Y-97934812D03*
G04 #@! TO.N,Net-(C11-Pad1)*
X182604710Y-98052428D03*
G04 #@! TO.N,/+3.3*
X182920000Y-92070000D03*
G04 #@! TO.N,/M4_D1*
X187070000Y-87200000D03*
G04 #@! TO.N,/+3.3*
X185910000Y-98660000D03*
X190830000Y-92194500D03*
G04 #@! TO.N,GND*
X189600000Y-91540000D03*
G04 #@! TO.N,/+3.3*
X182960000Y-94125500D03*
X182116615Y-96863019D03*
D14*
G04 #@! TO.N,GND*
X184700498Y-93700498D03*
D13*
G04 #@! TO.N,/+3.3*
X180685500Y-96840000D03*
D14*
X185100000Y-95700000D03*
G04 #@! TO.N,GND*
X185100000Y-95300000D03*
G04 #@! TO.N,Net-(C11-Pad1)*
X185500000Y-95700000D03*
G04 #@! TO.N,GND*
X185100498Y-94500597D03*
X185100000Y-94100000D03*
G04 #@! TO.N,/+3.3*
X185500000Y-94500000D03*
X185900000Y-93700000D03*
D13*
G04 #@! TO.N,GND*
X177660000Y-94660000D03*
X177660000Y-93500000D03*
G04 #@! TD*
D15*
G04 #@! TO.N,GND*
X195230000Y-91000000D02*
X195230000Y-88220000D01*
X194280000Y-91950000D02*
X195230000Y-91000000D01*
X189640000Y-102960000D02*
X189660000Y-102980000D01*
X189640000Y-101760000D02*
X189640000Y-102960000D01*
X189660000Y-102980000D02*
X190820000Y-102980000D01*
X185580000Y-102980000D02*
X189660000Y-102980000D01*
X193460000Y-102190000D02*
X192670000Y-102980000D01*
X192670000Y-102980000D02*
X190820000Y-102980000D01*
X193460000Y-101380000D02*
X193460000Y-102190000D01*
D16*
X187783865Y-88063865D02*
X187783865Y-87513865D01*
X188910000Y-90420000D02*
X188910000Y-89190000D01*
X188910000Y-89190000D02*
X187783865Y-88063865D01*
X190030000Y-91540000D02*
X188910000Y-90420000D01*
X179950000Y-87120000D02*
X179950000Y-87040000D01*
X181170000Y-88340000D02*
X179950000Y-87120000D01*
X187770000Y-88200000D02*
X187630000Y-88340000D01*
X187770000Y-87527730D02*
X187770000Y-88200000D01*
X187783865Y-87513865D02*
X187770000Y-87527730D01*
X187630000Y-88340000D02*
X181170000Y-88340000D01*
D15*
X190820000Y-102980000D02*
X192580000Y-102980000D01*
D16*
X179950000Y-85825000D02*
X180020000Y-85825000D01*
D15*
X179950000Y-87040000D02*
X179950000Y-85825000D01*
X187783865Y-87513865D02*
X187783865Y-85825000D01*
D16*
G04 #@! TO.N,/+3.3*
X180695500Y-96830000D02*
X180685500Y-96840000D01*
X182083596Y-96830000D02*
X180695500Y-96830000D01*
X182116615Y-96863019D02*
X182083596Y-96830000D01*
G04 #@! TO.N,GND*
X184930000Y-95300000D02*
X185100000Y-95300000D01*
X184710000Y-95080000D02*
X184930000Y-95300000D01*
X185100498Y-94500597D02*
X185100000Y-94500099D01*
X184710000Y-94630000D02*
X184710000Y-95080000D01*
X184839403Y-94500597D02*
X184710000Y-94630000D01*
X185100498Y-94500597D02*
X184839403Y-94500597D01*
X185100000Y-94500099D02*
X185100000Y-93750000D01*
X185100000Y-94500099D02*
X185100000Y-94100000D01*
X184700996Y-93700000D02*
X185050000Y-93700000D01*
X184700498Y-93700498D02*
X184700996Y-93700000D01*
X184525188Y-97934812D02*
X184540000Y-97920000D01*
X184524812Y-97934812D02*
X184525188Y-97934812D01*
X185720000Y-95300000D02*
X185100000Y-95300000D01*
X185890000Y-96530000D02*
X185890000Y-95470000D01*
X184524812Y-97895188D02*
X185890000Y-96530000D01*
X185890000Y-95470000D02*
X185720000Y-95300000D01*
X184524812Y-97934812D02*
X184524812Y-97895188D01*
X189830000Y-91770000D02*
X189990000Y-91770000D01*
X189600000Y-91540000D02*
X189830000Y-91770000D01*
X190260000Y-91770000D02*
X190580000Y-91770000D01*
X190030000Y-91540000D02*
X190260000Y-91770000D01*
X190580000Y-91770000D02*
X193440000Y-91770000D01*
X189990000Y-91770000D02*
X190580000Y-91770000D01*
D17*
G04 #@! TO.N,Net-(C11-Pad1)*
X185500000Y-95759620D02*
X185500000Y-95700000D01*
X184759620Y-96500000D02*
X185500000Y-95759620D01*
X184157138Y-96500000D02*
X184759620Y-96500000D01*
X182604710Y-98052428D02*
X184157138Y-96500000D01*
D16*
G04 #@! TO.N,/+3.3*
X182116615Y-98476615D02*
X182300000Y-98660000D01*
X182300000Y-98660000D02*
X185910000Y-98660000D01*
X182116615Y-96863019D02*
X182116615Y-98476615D01*
X182960000Y-94125500D02*
X182960000Y-96010000D01*
X182960000Y-96010000D02*
X182116615Y-96853385D01*
X182116615Y-96853385D02*
X182116615Y-96863019D01*
X182116615Y-96863019D02*
X182116981Y-96863019D01*
G04 #@! TO.N,GND*
X193870000Y-91950000D02*
X194280000Y-91950000D01*
X193620000Y-91950000D02*
X193870000Y-91950000D01*
X193440000Y-91770000D02*
X193620000Y-91950000D01*
D17*
G04 #@! TO.N,/+3.3*
X185100000Y-95700000D02*
X183330000Y-95700000D01*
X183330000Y-95700000D02*
X182550000Y-96480000D01*
D16*
X182960000Y-92110000D02*
X182920000Y-92070000D01*
X182960000Y-94125500D02*
X182960000Y-92110000D01*
D17*
G04 #@! TO.N,/M4_D1*
X183902034Y-86952034D02*
X183902034Y-85775000D01*
X184160000Y-87210000D02*
X183902034Y-86952034D01*
X187060000Y-87210000D02*
X184160000Y-87210000D01*
X187070000Y-87200000D02*
X187060000Y-87210000D01*
D15*
G04 #@! TO.N,GND*
X192957082Y-103357082D02*
X192957082Y-104350000D01*
X192580000Y-102980000D02*
X192957082Y-103357082D01*
X185192911Y-103367089D02*
X185580000Y-102980000D01*
X185192911Y-104350000D02*
X185192911Y-103367089D01*
D16*
G04 #@! TO.N,/+3.3*
X185270000Y-94900000D02*
X185500000Y-94670000D01*
X185100000Y-94900000D02*
X185270000Y-94900000D01*
X185500000Y-94670000D02*
X185500000Y-94500000D01*
X185910000Y-97309335D02*
X185910000Y-98660000D01*
X186240000Y-96979335D02*
X185910000Y-97309335D01*
X185500000Y-94500000D02*
X186240000Y-95240000D01*
X186240000Y-95240000D02*
X186240000Y-96979335D01*
X186465500Y-92194500D02*
X190830000Y-92194500D01*
X185900000Y-92760000D02*
X186465500Y-92194500D01*
X185900000Y-94100000D02*
X185900000Y-92760000D01*
X185500000Y-94500000D02*
X185900000Y-94100000D01*
G04 #@! TO.N,GND*
X185100000Y-92900000D02*
X185100000Y-93750000D01*
X189990000Y-91770000D02*
X186230000Y-91770000D01*
X186230000Y-91770000D02*
X185100000Y-92900000D01*
X177650000Y-93510000D02*
X177660000Y-93500000D01*
X177650000Y-94650000D02*
X177650000Y-93510000D01*
X177660000Y-94660000D02*
X177650000Y-94650000D01*
G04 #@! TO.N,/+3.3*
X185500000Y-94630331D02*
X185500000Y-94500000D01*
G04 #@! TO.N,GND*
X185100000Y-94100000D02*
X185100000Y-93750000D01*
D17*
X185050000Y-93700000D02*
X185100000Y-93750000D01*
G04 #@! TD*
G04 #@! TA.AperFunction,Conductor*
G04 #@! TO.N,GND*
G36*
X183622092Y-86910002D02*
G01*
X183668585Y-86963658D01*
X183674573Y-86983529D01*
X183674334Y-86988098D01*
X183708688Y-87077594D01*
X183994025Y-87362931D01*
X183998565Y-87367714D01*
X184015633Y-87386670D01*
X184015635Y-87386671D01*
X184024493Y-87396509D01*
X184043015Y-87404755D01*
X184060378Y-87414183D01*
X184077382Y-87425226D01*
X184090463Y-87427298D01*
X184095106Y-87429080D01*
X184099972Y-87430114D01*
X184112068Y-87435500D01*
X184132334Y-87435500D01*
X184152043Y-87437051D01*
X184172065Y-87440222D01*
X184184854Y-87436795D01*
X184198082Y-87436102D01*
X184198107Y-87436576D01*
X184206277Y-87435500D01*
X186757628Y-87435500D01*
X186825749Y-87455502D01*
X186846723Y-87472405D01*
X186861413Y-87487095D01*
X186960339Y-87537500D01*
X187070000Y-87554869D01*
X187079792Y-87553318D01*
X187169869Y-87539051D01*
X187179661Y-87537500D01*
X187278587Y-87487095D01*
X187357095Y-87408587D01*
X187407500Y-87309661D01*
X187424869Y-87200000D01*
X187407500Y-87090339D01*
X187402999Y-87081506D01*
X187402998Y-87081502D01*
X187398769Y-87073202D01*
X187385665Y-87003425D01*
X187412366Y-86937640D01*
X187470394Y-86896735D01*
X187511036Y-86890000D01*
X197123500Y-86890000D01*
X197191621Y-86910002D01*
X197238114Y-86963658D01*
X197249500Y-87016000D01*
X197249500Y-103183916D01*
X197229498Y-103252037D01*
X197175842Y-103298530D01*
X197123454Y-103309916D01*
X182909328Y-103304630D01*
X170686453Y-103300084D01*
X170618340Y-103280057D01*
X170571867Y-103226384D01*
X170560500Y-103174084D01*
X170560500Y-99963138D01*
X171444758Y-99963138D01*
X171462035Y-100119633D01*
X171516143Y-100267490D01*
X171520380Y-100273796D01*
X171520382Y-100273799D01*
X171560709Y-100333811D01*
X171603958Y-100398172D01*
X171720410Y-100504135D01*
X171727085Y-100507759D01*
X171852099Y-100575637D01*
X171852101Y-100575638D01*
X171858776Y-100579262D01*
X171866125Y-100581190D01*
X172003719Y-100617287D01*
X172003721Y-100617287D01*
X172011069Y-100619215D01*
X172094380Y-100620524D01*
X172160898Y-100621569D01*
X172160901Y-100621569D01*
X172168495Y-100621688D01*
X172321968Y-100586538D01*
X172462625Y-100515795D01*
X172488869Y-100493381D01*
X172576574Y-100418474D01*
X172576576Y-100418471D01*
X172582348Y-100413542D01*
X172674224Y-100285683D01*
X172732950Y-100139598D01*
X172755134Y-99983723D01*
X172755278Y-99970000D01*
X172736363Y-99813694D01*
X172680710Y-99666412D01*
X172591531Y-99536657D01*
X172473976Y-99431919D01*
X172475123Y-99430632D01*
X172436442Y-99382593D01*
X172428880Y-99312000D01*
X172460683Y-99248526D01*
X172471032Y-99238615D01*
X172582348Y-99143542D01*
X172674224Y-99015683D01*
X172732950Y-98869598D01*
X172755134Y-98713723D01*
X172755278Y-98700000D01*
X172754142Y-98690608D01*
X172750437Y-98660000D01*
X172736363Y-98543694D01*
X172705363Y-98461654D01*
X172683394Y-98403514D01*
X172683393Y-98403511D01*
X172680710Y-98396412D01*
X172591531Y-98266657D01*
X172518174Y-98201298D01*
X172479648Y-98166972D01*
X172479645Y-98166970D01*
X172473976Y-98161919D01*
X172334831Y-98088245D01*
X172318122Y-98084048D01*
X172189498Y-98051740D01*
X172189496Y-98051740D01*
X172182128Y-98049889D01*
X172174530Y-98049849D01*
X172174528Y-98049849D01*
X172107319Y-98049497D01*
X172024684Y-98049065D01*
X172017305Y-98050837D01*
X172017301Y-98050837D01*
X171878967Y-98084048D01*
X171878963Y-98084049D01*
X171871588Y-98085820D01*
X171731679Y-98158032D01*
X171725957Y-98163024D01*
X171725955Y-98163025D01*
X171618759Y-98256538D01*
X171618756Y-98256541D01*
X171613034Y-98261533D01*
X171608667Y-98267747D01*
X171540669Y-98364498D01*
X171522501Y-98390348D01*
X171465309Y-98537039D01*
X171459112Y-98584110D01*
X171446207Y-98682133D01*
X171444758Y-98693138D01*
X171462035Y-98849633D01*
X171516143Y-98997490D01*
X171520380Y-99003796D01*
X171520382Y-99003799D01*
X171560709Y-99063811D01*
X171603958Y-99128172D01*
X171720410Y-99234135D01*
X171721273Y-99234604D01*
X171763470Y-99288154D01*
X171770287Y-99358823D01*
X171737816Y-99421959D01*
X171729378Y-99430039D01*
X171613034Y-99531533D01*
X171522501Y-99660348D01*
X171465309Y-99807039D01*
X171444758Y-99963138D01*
X170560500Y-99963138D01*
X170560500Y-96840000D01*
X180330631Y-96840000D01*
X180348000Y-96949661D01*
X180398405Y-97048587D01*
X180476913Y-97127095D01*
X180575839Y-97177500D01*
X180685500Y-97194869D01*
X180695292Y-97193318D01*
X180785369Y-97179051D01*
X180795161Y-97177500D01*
X180894087Y-97127095D01*
X180894223Y-97127362D01*
X180954917Y-97105706D01*
X180962111Y-97105500D01*
X181715115Y-97105500D01*
X181783236Y-97125502D01*
X181829729Y-97179158D01*
X181841115Y-97231500D01*
X181841115Y-98437072D01*
X181838694Y-98461654D01*
X181835718Y-98476615D01*
X181841115Y-98503747D01*
X181841115Y-98503748D01*
X181857100Y-98584110D01*
X181917991Y-98675239D01*
X181928307Y-98682132D01*
X181928308Y-98682133D01*
X181930679Y-98683717D01*
X181949771Y-98699387D01*
X182077228Y-98826844D01*
X182092898Y-98845936D01*
X182101376Y-98858624D01*
X182124377Y-98873993D01*
X182124378Y-98873994D01*
X182192506Y-98919516D01*
X182300000Y-98940897D01*
X182314962Y-98937921D01*
X182339542Y-98935500D01*
X185648406Y-98935500D01*
X185705608Y-98949233D01*
X185786314Y-98990354D01*
X185800339Y-98997500D01*
X185910000Y-99014869D01*
X185919792Y-99013318D01*
X186009869Y-98999051D01*
X186019661Y-98997500D01*
X186118587Y-98947095D01*
X186197095Y-98868587D01*
X186247500Y-98769661D01*
X186264869Y-98660000D01*
X186247500Y-98550339D01*
X186197095Y-98451413D01*
X186172405Y-98426723D01*
X186138379Y-98364411D01*
X186135500Y-98337628D01*
X186135500Y-97454932D01*
X186155502Y-97386811D01*
X186172404Y-97365837D01*
X186392937Y-97145303D01*
X186397722Y-97140762D01*
X186416669Y-97123702D01*
X186426509Y-97114842D01*
X186434757Y-97096318D01*
X186444188Y-97078949D01*
X186448012Y-97073060D01*
X186455225Y-97061953D01*
X186457297Y-97048871D01*
X186459079Y-97044229D01*
X186460112Y-97039368D01*
X186465500Y-97027267D01*
X186465500Y-97007002D01*
X186467051Y-96987290D01*
X186468151Y-96980347D01*
X186468151Y-96980346D01*
X186470222Y-96967270D01*
X186466795Y-96954481D01*
X186466102Y-96941253D01*
X186466576Y-96941228D01*
X186465500Y-96933058D01*
X186465500Y-95249208D01*
X186465673Y-95242614D01*
X186467007Y-95217164D01*
X186467007Y-95217163D01*
X186467700Y-95203936D01*
X186460437Y-95185015D01*
X186454821Y-95166058D01*
X186453360Y-95159184D01*
X186450607Y-95146232D01*
X186442824Y-95135519D01*
X186440799Y-95130971D01*
X186438092Y-95126802D01*
X186433346Y-95114440D01*
X186419014Y-95100108D01*
X186406173Y-95085073D01*
X186402045Y-95079391D01*
X186402043Y-95079389D01*
X186394260Y-95068677D01*
X186382793Y-95062056D01*
X186372950Y-95053194D01*
X186373268Y-95052840D01*
X186366734Y-95047827D01*
X185908001Y-94589094D01*
X185873975Y-94526782D01*
X185879040Y-94455967D01*
X185908001Y-94410904D01*
X186052928Y-94265977D01*
X186057712Y-94261436D01*
X186076669Y-94244367D01*
X186086509Y-94235507D01*
X186094757Y-94216983D01*
X186104188Y-94199614D01*
X186108012Y-94193725D01*
X186115225Y-94182618D01*
X186117297Y-94169536D01*
X186119079Y-94164894D01*
X186120112Y-94160033D01*
X186125500Y-94147932D01*
X186125500Y-94127667D01*
X186127051Y-94107955D01*
X186128151Y-94101012D01*
X186128151Y-94101011D01*
X186130222Y-94087935D01*
X186126795Y-94075146D01*
X186126102Y-94061918D01*
X186126576Y-94061893D01*
X186125500Y-94053723D01*
X186125500Y-93841744D01*
X186133526Y-93801391D01*
X186135966Y-93797740D01*
X186155408Y-93700000D01*
X186135966Y-93602260D01*
X186133526Y-93598609D01*
X186125500Y-93558256D01*
X186125500Y-92905596D01*
X186145502Y-92837475D01*
X186162405Y-92816501D01*
X186472001Y-92506905D01*
X186534313Y-92472879D01*
X186561096Y-92470000D01*
X190568406Y-92470000D01*
X190625608Y-92483733D01*
X190711503Y-92527498D01*
X190720339Y-92532000D01*
X190830000Y-92549369D01*
X190839792Y-92547818D01*
X190929869Y-92533551D01*
X190939661Y-92532000D01*
X190991209Y-92505735D01*
X191029750Y-92486098D01*
X191029752Y-92486097D01*
X191038587Y-92481595D01*
X191045602Y-92474580D01*
X191049570Y-92471697D01*
X191116437Y-92447838D01*
X191148214Y-92450053D01*
X191237829Y-92467878D01*
X191250000Y-92470299D01*
X191355544Y-92449305D01*
X191445019Y-92389519D01*
X191504805Y-92300044D01*
X191525799Y-92194500D01*
X191504805Y-92088956D01*
X191445019Y-91999481D01*
X191355544Y-91939695D01*
X191250000Y-91918701D01*
X191237829Y-91921122D01*
X191148214Y-91938947D01*
X191077500Y-91932619D01*
X191049570Y-91917303D01*
X191045602Y-91914420D01*
X191038587Y-91907405D01*
X191029752Y-91902903D01*
X191029750Y-91902902D01*
X190991209Y-91883265D01*
X190939661Y-91857000D01*
X190923259Y-91854402D01*
X190839792Y-91841182D01*
X190830000Y-91839631D01*
X190820208Y-91841182D01*
X190736742Y-91854402D01*
X190720339Y-91857000D01*
X190711504Y-91861502D01*
X190711503Y-91861502D01*
X190625608Y-91905267D01*
X190568406Y-91919000D01*
X186438367Y-91919000D01*
X186358005Y-91934985D01*
X186266876Y-91995876D01*
X186205985Y-92087005D01*
X186203564Y-92099174D01*
X186203564Y-92099175D01*
X186201497Y-92109567D01*
X186167013Y-92174082D01*
X185747072Y-92594023D01*
X185742288Y-92598564D01*
X185713491Y-92624493D01*
X185705245Y-92643015D01*
X185695817Y-92660378D01*
X185684774Y-92677382D01*
X185682702Y-92690463D01*
X185680920Y-92695106D01*
X185679886Y-92699972D01*
X185674500Y-92712068D01*
X185674500Y-92732334D01*
X185672949Y-92752043D01*
X185669778Y-92772065D01*
X185673205Y-92784854D01*
X185673898Y-92798082D01*
X185673424Y-92798107D01*
X185674500Y-92806277D01*
X185674500Y-93558256D01*
X185666474Y-93598609D01*
X185664034Y-93602260D01*
X185644592Y-93700000D01*
X185664034Y-93797740D01*
X185666474Y-93801391D01*
X185674500Y-93841744D01*
X185674500Y-93954405D01*
X185654498Y-94022526D01*
X185637595Y-94043500D01*
X185440777Y-94240318D01*
X185406565Y-94263178D01*
X185402260Y-94264034D01*
X185391945Y-94270926D01*
X185391943Y-94270927D01*
X185344087Y-94302903D01*
X185319399Y-94319399D01*
X185264034Y-94402260D01*
X185244592Y-94500000D01*
X185247013Y-94512171D01*
X185247013Y-94521112D01*
X185227011Y-94589233D01*
X185173355Y-94635726D01*
X185121013Y-94647112D01*
X185112115Y-94647112D01*
X185099944Y-94644691D01*
X185002204Y-94664133D01*
X184919343Y-94719498D01*
X184863978Y-94802359D01*
X184844536Y-94900099D01*
X184863978Y-94997839D01*
X184919343Y-95080700D01*
X184948056Y-95099885D01*
X184989685Y-95127700D01*
X185002204Y-95136065D01*
X185099944Y-95155507D01*
X185197684Y-95136065D01*
X185201444Y-95133553D01*
X185241928Y-95125500D01*
X185260792Y-95125500D01*
X185267386Y-95125673D01*
X185292836Y-95127007D01*
X185292837Y-95127007D01*
X185306064Y-95127700D01*
X185324984Y-95120437D01*
X185343942Y-95114821D01*
X185350816Y-95113360D01*
X185363768Y-95110607D01*
X185374481Y-95102824D01*
X185379029Y-95100799D01*
X185383198Y-95098092D01*
X185395560Y-95093346D01*
X185409892Y-95079014D01*
X185424927Y-95066173D01*
X185430608Y-95062045D01*
X185441323Y-95054260D01*
X185447944Y-95042791D01*
X185456807Y-95032948D01*
X185457160Y-95033266D01*
X185462177Y-95026728D01*
X185495905Y-94993000D01*
X185558217Y-94958974D01*
X185629032Y-94964039D01*
X185674095Y-94993000D01*
X185977595Y-95296500D01*
X186011621Y-95358812D01*
X186014500Y-95385595D01*
X186014500Y-96833740D01*
X185994498Y-96901861D01*
X185977595Y-96922835D01*
X185757072Y-97143358D01*
X185752288Y-97147899D01*
X185723491Y-97173828D01*
X185715245Y-97192350D01*
X185705817Y-97209713D01*
X185694774Y-97226717D01*
X185692702Y-97239798D01*
X185690920Y-97244441D01*
X185689886Y-97249307D01*
X185684500Y-97261403D01*
X185684500Y-97281669D01*
X185682949Y-97301378D01*
X185679778Y-97321400D01*
X185683205Y-97334189D01*
X185683898Y-97347417D01*
X185683424Y-97347442D01*
X185684500Y-97355612D01*
X185684500Y-98258500D01*
X185664498Y-98326621D01*
X185610842Y-98373114D01*
X185558500Y-98384500D01*
X183034500Y-98384500D01*
X182966379Y-98364498D01*
X182919886Y-98310842D01*
X182909782Y-98240568D01*
X182922233Y-98201298D01*
X182937708Y-98170926D01*
X182937709Y-98170922D01*
X182942210Y-98162089D01*
X182959579Y-98052428D01*
X182958028Y-98042636D01*
X182958028Y-98042632D01*
X182955037Y-98023750D01*
X182964135Y-97953339D01*
X182990390Y-97914942D01*
X184192928Y-96712405D01*
X184255240Y-96678379D01*
X184282023Y-96675500D01*
X184730933Y-96675500D01*
X184753815Y-96677663D01*
X184754103Y-96677648D01*
X184769080Y-96680505D01*
X184802793Y-96670326D01*
X184809156Y-96668585D01*
X184810605Y-96668229D01*
X184843362Y-96660183D01*
X184846996Y-96656979D01*
X184851630Y-96655580D01*
X184854322Y-96653492D01*
X184876619Y-96631195D01*
X184882389Y-96625776D01*
X184908044Y-96603158D01*
X184908820Y-96604038D01*
X184913094Y-96600598D01*
X184910155Y-96597659D01*
X185540290Y-95967524D01*
X185581168Y-95940210D01*
X185585570Y-95938387D01*
X185597740Y-95935966D01*
X185608055Y-95929074D01*
X185608057Y-95929073D01*
X185670286Y-95887493D01*
X185680601Y-95880601D01*
X185735966Y-95797740D01*
X185755408Y-95700000D01*
X185735966Y-95602260D01*
X185680601Y-95519399D01*
X185597740Y-95464034D01*
X185500000Y-95444592D01*
X185402260Y-95464034D01*
X185391944Y-95470927D01*
X185391939Y-95470929D01*
X185370000Y-95485588D01*
X185302247Y-95506802D01*
X185230000Y-95485588D01*
X185208061Y-95470929D01*
X185208056Y-95470927D01*
X185197740Y-95464034D01*
X185100000Y-95444592D01*
X185002260Y-95464034D01*
X184991943Y-95470928D01*
X184991942Y-95470928D01*
X184943544Y-95503266D01*
X184873543Y-95524500D01*
X183358688Y-95524500D01*
X183335807Y-95522337D01*
X183335518Y-95522352D01*
X183320541Y-95519495D01*
X183312475Y-95521930D01*
X183249020Y-95506856D01*
X183199783Y-95455706D01*
X183185500Y-95397438D01*
X183185500Y-94369685D01*
X183202381Y-94306685D01*
X183224928Y-94267632D01*
X183246734Y-94229863D01*
X183265136Y-94125500D01*
X183246734Y-94021137D01*
X183202381Y-93944315D01*
X183185500Y-93881315D01*
X183185500Y-92346611D01*
X183204800Y-92280882D01*
X183207095Y-92278587D01*
X183257500Y-92179661D01*
X183274869Y-92070000D01*
X183257500Y-91960339D01*
X183207095Y-91861413D01*
X183128587Y-91782905D01*
X183029661Y-91732500D01*
X182920000Y-91715131D01*
X182810339Y-91732500D01*
X182711413Y-91782905D01*
X182632905Y-91861413D01*
X182582500Y-91960339D01*
X182565131Y-92070000D01*
X182582500Y-92179661D01*
X182632905Y-92278587D01*
X182697595Y-92343277D01*
X182731621Y-92405589D01*
X182734500Y-92432372D01*
X182734500Y-93881315D01*
X182717619Y-93944315D01*
X182673266Y-94021137D01*
X182654864Y-94125500D01*
X182673266Y-94229863D01*
X182695072Y-94267632D01*
X182717619Y-94306685D01*
X182734500Y-94369685D01*
X182734500Y-95864405D01*
X182714498Y-95932526D01*
X182697595Y-95953500D01*
X182176850Y-96474245D01*
X182107466Y-96509599D01*
X182093886Y-96511750D01*
X182006954Y-96525519D01*
X181977027Y-96540768D01*
X181919826Y-96554500D01*
X180927468Y-96554500D01*
X180870266Y-96540767D01*
X180803997Y-96507002D01*
X180803996Y-96507002D01*
X180795161Y-96502500D01*
X180685500Y-96485131D01*
X180575839Y-96502500D01*
X180476913Y-96552905D01*
X180398405Y-96631413D01*
X180348000Y-96730339D01*
X180330631Y-96840000D01*
X170560500Y-96840000D01*
X170560500Y-95328138D01*
X171444758Y-95328138D01*
X171462035Y-95484633D01*
X171516143Y-95632490D01*
X171520380Y-95638796D01*
X171520382Y-95638799D01*
X171553329Y-95687829D01*
X171603958Y-95763172D01*
X171720410Y-95869135D01*
X171741528Y-95880601D01*
X171852099Y-95940637D01*
X171852101Y-95940638D01*
X171858776Y-95944262D01*
X171866125Y-95946190D01*
X172003719Y-95982287D01*
X172003721Y-95982287D01*
X172011069Y-95984215D01*
X172094380Y-95985524D01*
X172160898Y-95986569D01*
X172160901Y-95986569D01*
X172168495Y-95986688D01*
X172321968Y-95951538D01*
X172462625Y-95880795D01*
X172488869Y-95858381D01*
X172576574Y-95783474D01*
X172576576Y-95783471D01*
X172582348Y-95778542D01*
X172674224Y-95650683D01*
X172732950Y-95504598D01*
X172748201Y-95397438D01*
X172754553Y-95352807D01*
X172754553Y-95352804D01*
X172755134Y-95348723D01*
X172755278Y-95335000D01*
X172736363Y-95178694D01*
X172712084Y-95114440D01*
X172683394Y-95038514D01*
X172683393Y-95038511D01*
X172680710Y-95031412D01*
X172591531Y-94901657D01*
X172544971Y-94860174D01*
X172479648Y-94801972D01*
X172479645Y-94801970D01*
X172473976Y-94796919D01*
X172334831Y-94723245D01*
X172325177Y-94720820D01*
X172189498Y-94686740D01*
X172189496Y-94686740D01*
X172182128Y-94684889D01*
X172174530Y-94684849D01*
X172174528Y-94684849D01*
X172107319Y-94684497D01*
X172024684Y-94684065D01*
X172017305Y-94685837D01*
X172017301Y-94685837D01*
X171878967Y-94719048D01*
X171878963Y-94719049D01*
X171871588Y-94720820D01*
X171731679Y-94793032D01*
X171725957Y-94798024D01*
X171725955Y-94798025D01*
X171618759Y-94891538D01*
X171618756Y-94891541D01*
X171613034Y-94896533D01*
X171608667Y-94902747D01*
X171541835Y-94997839D01*
X171522501Y-95025348D01*
X171465309Y-95172039D01*
X171464318Y-95179568D01*
X171456018Y-95242614D01*
X171444758Y-95328138D01*
X170560500Y-95328138D01*
X170560500Y-87016000D01*
X170580502Y-86947879D01*
X170634158Y-86901386D01*
X170686500Y-86890000D01*
X183553971Y-86890000D01*
X183622092Y-86910002D01*
G37*
G04 #@! TD.AperFunction*
G04 #@! TD*
M02*
