G04 #@! TF.GenerationSoftware,KiCad,Pcbnew,(6.0.7)*
G04 #@! TF.CreationDate,2022-09-01T19:33:10+03:00*
G04 #@! TF.ProjectId,MCU_M_V3,4d43555f-4d5f-4563-932e-6b696361645f,rev?*
G04 #@! TF.SameCoordinates,Original*
G04 #@! TF.FileFunction,Copper,L3,Inr*
G04 #@! TF.FilePolarity,Positive*
%FSLAX46Y46*%
G04 Gerber Fmt 4.6, Leading zero omitted, Abs format (unit mm)*
G04 Created by KiCad (PCBNEW (6.0.7)) date 2022-09-01 19:33:10*
%MOMM*%
%LPD*%
G01*
G04 APERTURE LIST*
G04 #@! TA.AperFunction,ComponentPad*
%ADD10R,1.000000X1.000000*%
G04 #@! TD*
G04 #@! TA.AperFunction,ComponentPad*
%ADD11C,1.000000*%
G04 #@! TD*
G04 #@! TA.AperFunction,ComponentPad*
%ADD12R,0.800000X1.400000*%
G04 #@! TD*
G04 #@! TA.AperFunction,ViaPad*
%ADD13C,0.300000*%
G04 #@! TD*
G04 #@! TA.AperFunction,ViaPad*
%ADD14C,0.200000*%
G04 #@! TD*
G04 #@! TA.AperFunction,Conductor*
%ADD15C,0.100000*%
G04 #@! TD*
G04 #@! TA.AperFunction,Conductor*
%ADD16C,0.150000*%
G04 #@! TD*
G04 APERTURE END LIST*
D10*
G04 #@! TO.N,GND*
G04 #@! TO.C,J1*
X172100000Y-94065000D03*
D11*
G04 #@! TO.N,/VBAT*
X172100000Y-95335000D03*
G04 #@! TD*
D10*
G04 #@! TO.N,GND*
G04 #@! TO.C,J2*
X172100000Y-97430000D03*
D11*
G04 #@! TO.N,/SW_CLK*
X172100000Y-98700000D03*
G04 #@! TO.N,/SW_IO*
X172100000Y-99970000D03*
G04 #@! TD*
D12*
G04 #@! TO.N,/P0_D3*
G04 #@! TO.C,H2*
X196839116Y-104300000D03*
G04 #@! TO.N,/P0_D2*
X195545088Y-104300000D03*
G04 #@! TO.N,/P0_D1*
X194251059Y-104300000D03*
G04 #@! TO.N,GND*
X192957082Y-104300000D03*
G04 #@! TO.N,/M2_D1*
X191663053Y-104300000D03*
G04 #@! TO.N,/M2_D2*
X190369025Y-104300000D03*
G04 #@! TO.N,/M2_D3*
X189074997Y-104300000D03*
G04 #@! TO.N,/M2_D4*
X187780968Y-104300000D03*
G04 #@! TO.N,/M2_D5*
X186486940Y-104300000D03*
G04 #@! TO.N,GND*
X185192911Y-104300000D03*
G04 #@! TO.N,/B4*
X183898934Y-104300000D03*
G04 #@! TO.N,/B5*
X182604905Y-104300000D03*
G04 #@! TO.N,/B3*
X181310877Y-104300000D03*
G04 #@! TO.N,/B2*
X180017103Y-104300000D03*
G04 #@! TO.N,/B1*
X178723379Y-104300000D03*
G04 #@! TO.N,/M3_D7*
X177429605Y-104300000D03*
G04 #@! TO.N,/M4_D7*
X176135881Y-104300000D03*
G04 #@! TO.N,/M1_D3*
X174842107Y-104300000D03*
G04 #@! TO.N,/M1_D4*
X173548383Y-104300000D03*
G04 #@! TO.N,/M1_D1*
X172254609Y-104300000D03*
G04 #@! TO.N,/M1_D2*
X170960885Y-104300000D03*
G04 #@! TD*
G04 #@! TO.N,/M1_D6*
G04 #@! TO.C,H1*
X170961852Y-85900000D03*
G04 #@! TO.N,/M1_D5*
X172255880Y-85900000D03*
G04 #@! TO.N,/M4_D6*
X173549909Y-85900000D03*
G04 #@! TO.N,/M4_D5*
X174843886Y-85900000D03*
G04 #@! TO.N,/M3_D2*
X176137915Y-85900000D03*
G04 #@! TO.N,/M3_D1*
X177431943Y-85900000D03*
G04 #@! TO.N,unconnected-(H1-Pad15)*
X178725971Y-85900000D03*
G04 #@! TO.N,GND*
X180020000Y-85900000D03*
G04 #@! TO.N,/M1_D7*
X181314028Y-85900000D03*
G04 #@! TO.N,/M4_D2*
X182608057Y-85900000D03*
G04 #@! TO.N,/M4_D1*
X183902034Y-85900000D03*
G04 #@! TO.N,/M4_D4*
X185196063Y-85900000D03*
G04 #@! TO.N,/M4_D3*
X186490091Y-85900000D03*
G04 #@! TO.N,GND*
X187783865Y-85900000D03*
G04 #@! TO.N,/M2_D10*
X189077589Y-85900000D03*
G04 #@! TO.N,/M2_D9*
X190371363Y-85900000D03*
G04 #@! TO.N,/M2_D8*
X191665087Y-85900000D03*
G04 #@! TO.N,/M2_D7*
X192958861Y-85900000D03*
G04 #@! TO.N,/M2_D6*
X194252585Y-85900000D03*
G04 #@! TO.N,/VCC3*
X195546359Y-85900000D03*
G04 #@! TO.N,/+3.3*
X196840083Y-85900000D03*
G04 #@! TD*
D13*
G04 #@! TO.N,GND*
X193810000Y-91950000D03*
X189350000Y-91170000D03*
X189650000Y-91170000D03*
D14*
G04 #@! TO.N,/+3.3*
X187480000Y-94070000D03*
X185700000Y-94700000D03*
G04 #@! TO.N,GND*
X185290000Y-94290000D03*
X186100000Y-92370000D03*
X184510000Y-93500000D03*
D13*
X177650000Y-96110000D03*
X177670000Y-92370000D03*
D14*
G04 #@! TO.N,/M4_D2*
X182260000Y-90170000D03*
G04 #@! TO.N,/M1_D7*
X181870000Y-89470000D03*
G04 #@! TO.N,/M4_D1*
X182540000Y-90540000D03*
D13*
G04 #@! TO.N,GND*
X193500000Y-91950000D03*
X189350000Y-91450000D03*
D14*
G04 #@! TO.N,/MCU_RESET*
X179720000Y-91980000D03*
X182064500Y-92110000D03*
X172220000Y-92150000D03*
X184963997Y-92463997D03*
X185690000Y-93510000D03*
G04 #@! TO.N,GND*
X186900000Y-94300000D03*
X186100000Y-93100000D03*
G04 #@! TO.N,/MCU_BOOT0*
X180260000Y-89360000D03*
G04 #@! TO.N,/M3_D1*
X182300000Y-91805500D03*
G04 #@! TO.N,/M3_D2*
X181740000Y-92760000D03*
G04 #@! TO.N,/M4_D6*
X181420000Y-92930000D03*
G04 #@! TO.N,/M1_D6*
X181470000Y-95190000D03*
G04 #@! TO.N,/MCU_BOOT0*
X183300000Y-94700000D03*
G04 #@! TO.N,/M1_D7*
X185700000Y-96300000D03*
G04 #@! TO.N,/M1_D5*
X185700000Y-95100000D03*
G04 #@! TO.N,/M1_D6*
X186100000Y-95500000D03*
G04 #@! TO.N,/M3_D2*
X184100000Y-95500000D03*
G04 #@! TO.N,/M3_D1*
X184500000Y-95100000D03*
G04 #@! TO.N,/M4_D2*
X184500000Y-96300000D03*
G04 #@! TO.N,/M4_D1*
X184500000Y-96700000D03*
G04 #@! TO.N,/M4_D6*
X184920500Y-96716288D03*
G04 #@! TO.N,/M2_D8*
X191000000Y-91500000D03*
X189600000Y-97570000D03*
G04 #@! TO.N,/M2_D1*
X189350000Y-97920000D03*
X185300000Y-93900000D03*
G04 #@! TO.N,/M2_D2*
X189020000Y-98280000D03*
G04 #@! TO.N,/SW_IO*
X184489500Y-95900000D03*
G04 #@! TO.N,/PD2*
X173900000Y-99200000D03*
X183700000Y-95900000D03*
G04 #@! TO.N,/PA12*
X174700000Y-99200000D03*
X184100000Y-96300000D03*
G04 #@! TO.N,/PC12*
X175600000Y-100100000D03*
X183300000Y-96300000D03*
G04 #@! TO.N,/PA11*
X176420000Y-100120000D03*
G04 #@! TO.N,/M2_D6*
X186490000Y-96310000D03*
G04 #@! TO.N,/M2_D7*
X191200000Y-95539500D03*
G04 #@! TO.N,/M2_D8*
X185710000Y-95910000D03*
G04 #@! TO.N,/M2_D9*
X186090500Y-96700000D03*
G04 #@! TO.N,/M2_D10*
X186100000Y-96300000D03*
G04 #@! TO.N,/M1_D4*
X186100000Y-94300000D03*
G04 #@! TO.N,/M1_D3*
X185690000Y-95510000D03*
G04 #@! TO.N,/PA11*
X184100000Y-97100000D03*
G04 #@! TO.N,/ULPI_NXT*
X192910000Y-94110000D03*
X184890000Y-93500000D03*
G04 #@! TO.N,/ULPI_CLK*
X186090000Y-93910000D03*
X189450000Y-94810000D03*
G04 #@! TO.N,/ULPI_D0*
X186490000Y-93890000D03*
X188300000Y-96000000D03*
G04 #@! TD*
D15*
G04 #@! TO.N,/ULPI_NXT*
X186978201Y-92910000D02*
X185480000Y-92910000D01*
X187180000Y-93111799D02*
X186978201Y-92910000D01*
X187180000Y-93300000D02*
X187180000Y-93111799D01*
X185480000Y-92910000D02*
X184890000Y-93500000D01*
D16*
G04 #@! TO.N,/PA11*
X176820000Y-99720000D02*
X176420000Y-100120000D01*
X180590000Y-99720000D02*
X176820000Y-99720000D01*
X183870000Y-97330000D02*
X182980000Y-97330000D01*
X182980000Y-97330000D02*
X180590000Y-99720000D01*
X184100000Y-97100000D02*
X183870000Y-97330000D01*
G04 #@! TO.N,/SW_IO*
X181130000Y-100470000D02*
X184300000Y-97300000D01*
X172600000Y-100470000D02*
X181130000Y-100470000D01*
X172100000Y-99970000D02*
X172600000Y-100470000D01*
X172430000Y-100300000D02*
X172100000Y-99970000D01*
G04 #@! TO.N,/M2_D7*
X192958861Y-87098861D02*
X192958861Y-85675000D01*
X195330000Y-94620000D02*
X195330000Y-89470000D01*
X194610000Y-95340000D02*
X195330000Y-94620000D01*
X195330000Y-89470000D02*
X192958861Y-87098861D01*
X191399500Y-95340000D02*
X194610000Y-95340000D01*
X191200000Y-95539500D02*
X191399500Y-95340000D01*
G04 #@! TO.N,/M2_D6*
X195710000Y-94730000D02*
X195710000Y-88540000D01*
X195710000Y-88540000D02*
X194252585Y-87082585D01*
X194610000Y-95830000D02*
X195710000Y-94730000D01*
X189940000Y-97230000D02*
X191340000Y-95830000D01*
X187830000Y-97230000D02*
X189940000Y-97230000D01*
X187100000Y-96500000D02*
X187830000Y-97230000D01*
X191340000Y-95830000D02*
X194610000Y-95830000D01*
X194252585Y-87082585D02*
X194252585Y-85675000D01*
G04 #@! TO.N,/M2_D9*
X189270000Y-96960000D02*
X187950000Y-96960000D01*
X191390000Y-94840000D02*
X189270000Y-96960000D01*
X194980000Y-94460000D02*
X194600000Y-94840000D01*
X194980000Y-91560000D02*
X194980000Y-94460000D01*
X187950000Y-96960000D02*
X187150000Y-96160000D01*
X190500000Y-87080000D02*
X194980000Y-91560000D01*
X190500000Y-85728637D02*
X190500000Y-87080000D01*
X194600000Y-94840000D02*
X191390000Y-94840000D01*
G04 #@! TO.N,/M2_D10*
X187980000Y-96640000D02*
X187090000Y-95750000D01*
X194170000Y-94330000D02*
X191400000Y-94330000D01*
X191400000Y-94330000D02*
X189090000Y-96640000D01*
X194610000Y-93890000D02*
X194170000Y-94330000D01*
X189000000Y-86740000D02*
X194610000Y-92350000D01*
X194610000Y-92350000D02*
X194610000Y-93890000D01*
X189000000Y-85677589D02*
X189000000Y-86740000D01*
X189090000Y-96640000D02*
X187980000Y-96640000D01*
G04 #@! TO.N,/M4_D2*
X182608057Y-87101943D02*
X182608057Y-85675000D01*
X182260000Y-87450000D02*
X182608057Y-87101943D01*
X182260000Y-90170000D02*
X182260000Y-87450000D01*
G04 #@! TO.N,/M4_D6*
X173549909Y-87009909D02*
X173549909Y-85675000D01*
X177540000Y-88200000D02*
X174740000Y-88200000D01*
X181420400Y-92080400D02*
X177540000Y-88200000D01*
X174740000Y-88200000D02*
X173549909Y-87009909D01*
X181420400Y-92929600D02*
X181420400Y-92080400D01*
X181420000Y-92930000D02*
X181420400Y-92929600D01*
G04 #@! TO.N,/M1_D6*
X170961852Y-87001852D02*
X170961852Y-85675000D01*
X175210000Y-91250000D02*
X170961852Y-87001852D01*
X180630000Y-92440000D02*
X179440000Y-91250000D01*
X180630000Y-94350000D02*
X180630000Y-92440000D01*
X181470000Y-95190000D02*
X180630000Y-94350000D01*
X179440000Y-91250000D02*
X175210000Y-91250000D01*
G04 #@! TO.N,/M1_D5*
X172255880Y-86955880D02*
X172255880Y-85675000D01*
X176170000Y-90870000D02*
X172255880Y-86955880D01*
X181030000Y-93240000D02*
X181030000Y-92210000D01*
X179690000Y-90870000D02*
X176170000Y-90870000D01*
X182290000Y-94500000D02*
X181030000Y-93240000D01*
X181030000Y-92210000D02*
X179690000Y-90870000D01*
X182990000Y-94500000D02*
X182290000Y-94500000D01*
G04 #@! TO.N,/PA12*
X175010000Y-98900000D02*
X174710000Y-99200000D01*
X178030000Y-98900000D02*
X175010000Y-98900000D01*
X180830000Y-96100000D02*
X178030000Y-98900000D01*
X182900000Y-96100000D02*
X180830000Y-96100000D01*
G04 #@! TO.N,/PD2*
X180550000Y-95700000D02*
X177850000Y-98400000D01*
X182990000Y-95700000D02*
X180550000Y-95700000D01*
X177850000Y-98400000D02*
X174700000Y-98400000D01*
X174700000Y-98400000D02*
X173900000Y-99200000D01*
G04 #@! TO.N,/M3_D2*
X176790000Y-87740000D02*
X176137915Y-87087915D01*
X177660000Y-87740000D02*
X176790000Y-87740000D01*
X181740000Y-92760000D02*
X181740000Y-91820000D01*
X181740000Y-91820000D02*
X177660000Y-87740000D01*
X176137915Y-87087915D02*
X176137915Y-85675000D01*
G04 #@! TO.N,/MCU_RESET*
X172390000Y-91970000D02*
X172220000Y-92140000D01*
X179710000Y-91970000D02*
X172390000Y-91970000D01*
X179720000Y-91980000D02*
X179710000Y-91970000D01*
D15*
G04 #@! TO.N,/M2_D10*
X186080000Y-96300000D02*
X186100000Y-96300000D01*
X185920000Y-96140000D02*
X186080000Y-96300000D01*
X185920000Y-95760000D02*
X185920000Y-96130000D01*
X185980000Y-95700000D02*
X185920000Y-95760000D01*
X187040000Y-95700000D02*
X185980000Y-95700000D01*
X187120000Y-95780000D02*
X187040000Y-95700000D01*
D16*
G04 #@! TO.N,/ULPI_NXT*
X192100000Y-93300000D02*
X192910000Y-94110000D01*
X187180000Y-93300000D02*
X192100000Y-93300000D01*
G04 #@! TO.N,/M2_D8*
X185740000Y-97580000D02*
X189590000Y-97580000D01*
X185500000Y-97340000D02*
X185740000Y-97580000D01*
X189590000Y-97580000D02*
X189600000Y-97570000D01*
D15*
G04 #@! TO.N,/M1_D4*
X185900000Y-94500000D02*
X186100000Y-94300000D01*
X185840000Y-95300000D02*
X185900000Y-95240000D01*
X185900000Y-95240000D02*
X185900000Y-94500000D01*
X184700000Y-97740000D02*
X184700000Y-96100000D01*
X184700000Y-96100000D02*
X185500000Y-95300000D01*
X185500000Y-95300000D02*
X185840000Y-95300000D01*
G04 #@! TO.N,/M1_D3*
X185120000Y-96080000D02*
X185120000Y-97320000D01*
X185690000Y-95510000D02*
X185120000Y-96080000D01*
D16*
X185110000Y-97330000D02*
X185110000Y-97820000D01*
D15*
G04 #@! TO.N,/M2_D8*
X185500000Y-96120000D02*
X185710000Y-95910000D01*
X185500000Y-97340000D02*
X185500000Y-96120000D01*
G04 #@! TO.N,/M2_D9*
X186300000Y-96490500D02*
X186090500Y-96700000D01*
X187080000Y-96100000D02*
X186370000Y-96100000D01*
X186370000Y-96100000D02*
X186300000Y-96170000D01*
X187160000Y-96180000D02*
X187080000Y-96100000D01*
X186300000Y-96170000D02*
X186300000Y-96490500D01*
G04 #@! TO.N,/ULPI_D0*
X186690000Y-94090000D02*
X186490000Y-93890000D01*
X186690000Y-94430000D02*
X186690000Y-94090000D01*
X186770000Y-94510000D02*
X186690000Y-94430000D01*
X187200000Y-94510000D02*
X186770000Y-94510000D01*
D16*
X187200000Y-94510000D02*
X187260000Y-94510000D01*
X188300000Y-95550000D02*
X188300000Y-96000000D01*
X187260000Y-94510000D02*
X188300000Y-95550000D01*
D15*
G04 #@! TO.N,/ULPI_CLK*
X186310000Y-93690000D02*
X187190000Y-93690000D01*
D16*
X188330000Y-93690000D02*
X189450000Y-94810000D01*
X187190000Y-93690000D02*
X188330000Y-93690000D01*
D15*
X186090000Y-93910000D02*
X186310000Y-93690000D01*
G04 #@! TO.N,/PD2*
X183500000Y-95700000D02*
X182990000Y-95700000D01*
X183700000Y-95900000D02*
X183500000Y-95700000D01*
G04 #@! TO.N,/M1_D5*
X185100000Y-94500000D02*
X182990000Y-94500000D01*
X185700000Y-95100000D02*
X185100000Y-94500000D01*
G04 #@! TO.N,/PA12*
X182910000Y-96110000D02*
X182900000Y-96100000D01*
X183910000Y-96110000D02*
X182910000Y-96110000D01*
X174710000Y-99200000D02*
X174700000Y-99200000D01*
X184100000Y-96300000D02*
X183910000Y-96110000D01*
G04 #@! TO.N,/M2_D6*
X186680000Y-96500000D02*
X187100000Y-96500000D01*
X186490000Y-96310000D02*
X186680000Y-96500000D01*
G04 #@! TO.N,/MCU_RESET*
X172220000Y-92140000D02*
X172220000Y-92150000D01*
D16*
X182543997Y-92463997D02*
X184963997Y-92463997D01*
X182190000Y-92110000D02*
X182543997Y-92463997D01*
X182064500Y-92110000D02*
X182190000Y-92110000D01*
G04 #@! TO.N,/M4_D1*
X182540000Y-88630000D02*
X183902034Y-87267966D01*
X183902034Y-87267966D02*
X183902034Y-85650000D01*
X182540000Y-90540000D02*
X182540000Y-88630000D01*
G04 #@! TO.N,/M1_D7*
X181310000Y-88910000D02*
X181310000Y-85650000D01*
X181870000Y-89470000D02*
X181310000Y-88910000D01*
G04 #@! TO.N,/M3_D1*
X182300000Y-91805500D02*
X182300000Y-91800000D01*
X182300000Y-91800000D02*
X177431943Y-86931943D01*
G04 #@! TO.N,/M1_D3*
X174830000Y-103180000D02*
X174830000Y-104550000D01*
D15*
X174830000Y-104550000D02*
X174842107Y-104550000D01*
D16*
G04 #@! TO.N,/M1_D4*
X173550000Y-103010000D02*
X173550000Y-104550000D01*
X174290000Y-102270000D02*
X173550000Y-103010000D01*
D15*
X173550000Y-104550000D02*
X173548383Y-104550000D01*
D16*
X184700000Y-97740000D02*
X180170000Y-102270000D01*
X180170000Y-102270000D02*
X174290000Y-102270000D01*
D15*
G04 #@! TO.N,/M2_D7*
X192960000Y-85651139D02*
X192958861Y-85650000D01*
G04 #@! TO.N,/M2_D10*
X189027589Y-85650000D02*
X189077589Y-85650000D01*
X189000000Y-85677589D02*
X189027589Y-85650000D01*
G04 #@! TO.N,/M2_D9*
X190421363Y-85650000D02*
X190371363Y-85650000D01*
X190500000Y-85728637D02*
X190421363Y-85650000D01*
G04 #@! TO.N,/M2_D6*
X194270000Y-85650000D02*
X194252585Y-85650000D01*
D16*
G04 #@! TO.N,/M3_D1*
X177431943Y-86931943D02*
X177431943Y-85675000D01*
D15*
G04 #@! TO.N,/SW_IO*
X184300000Y-96089500D02*
X184300000Y-97300000D01*
X184489500Y-95900000D02*
X184300000Y-96089500D01*
D16*
G04 #@! TO.N,/M1_D3*
X185110000Y-97820000D02*
X180270000Y-102660000D01*
X180270000Y-102660000D02*
X175350000Y-102660000D01*
X175350000Y-102660000D02*
X174830000Y-103180000D01*
G04 #@! TO.N,/PC12*
X176400000Y-99300000D02*
X175600000Y-100100000D01*
X180300000Y-99300000D02*
X176400000Y-99300000D01*
X183300000Y-96300000D02*
X180300000Y-99300000D01*
D15*
G04 #@! TO.N,/PA11*
X176420000Y-100120000D02*
X176410000Y-100130000D01*
G04 #@! TD*
M02*
