M48
; DRILL file {KiCad (6.0.7)} date Thu Sep  1 19:33:16 2022
; FORMAT={-:-/ absolute / inch / decimal}
; #@! TF.CreationDate,2022-09-01T19:33:16+03:00
; #@! TF.GenerationSoftware,Kicad,Pcbnew,(6.0.7)
; #@! TF.FileFunction,Plated,1,4,PTH
FMAT,2
INCH
; #@! TA.AperFunction,Plated,PTH,ViaDrill
T1C0.0039
; #@! TA.AperFunction,Plated,PTH,ViaDrill
T2C0.0059
; #@! TA.AperFunction,Plated,PTH,ComponentDrill
T3C0.0236
; #@! TA.AperFunction,Plated,PTH,ComponentDrill
T4C0.0276
%
G90
G05
T1
X7.0969Y-3.5181
X7.2165Y-3.7283
X7.248Y-3.7598
X7.2638Y-3.7441
X7.2638Y-3.7913
X7.2638Y-3.8071
X7.2642Y-3.6811
X7.2803Y-3.8077
X7.2949Y-3.7122
X7.2953Y-3.6969
X7.3106Y-3.6815
X7.311Y-3.7283
X7.311Y-3.7913
X7.3268Y-3.6366
X7.3268Y-3.6654
X7.3268Y-3.7598
X7.3579Y-3.665
X7.3583Y-3.7126
X7.3811Y-3.7035
X7.4417Y-3.8693
X7.4547Y-3.8551
X7.5197Y-3.6024
T2
X6.9941Y-3.7839
X6.9949Y-3.6366
X7.4547Y-3.5894
X7.4547Y-3.6004
X7.4665Y-3.5894
X7.6181Y-3.6201
X7.6303Y-3.6201
T3
X6.7756Y-3.7033
X6.7756Y-3.7533
X6.7756Y-3.8358
X6.7756Y-3.8858
X6.7756Y-3.9358
T4
X6.7307Y-4.1181
X6.7308Y-3.3701
X6.7817Y-4.1181
X6.7817Y-3.3701
X6.8326Y-4.1181
X6.8327Y-3.3701
X6.8835Y-4.1181
X6.8836Y-3.3701
X6.9345Y-4.1181
X6.9346Y-3.3701
X6.9854Y-4.1181
X6.9855Y-3.3701
X7.0364Y-4.1181
X7.0365Y-3.3701
X7.0873Y-4.1181
X7.0874Y-3.3701
X7.1382Y-4.1181
X7.1383Y-3.3701
X7.1892Y-4.1181
X7.1893Y-3.3701
X7.2401Y-4.1181
X7.2402Y-3.3701
X7.2911Y-4.1181
X7.2912Y-3.3701
X7.342Y-4.1181
X7.3421Y-3.3701
X7.393Y-4.1181
X7.3931Y-3.3701
X7.4439Y-4.1181
X7.444Y-3.3701
X7.4948Y-4.1181
X7.4949Y-3.3701
X7.5458Y-4.1181
X7.5459Y-3.3701
X7.5967Y-4.1181
X7.5968Y-3.3701
X7.6477Y-4.1181
X7.6477Y-3.3701
X7.6986Y-4.1181
X7.6987Y-3.3701
X7.7496Y-4.1181
X7.7496Y-3.3701
T0
M30
