G04 #@! TF.GenerationSoftware,KiCad,Pcbnew,(6.0.7)*
G04 #@! TF.CreationDate,2022-09-12T14:42:07+03:00*
G04 #@! TF.ProjectId,MCU_M_V3,4d43555f-4d5f-4563-932e-6b696361645f,rev?*
G04 #@! TF.SameCoordinates,Original*
G04 #@! TF.FileFunction,Paste,Top*
G04 #@! TF.FilePolarity,Positive*
%FSLAX46Y46*%
G04 Gerber Fmt 4.6, Leading zero omitted, Abs format (unit mm)*
G04 Created by KiCad (PCBNEW (6.0.7)) date 2022-09-12 14:42:07*
%MOMM*%
%LPD*%
G01*
G04 APERTURE LIST*
G04 Aperture macros list*
%AMRoundRect*
0 Rectangle with rounded corners*
0 $1 Rounding radius*
0 $2 $3 $4 $5 $6 $7 $8 $9 X,Y pos of 4 corners*
0 Add a 4 corners polygon primitive as box body*
4,1,4,$2,$3,$4,$5,$6,$7,$8,$9,$2,$3,0*
0 Add four circle primitives for the rounded corners*
1,1,$1+$1,$2,$3*
1,1,$1+$1,$4,$5*
1,1,$1+$1,$6,$7*
1,1,$1+$1,$8,$9*
0 Add four rect primitives between the rounded corners*
20,1,$1+$1,$2,$3,$4,$5,0*
20,1,$1+$1,$4,$5,$6,$7,0*
20,1,$1+$1,$6,$7,$8,$9,0*
20,1,$1+$1,$8,$9,$2,$3,0*%
G04 Aperture macros list end*
%ADD10R,0.620000X0.620000*%
%ADD11R,0.620000X0.600000*%
%ADD12R,0.650000X0.900000*%
%ADD13C,0.220000*%
%ADD14R,0.950000X0.900000*%
%ADD15R,0.475000X0.500000*%
%ADD16C,0.250000*%
%ADD17R,0.600000X0.700000*%
%ADD18R,1.000000X1.000000*%
%ADD19R,0.700000X0.600000*%
%ADD20R,0.900000X0.950000*%
%ADD21R,0.600000X0.620000*%
%ADD22R,1.400000X1.200000*%
%ADD23R,1.900000X1.100000*%
%ADD24R,1.300000X0.600000*%
%ADD25RoundRect,0.150000X-0.587500X-0.150000X0.587500X-0.150000X0.587500X0.150000X-0.587500X0.150000X0*%
%ADD26R,0.780000X0.980000*%
G04 APERTURE END LIST*
D10*
G04 #@! TO.C,C102*
X184560000Y-98610000D03*
X185480000Y-98610000D03*
G04 #@! TD*
D11*
G04 #@! TO.C,C15*
X178500000Y-95590000D03*
X178500000Y-94670000D03*
G04 #@! TD*
D12*
G04 #@! TO.C,R11*
X180015000Y-97330000D03*
X178565000Y-97330000D03*
G04 #@! TD*
D13*
G04 #@! TO.C,U1*
X183500000Y-96900000D03*
X183500000Y-96500000D03*
X183500000Y-96100000D03*
X183500000Y-95700000D03*
X183500000Y-95300000D03*
X183500000Y-94900000D03*
X183500000Y-94500000D03*
X183500000Y-94100000D03*
X183500000Y-93700000D03*
X183500000Y-93300000D03*
X183900000Y-96900000D03*
X183900000Y-96500000D03*
X183900000Y-96100000D03*
X183900000Y-95700000D03*
X183900000Y-95300000D03*
X183900000Y-94900000D03*
X183900000Y-94500000D03*
X183900000Y-94100000D03*
X183900000Y-93700000D03*
X183900000Y-93300000D03*
X184300000Y-96900000D03*
X184300000Y-96500000D03*
X184300000Y-96100000D03*
X184300000Y-95700000D03*
X184300000Y-95300000D03*
X184300000Y-94900000D03*
X184300000Y-94500000D03*
X184300000Y-94100000D03*
X184300000Y-93700000D03*
X184300000Y-93300000D03*
X184700000Y-96900000D03*
X184700000Y-96500000D03*
X184700000Y-96100000D03*
X184700000Y-95700000D03*
X184700000Y-95300000D03*
X184700000Y-94900000D03*
X184700000Y-94500000D03*
X184700000Y-94100000D03*
X184700000Y-93700000D03*
X184700000Y-93300000D03*
X185100000Y-96900000D03*
X185100000Y-96500000D03*
X185100000Y-96100000D03*
X185100000Y-95700000D03*
X185100000Y-95300000D03*
X185100000Y-94900000D03*
X185100000Y-94500000D03*
X185100000Y-94100000D03*
X185100000Y-93700000D03*
X185100000Y-93300000D03*
X185500000Y-96900000D03*
X185500000Y-96500000D03*
X185500000Y-96100000D03*
X185500000Y-95700000D03*
X185500000Y-95300000D03*
X185500000Y-94900000D03*
X185500000Y-94500000D03*
X185500000Y-94100000D03*
X185500000Y-93700000D03*
X185500000Y-93300000D03*
X185900000Y-96900000D03*
X185900000Y-96500000D03*
X185900000Y-96100000D03*
X185900000Y-95700000D03*
X185900000Y-95300000D03*
X185900000Y-94900000D03*
X185900000Y-94500000D03*
X185900000Y-94100000D03*
X185900000Y-93700000D03*
X185900000Y-93300000D03*
X186300000Y-96900000D03*
X186300000Y-96500000D03*
X186300000Y-96100000D03*
X186300000Y-95700000D03*
X186300000Y-95300000D03*
X186300000Y-94900000D03*
X186300000Y-94500000D03*
X186300000Y-94100000D03*
X186300000Y-93700000D03*
X186300000Y-93300000D03*
X186700000Y-96900000D03*
X186700000Y-96500000D03*
X186700000Y-96100000D03*
X186700000Y-95700000D03*
X186700000Y-95300000D03*
X186700000Y-94900000D03*
X186700000Y-94500000D03*
X186700000Y-94100000D03*
X186700000Y-93700000D03*
X186700000Y-93300000D03*
G04 #@! TD*
D14*
G04 #@! TO.C,R3*
X175300000Y-89450000D03*
X175300000Y-87950000D03*
G04 #@! TD*
D15*
G04 #@! TO.C,R23*
X192028000Y-98260000D03*
X193052000Y-98260000D03*
G04 #@! TD*
D16*
G04 #@! TO.C,U2*
X191650000Y-96350000D03*
X191650000Y-95850000D03*
X191650000Y-95350000D03*
X191650000Y-94850000D03*
X191650000Y-94350000D03*
X191650000Y-93850000D03*
X192150000Y-96350000D03*
X192150000Y-95850000D03*
X192150000Y-95350000D03*
X192150000Y-94850000D03*
X192150000Y-94350000D03*
X192150000Y-93850000D03*
X192650000Y-96350000D03*
X192650000Y-95850000D03*
X192650000Y-95350000D03*
X192650000Y-94850000D03*
X192650000Y-94350000D03*
X192650000Y-93850000D03*
X193150000Y-96350000D03*
X193150000Y-95850000D03*
X193150000Y-95350000D03*
X193150000Y-94850000D03*
X193150000Y-94350000D03*
X193150000Y-93850000D03*
X193650000Y-96350000D03*
X193650000Y-95850000D03*
X193650000Y-95350000D03*
X193650000Y-94850000D03*
X193650000Y-94350000D03*
X193650000Y-93850000D03*
X194150000Y-96350000D03*
X194150000Y-95850000D03*
X194150000Y-95350000D03*
X194150000Y-94850000D03*
X194150000Y-94350000D03*
X194150000Y-93850000D03*
G04 #@! TD*
D11*
G04 #@! TO.C,C12*
X183200000Y-89530000D03*
X183200000Y-90450000D03*
G04 #@! TD*
D17*
G04 #@! TO.C,R21*
X174060000Y-101110000D03*
X174060000Y-100010000D03*
G04 #@! TD*
D18*
G04 #@! TO.C,J1*
X172100000Y-94065000D03*
X172100000Y-95335000D03*
G04 #@! TD*
D17*
G04 #@! TO.C,R27*
X174820000Y-101110000D03*
X174820000Y-100010000D03*
G04 #@! TD*
D19*
G04 #@! TO.C,R24*
X194880000Y-98210000D03*
X193780000Y-98210000D03*
G04 #@! TD*
D11*
G04 #@! TO.C,C14*
X178500000Y-93520000D03*
X178500000Y-92600000D03*
G04 #@! TD*
D20*
G04 #@! TO.C,R2*
X171290000Y-91190000D03*
X172790000Y-91190000D03*
G04 #@! TD*
D11*
G04 #@! TO.C,C21*
X196050000Y-93620000D03*
X196050000Y-94540000D03*
G04 #@! TD*
D21*
G04 #@! TO.C,C23*
X192070000Y-91140000D03*
X192990000Y-91140000D03*
G04 #@! TD*
D12*
G04 #@! TO.C,R12*
X180485000Y-98490000D03*
X179035000Y-98490000D03*
G04 #@! TD*
D19*
G04 #@! TO.C,R25*
X177250000Y-101070000D03*
X178350000Y-101070000D03*
G04 #@! TD*
D14*
G04 #@! TO.C,R1*
X176600000Y-89450000D03*
X176600000Y-87950000D03*
G04 #@! TD*
D11*
G04 #@! TO.C,C13*
X188010000Y-89530000D03*
X188010000Y-90450000D03*
G04 #@! TD*
D22*
G04 #@! TO.C,Y11*
X184500000Y-90890000D03*
X186700000Y-90890000D03*
X186700000Y-89290000D03*
X184500000Y-89290000D03*
G04 #@! TD*
D10*
G04 #@! TO.C,C103*
X193000000Y-91950000D03*
X192080000Y-91950000D03*
G04 #@! TD*
D19*
G04 #@! TO.C,R26*
X177250000Y-101800000D03*
X178350000Y-101800000D03*
G04 #@! TD*
D11*
G04 #@! TO.C,C104*
X181730000Y-91090000D03*
X181730000Y-92010000D03*
G04 #@! TD*
G04 #@! TO.C,C24*
X188460000Y-92510000D03*
X188460000Y-91590000D03*
G04 #@! TD*
G04 #@! TO.C,C22*
X196050000Y-95650000D03*
X196050000Y-96570000D03*
G04 #@! TD*
D17*
G04 #@! TO.C,R28*
X176370000Y-101750000D03*
X176370000Y-100650000D03*
G04 #@! TD*
D23*
G04 #@! TO.C,Y12*
X180100000Y-92850000D03*
X180100000Y-95350000D03*
G04 #@! TD*
D24*
G04 #@! TO.C,Q1*
X173550000Y-89650000D03*
X173550000Y-87750000D03*
X171450000Y-88700000D03*
G04 #@! TD*
D25*
G04 #@! TO.C,D1*
X178262500Y-87950000D03*
X178262500Y-89850000D03*
X180137500Y-88900000D03*
G04 #@! TD*
D18*
G04 #@! TO.C,J2*
X172100000Y-97430000D03*
X172100000Y-98700000D03*
X172100000Y-99970000D03*
G04 #@! TD*
D20*
G04 #@! TO.C,R4*
X176550000Y-91200000D03*
X178050000Y-91200000D03*
G04 #@! TD*
D26*
G04 #@! TO.C,C1*
X174000000Y-91200000D03*
X175400000Y-91200000D03*
G04 #@! TD*
D21*
G04 #@! TO.C,C11*
X183030000Y-98590000D03*
X182110000Y-98590000D03*
G04 #@! TD*
D17*
G04 #@! TO.C,R22*
X175600000Y-101750000D03*
X175600000Y-100650000D03*
G04 #@! TD*
M02*
