G04 #@! TF.GenerationSoftware,KiCad,Pcbnew,(6.0.7)*
G04 #@! TF.CreationDate,2022-08-30T02:04:22+03:00*
G04 #@! TF.ProjectId,MCU_M_V3,4d43555f-4d5f-4563-932e-6b696361645f,rev?*
G04 #@! TF.SameCoordinates,Original*
G04 #@! TF.FileFunction,Soldermask,Bot*
G04 #@! TF.FilePolarity,Negative*
%FSLAX46Y46*%
G04 Gerber Fmt 4.6, Leading zero omitted, Abs format (unit mm)*
G04 Created by KiCad (PCBNEW (6.0.7)) date 2022-08-30 02:04:22*
%MOMM*%
%LPD*%
G01*
G04 APERTURE LIST*
%ADD10R,1.000000X1.000000*%
%ADD11C,1.000000*%
%ADD12R,0.800000X1.400000*%
G04 APERTURE END LIST*
D10*
G04 #@! TO.C,J1*
X172100000Y-94065000D03*
D11*
X172100000Y-95335000D03*
G04 #@! TD*
D10*
G04 #@! TO.C,J2*
X172100000Y-97430000D03*
D11*
X172100000Y-98700000D03*
X172100000Y-99970000D03*
G04 #@! TD*
D12*
G04 #@! TO.C,H2*
X170960885Y-104300000D03*
X172254609Y-104300000D03*
X173548383Y-104300000D03*
X174842107Y-104300000D03*
X176135881Y-104300000D03*
X177429605Y-104300000D03*
X178723379Y-104300000D03*
X180017103Y-104300000D03*
X181310877Y-104300000D03*
X182604905Y-104300000D03*
X183898934Y-104300000D03*
X185192911Y-104300000D03*
X186486940Y-104300000D03*
X187780968Y-104300000D03*
X189074997Y-104300000D03*
X190369025Y-104300000D03*
X191663053Y-104300000D03*
X192957082Y-104300000D03*
X194251059Y-104300000D03*
X195545088Y-104300000D03*
X196839116Y-104300000D03*
G04 #@! TD*
G04 #@! TO.C,H1*
X196840083Y-85900000D03*
X195546359Y-85900000D03*
X194252585Y-85900000D03*
X192958861Y-85900000D03*
X191665087Y-85900000D03*
X190371363Y-85900000D03*
X189077589Y-85900000D03*
X187783865Y-85900000D03*
X186490091Y-85900000D03*
X185196063Y-85900000D03*
X183902034Y-85900000D03*
X182608057Y-85900000D03*
X181314028Y-85900000D03*
X180020000Y-85900000D03*
X178725971Y-85900000D03*
X177431943Y-85900000D03*
X176137915Y-85900000D03*
X174843886Y-85900000D03*
X173549909Y-85900000D03*
X172255880Y-85900000D03*
X170961852Y-85900000D03*
G04 #@! TD*
M02*
