G04 #@! TF.GenerationSoftware,KiCad,Pcbnew,(6.0.7)*
G04 #@! TF.CreationDate,2022-09-12T14:42:07+03:00*
G04 #@! TF.ProjectId,MCU_M_V3,4d43555f-4d5f-4563-932e-6b696361645f,rev?*
G04 #@! TF.SameCoordinates,Original*
G04 #@! TF.FileFunction,Copper,L1,Top*
G04 #@! TF.FilePolarity,Positive*
%FSLAX46Y46*%
G04 Gerber Fmt 4.6, Leading zero omitted, Abs format (unit mm)*
G04 Created by KiCad (PCBNEW (6.0.7)) date 2022-09-12 14:42:07*
%MOMM*%
%LPD*%
G01*
G04 APERTURE LIST*
G04 Aperture macros list*
%AMRoundRect*
0 Rectangle with rounded corners*
0 $1 Rounding radius*
0 $2 $3 $4 $5 $6 $7 $8 $9 X,Y pos of 4 corners*
0 Add a 4 corners polygon primitive as box body*
4,1,4,$2,$3,$4,$5,$6,$7,$8,$9,$2,$3,0*
0 Add four circle primitives for the rounded corners*
1,1,$1+$1,$2,$3*
1,1,$1+$1,$4,$5*
1,1,$1+$1,$6,$7*
1,1,$1+$1,$8,$9*
0 Add four rect primitives between the rounded corners*
20,1,$1+$1,$2,$3,$4,$5,0*
20,1,$1+$1,$4,$5,$6,$7,0*
20,1,$1+$1,$6,$7,$8,$9,0*
20,1,$1+$1,$8,$9,$2,$3,0*%
G04 Aperture macros list end*
G04 #@! TA.AperFunction,SMDPad,CuDef*
%ADD10R,0.620000X0.620000*%
G04 #@! TD*
G04 #@! TA.AperFunction,SMDPad,CuDef*
%ADD11R,0.620000X0.600000*%
G04 #@! TD*
G04 #@! TA.AperFunction,SMDPad,CuDef*
%ADD12R,0.650000X0.900000*%
G04 #@! TD*
G04 #@! TA.AperFunction,SMDPad,CuDef*
%ADD13C,0.220000*%
G04 #@! TD*
G04 #@! TA.AperFunction,SMDPad,CuDef*
%ADD14R,0.950000X0.900000*%
G04 #@! TD*
G04 #@! TA.AperFunction,SMDPad,CuDef*
%ADD15R,0.475000X0.500000*%
G04 #@! TD*
G04 #@! TA.AperFunction,SMDPad,CuDef*
%ADD16C,0.250000*%
G04 #@! TD*
G04 #@! TA.AperFunction,SMDPad,CuDef*
%ADD17R,0.600000X0.700000*%
G04 #@! TD*
G04 #@! TA.AperFunction,SMDPad,CuDef*
%ADD18R,1.000000X1.000000*%
G04 #@! TD*
G04 #@! TA.AperFunction,SMDPad,CuDef*
%ADD19R,0.700000X0.600000*%
G04 #@! TD*
G04 #@! TA.AperFunction,SMDPad,CuDef*
%ADD20R,0.900000X0.950000*%
G04 #@! TD*
G04 #@! TA.AperFunction,SMDPad,CuDef*
%ADD21R,0.600000X0.620000*%
G04 #@! TD*
G04 #@! TA.AperFunction,SMDPad,CuDef*
%ADD22R,1.400000X1.200000*%
G04 #@! TD*
G04 #@! TA.AperFunction,SMDPad,CuDef*
%ADD23R,1.900000X1.100000*%
G04 #@! TD*
G04 #@! TA.AperFunction,SMDPad,CuDef*
%ADD24R,1.300000X0.600000*%
G04 #@! TD*
G04 #@! TA.AperFunction,SMDPad,CuDef*
%ADD25RoundRect,0.150000X-0.587500X-0.150000X0.587500X-0.150000X0.587500X0.150000X-0.587500X0.150000X0*%
G04 #@! TD*
G04 #@! TA.AperFunction,ComponentPad*
%ADD26R,0.800000X1.400000*%
G04 #@! TD*
G04 #@! TA.AperFunction,SMDPad,CuDef*
%ADD27R,0.780000X0.980000*%
G04 #@! TD*
G04 #@! TA.AperFunction,ViaPad*
%ADD28C,0.400000*%
G04 #@! TD*
G04 #@! TA.AperFunction,ViaPad*
%ADD29C,0.300000*%
G04 #@! TD*
G04 #@! TA.AperFunction,Conductor*
%ADD30C,0.150000*%
G04 #@! TD*
G04 #@! TA.AperFunction,Conductor*
%ADD31C,0.250000*%
G04 #@! TD*
G04 #@! TA.AperFunction,Conductor*
%ADD32C,0.300000*%
G04 #@! TD*
G04 #@! TA.AperFunction,Conductor*
%ADD33C,0.100000*%
G04 #@! TD*
G04 #@! TA.AperFunction,Conductor*
%ADD34C,0.200000*%
G04 #@! TD*
G04 APERTURE END LIST*
D10*
G04 #@! TO.P,C102,1*
G04 #@! TO.N,GND*
X184560000Y-98610000D03*
G04 #@! TO.P,C102,2*
G04 #@! TO.N,/+3.3*
X185480000Y-98610000D03*
G04 #@! TD*
D11*
G04 #@! TO.P,C15,1*
G04 #@! TO.N,Net-(C15-Pad1)*
X178500000Y-95590000D03*
G04 #@! TO.P,C15,2*
G04 #@! TO.N,GND*
X178500000Y-94670000D03*
G04 #@! TD*
D12*
G04 #@! TO.P,R11,1*
G04 #@! TO.N,/B1*
X180015000Y-97330000D03*
G04 #@! TO.P,R11,2*
G04 #@! TO.N,/+3.3*
X178565000Y-97330000D03*
G04 #@! TD*
D13*
G04 #@! TO.P,U1,A1,VDD*
G04 #@! TO.N,/+3.3*
X183500000Y-96900000D03*
G04 #@! TO.P,U1,A2,PA14*
G04 #@! TO.N,/SW_CLK*
X183500000Y-96500000D03*
G04 #@! TO.P,U1,A3,PC12*
G04 #@! TO.N,/PC12*
X183500000Y-96100000D03*
G04 #@! TO.P,U1,A4,PD4*
G04 #@! TO.N,unconnected-(U1-PadA4)*
X183500000Y-95700000D03*
G04 #@! TO.P,U1,A5,PD7*
G04 #@! TO.N,/M2_D4*
X183500000Y-95300000D03*
G04 #@! TO.P,U1,A6,PB4*
G04 #@! TO.N,/B5*
X183500000Y-94900000D03*
G04 #@! TO.P,U1,A7,BOOT0*
G04 #@! TO.N,/MCU_BOOT0*
X183500000Y-94500000D03*
G04 #@! TO.P,U1,A8,PDR_ON*
G04 #@! TO.N,/+3.3*
X183500000Y-94100000D03*
G04 #@! TO.P,U1,A9,PC13*
G04 #@! TO.N,unconnected-(U1-PadA9)*
X183500000Y-93700000D03*
G04 #@! TO.P,U1,A10,VBAT*
G04 #@! TO.N,/VBAT*
X183500000Y-93300000D03*
G04 #@! TO.P,U1,B1,VCAP_2*
G04 #@! TO.N,Net-(C11-Pad2)*
X183900000Y-96900000D03*
G04 #@! TO.P,U1,B2,PI1*
G04 #@! TO.N,unconnected-(U1-PadB2)*
X183900000Y-96500000D03*
G04 #@! TO.P,U1,B3,PA15*
G04 #@! TO.N,unconnected-(U1-PadB3)*
X183900000Y-96100000D03*
G04 #@! TO.P,U1,B4,PD2*
G04 #@! TO.N,/PD2*
X183900000Y-95700000D03*
G04 #@! TO.P,U1,B5,PD6*
G04 #@! TO.N,/M2_D3*
X183900000Y-95300000D03*
G04 #@! TO.P,U1,B6,PB3*
G04 #@! TO.N,/B3*
X183900000Y-94900000D03*
G04 #@! TO.P,U1,B7,PB7*
G04 #@! TO.N,/B2*
X183900000Y-94500000D03*
G04 #@! TO.P,U1,B8,VDD*
G04 #@! TO.N,/+3.3*
X183900000Y-94100000D03*
G04 #@! TO.P,U1,B9,PC15*
G04 #@! TO.N,Net-(C15-Pad1)*
X183900000Y-93700000D03*
G04 #@! TO.P,U1,B10,PC14*
G04 #@! TO.N,Net-(C14-Pad2)*
X183900000Y-93300000D03*
G04 #@! TO.P,U1,C1,PA11*
G04 #@! TO.N,/PA11*
X184300000Y-96900000D03*
G04 #@! TO.P,U1,C2,PA12*
G04 #@! TO.N,/PA12*
X184300000Y-96500000D03*
G04 #@! TO.P,U1,C3,PI0*
G04 #@! TO.N,unconnected-(U1-PadC3)*
X184300000Y-96100000D03*
G04 #@! TO.P,U1,C4,PC11*
G04 #@! TO.N,/M3_D2*
X184300000Y-95700000D03*
G04 #@! TO.P,U1,C5,PD1*
G04 #@! TO.N,unconnected-(U1-PadC5)*
X184300000Y-95300000D03*
G04 #@! TO.P,U1,C6,PD5*
G04 #@! TO.N,unconnected-(U1-PadC6)*
X184300000Y-94900000D03*
G04 #@! TO.P,U1,C7,PB6*
G04 #@! TO.N,/B1*
X184300000Y-94500000D03*
G04 #@! TO.P,U1,C8,PB9*
G04 #@! TO.N,/P0_D1*
X184300000Y-94100000D03*
G04 #@! TO.P,U1,C9,VSS*
G04 #@! TO.N,GND*
X184300000Y-93700000D03*
G04 #@! TO.P,U1,C10,PA0*
G04 #@! TO.N,/M4_D4*
X184300000Y-93300000D03*
G04 #@! TO.P,U1,D1,PA8*
G04 #@! TO.N,/M2_D5*
X184700000Y-96900000D03*
G04 #@! TO.P,U1,D2,PA9*
G04 #@! TO.N,/M4_D1*
X184700000Y-96500000D03*
G04 #@! TO.P,U1,D3,PA10*
G04 #@! TO.N,/M4_D2*
X184700000Y-96100000D03*
G04 #@! TO.P,U1,D4,PA13*
G04 #@! TO.N,/SW_IO*
X184700000Y-95700000D03*
G04 #@! TO.P,U1,D5,PC10*
G04 #@! TO.N,/M3_D1*
X184700000Y-95300000D03*
G04 #@! TO.P,U1,D6,PD0*
G04 #@! TO.N,unconnected-(U1-PadD6)*
X184700000Y-94900000D03*
G04 #@! TO.P,U1,D7,PB5*
G04 #@! TO.N,/ULPI_D7*
X184700000Y-94500000D03*
G04 #@! TO.P,U1,D8,PB8*
G04 #@! TO.N,/P0_D2*
X184700000Y-94100000D03*
G04 #@! TO.P,U1,D9,BYPASS_REG*
G04 #@! TO.N,GND*
X184700000Y-93700000D03*
G04 #@! TO.P,U1,D10,PC2*
G04 #@! TO.N,/ULPI_DIR*
X184700000Y-93300000D03*
G04 #@! TO.P,U1,E1,PC7*
G04 #@! TO.N,/P0_D3*
X185100000Y-96900000D03*
G04 #@! TO.P,U1,E2,PC8*
G04 #@! TO.N,/M4_D6*
X185100000Y-96500000D03*
G04 #@! TO.P,U1,E3,PC9*
G04 #@! TO.N,/ULPI_XI*
X185100000Y-96100000D03*
G04 #@! TO.P,U1,E4,VDD*
G04 #@! TO.N,/+3.3*
X185100000Y-95700000D03*
G04 #@! TO.P,U1,E5,VSS*
G04 #@! TO.N,GND*
X185100000Y-95300000D03*
G04 #@! TO.P,U1,E6,VDD*
G04 #@! TO.N,/+3.3*
X185100000Y-94900000D03*
G04 #@! TO.P,U1,E7,VSS*
G04 #@! TO.N,GND*
X185100000Y-94500000D03*
G04 #@! TO.P,U1,E8,VSS*
X185100000Y-94100000D03*
G04 #@! TO.P,U1,E9,PC3*
G04 #@! TO.N,/ULPI_NXT*
X185100000Y-93700000D03*
G04 #@! TO.P,U1,E10,PC0*
G04 #@! TO.N,/ULPI_STP*
X185100000Y-93300000D03*
G04 #@! TO.P,U1,F1,PD15*
G04 #@! TO.N,/ULPI_RST*
X185500000Y-96900000D03*
G04 #@! TO.P,U1,F2,PD14*
G04 #@! TO.N,/ULPI_PWRDN*
X185500000Y-96500000D03*
G04 #@! TO.P,U1,F3,PC6*
G04 #@! TO.N,/M1_D7*
X185500000Y-96100000D03*
G04 #@! TO.P,U1,F4,VCAP_1*
G04 #@! TO.N,Net-(C11-Pad1)*
X185500000Y-95700000D03*
G04 #@! TO.P,U1,F5,PE14*
G04 #@! TO.N,/M1_D5*
X185500000Y-95300000D03*
G04 #@! TO.P,U1,F6,PE10*
G04 #@! TO.N,unconnected-(U1-PadF6)*
X185500000Y-94900000D03*
G04 #@! TO.P,U1,F7,VDD*
G04 #@! TO.N,/+3.3*
X185500000Y-94500000D03*
G04 #@! TO.P,U1,F8,PA1*
G04 #@! TO.N,/M2_D1*
X185500000Y-94100000D03*
G04 #@! TO.P,U1,F9,PH1*
G04 #@! TO.N,Net-(C12-Pad2)*
X185500000Y-93700000D03*
G04 #@! TO.P,U1,F10,PH0*
G04 #@! TO.N,Net-(C13-Pad1)*
X185500000Y-93300000D03*
G04 #@! TO.P,U1,G1,PD11*
G04 #@! TO.N,/M2_D9*
X185900000Y-96900000D03*
G04 #@! TO.P,U1,G2,PD12*
G04 #@! TO.N,/M2_D10*
X185900000Y-96500000D03*
G04 #@! TO.P,U1,G3,PD10*
G04 #@! TO.N,/M2_D8*
X185900000Y-96100000D03*
G04 #@! TO.P,U1,G4,PE15*
G04 #@! TO.N,/M1_D6*
X185900000Y-95700000D03*
G04 #@! TO.P,U1,G5,PE13*
G04 #@! TO.N,/M1_D3*
X185900000Y-95300000D03*
G04 #@! TO.P,U1,G6,PE7*
G04 #@! TO.N,unconnected-(U1-PadG6)*
X185900000Y-94900000D03*
G04 #@! TO.P,U1,G7,PB0*
G04 #@! TO.N,/ULPI_D1*
X185900000Y-94500000D03*
G04 #@! TO.P,U1,G8,PA5*
G04 #@! TO.N,/ULPI_CLK*
X185900000Y-94100000D03*
G04 #@! TO.P,U1,G9,VDDA*
G04 #@! TO.N,/+3.3*
X185900000Y-93700000D03*
G04 #@! TO.P,U1,G10,NRST*
G04 #@! TO.N,/MCU_RESET*
X185900000Y-93300000D03*
G04 #@! TO.P,U1,H1,PB15*
G04 #@! TO.N,/M3_D7*
X186300000Y-96900000D03*
G04 #@! TO.P,U1,H2,PD8*
G04 #@! TO.N,/M2_D6*
X186300000Y-96500000D03*
G04 #@! TO.P,U1,H3,PD9*
G04 #@! TO.N,/M2_D7*
X186300000Y-96100000D03*
G04 #@! TO.P,U1,H4,PB10*
G04 #@! TO.N,/ULPI_D3*
X186300000Y-95700000D03*
G04 #@! TO.P,U1,H5,PE12*
G04 #@! TO.N,unconnected-(U1-PadH5)*
X186300000Y-95300000D03*
G04 #@! TO.P,U1,H6,PE8*
G04 #@! TO.N,unconnected-(U1-PadH6)*
X186300000Y-94900000D03*
G04 #@! TO.P,U1,H7,PB1*
G04 #@! TO.N,/ULPI_D2*
X186300000Y-94500000D03*
G04 #@! TO.P,U1,H8,PA6*
G04 #@! TO.N,/M1_D4*
X186300000Y-94100000D03*
G04 #@! TO.P,U1,H9,PA3*
G04 #@! TO.N,/ULPI_D0*
X186300000Y-93700000D03*
G04 #@! TO.P,U1,H10,VSSA*
G04 #@! TO.N,GND*
X186300000Y-93300000D03*
G04 #@! TO.P,U1,J1,PB13*
G04 #@! TO.N,/ULPI_D6*
X186700000Y-96900000D03*
G04 #@! TO.P,U1,J2,PB14*
G04 #@! TO.N,/M4_D7*
X186700000Y-96500000D03*
G04 #@! TO.P,U1,J3,PB12*
G04 #@! TO.N,/ULPI_D5*
X186700000Y-96100000D03*
G04 #@! TO.P,U1,J4,PB11*
G04 #@! TO.N,/ULPI_D4*
X186700000Y-95700000D03*
G04 #@! TO.P,U1,J5,PE11*
G04 #@! TO.N,unconnected-(U1-PadJ5)*
X186700000Y-95300000D03*
G04 #@! TO.P,U1,J6,PE9*
G04 #@! TO.N,unconnected-(U1-PadJ6)*
X186700000Y-94900000D03*
G04 #@! TO.P,U1,J7,PB2*
G04 #@! TO.N,GND*
X186700000Y-94500000D03*
G04 #@! TO.P,U1,J8,PA7*
G04 #@! TO.N,/B4*
X186700000Y-94100000D03*
G04 #@! TO.P,U1,J9,PA4*
G04 #@! TO.N,/M4_D3*
X186700000Y-93700000D03*
G04 #@! TO.P,U1,J10,PA2*
G04 #@! TO.N,/M2_D2*
X186700000Y-93300000D03*
G04 #@! TD*
D14*
G04 #@! TO.P,R3,1*
G04 #@! TO.N,Net-(C1-Pad1)*
X175300000Y-89450000D03*
G04 #@! TO.P,R3,2*
G04 #@! TO.N,GND*
X175300000Y-87950000D03*
G04 #@! TD*
D15*
G04 #@! TO.P,R23,1*
G04 #@! TO.N,Net-(R23-Pad1)*
X192028000Y-98260000D03*
G04 #@! TO.P,R23,2*
G04 #@! TO.N,GND*
X193052000Y-98260000D03*
G04 #@! TD*
D16*
G04 #@! TO.P,U2,A1,D1*
G04 #@! TO.N,/ULPI_D1*
X191650000Y-96350000D03*
G04 #@! TO.P,U2,A2,D2*
G04 #@! TO.N,/ULPI_D2*
X191650000Y-95850000D03*
G04 #@! TO.P,U2,A3,D3*
G04 #@! TO.N,/ULPI_D3*
X191650000Y-95350000D03*
G04 #@! TO.P,U2,A4,CLK*
G04 #@! TO.N,/ULPI_CLK*
X191650000Y-94850000D03*
G04 #@! TO.P,U2,A5,D4*
G04 #@! TO.N,/ULPI_D4*
X191650000Y-94350000D03*
G04 #@! TO.P,U2,A6,D5*
G04 #@! TO.N,/ULPI_D5*
X191650000Y-93850000D03*
G04 #@! TO.P,U2,B1,D0*
G04 #@! TO.N,/ULPI_D0*
X192150000Y-96350000D03*
G04 #@! TO.P,U2,B2,VDVIO*
G04 #@! TO.N,/+3.3*
X192150000Y-95850000D03*
G04 #@! TO.P,U2,B3,VDVIO*
X192150000Y-95350000D03*
G04 #@! TO.P,U2,B4,GND*
G04 #@! TO.N,GND*
X192150000Y-94850000D03*
G04 #@! TO.P,U2,B5,VDVIO*
G04 #@! TO.N,/+3.3*
X192150000Y-94350000D03*
G04 #@! TO.P,U2,B6,D6*
G04 #@! TO.N,/ULPI_D6*
X192150000Y-93850000D03*
G04 #@! TO.P,U2,C1,DM*
G04 #@! TO.N,Net-(R26-Pad2)*
X192650000Y-96350000D03*
G04 #@! TO.P,U2,C2,RREF*
G04 #@! TO.N,Net-(R23-Pad1)*
X192650000Y-95850000D03*
G04 #@! TO.P,U2,C3,~{CS}/PWRDN*
G04 #@! TO.N,/ULPI_PWRDN*
X192650000Y-95350000D03*
G04 #@! TO.P,U2,C4,~{RESET}*
G04 #@! TO.N,/ULPI_RST*
X192650000Y-94850000D03*
G04 #@! TO.P,U2,C5,GND*
G04 #@! TO.N,GND*
X192650000Y-94350000D03*
G04 #@! TO.P,U2,C6,D7*
G04 #@! TO.N,/ULPI_D7*
X192650000Y-93850000D03*
G04 #@! TO.P,U2,D1,DP*
G04 #@! TO.N,Net-(R25-Pad2)*
X193150000Y-96350000D03*
G04 #@! TO.P,U2,D2,GND*
G04 #@! TO.N,GND*
X193150000Y-95850000D03*
G04 #@! TO.P,U2,D3,ID*
G04 #@! TO.N,Net-(R24-Pad2)*
X193150000Y-95350000D03*
G04 #@! TO.P,U2,D4,~{PSW}*
G04 #@! TO.N,unconnected-(U2-PadD4)*
X193150000Y-94850000D03*
G04 #@! TO.P,U2,D5,NXT*
G04 #@! TO.N,/ULPI_NXT*
X193150000Y-94350000D03*
G04 #@! TO.P,U2,D6,STP*
G04 #@! TO.N,/ULPI_STP*
X193150000Y-93850000D03*
G04 #@! TO.P,U2,E1,GND*
G04 #@! TO.N,GND*
X193650000Y-96350000D03*
G04 #@! TO.P,U2,E2,VB_REF_FAULT*
X193650000Y-95850000D03*
G04 #@! TO.P,U2,E3,3V3V*
G04 #@! TO.N,Net-(C22-Pad1)*
X193650000Y-95350000D03*
G04 #@! TO.P,U2,E4,GND*
G04 #@! TO.N,GND*
X193650000Y-94850000D03*
G04 #@! TO.P,U2,E5,DIR*
G04 #@! TO.N,/ULPI_DIR*
X193650000Y-94350000D03*
G04 #@! TO.P,U2,E6,1V2V*
G04 #@! TO.N,Net-(C21-Pad1)*
X193650000Y-93850000D03*
G04 #@! TO.P,U2,F1,NC*
G04 #@! TO.N,unconnected-(U2-PadF1)*
X194150000Y-96350000D03*
G04 #@! TO.P,U2,F2,NC*
G04 #@! TO.N,unconnected-(U2-PadF2)*
X194150000Y-95850000D03*
G04 #@! TO.P,U2,F3,VBAT*
G04 #@! TO.N,/+3.3*
X194150000Y-95350000D03*
G04 #@! TO.P,U2,F4,VBUS*
G04 #@! TO.N,unconnected-(U2-PadF4)*
X194150000Y-94850000D03*
G04 #@! TO.P,U2,F5,XI*
G04 #@! TO.N,/ULPI_XI*
X194150000Y-94350000D03*
G04 #@! TO.P,U2,F6,XO*
G04 #@! TO.N,unconnected-(U2-PadF6)*
X194150000Y-93850000D03*
G04 #@! TD*
D11*
G04 #@! TO.P,C12,1*
G04 #@! TO.N,GND*
X183200000Y-89530000D03*
G04 #@! TO.P,C12,2*
G04 #@! TO.N,Net-(C12-Pad2)*
X183200000Y-90450000D03*
G04 #@! TD*
D17*
G04 #@! TO.P,R21,1*
G04 #@! TO.N,/M1_D2*
X174060000Y-101110000D03*
G04 #@! TO.P,R21,2*
G04 #@! TO.N,/PD2*
X174060000Y-100010000D03*
G04 #@! TD*
D18*
G04 #@! TO.P,J1,1,1*
G04 #@! TO.N,GND*
X172100000Y-94065000D03*
G04 #@! TO.P,J1,2,2*
G04 #@! TO.N,/VBAT*
X172100000Y-95335000D03*
G04 #@! TD*
D17*
G04 #@! TO.P,R27,1*
G04 #@! TO.N,/M1_D2*
X174820000Y-101110000D03*
G04 #@! TO.P,R27,2*
G04 #@! TO.N,/PA12*
X174820000Y-100010000D03*
G04 #@! TD*
D19*
G04 #@! TO.P,R24,1*
G04 #@! TO.N,GND*
X194880000Y-98210000D03*
G04 #@! TO.P,R24,2*
G04 #@! TO.N,Net-(R24-Pad2)*
X193780000Y-98210000D03*
G04 #@! TD*
D11*
G04 #@! TO.P,C14,1*
G04 #@! TO.N,GND*
X178500000Y-93520000D03*
G04 #@! TO.P,C14,2*
G04 #@! TO.N,Net-(C14-Pad2)*
X178500000Y-92600000D03*
G04 #@! TD*
D20*
G04 #@! TO.P,R2,1*
G04 #@! TO.N,/MCU_RESET*
X171290000Y-91190000D03*
G04 #@! TO.P,R2,2*
G04 #@! TO.N,/+3.3*
X172790000Y-91190000D03*
G04 #@! TD*
D11*
G04 #@! TO.P,C21,1*
G04 #@! TO.N,Net-(C21-Pad1)*
X196050000Y-93620000D03*
G04 #@! TO.P,C21,2*
G04 #@! TO.N,GND*
X196050000Y-94540000D03*
G04 #@! TD*
D21*
G04 #@! TO.P,C23,1*
G04 #@! TO.N,/+3.3*
X192070000Y-91140000D03*
G04 #@! TO.P,C23,2*
G04 #@! TO.N,GND*
X192990000Y-91140000D03*
G04 #@! TD*
D12*
G04 #@! TO.P,R12,1*
G04 #@! TO.N,/B2*
X180485000Y-98490000D03*
G04 #@! TO.P,R12,2*
G04 #@! TO.N,/+3.3*
X179035000Y-98490000D03*
G04 #@! TD*
D19*
G04 #@! TO.P,R25,1*
G04 #@! TO.N,/M1_D2*
X177250000Y-101070000D03*
G04 #@! TO.P,R25,2*
G04 #@! TO.N,Net-(R25-Pad2)*
X178350000Y-101070000D03*
G04 #@! TD*
D14*
G04 #@! TO.P,R1,1*
G04 #@! TO.N,/MCU_BOOT0*
X176600000Y-89450000D03*
G04 #@! TO.P,R1,2*
G04 #@! TO.N,/M4_D5*
X176600000Y-87950000D03*
G04 #@! TD*
D11*
G04 #@! TO.P,C13,1*
G04 #@! TO.N,Net-(C13-Pad1)*
X188010000Y-89530000D03*
G04 #@! TO.P,C13,2*
G04 #@! TO.N,GND*
X188010000Y-90450000D03*
G04 #@! TD*
D22*
G04 #@! TO.P,Y11,1,CRYSTAL__1*
G04 #@! TO.N,Net-(C12-Pad2)*
X184500000Y-90890000D03*
G04 #@! TO.P,Y11,2,GND_1*
G04 #@! TO.N,GND*
X186700000Y-90890000D03*
G04 #@! TO.P,Y11,3,CRYSTAL__2*
G04 #@! TO.N,Net-(C13-Pad1)*
X186700000Y-89290000D03*
G04 #@! TO.P,Y11,4,GND_2*
G04 #@! TO.N,GND*
X184500000Y-89290000D03*
G04 #@! TD*
D10*
G04 #@! TO.P,C103,1*
G04 #@! TO.N,GND*
X193000000Y-91950000D03*
G04 #@! TO.P,C103,2*
G04 #@! TO.N,/+3.3*
X192080000Y-91950000D03*
G04 #@! TD*
D19*
G04 #@! TO.P,R26,1*
G04 #@! TO.N,/M1_D1*
X177250000Y-101800000D03*
G04 #@! TO.P,R26,2*
G04 #@! TO.N,Net-(R26-Pad2)*
X178350000Y-101800000D03*
G04 #@! TD*
D11*
G04 #@! TO.P,C104,1*
G04 #@! TO.N,GND*
X181730000Y-91090000D03*
G04 #@! TO.P,C104,2*
G04 #@! TO.N,/+3.3*
X181730000Y-92010000D03*
G04 #@! TD*
G04 #@! TO.P,C24,1*
G04 #@! TO.N,/+3.3*
X188460000Y-92510000D03*
G04 #@! TO.P,C24,2*
G04 #@! TO.N,GND*
X188460000Y-91590000D03*
G04 #@! TD*
G04 #@! TO.P,C22,1*
G04 #@! TO.N,Net-(C22-Pad1)*
X196050000Y-95650000D03*
G04 #@! TO.P,C22,2*
G04 #@! TO.N,GND*
X196050000Y-96570000D03*
G04 #@! TD*
D17*
G04 #@! TO.P,R28,1*
G04 #@! TO.N,/M1_D1*
X176370000Y-101750000D03*
G04 #@! TO.P,R28,2*
G04 #@! TO.N,/PA11*
X176370000Y-100650000D03*
G04 #@! TD*
D23*
G04 #@! TO.P,Y12,1*
G04 #@! TO.N,Net-(C14-Pad2)*
X180100000Y-92850000D03*
G04 #@! TO.P,Y12,2*
G04 #@! TO.N,Net-(C15-Pad1)*
X180100000Y-95350000D03*
G04 #@! TD*
D24*
G04 #@! TO.P,Q1,1*
G04 #@! TO.N,Net-(C1-Pad1)*
X173550000Y-89650000D03*
G04 #@! TO.P,Q1,2*
G04 #@! TO.N,GND*
X173550000Y-87750000D03*
G04 #@! TO.P,Q1,3*
G04 #@! TO.N,/MCU_RESET*
X171450000Y-88700000D03*
G04 #@! TD*
D25*
G04 #@! TO.P,D1,1*
G04 #@! TO.N,GND*
X178262500Y-87950000D03*
G04 #@! TO.P,D1,2*
G04 #@! TO.N,/+3.3*
X178262500Y-89850000D03*
G04 #@! TO.P,D1,3*
G04 #@! TO.N,/MCU_BOOT0*
X180137500Y-88900000D03*
G04 #@! TD*
D18*
G04 #@! TO.P,J2,1,1*
G04 #@! TO.N,GND*
X172100000Y-97430000D03*
G04 #@! TO.P,J2,2,2*
G04 #@! TO.N,/SW_CLK*
X172100000Y-98700000D03*
G04 #@! TO.P,J2,3,3*
G04 #@! TO.N,/SW_IO*
X172100000Y-99970000D03*
G04 #@! TD*
D26*
G04 #@! TO.P,H2,1*
G04 #@! TO.N,/M1_D2*
X170960885Y-104300000D03*
G04 #@! TO.P,H2,2*
G04 #@! TO.N,/M1_D1*
X172254609Y-104300000D03*
G04 #@! TO.P,H2,3*
G04 #@! TO.N,/M1_D4*
X173548383Y-104300000D03*
G04 #@! TO.P,H2,4*
G04 #@! TO.N,/M1_D3*
X174842107Y-104300000D03*
G04 #@! TO.P,H2,5*
G04 #@! TO.N,/M4_D7*
X176135881Y-104300000D03*
G04 #@! TO.P,H2,6*
G04 #@! TO.N,/M3_D7*
X177429605Y-104300000D03*
G04 #@! TO.P,H2,7*
G04 #@! TO.N,/B1*
X178723379Y-104300000D03*
G04 #@! TO.P,H2,8*
G04 #@! TO.N,/B2*
X180017103Y-104300000D03*
G04 #@! TO.P,H2,9*
G04 #@! TO.N,/B3*
X181310877Y-104300000D03*
G04 #@! TO.P,H2,10*
G04 #@! TO.N,/B5*
X182604905Y-104300000D03*
G04 #@! TO.P,H2,11*
G04 #@! TO.N,/B4*
X183898934Y-104300000D03*
G04 #@! TO.P,H2,12*
G04 #@! TO.N,GND*
X185192911Y-104300000D03*
G04 #@! TO.P,H2,13*
G04 #@! TO.N,/M2_D5*
X186486940Y-104300000D03*
G04 #@! TO.P,H2,14*
G04 #@! TO.N,/M2_D4*
X187780968Y-104300000D03*
G04 #@! TO.P,H2,15*
G04 #@! TO.N,/M2_D3*
X189074997Y-104300000D03*
G04 #@! TO.P,H2,16*
G04 #@! TO.N,/M2_D2*
X190369025Y-104300000D03*
G04 #@! TO.P,H2,17*
G04 #@! TO.N,/M2_D1*
X191663053Y-104300000D03*
G04 #@! TO.P,H2,18*
G04 #@! TO.N,GND*
X192957082Y-104300000D03*
G04 #@! TO.P,H2,19*
G04 #@! TO.N,/P0_D1*
X194251059Y-104300000D03*
G04 #@! TO.P,H2,20*
G04 #@! TO.N,/P0_D2*
X195545088Y-104300000D03*
G04 #@! TO.P,H2,21*
G04 #@! TO.N,/P0_D3*
X196839116Y-104300000D03*
G04 #@! TD*
D20*
G04 #@! TO.P,R4,1*
G04 #@! TO.N,/MCU_BOOT0*
X176550000Y-91200000D03*
G04 #@! TO.P,R4,2*
G04 #@! TO.N,GND*
X178050000Y-91200000D03*
G04 #@! TD*
D27*
G04 #@! TO.P,C1,1*
G04 #@! TO.N,Net-(C1-Pad1)*
X174000000Y-91200000D03*
G04 #@! TO.P,C1,2*
G04 #@! TO.N,/MCU_BOOT0*
X175400000Y-91200000D03*
G04 #@! TD*
D26*
G04 #@! TO.P,H1,1*
G04 #@! TO.N,/+3.3*
X196840083Y-85900000D03*
G04 #@! TO.P,H1,2*
G04 #@! TO.N,/+5*
X195546359Y-85900000D03*
G04 #@! TO.P,H1,3*
G04 #@! TO.N,/M2_D6*
X194252585Y-85900000D03*
G04 #@! TO.P,H1,4*
G04 #@! TO.N,/M2_D7*
X192958861Y-85900000D03*
G04 #@! TO.P,H1,5*
G04 #@! TO.N,/M2_D8*
X191665087Y-85900000D03*
G04 #@! TO.P,H1,6*
G04 #@! TO.N,/M2_D9*
X190371363Y-85900000D03*
G04 #@! TO.P,H1,7*
G04 #@! TO.N,/M2_D10*
X189077589Y-85900000D03*
G04 #@! TO.P,H1,8*
G04 #@! TO.N,GND*
X187783865Y-85900000D03*
G04 #@! TO.P,H1,9*
G04 #@! TO.N,/M4_D3*
X186490091Y-85900000D03*
G04 #@! TO.P,H1,10*
G04 #@! TO.N,/M4_D4*
X185196063Y-85900000D03*
G04 #@! TO.P,H1,11*
G04 #@! TO.N,/M4_D1*
X183902034Y-85900000D03*
G04 #@! TO.P,H1,12*
G04 #@! TO.N,/M4_D2*
X182608057Y-85900000D03*
G04 #@! TO.P,H1,13*
G04 #@! TO.N,/M1_D7*
X181314028Y-85900000D03*
G04 #@! TO.P,H1,14*
G04 #@! TO.N,GND*
X180020000Y-85900000D03*
G04 #@! TO.P,H1,15*
G04 #@! TO.N,unconnected-(H1-Pad15)*
X178725971Y-85900000D03*
G04 #@! TO.P,H1,16*
G04 #@! TO.N,/M3_D1*
X177431943Y-85900000D03*
G04 #@! TO.P,H1,17*
G04 #@! TO.N,/M3_D2*
X176137915Y-85900000D03*
G04 #@! TO.P,H1,18*
G04 #@! TO.N,/M4_D5*
X174843886Y-85900000D03*
G04 #@! TO.P,H1,19*
G04 #@! TO.N,/M4_D6*
X173549909Y-85900000D03*
G04 #@! TO.P,H1,20*
G04 #@! TO.N,/M1_D5*
X172255880Y-85900000D03*
G04 #@! TO.P,H1,21*
G04 #@! TO.N,/M1_D6*
X170961852Y-85900000D03*
G04 #@! TD*
D21*
G04 #@! TO.P,C11,1*
G04 #@! TO.N,Net-(C11-Pad1)*
X183030000Y-98590000D03*
G04 #@! TO.P,C11,2*
G04 #@! TO.N,Net-(C11-Pad2)*
X182110000Y-98590000D03*
G04 #@! TD*
D17*
G04 #@! TO.P,R22,1*
G04 #@! TO.N,/M1_D1*
X175600000Y-101750000D03*
G04 #@! TO.P,R22,2*
G04 #@! TO.N,/PC12*
X175600000Y-100650000D03*
G04 #@! TD*
D28*
G04 #@! TO.N,/+3.3*
X189100000Y-92350000D03*
X182116615Y-96863019D03*
D29*
X185900000Y-93700000D03*
X194150000Y-95350000D03*
X185100000Y-95700000D03*
D28*
X182920000Y-92070000D03*
X174689918Y-91975500D03*
X194060000Y-92830000D03*
X180685500Y-96840000D03*
X191232250Y-92212250D03*
D29*
X185099944Y-94900099D03*
D28*
X185910000Y-98660000D03*
D29*
X194150000Y-95350000D03*
D28*
X177870000Y-97020000D03*
X182960000Y-94125500D03*
D29*
X185500000Y-94500000D03*
X192150000Y-95350000D03*
X192150000Y-94350000D03*
G04 #@! TO.N,/M2_D6*
X186300000Y-96500000D03*
D28*
X194150000Y-89780000D03*
G04 #@! TO.N,/M2_D7*
X192940000Y-89240000D03*
D29*
X186300000Y-96100000D03*
G04 #@! TO.N,/M2_D8*
X185900000Y-96100000D03*
D28*
X192220000Y-89260000D03*
G04 #@! TO.N,/M2_D9*
X186384812Y-97685188D03*
D29*
G04 #@! TO.N,/M2_D10*
X185900000Y-96500000D03*
D28*
G04 #@! TO.N,GND*
X177660000Y-93500000D03*
X187770000Y-87940000D03*
D29*
X185100000Y-95300000D03*
X192650000Y-94350000D03*
X184700498Y-93700498D03*
X193650000Y-94850000D03*
D28*
X193870000Y-91950000D03*
X190180000Y-91690000D03*
X171050000Y-95150000D03*
X194800000Y-88420000D03*
X174140000Y-96130000D03*
X172895000Y-94065000D03*
X184524812Y-97934812D03*
D29*
X185100000Y-94100000D03*
D28*
X194670000Y-94850000D03*
X193462000Y-101398000D03*
D29*
X185100498Y-94500597D03*
D28*
X183690000Y-87920000D03*
X189640000Y-101760000D03*
X177660000Y-94660000D03*
X185640000Y-87930000D03*
X194280000Y-91950000D03*
X188900000Y-89190000D03*
G04 #@! TO.N,/M4_D3*
X187655000Y-93264624D03*
G04 #@! TO.N,/M4_D4*
X182280000Y-90320000D03*
G04 #@! TO.N,/M4_D1*
X187070000Y-87220000D03*
D29*
X184700000Y-96500000D03*
G04 #@! TO.N,/M4_D2*
X184700000Y-96100000D03*
G04 #@! TO.N,/M1_D7*
X185500000Y-96100000D03*
G04 #@! TO.N,/M3_D1*
X184700000Y-95300000D03*
G04 #@! TO.N,/M3_D2*
X184300000Y-95700000D03*
G04 #@! TO.N,/M4_D6*
X185100000Y-96500000D03*
G04 #@! TO.N,/M1_D5*
X185500000Y-95300497D03*
G04 #@! TO.N,/M1_D6*
X185900000Y-95700000D03*
D28*
G04 #@! TO.N,/M1_D4*
X183820000Y-101694500D03*
D29*
X186299502Y-94099502D03*
G04 #@! TO.N,/M1_D3*
X185899502Y-95300498D03*
D28*
X185930000Y-101730000D03*
G04 #@! TO.N,/M4_D7*
X176969502Y-100470498D03*
X187919812Y-97089812D03*
X187470000Y-96480000D03*
G04 #@! TO.N,/M3_D7*
X177750000Y-100029500D03*
D29*
G04 #@! TO.N,/B1*
X184300000Y-94500000D03*
D28*
X179440000Y-97330000D03*
X179920000Y-102520000D03*
G04 #@! TO.N,/B2*
X181060000Y-98490000D03*
X180957982Y-102194500D03*
D29*
X183900000Y-94500000D03*
D28*
G04 #@! TO.N,/B3*
X181510000Y-102194000D03*
D29*
X183900000Y-94900000D03*
D28*
G04 #@! TO.N,/B5*
X181380000Y-94700000D03*
G04 #@! TO.N,/B4*
X187470000Y-94090000D03*
G04 #@! TO.N,/M2_D5*
X184273434Y-99800000D03*
G04 #@! TO.N,/M2_D4*
X181349502Y-95289500D03*
X187300000Y-102239500D03*
G04 #@! TO.N,/M2_D3*
X188330000Y-102190000D03*
D29*
X183900000Y-95300000D03*
D28*
G04 #@! TO.N,/M2_D2*
X187295500Y-92420000D03*
X191259812Y-98639812D03*
D29*
G04 #@! TO.N,/M2_D1*
X185500000Y-94100000D03*
D28*
X191780000Y-99105500D03*
D29*
G04 #@! TO.N,/P0_D1*
X184300000Y-94100000D03*
G04 #@! TO.N,/P0_D2*
X184700000Y-94100000D03*
D28*
G04 #@! TO.N,/P0_D3*
X185691047Y-99859374D03*
D29*
G04 #@! TO.N,/PD2*
X183900000Y-95700000D03*
D28*
X174290000Y-99140000D03*
D29*
G04 #@! TO.N,Net-(C11-Pad1)*
X185500000Y-95700000D03*
D28*
X182604710Y-98052428D03*
G04 #@! TO.N,/PC12*
X176370000Y-97460000D03*
X176369812Y-98519812D03*
G04 #@! TO.N,Net-(C22-Pad1)*
X194880000Y-95890000D03*
D29*
X193650000Y-95350000D03*
G04 #@! TO.N,Net-(R23-Pad1)*
X192650000Y-95850000D03*
D28*
X192970000Y-97390000D03*
D29*
G04 #@! TO.N,/ULPI_PWRDN*
X192650000Y-95350000D03*
D28*
X187947936Y-100240500D03*
D29*
X185500000Y-96500000D03*
D28*
X190579812Y-97449812D03*
G04 #@! TO.N,/ULPI_RST*
X187185500Y-99120000D03*
D29*
X192650000Y-94850000D03*
G04 #@! TO.N,Net-(R24-Pad2)*
X193150000Y-95350000D03*
D28*
X193780000Y-97600000D03*
G04 #@! TO.N,Net-(R25-Pad2)*
X191874812Y-97504812D03*
X190945500Y-97870000D03*
D29*
G04 #@! TO.N,/PA12*
X184300000Y-96500000D03*
D28*
X175010000Y-99340000D03*
G04 #@! TO.N,/PA11*
X177530188Y-97799812D03*
X182459500Y-97574500D03*
D29*
G04 #@! TO.N,Net-(C12-Pad2)*
X185500000Y-93700000D03*
D28*
X185270000Y-92500000D03*
G04 #@! TO.N,Net-(C15-Pad1)*
X180070000Y-94570000D03*
D29*
X183900000Y-93700000D03*
D28*
G04 #@! TO.N,/MCU_BOOT0*
X181699500Y-93450000D03*
X181369833Y-88899833D03*
G04 #@! TO.N,/MCU_RESET*
X186075500Y-92180000D03*
X175870000Y-92394500D03*
D29*
G04 #@! TO.N,/ULPI_D7*
X184700497Y-94500000D03*
D28*
X191880000Y-92559502D03*
X190990000Y-91414500D03*
X189580000Y-90010000D03*
D29*
G04 #@! TO.N,/ULPI_DIR*
X193650000Y-94350000D03*
D28*
X183790000Y-91970000D03*
G04 #@! TO.N,/ULPI_XI*
X186795188Y-99815188D03*
D29*
X185100000Y-96100000D03*
D28*
X183680000Y-97930000D03*
D29*
X194150000Y-94350000D03*
G04 #@! TO.N,/ULPI_NXT*
X185100498Y-93700500D03*
X193150000Y-94350000D03*
D28*
G04 #@! TO.N,/ULPI_STP*
X192750000Y-92970000D03*
X184870000Y-92080000D03*
D29*
G04 #@! TO.N,/ULPI_D1*
X185900000Y-94500000D03*
D28*
X188990000Y-95570000D03*
D29*
G04 #@! TO.N,/ULPI_CLK*
X185900000Y-94100000D03*
D28*
X190730000Y-94760000D03*
G04 #@! TO.N,/ULPI_D3*
X190845000Y-95455708D03*
D29*
X186300000Y-95700000D03*
D28*
G04 #@! TO.N,/ULPI_D2*
X189234812Y-95034812D03*
D29*
X186300000Y-94500000D03*
G04 #@! TO.N,/ULPI_D0*
X186300000Y-93700000D03*
D28*
X189610376Y-95950000D03*
G04 #@! TO.N,/ULPI_D6*
X190172438Y-93612062D03*
X190885188Y-93254812D03*
G04 #@! TO.N,/ULPI_D4*
X189931960Y-94538838D03*
X188974812Y-93565188D03*
G04 #@! TO.N,/SW_IO*
X173380000Y-99710000D03*
D29*
X184700000Y-95700000D03*
G04 #@! TD*
D30*
G04 #@! TO.N,Net-(C21-Pad1)*
X195660000Y-93230000D02*
X195910000Y-93480000D01*
X193650000Y-93850000D02*
X193650000Y-93650000D01*
X193650000Y-93650000D02*
X194070000Y-93230000D01*
X194070000Y-93230000D02*
X195660000Y-93230000D01*
D31*
G04 #@! TO.N,/+3.3*
X185530000Y-98660000D02*
X185480000Y-98610000D01*
D30*
X194060000Y-92830000D02*
X193770000Y-92540000D01*
D31*
X178255000Y-90360000D02*
X177635000Y-90360000D01*
D30*
X177870000Y-97020000D02*
X178180000Y-97330000D01*
D31*
X182920000Y-92070000D02*
X181790000Y-92070000D01*
X179035000Y-98490000D02*
X179035000Y-97800000D01*
D32*
X192080000Y-91950000D02*
X191494500Y-91950000D01*
D31*
X177050500Y-91969500D02*
X173569500Y-91969500D01*
D30*
X178180000Y-97330000D02*
X178565000Y-97330000D01*
D32*
X194840000Y-90250000D02*
X196840083Y-88249917D01*
D30*
X178770000Y-96660000D02*
X178565000Y-96865000D01*
X180505500Y-96660000D02*
X178770000Y-96660000D01*
X180685500Y-96840000D02*
X180505500Y-96660000D01*
X178565000Y-96865000D02*
X178565000Y-97330000D01*
D32*
X192610000Y-90250000D02*
X194840000Y-90250000D01*
X191094500Y-92350000D02*
X188501000Y-92350000D01*
D30*
X192540000Y-92540000D02*
X192080000Y-92080000D01*
D31*
X179035000Y-97800000D02*
X178565000Y-97330000D01*
D30*
X192150000Y-95850000D02*
X192150000Y-95350000D01*
D32*
X191232250Y-92212250D02*
X191094500Y-92350000D01*
D31*
X181790000Y-92070000D02*
X181730000Y-92010000D01*
D30*
X182153596Y-96900000D02*
X182116615Y-96863019D01*
X183500000Y-94100000D02*
X183900000Y-94100000D01*
X183500000Y-96900000D02*
X182153596Y-96900000D01*
D31*
X178262500Y-89850000D02*
X178262500Y-90352500D01*
D30*
X182985500Y-94100000D02*
X183500000Y-94100000D01*
D32*
X192080000Y-90780000D02*
X192610000Y-90250000D01*
D31*
X177280000Y-90715000D02*
X177280000Y-91740000D01*
D30*
X182960000Y-94125500D02*
X182985500Y-94100000D01*
D32*
X192080000Y-91950000D02*
X192080000Y-90780000D01*
D31*
X177635000Y-90360000D02*
X177280000Y-90715000D01*
D32*
X191494500Y-91950000D02*
X191232250Y-92212250D01*
D31*
X185910000Y-98660000D02*
X185530000Y-98660000D01*
X178262500Y-90352500D02*
X178255000Y-90360000D01*
X173569500Y-91969500D02*
X172790000Y-91190000D01*
D32*
X196840083Y-88249917D02*
X196840083Y-85850000D01*
D30*
X193770000Y-92540000D02*
X192540000Y-92540000D01*
X192080000Y-92080000D02*
X192080000Y-91950000D01*
D31*
X177280000Y-91740000D02*
X177050500Y-91969500D01*
D30*
G04 #@! TO.N,/M2_D6*
X194180000Y-89750000D02*
X194180000Y-85775000D01*
X194150000Y-89780000D02*
X194180000Y-89750000D01*
X194180000Y-85775000D02*
X194252585Y-85775000D01*
G04 #@! TO.N,/M2_D7*
X192958861Y-89221139D02*
X192958861Y-85775000D01*
X192940000Y-89240000D02*
X192958861Y-89221139D01*
G04 #@! TO.N,/M2_D8*
X192220000Y-89260000D02*
X191665087Y-88705087D01*
X191665087Y-88705087D02*
X191665087Y-85775000D01*
G04 #@! TO.N,/M2_D9*
X185900000Y-97200376D02*
X185900000Y-96900000D01*
D33*
X190421363Y-85650000D02*
X190371363Y-85650000D01*
D30*
X186384812Y-97685188D02*
X185900000Y-97200376D01*
D33*
X190500000Y-85728637D02*
X190421363Y-85650000D01*
G04 #@! TO.N,/M2_D10*
X189027589Y-85650000D02*
X189077589Y-85650000D01*
X189000000Y-85677589D02*
X189027589Y-85650000D01*
D31*
G04 #@! TO.N,GND*
X193000000Y-91950000D02*
X195600000Y-91950000D01*
X194560000Y-99000000D02*
X194880000Y-98680000D01*
X176190000Y-96130000D02*
X174140000Y-96130000D01*
X184500000Y-88220000D02*
X184500000Y-89290000D01*
D30*
X186300000Y-93300000D02*
X186450000Y-93150000D01*
D32*
X184260000Y-89530000D02*
X184500000Y-89290000D01*
D31*
X171050000Y-95970000D02*
X171050000Y-95150000D01*
D32*
X183200000Y-89530000D02*
X184260000Y-89530000D01*
D31*
X185640000Y-87930000D02*
X184790000Y-87930000D01*
X177350000Y-92670000D02*
X177350000Y-92660000D01*
X183690000Y-87920000D02*
X184490000Y-87920000D01*
X177660000Y-93500000D02*
X177660000Y-92980000D01*
D30*
X187660000Y-94500000D02*
X186700000Y-94500000D01*
X178480000Y-93500000D02*
X178500000Y-93520000D01*
D31*
X195770000Y-96570000D02*
X196050000Y-96570000D01*
X182950000Y-87920000D02*
X183020000Y-87920000D01*
D30*
X184300000Y-93700000D02*
X184700000Y-93700000D01*
D31*
X192990000Y-91940000D02*
X193000000Y-91950000D01*
D30*
X187670000Y-91860000D02*
X187670000Y-92750000D01*
D31*
X194340000Y-97400000D02*
X194940000Y-97400000D01*
X184780000Y-87920000D02*
X184790000Y-87930000D01*
X188460000Y-91590000D02*
X188460000Y-91190000D01*
D30*
X192150000Y-94850000D02*
X192650000Y-94350000D01*
D31*
X175300000Y-87950000D02*
X175300000Y-88300000D01*
X189475000Y-90985000D02*
X188665000Y-90985000D01*
X172370000Y-96540000D02*
X172370000Y-97160000D01*
X196650000Y-96570000D02*
X196860000Y-96360000D01*
X181680000Y-91090000D02*
X180730000Y-90140000D01*
X180020000Y-87160000D02*
X179950000Y-87160000D01*
X188460000Y-91190000D02*
X188665000Y-90985000D01*
X192990000Y-91140000D02*
X192990000Y-91940000D01*
X188180000Y-88460000D02*
X187783865Y-88063865D01*
X180020000Y-87190000D02*
X180750000Y-87920000D01*
D30*
X177670000Y-94670000D02*
X178500000Y-94670000D01*
D31*
X175300000Y-88300000D02*
X175710000Y-88710000D01*
D30*
X194240000Y-97400000D02*
X193650000Y-96810000D01*
D31*
X171210000Y-96130000D02*
X171050000Y-95970000D01*
X180020000Y-87160000D02*
X180020000Y-87190000D01*
X183340000Y-87920000D02*
X183690000Y-87920000D01*
X196870000Y-93220000D02*
X196870000Y-95340000D01*
X193122000Y-98260000D02*
X193122000Y-98910000D01*
X196860000Y-95350000D02*
X196860000Y-94890000D01*
X194560000Y-99000000D02*
X193712000Y-99000000D01*
X194880000Y-98680000D02*
X194880000Y-98210000D01*
D30*
X195320000Y-94850000D02*
X195630000Y-94540000D01*
D31*
X183200000Y-89530000D02*
X183200000Y-88060000D01*
X193462000Y-100938000D02*
X193462000Y-101398000D01*
X179950000Y-87160000D02*
X179160000Y-87950000D01*
X194940000Y-97400000D02*
X195770000Y-96570000D01*
X177660000Y-92980000D02*
X177350000Y-92670000D01*
X193462000Y-100708000D02*
X193462000Y-100938000D01*
X196860000Y-96360000D02*
X196860000Y-95350000D01*
X180750000Y-87920000D02*
X183340000Y-87920000D01*
X187650000Y-87930000D02*
X185640000Y-87930000D01*
X193462000Y-102188000D02*
X192940000Y-102710000D01*
X190180000Y-91690000D02*
X189475000Y-90985000D01*
X195600000Y-91950000D02*
X196870000Y-93220000D01*
X196860000Y-94890000D02*
X196510000Y-94540000D01*
X188900000Y-89180000D02*
X187650000Y-87930000D01*
X188665000Y-90985000D02*
X188900000Y-90750000D01*
X188900000Y-89190000D02*
X188900000Y-89180000D01*
X180730000Y-90140000D02*
X182950000Y-87920000D01*
X187783865Y-88063865D02*
X187783865Y-85725000D01*
D30*
X177660000Y-93500000D02*
X178480000Y-93500000D01*
D31*
X183340000Y-87920000D02*
X184780000Y-87920000D01*
X193712000Y-99000000D02*
X193462000Y-99250000D01*
D30*
X186100000Y-91610000D02*
X186100000Y-91490000D01*
D31*
X184790000Y-87930000D02*
X184500000Y-88220000D01*
D30*
X193150000Y-95850000D02*
X193650000Y-95850000D01*
D31*
X173550000Y-87750000D02*
X175100000Y-87750000D01*
X175955000Y-94065000D02*
X172895000Y-94065000D01*
X188900000Y-90750000D02*
X188900000Y-89190000D01*
X178050000Y-91960000D02*
X178050000Y-91200000D01*
X172760000Y-96150000D02*
X172370000Y-96540000D01*
D30*
X194340000Y-97400000D02*
X194240000Y-97400000D01*
D31*
X188810000Y-90450000D02*
X188100000Y-90450000D01*
X196050000Y-96570000D02*
X196650000Y-96570000D01*
X193462000Y-99250000D02*
X193462000Y-100708000D01*
X178050000Y-91200000D02*
X179670000Y-91200000D01*
D30*
X195630000Y-94540000D02*
X196050000Y-94540000D01*
D31*
X196510000Y-94540000D02*
X196050000Y-94540000D01*
D30*
X188110000Y-93550000D02*
X187845000Y-93815000D01*
D31*
X172895000Y-94065000D02*
X172100000Y-94065000D01*
X177660000Y-94660000D02*
X176190000Y-96130000D01*
X172370000Y-97160000D02*
X172100000Y-97430000D01*
D30*
X193650000Y-96810000D02*
X193650000Y-96350000D01*
D31*
X192940000Y-102710000D02*
X192940000Y-104475000D01*
D30*
X187020000Y-90570000D02*
X186700000Y-90890000D01*
X188100000Y-90450000D02*
X187980000Y-90570000D01*
D31*
X178262500Y-88037500D02*
X178262500Y-87950000D01*
X194880000Y-98210000D02*
X194880000Y-97450000D01*
X174140000Y-96130000D02*
X171210000Y-96130000D01*
X181730000Y-91090000D02*
X181680000Y-91090000D01*
X171285000Y-94065000D02*
X172100000Y-94065000D01*
X183200000Y-88060000D02*
X183340000Y-87920000D01*
X177590000Y-88710000D02*
X178262500Y-88037500D01*
D30*
X187980000Y-90550000D02*
X187020000Y-90550000D01*
X186450000Y-93150000D02*
X186450000Y-91960000D01*
X177660000Y-94660000D02*
X177670000Y-94670000D01*
D31*
X171050000Y-94300000D02*
X171285000Y-94065000D01*
X175100000Y-87750000D02*
X175300000Y-87950000D01*
D30*
X186700000Y-90890000D02*
X187670000Y-91860000D01*
D31*
X177350000Y-92660000D02*
X178050000Y-91960000D01*
D30*
X186450000Y-91960000D02*
X186100000Y-91610000D01*
D31*
X193122000Y-98910000D02*
X193462000Y-99250000D01*
X179160000Y-87950000D02*
X178262500Y-87950000D01*
X175710000Y-88710000D02*
X177590000Y-88710000D01*
X184524812Y-97934812D02*
X184560000Y-97970000D01*
D30*
X187670000Y-92750000D02*
X188110000Y-93190000D01*
D31*
X171050000Y-95150000D02*
X171050000Y-94300000D01*
D30*
X188110000Y-93190000D02*
X188110000Y-93550000D01*
D31*
X177350000Y-92670000D02*
X175955000Y-94065000D01*
D30*
X187845000Y-94315000D02*
X187660000Y-94500000D01*
D31*
X193462000Y-101398000D02*
X193462000Y-102188000D01*
X192940000Y-104475000D02*
X192957082Y-104475000D01*
X184560000Y-97970000D02*
X184560000Y-98610000D01*
X179670000Y-91200000D02*
X180730000Y-90140000D01*
X196870000Y-95340000D02*
X196860000Y-95350000D01*
D30*
X187845000Y-93815000D02*
X187845000Y-94315000D01*
D31*
X184490000Y-87920000D02*
X184650000Y-88080000D01*
D30*
X194670000Y-94850000D02*
X195320000Y-94850000D01*
X193650000Y-96350000D02*
X193650000Y-95850000D01*
D31*
X180020000Y-87160000D02*
X180020000Y-85725000D01*
D33*
G04 #@! TO.N,/M4_D3*
X186520000Y-85650000D02*
X186490091Y-85650000D01*
D30*
X187219624Y-93700000D02*
X186700000Y-93700000D01*
X187655000Y-93264624D02*
X187219624Y-93700000D01*
G04 #@! TO.N,/M4_D4*
X183360000Y-92160000D02*
X184300000Y-93100000D01*
X184300000Y-93100000D02*
X184300000Y-93300000D01*
D33*
X185160000Y-85650000D02*
X185196063Y-85650000D01*
D30*
X182280000Y-90570000D02*
X183360000Y-91650000D01*
X183360000Y-91650000D02*
X183360000Y-92160000D01*
X182280000Y-90320000D02*
X182280000Y-90570000D01*
G04 #@! TO.N,/M4_D1*
X187060000Y-87210000D02*
X184160000Y-87210000D01*
X184160000Y-87210000D02*
X183902034Y-86952034D01*
X183902034Y-86952034D02*
X183902034Y-85775000D01*
D34*
G04 #@! TO.N,/M1_D2*
X170940000Y-103070000D02*
X170940000Y-104475000D01*
X177250000Y-101000000D02*
X177050000Y-101200000D01*
X177050000Y-101200000D02*
X174900000Y-101200000D01*
X172810000Y-101200000D02*
X170940000Y-103070000D01*
D31*
X170940000Y-104475000D02*
X170960885Y-104475000D01*
D34*
X175320000Y-101200000D02*
X172810000Y-101200000D01*
G04 #@! TO.N,/M1_D1*
X175600000Y-101750000D02*
X173590000Y-101750000D01*
X173590000Y-101750000D02*
X172254609Y-103085391D01*
D31*
X176420000Y-101800000D02*
X176370000Y-101750000D01*
X175600000Y-101750000D02*
X176370000Y-101750000D01*
D34*
X172254609Y-103085391D02*
X172254609Y-104475000D01*
D31*
X177250000Y-101800000D02*
X176420000Y-101800000D01*
D30*
G04 #@! TO.N,/M1_D4*
X183644500Y-101870000D02*
X183323553Y-101870000D01*
X178530000Y-102540000D02*
X174110000Y-102540000D01*
X183820000Y-101694500D02*
X183644500Y-101870000D01*
X179500500Y-101569500D02*
X178530000Y-102540000D01*
X183323553Y-101870000D02*
X183023053Y-101569500D01*
X173548383Y-103101617D02*
X173548383Y-104425000D01*
D33*
X173550000Y-104550000D02*
X173548383Y-104550000D01*
D30*
X174110000Y-102540000D02*
X173548383Y-103101617D01*
X183023053Y-101569500D02*
X179500500Y-101569500D01*
G04 #@! TO.N,/M1_D3*
X178540000Y-103050000D02*
X175160000Y-103050000D01*
X179770500Y-101819500D02*
X178540000Y-103050000D01*
X185540000Y-102220000D02*
X183320000Y-102220000D01*
X182919500Y-101819500D02*
X179770500Y-101819500D01*
X175160000Y-103050000D02*
X174842107Y-103367893D01*
X185930000Y-101830000D02*
X185540000Y-102220000D01*
X185930000Y-101730000D02*
X185930000Y-101830000D01*
X183320000Y-102220000D02*
X182919500Y-101819500D01*
D33*
X174830000Y-104550000D02*
X174842107Y-104550000D01*
D30*
X174842107Y-103367893D02*
X174842107Y-104425000D01*
G04 #@! TO.N,/M4_D7*
X187470000Y-96480000D02*
X187450000Y-96500000D01*
X179010000Y-100780000D02*
X178645000Y-100415000D01*
D33*
X176070000Y-104534119D02*
X176085881Y-104550000D01*
D30*
X187919812Y-97089812D02*
X187919812Y-99660188D01*
X177025000Y-100415000D02*
X176969502Y-100470498D01*
X178645000Y-100415000D02*
X177025000Y-100415000D01*
X187450000Y-96500000D02*
X186700000Y-96500000D01*
X187919812Y-99660188D02*
X186800000Y-100780000D01*
D33*
X176085881Y-104550000D02*
X176135881Y-104550000D01*
D30*
X186800000Y-100780000D02*
X179010000Y-100780000D01*
G04 #@! TO.N,/M3_D7*
X179330000Y-100530000D02*
X186610000Y-100530000D01*
X186610000Y-100530000D02*
X187560000Y-99580000D01*
X187560000Y-98290000D02*
X186300000Y-97030000D01*
X186300000Y-97030000D02*
X186300000Y-96900000D01*
X178770000Y-99970000D02*
X179330000Y-100530000D01*
X177750000Y-100029500D02*
X177809500Y-99970000D01*
X177809500Y-99970000D02*
X178770000Y-99970000D01*
D33*
X177460000Y-104550000D02*
X177429605Y-104550000D01*
D30*
X187560000Y-99580000D02*
X187560000Y-98290000D01*
G04 #@! TO.N,/B1*
X179920000Y-102520000D02*
X179350000Y-103090000D01*
D33*
X178773379Y-104550000D02*
X178723379Y-104550000D01*
X178780000Y-104543379D02*
X178773379Y-104550000D01*
D30*
X178970000Y-103090000D02*
X178723379Y-103336621D01*
X179350000Y-103090000D02*
X178970000Y-103090000D01*
X178723379Y-103336621D02*
X178723379Y-104425000D01*
X179440000Y-97330000D02*
X180015000Y-97330000D01*
G04 #@! TO.N,/B2*
X180020000Y-103132482D02*
X180020000Y-104422103D01*
D33*
X180030000Y-104550000D02*
X180017103Y-104550000D01*
D30*
X181060000Y-98490000D02*
X180485000Y-98490000D01*
X180957982Y-102194500D02*
X180020000Y-103132482D01*
X180020000Y-104422103D02*
X180017103Y-104425000D01*
G04 #@! TO.N,/B3*
X181310877Y-102393123D02*
X181310877Y-104425000D01*
X181510000Y-102194000D02*
X181310877Y-102393123D01*
D33*
X181280000Y-104550000D02*
X181310877Y-104550000D01*
D30*
G04 #@! TO.N,/B5*
X181980000Y-94700000D02*
X182180000Y-94900000D01*
X181380000Y-94700000D02*
X181980000Y-94700000D01*
D33*
X182610000Y-104550000D02*
X182604905Y-104550000D01*
D30*
X182180000Y-94900000D02*
X183500000Y-94900000D01*
D33*
G04 #@! TO.N,/B4*
X183890000Y-104550000D02*
X183898934Y-104550000D01*
D30*
X186700000Y-94100000D02*
X187460000Y-94100000D01*
X187460000Y-94100000D02*
X187470000Y-94090000D01*
G04 #@! TO.N,/M2_D5*
X184060000Y-97870000D02*
X184700000Y-97230000D01*
X184700000Y-97230000D02*
X184700000Y-96900000D01*
X184273434Y-99800000D02*
X184060000Y-99586566D01*
X184060000Y-99586566D02*
X184060000Y-97870000D01*
G04 #@! TO.N,/M2_D4*
X187300000Y-102239500D02*
X187780968Y-102720468D01*
X181349502Y-95289500D02*
X181360002Y-95300000D01*
X181360002Y-95300000D02*
X183500000Y-95300000D01*
X187780968Y-102720468D02*
X187780968Y-104425000D01*
G04 #@! TO.N,/M2_D3*
X188330000Y-102190000D02*
X189074997Y-102934997D01*
X189074997Y-102934997D02*
X189074997Y-104425000D01*
G04 #@! TO.N,/M2_D2*
X187295500Y-92420000D02*
X186700000Y-93015500D01*
X191259812Y-98639812D02*
X191259812Y-101170188D01*
X190330000Y-104425000D02*
X190369025Y-104425000D01*
X190330000Y-102100000D02*
X190330000Y-104425000D01*
X186700000Y-93015500D02*
X186700000Y-93300000D01*
X191259812Y-101170188D02*
X190330000Y-102100000D01*
G04 #@! TO.N,/M2_D1*
X192070000Y-101410000D02*
X191663053Y-101816947D01*
X191663053Y-101816947D02*
X191663053Y-104425000D01*
X191780000Y-99105500D02*
X192070000Y-99395500D01*
X192070000Y-99395500D02*
X192070000Y-101410000D01*
D33*
G04 #@! TO.N,/P0_D1*
X194250000Y-104550000D02*
X194251059Y-104550000D01*
D30*
G04 #@! TO.N,/P0_D3*
X185691047Y-99658953D02*
X186310000Y-99040000D01*
X186310000Y-99040000D02*
X186310000Y-98493553D01*
X185100000Y-97283553D02*
X185100000Y-96900000D01*
X186310000Y-98493553D02*
X185100000Y-97283553D01*
X185691047Y-99859374D02*
X185691047Y-99658953D01*
G04 #@! TO.N,/PD2*
X174060000Y-99380000D02*
X174060000Y-100010000D01*
X174290000Y-99150000D02*
X174060000Y-99380000D01*
X174290000Y-99140000D02*
X174290000Y-99150000D01*
D31*
G04 #@! TO.N,Net-(C1-Pad1)*
X174000000Y-91200000D02*
X174000000Y-90100000D01*
X175100000Y-89650000D02*
X175300000Y-89450000D01*
X174000000Y-90100000D02*
X173550000Y-89650000D01*
X173550000Y-89650000D02*
X175100000Y-89650000D01*
D30*
G04 #@! TO.N,Net-(C11-Pad1)*
X183030000Y-98477718D02*
X183030000Y-98590000D01*
X182604710Y-98052428D02*
X183030000Y-98477718D01*
G04 #@! TO.N,Net-(C11-Pad2)*
X182304169Y-97199500D02*
X181940000Y-97563669D01*
X181940000Y-97563669D02*
X181940000Y-98420000D01*
X183750500Y-97199500D02*
X182304169Y-97199500D01*
X183900000Y-97050000D02*
X183750500Y-97199500D01*
X181940000Y-98420000D02*
X182110000Y-98590000D01*
X183900000Y-96900000D02*
X183900000Y-97050000D01*
G04 #@! TO.N,/PC12*
X176369812Y-98519812D02*
X175600000Y-99289624D01*
X177500331Y-96100000D02*
X183500000Y-96100000D01*
X176370000Y-97460000D02*
X176370000Y-97230331D01*
X175600000Y-99289624D02*
X175600000Y-100650000D01*
X176370000Y-97230331D02*
X177500331Y-96100000D01*
G04 #@! TO.N,Net-(C22-Pad1)*
X194880000Y-95890000D02*
X195320000Y-95890000D01*
X195560000Y-95650000D02*
X196050000Y-95650000D01*
X195320000Y-95890000D02*
X195560000Y-95650000D01*
D31*
G04 #@! TO.N,/M4_D5*
X174843886Y-85725000D02*
X174843886Y-86803886D01*
X174843886Y-86803886D02*
X175160000Y-87120000D01*
X175160000Y-87120000D02*
X176300000Y-87120000D01*
X176300000Y-87120000D02*
X176600000Y-87420000D01*
X176600000Y-87420000D02*
X176600000Y-87950000D01*
D30*
G04 #@! TO.N,Net-(R23-Pad1)*
X192098000Y-97952000D02*
X192098000Y-98260000D01*
X192970000Y-97390000D02*
X192660000Y-97390000D01*
X192660000Y-97390000D02*
X192098000Y-97952000D01*
G04 #@! TO.N,/VBAT*
X183060000Y-93300000D02*
X182760000Y-93000000D01*
X183500000Y-93300000D02*
X183060000Y-93300000D01*
D31*
X181275000Y-93625000D02*
X180820000Y-94080000D01*
X175835000Y-95335000D02*
X172100000Y-95335000D01*
X181275000Y-93215000D02*
X181275000Y-93625000D01*
X182710000Y-92990000D02*
X181500000Y-92990000D01*
X181500000Y-92990000D02*
X181275000Y-93215000D01*
X177090000Y-94080000D02*
X175835000Y-95335000D01*
X180820000Y-94080000D02*
X177090000Y-94080000D01*
D30*
G04 #@! TO.N,/ULPI_PWRDN*
X190579812Y-97630188D02*
X190579812Y-97449812D01*
X187969500Y-100240500D02*
X190579812Y-97630188D01*
X187947936Y-100240500D02*
X187969500Y-100240500D01*
G04 #@! TO.N,/ULPI_RST*
X187185500Y-99015500D02*
X185500000Y-97330000D01*
X185500000Y-97330000D02*
X185500000Y-96900000D01*
X187185500Y-99120000D02*
X187185500Y-99015500D01*
G04 #@! TO.N,Net-(R24-Pad2)*
X193780000Y-97600000D02*
X193780000Y-98210000D01*
G04 #@! TO.N,Net-(R25-Pad2)*
X192110000Y-97510000D02*
X193150000Y-96470000D01*
X193150000Y-96470000D02*
X193150000Y-96350000D01*
X190945500Y-97884500D02*
X187780000Y-101050000D01*
X191880000Y-97510000D02*
X192110000Y-97510000D01*
X190945500Y-97870000D02*
X190945500Y-97884500D01*
X191874812Y-97504812D02*
X191880000Y-97510000D01*
X187780000Y-101050000D02*
X178400000Y-101050000D01*
G04 #@! TO.N,Net-(R26-Pad2)*
X192650000Y-96460000D02*
X192650000Y-96350000D01*
X178620000Y-101800000D02*
X179100000Y-101320000D01*
X192050000Y-97060000D02*
X192650000Y-96460000D01*
X179100000Y-101320000D02*
X188050000Y-101320000D01*
X191760000Y-97060000D02*
X192050000Y-97060000D01*
X178350000Y-101800000D02*
X178620000Y-101800000D01*
X191320000Y-98050000D02*
X191320000Y-97500000D01*
X188050000Y-101320000D02*
X191320000Y-98050000D01*
X191320000Y-97500000D02*
X191760000Y-97060000D01*
G04 #@! TO.N,/PA12*
X174820000Y-99530000D02*
X174820000Y-100010000D01*
X175010000Y-99340000D02*
X174820000Y-99530000D01*
G04 #@! TO.N,/PA11*
X182459500Y-97574500D02*
X182574000Y-97460000D01*
X176390000Y-99360000D02*
X176390000Y-100630000D01*
X182574000Y-97460000D02*
X184000000Y-97460000D01*
X177530188Y-97799812D02*
X176970000Y-98360000D01*
X176970000Y-98360000D02*
X176970000Y-98780000D01*
X184300000Y-97160000D02*
X184300000Y-96900000D01*
X176970000Y-98780000D02*
X176390000Y-99360000D01*
X184000000Y-97460000D02*
X184300000Y-97160000D01*
G04 #@! TO.N,Net-(C12-Pad2)*
X185270000Y-92500000D02*
X185270000Y-91660000D01*
X183200000Y-90550000D02*
X184160000Y-90550000D01*
X185270000Y-91660000D02*
X184500000Y-90890000D01*
X184160000Y-90550000D02*
X184500000Y-90890000D01*
G04 #@! TO.N,Net-(C13-Pad1)*
X185500000Y-93296949D02*
X185670000Y-93126949D01*
D31*
X186500000Y-89290000D02*
X186700000Y-89290000D01*
X188100000Y-89530000D02*
X188000000Y-89630000D01*
D34*
X186465000Y-89290000D02*
X186500000Y-89290000D01*
D31*
X187040000Y-89630000D02*
X186700000Y-89290000D01*
D30*
X185670000Y-93126949D02*
X185670000Y-90085000D01*
X185500000Y-93300000D02*
X185500000Y-93296949D01*
D31*
X188000000Y-89630000D02*
X187040000Y-89630000D01*
D30*
X185670000Y-90085000D02*
X186465000Y-89290000D01*
G04 #@! TO.N,Net-(C14-Pad2)*
X183320000Y-92560000D02*
X180390000Y-92560000D01*
X183900000Y-93140000D02*
X183320000Y-92560000D01*
X178500000Y-92600000D02*
X179850000Y-92600000D01*
X183900000Y-93300000D02*
X183900000Y-93140000D01*
G04 #@! TO.N,Net-(C15-Pad1)*
X180070000Y-94570000D02*
X180070000Y-95320000D01*
X180070000Y-95320000D02*
X180100000Y-95350000D01*
X179860000Y-95590000D02*
X180100000Y-95350000D01*
X178500000Y-95590000D02*
X179860000Y-95590000D01*
G04 #@! TO.N,/MCU_BOOT0*
X181699500Y-93489500D02*
X182710000Y-94500000D01*
D31*
X176600000Y-89450000D02*
X176820000Y-89230000D01*
X176550000Y-91200000D02*
X176550000Y-89500000D01*
D30*
X181369833Y-88899833D02*
X180255167Y-88899833D01*
D31*
X178400000Y-89230000D02*
X178730000Y-88900000D01*
D30*
X181699500Y-93450000D02*
X181699500Y-93489500D01*
D31*
X180137500Y-89017500D02*
X180137500Y-88900000D01*
X176550000Y-89500000D02*
X176600000Y-89450000D01*
X175400000Y-91200000D02*
X176550000Y-91200000D01*
X178730000Y-88900000D02*
X180137500Y-88900000D01*
X176820000Y-89230000D02*
X178400000Y-89230000D01*
D30*
X182710000Y-94500000D02*
X183500000Y-94500000D01*
X180255167Y-88899833D02*
X180137500Y-89017500D01*
G04 #@! TO.N,/MCU_RESET*
X171290000Y-91780000D02*
X171290000Y-91190000D01*
D31*
X171450000Y-91030000D02*
X171290000Y-91190000D01*
D30*
X186090000Y-93106949D02*
X185900000Y-93296949D01*
X185900000Y-93296949D02*
X185900000Y-93300000D01*
D31*
X171450000Y-88700000D02*
X171450000Y-91030000D01*
D30*
X171860000Y-92350000D02*
X171290000Y-91780000D01*
X186090000Y-92194500D02*
X186090000Y-93106949D01*
X186075500Y-92180000D02*
X186090000Y-92194500D01*
X175825500Y-92350000D02*
X171860000Y-92350000D01*
X175870000Y-92394500D02*
X175825500Y-92350000D01*
G04 #@! TO.N,/ULPI_D7*
X191880000Y-92559502D02*
X191880000Y-92790000D01*
X191880000Y-92790000D02*
X192650000Y-93560000D01*
X189580000Y-90010000D02*
X189585500Y-90010000D01*
X192650000Y-93560000D02*
X192650000Y-93850000D01*
X189585500Y-90010000D02*
X190990000Y-91414500D01*
G04 #@! TO.N,/ULPI_DIR*
X184700000Y-92880000D02*
X184700000Y-93300000D01*
X183790000Y-91970000D02*
X184700000Y-92880000D01*
G04 #@! TO.N,/ULPI_XI*
X184170000Y-100250000D02*
X183680000Y-99760000D01*
X186360376Y-100250000D02*
X184170000Y-100250000D01*
X186795188Y-99815188D02*
X186360376Y-100250000D01*
X183680000Y-99760000D02*
X183680000Y-97930000D01*
G04 #@! TO.N,/ULPI_STP*
X184880000Y-92646446D02*
X185100000Y-92866446D01*
X185100000Y-92866446D02*
X185100000Y-93300000D01*
X184880000Y-92090000D02*
X184880000Y-92646446D01*
X184870000Y-92080000D02*
X184880000Y-92090000D01*
X192750000Y-92970000D02*
X193150000Y-93370000D01*
X193150000Y-93370000D02*
X193150000Y-93850000D01*
G04 #@! TO.N,/ULPI_D1*
X189760000Y-95570000D02*
X190540000Y-96350000D01*
X190540000Y-96350000D02*
X191650000Y-96350000D01*
X188990000Y-95570000D02*
X189760000Y-95570000D01*
G04 #@! TO.N,/ULPI_CLK*
X190820000Y-94850000D02*
X191650000Y-94850000D01*
X190730000Y-94760000D02*
X190820000Y-94850000D01*
G04 #@! TO.N,/ULPI_D3*
X190950708Y-95350000D02*
X191650000Y-95350000D01*
X190845000Y-95455708D02*
X190950708Y-95350000D01*
G04 #@! TO.N,/ULPI_D2*
X189234812Y-95034812D02*
X189894481Y-95034812D01*
X189894481Y-95034812D02*
X190709669Y-95850000D01*
X190709669Y-95850000D02*
X191650000Y-95850000D01*
G04 #@! TO.N,/ULPI_D0*
X191710000Y-96790000D02*
X192150000Y-96350000D01*
X190450376Y-96790000D02*
X191710000Y-96790000D01*
X189610376Y-95950000D02*
X190450376Y-96790000D01*
G04 #@! TO.N,/ULPI_D6*
X187580000Y-96900000D02*
X186700000Y-96900000D01*
X190127938Y-93612062D02*
X187950000Y-95790000D01*
X187950000Y-96530000D02*
X187580000Y-96900000D01*
X190172438Y-93612062D02*
X190127938Y-93612062D01*
X191554812Y-93254812D02*
X192150000Y-93850000D01*
X190885188Y-93254812D02*
X191554812Y-93254812D01*
X187950000Y-95790000D02*
X187950000Y-96530000D01*
G04 #@! TO.N,/ULPI_D5*
X189920000Y-93210000D02*
X187030000Y-96100000D01*
X187030000Y-96100000D02*
X186700000Y-96100000D01*
X190300000Y-93210000D02*
X189920000Y-93210000D01*
X191650000Y-93850000D02*
X190940000Y-93850000D01*
X190940000Y-93850000D02*
X190300000Y-93210000D01*
G04 #@! TO.N,/ULPI_D4*
X188694812Y-93565188D02*
X188310000Y-93950000D01*
X190539669Y-94350000D02*
X191650000Y-94350000D01*
X186813554Y-95700000D02*
X186700000Y-95700000D01*
X188310000Y-94203554D02*
X186813554Y-95700000D01*
X189931960Y-94538838D02*
X190350831Y-94538838D01*
X188310000Y-93950000D02*
X188310000Y-94203554D01*
X190350831Y-94538838D02*
X190539669Y-94350000D01*
X188974812Y-93565188D02*
X188694812Y-93565188D01*
G04 #@! TO.N,/SW_CLK*
X182360000Y-96500000D02*
X183500000Y-96500000D01*
X177960000Y-96400000D02*
X182260000Y-96400000D01*
X175660000Y-98700000D02*
X177960000Y-96400000D01*
X172100000Y-98700000D02*
X175660000Y-98700000D01*
X182260000Y-96400000D02*
X182360000Y-96500000D01*
G04 #@! TO.N,/SW_IO*
X172910000Y-99710000D02*
X172650000Y-99970000D01*
X172650000Y-99970000D02*
X172100000Y-99970000D01*
X173380000Y-99710000D02*
X172910000Y-99710000D01*
G04 #@! TD*
G04 #@! TA.AperFunction,Conductor*
G04 #@! TO.N,GND*
G36*
X197167532Y-88451605D02*
G01*
X197224368Y-88494152D01*
X197249179Y-88560672D01*
X197249500Y-88569661D01*
X197249500Y-103183916D01*
X197229498Y-103252037D01*
X197175842Y-103298530D01*
X197123454Y-103309916D01*
X194340774Y-103308881D01*
X191964506Y-103307997D01*
X191896393Y-103287970D01*
X191849920Y-103234297D01*
X191838553Y-103181997D01*
X191838553Y-102012544D01*
X191858555Y-101944423D01*
X191875457Y-101923449D01*
X192222937Y-101575968D01*
X192227722Y-101571427D01*
X192233208Y-101566487D01*
X192256509Y-101545507D01*
X192264755Y-101526985D01*
X192274183Y-101509622D01*
X192285226Y-101492618D01*
X192287298Y-101479537D01*
X192289080Y-101474894D01*
X192290114Y-101470028D01*
X192295500Y-101457932D01*
X192295500Y-101437666D01*
X192297051Y-101417955D01*
X192298151Y-101411011D01*
X192300222Y-101397935D01*
X192296795Y-101385146D01*
X192296102Y-101371918D01*
X192296576Y-101371893D01*
X192295500Y-101363723D01*
X192295500Y-99404708D01*
X192295673Y-99398114D01*
X192297007Y-99372663D01*
X192297007Y-99372662D01*
X192297700Y-99359436D01*
X192292954Y-99347074D01*
X192292954Y-99347071D01*
X192290436Y-99340512D01*
X192284820Y-99321553D01*
X192283361Y-99314687D01*
X192283360Y-99314685D01*
X192280607Y-99301732D01*
X192272822Y-99291017D01*
X192270797Y-99286469D01*
X192268091Y-99282302D01*
X192263346Y-99269941D01*
X192249017Y-99255612D01*
X192236176Y-99240578D01*
X192232043Y-99234889D01*
X192232042Y-99234888D01*
X192224260Y-99224177D01*
X192212794Y-99217557D01*
X192202949Y-99208693D01*
X192203267Y-99208340D01*
X192196728Y-99203323D01*
X192170223Y-99176818D01*
X192136197Y-99114506D01*
X192135223Y-99105444D01*
X192134869Y-99105500D01*
X192119051Y-99005631D01*
X192117500Y-98995839D01*
X192067095Y-98896913D01*
X192045777Y-98875595D01*
X192011751Y-98813283D01*
X192016816Y-98742468D01*
X192059363Y-98685632D01*
X192125883Y-98660821D01*
X192134872Y-98660500D01*
X192280320Y-98660500D01*
X192324222Y-98651767D01*
X192334540Y-98644873D01*
X192334542Y-98644872D01*
X192363685Y-98625399D01*
X192374004Y-98618504D01*
X192380899Y-98608185D01*
X192400372Y-98579042D01*
X192400373Y-98579040D01*
X192407267Y-98568722D01*
X192416000Y-98524820D01*
X192416000Y-98005096D01*
X192436002Y-97936975D01*
X192452905Y-97916001D01*
X192650573Y-97718333D01*
X192712885Y-97684307D01*
X192783700Y-97689372D01*
X192796862Y-97695157D01*
X192860339Y-97727500D01*
X192970000Y-97744869D01*
X192979792Y-97743318D01*
X193069869Y-97729051D01*
X193079661Y-97727500D01*
X193088497Y-97722998D01*
X193108024Y-97713049D01*
X193177801Y-97699945D01*
X193243585Y-97726646D01*
X193284491Y-97784673D01*
X193287338Y-97851100D01*
X193288233Y-97851278D01*
X193279500Y-97895180D01*
X193279500Y-98524820D01*
X193288233Y-98568722D01*
X193295127Y-98579040D01*
X193295128Y-98579042D01*
X193314601Y-98608185D01*
X193321496Y-98618504D01*
X193331815Y-98625399D01*
X193360958Y-98644872D01*
X193360960Y-98644873D01*
X193371278Y-98651767D01*
X193415180Y-98660500D01*
X194144820Y-98660500D01*
X194188722Y-98651767D01*
X194199040Y-98644873D01*
X194199042Y-98644872D01*
X194228185Y-98625399D01*
X194238504Y-98618504D01*
X194245399Y-98608185D01*
X194264872Y-98579042D01*
X194264873Y-98579040D01*
X194271767Y-98568722D01*
X194280500Y-98524820D01*
X194280500Y-97895180D01*
X194271767Y-97851278D01*
X194264873Y-97840960D01*
X194264872Y-97840958D01*
X194245399Y-97811815D01*
X194238504Y-97801496D01*
X194213327Y-97784673D01*
X194188722Y-97768233D01*
X194190277Y-97765905D01*
X194149277Y-97732864D01*
X194126857Y-97665501D01*
X194128329Y-97641292D01*
X194133318Y-97609796D01*
X194133318Y-97609792D01*
X194134869Y-97600000D01*
X194117500Y-97490339D01*
X194067095Y-97391413D01*
X193988587Y-97312905D01*
X193889661Y-97262500D01*
X193872981Y-97259858D01*
X193811101Y-97250057D01*
X193780000Y-97245131D01*
X193748899Y-97250057D01*
X193687020Y-97259858D01*
X193670339Y-97262500D01*
X193571413Y-97312905D01*
X193522897Y-97361421D01*
X193460585Y-97395447D01*
X193389770Y-97390382D01*
X193332934Y-97347835D01*
X193312484Y-97299445D01*
X193312116Y-97299564D01*
X193310725Y-97295284D01*
X193309354Y-97292039D01*
X193309052Y-97290136D01*
X193309051Y-97290134D01*
X193307500Y-97280339D01*
X193257095Y-97181413D01*
X193178587Y-97102905D01*
X193079661Y-97052500D01*
X193073200Y-97051477D01*
X193016141Y-97012459D01*
X192988505Y-96947062D01*
X193000613Y-96877106D01*
X193024589Y-96843606D01*
X193252289Y-96615906D01*
X193271382Y-96600236D01*
X193338308Y-96555517D01*
X193348624Y-96548624D01*
X193409515Y-96457495D01*
X193430897Y-96350000D01*
X193409515Y-96242505D01*
X193348624Y-96151376D01*
X193257495Y-96090485D01*
X193150000Y-96069103D01*
X193137829Y-96071524D01*
X193061442Y-96086718D01*
X192990728Y-96080390D01*
X192934661Y-96036835D01*
X192911042Y-95969883D01*
X192913282Y-95938558D01*
X192928476Y-95862171D01*
X192930897Y-95850000D01*
X192920056Y-95795500D01*
X192913282Y-95761442D01*
X192919610Y-95690728D01*
X192963165Y-95634661D01*
X193030117Y-95611042D01*
X193061442Y-95613282D01*
X193137829Y-95628476D01*
X193150000Y-95630897D01*
X193257495Y-95609515D01*
X193271735Y-95600000D01*
X193329998Y-95561070D01*
X193397751Y-95539855D01*
X193470002Y-95561070D01*
X193528265Y-95600000D01*
X193542505Y-95609515D01*
X193650000Y-95630897D01*
X193662171Y-95628476D01*
X193738558Y-95613282D01*
X193809272Y-95619610D01*
X193865339Y-95663165D01*
X193888958Y-95730117D01*
X193886718Y-95761442D01*
X193879944Y-95795500D01*
X193869103Y-95850000D01*
X193890485Y-95957495D01*
X193897380Y-95967814D01*
X193938930Y-96029998D01*
X193960145Y-96097751D01*
X193938930Y-96170002D01*
X193890485Y-96242505D01*
X193869103Y-96350000D01*
X193890485Y-96457495D01*
X193951376Y-96548624D01*
X194042505Y-96609515D01*
X194150000Y-96630897D01*
X194257495Y-96609515D01*
X194348624Y-96548624D01*
X194409515Y-96457495D01*
X194430897Y-96350000D01*
X194409515Y-96242505D01*
X194361070Y-96170002D01*
X194339855Y-96102249D01*
X194361069Y-96029999D01*
X194377385Y-96005580D01*
X194384099Y-95995532D01*
X194438575Y-95950005D01*
X194509018Y-95941156D01*
X194573062Y-95971797D01*
X194597983Y-96002534D01*
X194640739Y-96076590D01*
X194646252Y-96086138D01*
X194654697Y-96093224D01*
X194718989Y-96147172D01*
X194718991Y-96147173D01*
X194727432Y-96154256D01*
X194739332Y-96158587D01*
X194816658Y-96186731D01*
X194816659Y-96186731D01*
X194827014Y-96190500D01*
X194932986Y-96190500D01*
X194943341Y-96186731D01*
X194943342Y-96186731D01*
X195020668Y-96158587D01*
X195032568Y-96154256D01*
X195041009Y-96147173D01*
X195041011Y-96147172D01*
X195043624Y-96144979D01*
X195048520Y-96142836D01*
X195050559Y-96141659D01*
X195050690Y-96141886D01*
X195108665Y-96116514D01*
X195124616Y-96115500D01*
X195310792Y-96115500D01*
X195317386Y-96115673D01*
X195342836Y-96117007D01*
X195342837Y-96117007D01*
X195356064Y-96117700D01*
X195374984Y-96110437D01*
X195393942Y-96104821D01*
X195400816Y-96103360D01*
X195413768Y-96100607D01*
X195424481Y-96092824D01*
X195429029Y-96090799D01*
X195433198Y-96088092D01*
X195445560Y-96083346D01*
X195459892Y-96069014D01*
X195474929Y-96056171D01*
X195479185Y-96053079D01*
X195546053Y-96029222D01*
X195615204Y-96045305D01*
X195630383Y-96056838D01*
X195631496Y-96058504D01*
X195640443Y-96064482D01*
X195670958Y-96084872D01*
X195670960Y-96084873D01*
X195681278Y-96091767D01*
X195725180Y-96100500D01*
X196374820Y-96100500D01*
X196418722Y-96091767D01*
X196429040Y-96084873D01*
X196429042Y-96084872D01*
X196458185Y-96065399D01*
X196468504Y-96058504D01*
X196477323Y-96045305D01*
X196494872Y-96019042D01*
X196494873Y-96019040D01*
X196501767Y-96008722D01*
X196510500Y-95964820D01*
X196510500Y-95335180D01*
X196501767Y-95291278D01*
X196494873Y-95280960D01*
X196494872Y-95280958D01*
X196475399Y-95251815D01*
X196468504Y-95241496D01*
X196455449Y-95232773D01*
X196429042Y-95215128D01*
X196429040Y-95215127D01*
X196418722Y-95208233D01*
X196374820Y-95199500D01*
X195725180Y-95199500D01*
X195681278Y-95208233D01*
X195670960Y-95215127D01*
X195670958Y-95215128D01*
X195644551Y-95232773D01*
X195631496Y-95241496D01*
X195624601Y-95251815D01*
X195605128Y-95280958D01*
X195605127Y-95280960D01*
X195598233Y-95291278D01*
X195595812Y-95303449D01*
X195589714Y-95334105D01*
X195556806Y-95397014D01*
X195511285Y-95427156D01*
X195505006Y-95429566D01*
X195486056Y-95435179D01*
X195479187Y-95436639D01*
X195479186Y-95436639D01*
X195466232Y-95439393D01*
X195455517Y-95447178D01*
X195450969Y-95449203D01*
X195446800Y-95451910D01*
X195434440Y-95456655D01*
X195420112Y-95470983D01*
X195405078Y-95483824D01*
X195399592Y-95487810D01*
X195388677Y-95495740D01*
X195382057Y-95507206D01*
X195373193Y-95517051D01*
X195372840Y-95516733D01*
X195367823Y-95523272D01*
X195263500Y-95627595D01*
X195201188Y-95661621D01*
X195174405Y-95664500D01*
X195124616Y-95664500D01*
X195056495Y-95644498D01*
X195043624Y-95635021D01*
X195041011Y-95632828D01*
X195041009Y-95632827D01*
X195032568Y-95625744D01*
X194946765Y-95594515D01*
X194943342Y-95593269D01*
X194943341Y-95593269D01*
X194932986Y-95589500D01*
X194827014Y-95589500D01*
X194816659Y-95593269D01*
X194816658Y-95593269D01*
X194813235Y-95594515D01*
X194727432Y-95625744D01*
X194718991Y-95632827D01*
X194718989Y-95632828D01*
X194674687Y-95670002D01*
X194646252Y-95693862D01*
X194622761Y-95734550D01*
X194571381Y-95783542D01*
X194501667Y-95796979D01*
X194435756Y-95770593D01*
X194408878Y-95741551D01*
X194361070Y-95670002D01*
X194339855Y-95602250D01*
X194361070Y-95529998D01*
X194402620Y-95467814D01*
X194409515Y-95457495D01*
X194430897Y-95350000D01*
X194409515Y-95242505D01*
X194364075Y-95174500D01*
X194361070Y-95170002D01*
X194339855Y-95102249D01*
X194361070Y-95029998D01*
X194402620Y-94967814D01*
X194409515Y-94957495D01*
X194430897Y-94850000D01*
X194409515Y-94742505D01*
X194386866Y-94708608D01*
X194361070Y-94670002D01*
X194339855Y-94602249D01*
X194361070Y-94529998D01*
X194402620Y-94467814D01*
X194409515Y-94457495D01*
X194430897Y-94350000D01*
X194409515Y-94242505D01*
X194391516Y-94215568D01*
X194361070Y-94170002D01*
X194339855Y-94102249D01*
X194361070Y-94029998D01*
X194402620Y-93967814D01*
X194409515Y-93957495D01*
X194430897Y-93850000D01*
X194409515Y-93742505D01*
X194348624Y-93651376D01*
X194326009Y-93636265D01*
X194280481Y-93581788D01*
X194271634Y-93511345D01*
X194302275Y-93447301D01*
X194362677Y-93409989D01*
X194396011Y-93405500D01*
X195463500Y-93405500D01*
X195531621Y-93425502D01*
X195578114Y-93479158D01*
X195589500Y-93531500D01*
X195589500Y-93934820D01*
X195598233Y-93978722D01*
X195605127Y-93989040D01*
X195605128Y-93989042D01*
X195616489Y-94006044D01*
X195631496Y-94028504D01*
X195641815Y-94035399D01*
X195670958Y-94054872D01*
X195670960Y-94054873D01*
X195681278Y-94061767D01*
X195725180Y-94070500D01*
X196374820Y-94070500D01*
X196418722Y-94061767D01*
X196429040Y-94054873D01*
X196429042Y-94054872D01*
X196458185Y-94035399D01*
X196468504Y-94028504D01*
X196483511Y-94006044D01*
X196494872Y-93989042D01*
X196494873Y-93989040D01*
X196501767Y-93978722D01*
X196510500Y-93934820D01*
X196510500Y-93305180D01*
X196501767Y-93261278D01*
X196494873Y-93250960D01*
X196494872Y-93250958D01*
X196475399Y-93221815D01*
X196468504Y-93211496D01*
X196458185Y-93204601D01*
X196429042Y-93185128D01*
X196429040Y-93185127D01*
X196418722Y-93178233D01*
X196374820Y-93169500D01*
X195970595Y-93169500D01*
X195902474Y-93149498D01*
X195881500Y-93132595D01*
X195802693Y-93053788D01*
X195742618Y-93014774D01*
X195667565Y-93002887D01*
X195661012Y-93001849D01*
X195661011Y-93001849D01*
X195647935Y-92999778D01*
X195555338Y-93024589D01*
X195545045Y-93032924D01*
X195533248Y-93038935D01*
X195531464Y-93035433D01*
X195487553Y-93053745D01*
X195473783Y-93054500D01*
X194526839Y-93054500D01*
X194458718Y-93034498D01*
X194412225Y-92980842D01*
X194402390Y-92908789D01*
X194413318Y-92839793D01*
X194413318Y-92839792D01*
X194414869Y-92830000D01*
X194397500Y-92720339D01*
X194347095Y-92621413D01*
X194268587Y-92542905D01*
X194169661Y-92492500D01*
X194060000Y-92475131D01*
X194060555Y-92471625D01*
X194009656Y-92456680D01*
X193988682Y-92439777D01*
X193935977Y-92387072D01*
X193931436Y-92382288D01*
X193924684Y-92374789D01*
X193905507Y-92353491D01*
X193886985Y-92345245D01*
X193869622Y-92335817D01*
X193852618Y-92324774D01*
X193839537Y-92322702D01*
X193834894Y-92320920D01*
X193830028Y-92319886D01*
X193817932Y-92314500D01*
X193797666Y-92314500D01*
X193777957Y-92312949D01*
X193757935Y-92309778D01*
X193745146Y-92313205D01*
X193731918Y-92313898D01*
X193731893Y-92313424D01*
X193723723Y-92314500D01*
X192685595Y-92314500D01*
X192617474Y-92294498D01*
X192596500Y-92277595D01*
X192577405Y-92258500D01*
X192543379Y-92196188D01*
X192540500Y-92169405D01*
X192540500Y-91625180D01*
X192531767Y-91581278D01*
X192524872Y-91570958D01*
X192522283Y-91564709D01*
X192515112Y-91491907D01*
X192517744Y-91478677D01*
X192520500Y-91464820D01*
X192520500Y-90816662D01*
X192540502Y-90748541D01*
X192557405Y-90727567D01*
X192697567Y-90587405D01*
X192759879Y-90553379D01*
X192786662Y-90550500D01*
X194787634Y-90550500D01*
X194790307Y-90550696D01*
X194795342Y-90552425D01*
X194806964Y-90551989D01*
X194806966Y-90551989D01*
X194844255Y-90550589D01*
X194848981Y-90550500D01*
X194867948Y-90550500D01*
X194872683Y-90549618D01*
X194876209Y-90549390D01*
X194879949Y-90549249D01*
X194907208Y-90548226D01*
X194917893Y-90543636D01*
X194922493Y-90542599D01*
X194934214Y-90539038D01*
X194938617Y-90537339D01*
X194950053Y-90535209D01*
X194971041Y-90522272D01*
X194987411Y-90513769D01*
X195001888Y-90507549D01*
X195001892Y-90507547D01*
X195010063Y-90504036D01*
X195014949Y-90500022D01*
X195017134Y-90497837D01*
X195019397Y-90495785D01*
X195019542Y-90495945D01*
X195028549Y-90488825D01*
X195035444Y-90482573D01*
X195045348Y-90476468D01*
X195061916Y-90454680D01*
X195073110Y-90441861D01*
X197034405Y-88480566D01*
X197096717Y-88446540D01*
X197167532Y-88451605D01*
G37*
G04 #@! TD.AperFunction*
G04 #@! TA.AperFunction,Conductor*
G36*
X190950644Y-98842428D02*
G01*
X190995707Y-98871389D01*
X190997407Y-98873089D01*
X191031433Y-98935401D01*
X191034312Y-98962184D01*
X191034312Y-101024593D01*
X191014310Y-101092714D01*
X190997407Y-101113688D01*
X190153788Y-101957307D01*
X190114774Y-102017382D01*
X190099778Y-102112065D01*
X190124589Y-102204662D01*
X190132924Y-102214955D01*
X190138935Y-102226752D01*
X190135433Y-102228536D01*
X190153745Y-102272447D01*
X190154500Y-102286217D01*
X190154500Y-103181277D01*
X190134498Y-103249398D01*
X190080842Y-103295891D01*
X190028453Y-103307277D01*
X189719203Y-103307162D01*
X189376449Y-103307035D01*
X189308337Y-103287008D01*
X189261864Y-103233335D01*
X189250497Y-103181035D01*
X189250497Y-103117517D01*
X189264230Y-103060314D01*
X189291668Y-103006464D01*
X189297680Y-102994665D01*
X189299798Y-102954251D01*
X189302004Y-102912161D01*
X189302004Y-102912160D01*
X189302697Y-102898933D01*
X189268343Y-102809438D01*
X188720223Y-102261318D01*
X188686197Y-102199006D01*
X188685223Y-102189944D01*
X188684869Y-102190000D01*
X188669051Y-102090131D01*
X188667500Y-102080339D01*
X188617095Y-101981413D01*
X188538587Y-101902905D01*
X188439661Y-101852500D01*
X188330000Y-101835131D01*
X188220339Y-101852500D01*
X188121413Y-101902905D01*
X188042905Y-101981413D01*
X187992500Y-102080339D01*
X187990949Y-102090131D01*
X187986059Y-102121006D01*
X187975131Y-102190000D01*
X187980549Y-102224209D01*
X187990822Y-102289067D01*
X187981723Y-102359478D01*
X187936001Y-102413792D01*
X187868173Y-102434765D01*
X187799773Y-102415738D01*
X187777278Y-102397873D01*
X187690223Y-102310818D01*
X187656197Y-102248506D01*
X187655223Y-102239444D01*
X187654869Y-102239500D01*
X187639051Y-102139631D01*
X187637500Y-102129839D01*
X187587095Y-102030913D01*
X187508587Y-101952405D01*
X187409661Y-101902000D01*
X187300000Y-101884631D01*
X187190339Y-101902000D01*
X187091413Y-101952405D01*
X187012905Y-102030913D01*
X186962500Y-102129839D01*
X186945131Y-102239500D01*
X186950349Y-102272447D01*
X186958702Y-102325179D01*
X186962500Y-102349161D01*
X187012905Y-102448087D01*
X187091413Y-102526595D01*
X187190339Y-102577000D01*
X187200131Y-102578551D01*
X187300000Y-102594369D01*
X187299445Y-102597875D01*
X187350342Y-102612820D01*
X187371316Y-102629722D01*
X187568563Y-102826968D01*
X187602588Y-102889280D01*
X187605468Y-102916064D01*
X187605468Y-103180329D01*
X187585466Y-103248450D01*
X187531810Y-103294943D01*
X187479421Y-103306329D01*
X185656731Y-103305651D01*
X181612328Y-103304147D01*
X181544217Y-103284121D01*
X181497744Y-103230448D01*
X181486377Y-103178148D01*
X181486377Y-102660225D01*
X181506379Y-102592104D01*
X181560035Y-102545611D01*
X181592664Y-102535777D01*
X181609865Y-102533052D01*
X181609868Y-102533051D01*
X181619661Y-102531500D01*
X181718587Y-102481095D01*
X181797095Y-102402587D01*
X181847500Y-102303661D01*
X181864869Y-102194000D01*
X181863318Y-102184208D01*
X181863318Y-102174289D01*
X181866471Y-102174289D01*
X181873447Y-102120302D01*
X181919167Y-102065987D01*
X181988797Y-102045000D01*
X182773903Y-102045000D01*
X182842024Y-102065002D01*
X182862998Y-102081904D01*
X183154032Y-102372937D01*
X183158573Y-102377722D01*
X183184493Y-102406509D01*
X183199683Y-102413272D01*
X183203011Y-102414754D01*
X183220384Y-102424187D01*
X183226275Y-102428013D01*
X183226277Y-102428014D01*
X183237383Y-102435226D01*
X183250465Y-102437298D01*
X183255102Y-102439078D01*
X183259966Y-102440112D01*
X183272068Y-102445500D01*
X183292335Y-102445500D01*
X183312044Y-102447051D01*
X183332066Y-102450222D01*
X183344855Y-102446795D01*
X183358083Y-102446102D01*
X183358108Y-102446576D01*
X183366278Y-102445500D01*
X185530792Y-102445500D01*
X185537386Y-102445673D01*
X185562836Y-102447007D01*
X185562837Y-102447007D01*
X185576064Y-102447700D01*
X185594984Y-102440437D01*
X185613942Y-102434821D01*
X185614206Y-102434765D01*
X185633768Y-102430607D01*
X185644481Y-102422824D01*
X185649029Y-102420799D01*
X185653198Y-102418092D01*
X185665560Y-102413346D01*
X185679892Y-102399014D01*
X185694927Y-102386173D01*
X185700609Y-102382045D01*
X185700611Y-102382043D01*
X185711323Y-102374260D01*
X185717944Y-102362793D01*
X185726806Y-102352950D01*
X185727159Y-102353268D01*
X185732175Y-102346731D01*
X185978832Y-102100074D01*
X186028992Y-102069336D01*
X186029869Y-102069051D01*
X186039661Y-102067500D01*
X186138587Y-102017095D01*
X186217095Y-101938587D01*
X186267500Y-101839661D01*
X186284869Y-101730000D01*
X186278725Y-101691210D01*
X186287824Y-101620801D01*
X186333545Y-101566486D01*
X186403174Y-101545500D01*
X188040792Y-101545500D01*
X188047386Y-101545673D01*
X188072836Y-101547007D01*
X188072837Y-101547007D01*
X188086064Y-101547700D01*
X188104984Y-101540437D01*
X188123942Y-101534821D01*
X188130816Y-101533360D01*
X188143768Y-101530607D01*
X188154481Y-101522824D01*
X188159029Y-101520799D01*
X188163198Y-101518092D01*
X188175560Y-101513346D01*
X188189892Y-101499014D01*
X188204927Y-101486173D01*
X188210609Y-101482045D01*
X188210611Y-101482043D01*
X188221323Y-101474260D01*
X188227944Y-101462793D01*
X188236806Y-101452950D01*
X188237159Y-101453268D01*
X188242175Y-101446731D01*
X190817517Y-98871389D01*
X190879829Y-98837363D01*
X190950644Y-98842428D01*
G37*
G04 #@! TD.AperFunction*
G04 #@! TA.AperFunction,Conductor*
G36*
X174627916Y-86910002D02*
G01*
X174648999Y-86930987D01*
X174650540Y-86929446D01*
X174664872Y-86943778D01*
X174677713Y-86958813D01*
X174681841Y-86964495D01*
X174681843Y-86964497D01*
X174689626Y-86975209D01*
X174701093Y-86981830D01*
X174710936Y-86990692D01*
X174710618Y-86991045D01*
X174717155Y-86996061D01*
X174861513Y-87140419D01*
X174895997Y-87204932D01*
X174900485Y-87227495D01*
X174961376Y-87318624D01*
X175052505Y-87379515D01*
X175132867Y-87395500D01*
X175848500Y-87395500D01*
X175916621Y-87415502D01*
X175963114Y-87469158D01*
X175974500Y-87521500D01*
X175974500Y-88414820D01*
X175983233Y-88458722D01*
X175990127Y-88469040D01*
X175990128Y-88469042D01*
X176006173Y-88493055D01*
X176016496Y-88508504D01*
X176026815Y-88515399D01*
X176055958Y-88534872D01*
X176055960Y-88534873D01*
X176066278Y-88541767D01*
X176110180Y-88550500D01*
X177089820Y-88550500D01*
X177133722Y-88541767D01*
X177144040Y-88534873D01*
X177144042Y-88534872D01*
X177173185Y-88515399D01*
X177183504Y-88508504D01*
X177193827Y-88493055D01*
X177209872Y-88469042D01*
X177209873Y-88469040D01*
X177216767Y-88458722D01*
X177225500Y-88414820D01*
X177225500Y-87485180D01*
X177216767Y-87441278D01*
X177209873Y-87430960D01*
X177209872Y-87430958D01*
X177190399Y-87401815D01*
X177183504Y-87391496D01*
X177173185Y-87384601D01*
X177144042Y-87365128D01*
X177144040Y-87365127D01*
X177133722Y-87358233D01*
X177089820Y-87349500D01*
X176951582Y-87349500D01*
X176883461Y-87329498D01*
X176846817Y-87293502D01*
X176809608Y-87237814D01*
X176798624Y-87221376D01*
X176785936Y-87212898D01*
X176766844Y-87197228D01*
X176674711Y-87105095D01*
X176640685Y-87042783D01*
X176645750Y-86971968D01*
X176688297Y-86915132D01*
X176754817Y-86890321D01*
X176763806Y-86890000D01*
X183553971Y-86890000D01*
X183622092Y-86910002D01*
X183668585Y-86963658D01*
X183674573Y-86983529D01*
X183674334Y-86988098D01*
X183708688Y-87077594D01*
X183994025Y-87362931D01*
X183998565Y-87367714D01*
X184015633Y-87386670D01*
X184015635Y-87386671D01*
X184024493Y-87396509D01*
X184043015Y-87404755D01*
X184060378Y-87414183D01*
X184077382Y-87425226D01*
X184090463Y-87427298D01*
X184095106Y-87429080D01*
X184099972Y-87430114D01*
X184112068Y-87435500D01*
X184132334Y-87435500D01*
X184152043Y-87437051D01*
X184172065Y-87440222D01*
X184184854Y-87436795D01*
X184198082Y-87436102D01*
X184198107Y-87436576D01*
X184206277Y-87435500D01*
X186737628Y-87435500D01*
X186805749Y-87455502D01*
X186826723Y-87472405D01*
X186861413Y-87507095D01*
X186960339Y-87557500D01*
X187070000Y-87574869D01*
X187079792Y-87573318D01*
X187169869Y-87559051D01*
X187179661Y-87557500D01*
X187278587Y-87507095D01*
X187357095Y-87428587D01*
X187407500Y-87329661D01*
X187424869Y-87220000D01*
X187407500Y-87110339D01*
X187388578Y-87073202D01*
X187375474Y-87003427D01*
X187402174Y-86937642D01*
X187460201Y-86896735D01*
X187500845Y-86890000D01*
X191363587Y-86890000D01*
X191431708Y-86910002D01*
X191478201Y-86963658D01*
X191489587Y-87016000D01*
X191489587Y-88522567D01*
X191475854Y-88579770D01*
X191442404Y-88645419D01*
X191441711Y-88658645D01*
X191438807Y-88714064D01*
X191437387Y-88741151D01*
X191471741Y-88830647D01*
X191829777Y-89188683D01*
X191863803Y-89250995D01*
X191864777Y-89260056D01*
X191865131Y-89260000D01*
X191882500Y-89369661D01*
X191932905Y-89468587D01*
X192011413Y-89547095D01*
X192110339Y-89597500D01*
X192220000Y-89614869D01*
X192229792Y-89613318D01*
X192319869Y-89599051D01*
X192329661Y-89597500D01*
X192428587Y-89547095D01*
X192500905Y-89474777D01*
X192563217Y-89440751D01*
X192634032Y-89445816D01*
X192679095Y-89474777D01*
X192731413Y-89527095D01*
X192830339Y-89577500D01*
X192940000Y-89594869D01*
X192949792Y-89593318D01*
X193039869Y-89579051D01*
X193049661Y-89577500D01*
X193148587Y-89527095D01*
X193227095Y-89448587D01*
X193277500Y-89349661D01*
X193294869Y-89240000D01*
X193277500Y-89130339D01*
X193227095Y-89031413D01*
X193171266Y-88975584D01*
X193137240Y-88913272D01*
X193134361Y-88886489D01*
X193134361Y-87016000D01*
X193154363Y-86947879D01*
X193208019Y-86901386D01*
X193260361Y-86890000D01*
X193878500Y-86890000D01*
X193946621Y-86910002D01*
X193993114Y-86963658D01*
X194004500Y-87016000D01*
X194004500Y-89384787D01*
X193984498Y-89452908D01*
X193952563Y-89486722D01*
X193950251Y-89488402D01*
X193941413Y-89492905D01*
X193862905Y-89571413D01*
X193812500Y-89670339D01*
X193795131Y-89780000D01*
X193796682Y-89789791D01*
X193798899Y-89803788D01*
X193789800Y-89874199D01*
X193744078Y-89928514D01*
X193674450Y-89949500D01*
X192662366Y-89949500D01*
X192659693Y-89949304D01*
X192654658Y-89947575D01*
X192643036Y-89948011D01*
X192643034Y-89948011D01*
X192605744Y-89949411D01*
X192601018Y-89949500D01*
X192582052Y-89949500D01*
X192577317Y-89950381D01*
X192573790Y-89950610D01*
X192569254Y-89950780D01*
X192542791Y-89951774D01*
X192532104Y-89956366D01*
X192527492Y-89957405D01*
X192515800Y-89960957D01*
X192511383Y-89962661D01*
X192499947Y-89964791D01*
X192478961Y-89977727D01*
X192462589Y-89986231D01*
X192448112Y-89992451D01*
X192448108Y-89992453D01*
X192439937Y-89995964D01*
X192435051Y-89999978D01*
X192432866Y-90002163D01*
X192430603Y-90004215D01*
X192430458Y-90004055D01*
X192421451Y-90011175D01*
X192414556Y-90017427D01*
X192404652Y-90023532D01*
X192388084Y-90045320D01*
X192376890Y-90058139D01*
X191904548Y-90530481D01*
X191902514Y-90532237D01*
X191897731Y-90534575D01*
X191889819Y-90543104D01*
X191889818Y-90543105D01*
X191864427Y-90570477D01*
X191861147Y-90573882D01*
X191847752Y-90587277D01*
X191845028Y-90591247D01*
X191842703Y-90593895D01*
X191829508Y-90608119D01*
X191829506Y-90608122D01*
X191821599Y-90616646D01*
X191817370Y-90627246D01*
X191764169Y-90674045D01*
X191735554Y-90683404D01*
X191711278Y-90688233D01*
X191700960Y-90695127D01*
X191700958Y-90695128D01*
X191671815Y-90714601D01*
X191661496Y-90721496D01*
X191654601Y-90731815D01*
X191635128Y-90760958D01*
X191635127Y-90760960D01*
X191628233Y-90771278D01*
X191619500Y-90815180D01*
X191619500Y-91464820D01*
X191620707Y-91470887D01*
X191620707Y-91470889D01*
X191626155Y-91498278D01*
X191619827Y-91568992D01*
X191576273Y-91625059D01*
X191507303Y-91648770D01*
X191490230Y-91649411D01*
X191485503Y-91649500D01*
X191466552Y-91649500D01*
X191465181Y-91649755D01*
X191396921Y-91636378D01*
X191345691Y-91587225D01*
X191329169Y-91518177D01*
X191330558Y-91504855D01*
X191343318Y-91424293D01*
X191343318Y-91424292D01*
X191344869Y-91414500D01*
X191327500Y-91304839D01*
X191277095Y-91205913D01*
X191198587Y-91127405D01*
X191099661Y-91077000D01*
X190990000Y-91059631D01*
X190990555Y-91056125D01*
X190939657Y-91041180D01*
X190918683Y-91024277D01*
X189969552Y-90075146D01*
X189934198Y-90005762D01*
X189919051Y-89910131D01*
X189917500Y-89900339D01*
X189867095Y-89801413D01*
X189788587Y-89722905D01*
X189689661Y-89672500D01*
X189676018Y-89670339D01*
X189589792Y-89656682D01*
X189580000Y-89655131D01*
X189570208Y-89656682D01*
X189483983Y-89670339D01*
X189470339Y-89672500D01*
X189371413Y-89722905D01*
X189292905Y-89801413D01*
X189242500Y-89900339D01*
X189240949Y-89910131D01*
X189238037Y-89928514D01*
X189225131Y-90010000D01*
X189226682Y-90019792D01*
X189236059Y-90078992D01*
X189242500Y-90119661D01*
X189292905Y-90218587D01*
X189371413Y-90297095D01*
X189470339Y-90347500D01*
X189480131Y-90349051D01*
X189580000Y-90364869D01*
X189579689Y-90366832D01*
X189635843Y-90383320D01*
X189656817Y-90400223D01*
X190599777Y-91343183D01*
X190633803Y-91405495D01*
X190634777Y-91414556D01*
X190635131Y-91414500D01*
X190652500Y-91524161D01*
X190702905Y-91623087D01*
X190781413Y-91701595D01*
X190880339Y-91752000D01*
X190909302Y-91756587D01*
X190973454Y-91786998D01*
X191010982Y-91847266D01*
X191009969Y-91918255D01*
X190978687Y-91970131D01*
X190945155Y-92003663D01*
X190944476Y-92002984D01*
X190895279Y-92040917D01*
X190849570Y-92049500D01*
X189312528Y-92049500D01*
X189255325Y-92035767D01*
X189209661Y-92012500D01*
X189100000Y-91995131D01*
X188990339Y-92012500D01*
X188944675Y-92035767D01*
X188887472Y-92049500D01*
X188473052Y-92049500D01*
X188467351Y-92050562D01*
X188467348Y-92050562D01*
X188430794Y-92057370D01*
X188407725Y-92059500D01*
X188135180Y-92059500D01*
X188091278Y-92068233D01*
X188080960Y-92075127D01*
X188080958Y-92075128D01*
X188063189Y-92087001D01*
X188041496Y-92101496D01*
X188034601Y-92111815D01*
X188015128Y-92140958D01*
X188015127Y-92140960D01*
X188008233Y-92151278D01*
X187999500Y-92195180D01*
X187999500Y-92824820D01*
X188000529Y-92829992D01*
X187987359Y-92899433D01*
X187938519Y-92950961D01*
X187869574Y-92967905D01*
X187817993Y-92954297D01*
X187773497Y-92931626D01*
X187773496Y-92931626D01*
X187764661Y-92927124D01*
X187655000Y-92909755D01*
X187645208Y-92911306D01*
X187623022Y-92914820D01*
X187617901Y-92915631D01*
X187547490Y-92906531D01*
X187493176Y-92860810D01*
X187472203Y-92792982D01*
X187491230Y-92724582D01*
X187509095Y-92702087D01*
X187582595Y-92628587D01*
X187633000Y-92529661D01*
X187650369Y-92420000D01*
X187633000Y-92310339D01*
X187582595Y-92211413D01*
X187504087Y-92132905D01*
X187405161Y-92082500D01*
X187295500Y-92065131D01*
X187185839Y-92082500D01*
X187086913Y-92132905D01*
X187008405Y-92211413D01*
X186958000Y-92310339D01*
X186940631Y-92420000D01*
X186942182Y-92429792D01*
X186942182Y-92429794D01*
X186945173Y-92448676D01*
X186936076Y-92519088D01*
X186909820Y-92557486D01*
X186746966Y-92720339D01*
X186596185Y-92871120D01*
X186578478Y-92885769D01*
X186578285Y-92885983D01*
X186565675Y-92894553D01*
X186558042Y-92908789D01*
X186549038Y-92925580D01*
X186545773Y-92931306D01*
X186527519Y-92961448D01*
X186527215Y-92966282D01*
X186524927Y-92970549D01*
X186524500Y-92973929D01*
X186524500Y-93005484D01*
X186524251Y-93013395D01*
X186522105Y-93047508D01*
X186520933Y-93047434D01*
X186520344Y-93052887D01*
X186524500Y-93052887D01*
X186524500Y-93145542D01*
X186509636Y-93194545D01*
X186513356Y-93196086D01*
X186508608Y-93207548D01*
X186501713Y-93217867D01*
X186501674Y-93218062D01*
X186462430Y-93266758D01*
X186395066Y-93289177D01*
X186326275Y-93271617D01*
X186277898Y-93219654D01*
X186264821Y-93155338D01*
X186265033Y-93151975D01*
X186265073Y-93151900D01*
X186265500Y-93148520D01*
X186265500Y-93116976D01*
X186265749Y-93109064D01*
X186267896Y-93074942D01*
X186269067Y-93075016D01*
X186269656Y-93069560D01*
X186265500Y-93069560D01*
X186265500Y-92537872D01*
X186285502Y-92469751D01*
X186302405Y-92448777D01*
X186362595Y-92388587D01*
X186413000Y-92289661D01*
X186430369Y-92180000D01*
X186414926Y-92082500D01*
X186414551Y-92080131D01*
X186413000Y-92070339D01*
X186362595Y-91971413D01*
X186284087Y-91892905D01*
X186185161Y-91842500D01*
X186075500Y-91825131D01*
X186065708Y-91826682D01*
X186065707Y-91826682D01*
X185991211Y-91838481D01*
X185920800Y-91829381D01*
X185866486Y-91783659D01*
X185845500Y-91714032D01*
X185845500Y-90280596D01*
X185865502Y-90212475D01*
X185882405Y-90191501D01*
X185996501Y-90077405D01*
X186058813Y-90043379D01*
X186085596Y-90040500D01*
X187414820Y-90040500D01*
X187458722Y-90031767D01*
X187469040Y-90024873D01*
X187469042Y-90024872D01*
X187498185Y-90005399D01*
X187508504Y-89998504D01*
X187511005Y-89994760D01*
X187568511Y-89963359D01*
X187638004Y-89969580D01*
X187641278Y-89971767D01*
X187653450Y-89974188D01*
X187653452Y-89974189D01*
X187671240Y-89977727D01*
X187685180Y-89980500D01*
X188334820Y-89980500D01*
X188378722Y-89971767D01*
X188389040Y-89964873D01*
X188389042Y-89964872D01*
X188418185Y-89945399D01*
X188428504Y-89938504D01*
X188447462Y-89910131D01*
X188454872Y-89899042D01*
X188454873Y-89899040D01*
X188461767Y-89888722D01*
X188470500Y-89844820D01*
X188470500Y-89215180D01*
X188461767Y-89171278D01*
X188454873Y-89160960D01*
X188454872Y-89160958D01*
X188435399Y-89131815D01*
X188428504Y-89121496D01*
X188409060Y-89108504D01*
X188389042Y-89095128D01*
X188389040Y-89095127D01*
X188378722Y-89088233D01*
X188334820Y-89079500D01*
X187685180Y-89079500D01*
X187685180Y-89079052D01*
X187619098Y-89066520D01*
X187567569Y-89017681D01*
X187550500Y-88954355D01*
X187550500Y-88675180D01*
X187541767Y-88631278D01*
X187534873Y-88620960D01*
X187534872Y-88620958D01*
X187515399Y-88591815D01*
X187508504Y-88581496D01*
X187486561Y-88566834D01*
X187469042Y-88555128D01*
X187469040Y-88555127D01*
X187458722Y-88548233D01*
X187414820Y-88539500D01*
X185985180Y-88539500D01*
X185941278Y-88548233D01*
X185930960Y-88555127D01*
X185930958Y-88555128D01*
X185913439Y-88566834D01*
X185891496Y-88581496D01*
X185884601Y-88591815D01*
X185865128Y-88620958D01*
X185865127Y-88620960D01*
X185858233Y-88631278D01*
X185849500Y-88675180D01*
X185849500Y-89534405D01*
X185829498Y-89602526D01*
X185812595Y-89623500D01*
X185493788Y-89942307D01*
X185454774Y-90002382D01*
X185450120Y-90031767D01*
X185445639Y-90060059D01*
X185415226Y-90124212D01*
X185354958Y-90161739D01*
X185283969Y-90160725D01*
X185272969Y-90156756D01*
X185269045Y-90155130D01*
X185258722Y-90148233D01*
X185246550Y-90145812D01*
X185246548Y-90145811D01*
X185221571Y-90140843D01*
X185214820Y-90139500D01*
X183785180Y-90139500D01*
X183779114Y-90140707D01*
X183779110Y-90140707D01*
X183778427Y-90140843D01*
X183778062Y-90140810D01*
X183772948Y-90141314D01*
X183772852Y-90140344D01*
X183707713Y-90134512D01*
X183649086Y-90087266D01*
X183618504Y-90041496D01*
X183605207Y-90032611D01*
X183579042Y-90015128D01*
X183579040Y-90015127D01*
X183568722Y-90008233D01*
X183524820Y-89999500D01*
X182875180Y-89999500D01*
X182831278Y-90008233D01*
X182820960Y-90015127D01*
X182820958Y-90015128D01*
X182794793Y-90032611D01*
X182781496Y-90041496D01*
X182752910Y-90084279D01*
X182698436Y-90129804D01*
X182627993Y-90138653D01*
X182559052Y-90103370D01*
X182488587Y-90032905D01*
X182389661Y-89982500D01*
X182369414Y-89979293D01*
X182321897Y-89971767D01*
X182280000Y-89965131D01*
X182238103Y-89971767D01*
X182190587Y-89979293D01*
X182170339Y-89982500D01*
X182071413Y-90032905D01*
X181992905Y-90111413D01*
X181942500Y-90210339D01*
X181940949Y-90220131D01*
X181937215Y-90243705D01*
X181925131Y-90320000D01*
X181942500Y-90429661D01*
X181992905Y-90528587D01*
X182023260Y-90558942D01*
X182048095Y-90607678D01*
X182052300Y-90606064D01*
X182059563Y-90624985D01*
X182065179Y-90643941D01*
X182069393Y-90663768D01*
X182077176Y-90674481D01*
X182079201Y-90679029D01*
X182081908Y-90683198D01*
X182086654Y-90695560D01*
X182100986Y-90709892D01*
X182113827Y-90724927D01*
X182117955Y-90730609D01*
X182117957Y-90730611D01*
X182125740Y-90741323D01*
X182137207Y-90747944D01*
X182147050Y-90756806D01*
X182146733Y-90757158D01*
X182153265Y-90762171D01*
X182905905Y-91514811D01*
X182939929Y-91577121D01*
X182934865Y-91647936D01*
X182892318Y-91704772D01*
X182836521Y-91728352D01*
X182820136Y-91730947D01*
X182820128Y-91730949D01*
X182810339Y-91732500D01*
X182801504Y-91737002D01*
X182801503Y-91737002D01*
X182715608Y-91780767D01*
X182658406Y-91794500D01*
X182313662Y-91794500D01*
X182245541Y-91774498D01*
X182199048Y-91720842D01*
X182190083Y-91693083D01*
X182184188Y-91663449D01*
X182181767Y-91651278D01*
X182174873Y-91640960D01*
X182174872Y-91640958D01*
X182155399Y-91611815D01*
X182148504Y-91601496D01*
X182124946Y-91585755D01*
X182109042Y-91575128D01*
X182109040Y-91575127D01*
X182098722Y-91568233D01*
X182054820Y-91559500D01*
X181405180Y-91559500D01*
X181361278Y-91568233D01*
X181350960Y-91575127D01*
X181350958Y-91575128D01*
X181335054Y-91585755D01*
X181311496Y-91601496D01*
X181304601Y-91611815D01*
X181285128Y-91640958D01*
X181285127Y-91640960D01*
X181278233Y-91651278D01*
X181269500Y-91695180D01*
X181269500Y-92038878D01*
X181249498Y-92106999D01*
X181195842Y-92153492D01*
X181125568Y-92163596D01*
X181110604Y-92159490D01*
X181108722Y-92158233D01*
X181064820Y-92149500D01*
X179135180Y-92149500D01*
X179091278Y-92158233D01*
X179049999Y-92185815D01*
X178982248Y-92207028D01*
X178910001Y-92185815D01*
X178868722Y-92158233D01*
X178824820Y-92149500D01*
X178175180Y-92149500D01*
X178131278Y-92158233D01*
X178120960Y-92165127D01*
X178120958Y-92165128D01*
X178098701Y-92180000D01*
X178081496Y-92191496D01*
X178074601Y-92201815D01*
X178055128Y-92230958D01*
X178055127Y-92230960D01*
X178048233Y-92241278D01*
X178039500Y-92285180D01*
X178039500Y-92914820D01*
X178048233Y-92958722D01*
X178055127Y-92969040D01*
X178055128Y-92969042D01*
X178073569Y-92996640D01*
X178081496Y-93008504D01*
X178091815Y-93015399D01*
X178120958Y-93034872D01*
X178120960Y-93034873D01*
X178131278Y-93041767D01*
X178175180Y-93050500D01*
X178824820Y-93050500D01*
X178830884Y-93049294D01*
X178830892Y-93049293D01*
X178848916Y-93045707D01*
X178919630Y-93052033D01*
X178975698Y-93095586D01*
X178999500Y-93169285D01*
X178999500Y-93414820D01*
X179008233Y-93458722D01*
X179015127Y-93469040D01*
X179015128Y-93469042D01*
X179027525Y-93487595D01*
X179041496Y-93508504D01*
X179051815Y-93515399D01*
X179080958Y-93534872D01*
X179080960Y-93534873D01*
X179091278Y-93541767D01*
X179135180Y-93550500D01*
X180655694Y-93550500D01*
X180723815Y-93570502D01*
X180770308Y-93624158D01*
X180780412Y-93694432D01*
X180750918Y-93759012D01*
X180744789Y-93765595D01*
X180742789Y-93767595D01*
X180680477Y-93801621D01*
X180653694Y-93804500D01*
X177129543Y-93804500D01*
X177104961Y-93802079D01*
X177102171Y-93801524D01*
X177090000Y-93799103D01*
X177062868Y-93804500D01*
X177062867Y-93804500D01*
X176982505Y-93820485D01*
X176972186Y-93827380D01*
X176951823Y-93840986D01*
X176917329Y-93864034D01*
X176914378Y-93866006D01*
X176914377Y-93866007D01*
X176891376Y-93881376D01*
X176884485Y-93891689D01*
X176882898Y-93894064D01*
X176867228Y-93913156D01*
X175757789Y-95022595D01*
X175695477Y-95056621D01*
X175668694Y-95059500D01*
X172876500Y-95059500D01*
X172808379Y-95039498D01*
X172761886Y-94985842D01*
X172750500Y-94933500D01*
X172750500Y-94820180D01*
X172741767Y-94776278D01*
X172734873Y-94765960D01*
X172734872Y-94765958D01*
X172715399Y-94736815D01*
X172708504Y-94726496D01*
X172691637Y-94715226D01*
X172669042Y-94700128D01*
X172669040Y-94700127D01*
X172658722Y-94693233D01*
X172614820Y-94684500D01*
X171585180Y-94684500D01*
X171541278Y-94693233D01*
X171530960Y-94700127D01*
X171530958Y-94700128D01*
X171508363Y-94715226D01*
X171491496Y-94726496D01*
X171484601Y-94736815D01*
X171465128Y-94765958D01*
X171465127Y-94765960D01*
X171458233Y-94776278D01*
X171449500Y-94820180D01*
X171449500Y-95849820D01*
X171458233Y-95893722D01*
X171465127Y-95904040D01*
X171465128Y-95904042D01*
X171482763Y-95930434D01*
X171491496Y-95943504D01*
X171501815Y-95950399D01*
X171530958Y-95969872D01*
X171530960Y-95969873D01*
X171541278Y-95976767D01*
X171585180Y-95985500D01*
X172614820Y-95985500D01*
X172658722Y-95976767D01*
X172669040Y-95969873D01*
X172669042Y-95969872D01*
X172698185Y-95950399D01*
X172708504Y-95943504D01*
X172717237Y-95930434D01*
X172734872Y-95904042D01*
X172734873Y-95904040D01*
X172741767Y-95893722D01*
X172750500Y-95849820D01*
X172750500Y-95736500D01*
X172770502Y-95668379D01*
X172824158Y-95621886D01*
X172876500Y-95610500D01*
X175795457Y-95610500D01*
X175820039Y-95612921D01*
X175835000Y-95615897D01*
X175862132Y-95610500D01*
X175862133Y-95610500D01*
X175942495Y-95594515D01*
X175985657Y-95565675D01*
X176010622Y-95548994D01*
X176010623Y-95548993D01*
X176033624Y-95533624D01*
X176042102Y-95520936D01*
X176057772Y-95501844D01*
X177167211Y-94392405D01*
X177229523Y-94358379D01*
X177256306Y-94355500D01*
X179601577Y-94355500D01*
X179669698Y-94375502D01*
X179716191Y-94429158D01*
X179726026Y-94501210D01*
X179719374Y-94543210D01*
X179688962Y-94607363D01*
X179628694Y-94644891D01*
X179594925Y-94649500D01*
X179135180Y-94649500D01*
X179091278Y-94658233D01*
X179080960Y-94665127D01*
X179080958Y-94665128D01*
X179052224Y-94684328D01*
X179041496Y-94691496D01*
X179034601Y-94701815D01*
X179015128Y-94730958D01*
X179015127Y-94730960D01*
X179008233Y-94741278D01*
X178999500Y-94785180D01*
X178999500Y-95020715D01*
X178979498Y-95088836D01*
X178925842Y-95135329D01*
X178848916Y-95144293D01*
X178830892Y-95140707D01*
X178830884Y-95140706D01*
X178824820Y-95139500D01*
X178175180Y-95139500D01*
X178131278Y-95148233D01*
X178120960Y-95155127D01*
X178120958Y-95155128D01*
X178099457Y-95169495D01*
X178081496Y-95181496D01*
X178074601Y-95191815D01*
X178055128Y-95220958D01*
X178055127Y-95220960D01*
X178048233Y-95231278D01*
X178039500Y-95275180D01*
X178039500Y-95798500D01*
X178019498Y-95866621D01*
X177965842Y-95913114D01*
X177913500Y-95924500D01*
X177682849Y-95924500D01*
X177625647Y-95910767D01*
X177571800Y-95883331D01*
X177571798Y-95883331D01*
X177559998Y-95877318D01*
X177521642Y-95875308D01*
X177477495Y-95872994D01*
X177477494Y-95872994D01*
X177464267Y-95872301D01*
X177374771Y-95906655D01*
X176217072Y-97064354D01*
X176212288Y-97068895D01*
X176183491Y-97094824D01*
X176175245Y-97113346D01*
X176165817Y-97130709D01*
X176154774Y-97147713D01*
X176152702Y-97160796D01*
X176149327Y-97169588D01*
X176120791Y-97213527D01*
X176082905Y-97251413D01*
X176032500Y-97350339D01*
X176030949Y-97360131D01*
X176029239Y-97370929D01*
X176015131Y-97460000D01*
X176032500Y-97569661D01*
X176082905Y-97668587D01*
X176138612Y-97724294D01*
X176172638Y-97786606D01*
X176167573Y-97857421D01*
X176138616Y-97902479D01*
X175603498Y-98437597D01*
X175541188Y-98471621D01*
X175514405Y-98474500D01*
X172876500Y-98474500D01*
X172808379Y-98454498D01*
X172761886Y-98400842D01*
X172750500Y-98348500D01*
X172750500Y-98185180D01*
X172741767Y-98141278D01*
X172734873Y-98130960D01*
X172734872Y-98130958D01*
X172715399Y-98101815D01*
X172708504Y-98091496D01*
X172696500Y-98083475D01*
X172669042Y-98065128D01*
X172669040Y-98065127D01*
X172658722Y-98058233D01*
X172614820Y-98049500D01*
X171585180Y-98049500D01*
X171541278Y-98058233D01*
X171530960Y-98065127D01*
X171530958Y-98065128D01*
X171503500Y-98083475D01*
X171491496Y-98091496D01*
X171484601Y-98101815D01*
X171465128Y-98130958D01*
X171465127Y-98130960D01*
X171458233Y-98141278D01*
X171449500Y-98185180D01*
X171449500Y-99214820D01*
X171458233Y-99258722D01*
X171465128Y-99269042D01*
X171469876Y-99280503D01*
X171467580Y-99281454D01*
X171483642Y-99332753D01*
X171467294Y-99388428D01*
X171469876Y-99389497D01*
X171465128Y-99400958D01*
X171458233Y-99411278D01*
X171449500Y-99455180D01*
X171449500Y-100484820D01*
X171458233Y-100528722D01*
X171465127Y-100539040D01*
X171465128Y-100539042D01*
X171484601Y-100568185D01*
X171491496Y-100578504D01*
X171501815Y-100585399D01*
X171530958Y-100604872D01*
X171530960Y-100604873D01*
X171541278Y-100611767D01*
X171585180Y-100620500D01*
X172614820Y-100620500D01*
X172658722Y-100611767D01*
X172669040Y-100604873D01*
X172669042Y-100604872D01*
X172698185Y-100585399D01*
X172708504Y-100578504D01*
X172715399Y-100568185D01*
X172734872Y-100539042D01*
X172734873Y-100539040D01*
X172741767Y-100528722D01*
X172750500Y-100484820D01*
X172750500Y-100240596D01*
X172770502Y-100172475D01*
X172787405Y-100151501D01*
X172789892Y-100149014D01*
X172804927Y-100136173D01*
X172810608Y-100132045D01*
X172821323Y-100124260D01*
X172827944Y-100112791D01*
X172836807Y-100102948D01*
X172837160Y-100103266D01*
X172842177Y-100096728D01*
X172966500Y-99972405D01*
X173028812Y-99938379D01*
X173055595Y-99935500D01*
X173057628Y-99935500D01*
X173125749Y-99955502D01*
X173146723Y-99972405D01*
X173171413Y-99997095D01*
X173270339Y-100047500D01*
X173380000Y-100064869D01*
X173389792Y-100063318D01*
X173389793Y-100063318D01*
X173463789Y-100051598D01*
X173534200Y-100060698D01*
X173588514Y-100106419D01*
X173609500Y-100176047D01*
X173609500Y-100374820D01*
X173618233Y-100418722D01*
X173625127Y-100429040D01*
X173625128Y-100429042D01*
X173644601Y-100458185D01*
X173651496Y-100468504D01*
X173658603Y-100473253D01*
X173691347Y-100533217D01*
X173686282Y-100604032D01*
X173659001Y-100646482D01*
X173651496Y-100651496D01*
X173644601Y-100661815D01*
X173625128Y-100690958D01*
X173625127Y-100690960D01*
X173618233Y-100701278D01*
X173609500Y-100745180D01*
X173609500Y-100823500D01*
X173589498Y-100891621D01*
X173535842Y-100938114D01*
X173483500Y-100949500D01*
X172847085Y-100949500D01*
X172822504Y-100947079D01*
X172822172Y-100947013D01*
X172822171Y-100947013D01*
X172810000Y-100944592D01*
X172712259Y-100964034D01*
X172682464Y-100983943D01*
X172629399Y-101019399D01*
X172622507Y-101029714D01*
X172622505Y-101029716D01*
X172622312Y-101030005D01*
X172606642Y-101049098D01*
X170775595Y-102880145D01*
X170713283Y-102914171D01*
X170642468Y-102909106D01*
X170585632Y-102866559D01*
X170560821Y-102800039D01*
X170560500Y-102791050D01*
X170560500Y-91894977D01*
X170580502Y-91826856D01*
X170634158Y-91780363D01*
X170704432Y-91770259D01*
X170756500Y-91790211D01*
X170781278Y-91806767D01*
X170825180Y-91815500D01*
X170974639Y-91815500D01*
X171042760Y-91835502D01*
X171077059Y-91875471D01*
X171079396Y-91873773D01*
X171080368Y-91875111D01*
X171084297Y-91882347D01*
X171084694Y-91882089D01*
X171091908Y-91893197D01*
X171096654Y-91905560D01*
X171110986Y-91919892D01*
X171123827Y-91934927D01*
X171127955Y-91940609D01*
X171127957Y-91940611D01*
X171135740Y-91951323D01*
X171147207Y-91957944D01*
X171157050Y-91966806D01*
X171156732Y-91967159D01*
X171163269Y-91972175D01*
X171694032Y-92502938D01*
X171698573Y-92507722D01*
X171724493Y-92536509D01*
X171736591Y-92541895D01*
X171736592Y-92541896D01*
X171743005Y-92544751D01*
X171760381Y-92554185D01*
X171766278Y-92558015D01*
X171766280Y-92558016D01*
X171777383Y-92565226D01*
X171790460Y-92567297D01*
X171795099Y-92569078D01*
X171799968Y-92570113D01*
X171812068Y-92575500D01*
X171832335Y-92575500D01*
X171852044Y-92577051D01*
X171872066Y-92580222D01*
X171884855Y-92576795D01*
X171898083Y-92576102D01*
X171898108Y-92576576D01*
X171906278Y-92575500D01*
X175503128Y-92575500D01*
X175571249Y-92595502D01*
X175592223Y-92612405D01*
X175661413Y-92681595D01*
X175760339Y-92732000D01*
X175870000Y-92749369D01*
X175879792Y-92747818D01*
X175969869Y-92733551D01*
X175979661Y-92732000D01*
X176078587Y-92681595D01*
X176157095Y-92603087D01*
X176207500Y-92504161D01*
X176224869Y-92394500D01*
X176223318Y-92384708D01*
X176223318Y-92374789D01*
X176226326Y-92374789D01*
X176233370Y-92320296D01*
X176279094Y-92265983D01*
X176348718Y-92245000D01*
X177010957Y-92245000D01*
X177035539Y-92247421D01*
X177050500Y-92250397D01*
X177077632Y-92245000D01*
X177077633Y-92245000D01*
X177157995Y-92229015D01*
X177202195Y-92199481D01*
X177202195Y-92199482D01*
X177202198Y-92199479D01*
X177226122Y-92183494D01*
X177228689Y-92187335D01*
X177228690Y-92187334D01*
X177226123Y-92183493D01*
X177238811Y-92175015D01*
X177249124Y-92168124D01*
X177257602Y-92155436D01*
X177273272Y-92136344D01*
X177446844Y-91962772D01*
X177465936Y-91947102D01*
X177468311Y-91945515D01*
X177478624Y-91938624D01*
X177494071Y-91915507D01*
X177521149Y-91874981D01*
X177539515Y-91847495D01*
X177543964Y-91825131D01*
X177555500Y-91767133D01*
X177558476Y-91752172D01*
X177558476Y-91752171D01*
X177560897Y-91740000D01*
X177557921Y-91725039D01*
X177555500Y-91700457D01*
X177555500Y-90881306D01*
X177575502Y-90813185D01*
X177592405Y-90792211D01*
X177712211Y-90672405D01*
X177774523Y-90638379D01*
X177801306Y-90635500D01*
X178215457Y-90635500D01*
X178240039Y-90637921D01*
X178255000Y-90640897D01*
X178282132Y-90635500D01*
X178282133Y-90635500D01*
X178362495Y-90619515D01*
X178412558Y-90586064D01*
X178430622Y-90573994D01*
X178430623Y-90573993D01*
X178435885Y-90570477D01*
X178443307Y-90565518D01*
X178443308Y-90565517D01*
X178453624Y-90558624D01*
X178456628Y-90554128D01*
X178461124Y-90551124D01*
X178468958Y-90539401D01*
X178484546Y-90516072D01*
X178515122Y-90470312D01*
X178515122Y-90470311D01*
X178522016Y-90459994D01*
X178526293Y-90438494D01*
X178533567Y-90401920D01*
X178566474Y-90339010D01*
X178628168Y-90303877D01*
X178657146Y-90300500D01*
X178894646Y-90300500D01*
X178898350Y-90300059D01*
X178898353Y-90300059D01*
X178905746Y-90299179D01*
X178920846Y-90297382D01*
X178937277Y-90290084D01*
X179012518Y-90256663D01*
X179023153Y-90251939D01*
X179034394Y-90240679D01*
X179064681Y-90210339D01*
X179102241Y-90172713D01*
X179114135Y-90145811D01*
X179138027Y-90091767D01*
X179147506Y-90070327D01*
X179150500Y-90044646D01*
X179150500Y-89655354D01*
X179147382Y-89629154D01*
X179125658Y-89580245D01*
X179106663Y-89537482D01*
X179101939Y-89526847D01*
X179022713Y-89447759D01*
X179012076Y-89443056D01*
X179012074Y-89443055D01*
X178952550Y-89416740D01*
X178898334Y-89370902D01*
X178877507Y-89303029D01*
X178896681Y-89234671D01*
X178949769Y-89187530D01*
X179003498Y-89175500D01*
X179201603Y-89175500D01*
X179269724Y-89195502D01*
X179297923Y-89222843D01*
X179298061Y-89223153D01*
X179377287Y-89302241D01*
X179387924Y-89306944D01*
X179387926Y-89306945D01*
X179409813Y-89316621D01*
X179479673Y-89347506D01*
X179505354Y-89350500D01*
X180769646Y-89350500D01*
X180773350Y-89350059D01*
X180773353Y-89350059D01*
X180780746Y-89349179D01*
X180795846Y-89347382D01*
X180812761Y-89339869D01*
X180887518Y-89306663D01*
X180898153Y-89301939D01*
X180906373Y-89293705D01*
X180969022Y-89230947D01*
X180969023Y-89230945D01*
X180977241Y-89222713D01*
X180981383Y-89213345D01*
X181035672Y-89169010D01*
X181106211Y-89160961D01*
X181156588Y-89182270D01*
X181161246Y-89186928D01*
X181260172Y-89237333D01*
X181269964Y-89238884D01*
X181315003Y-89246018D01*
X181369833Y-89254702D01*
X181379625Y-89253151D01*
X181381602Y-89252838D01*
X181424663Y-89246018D01*
X181469702Y-89238884D01*
X181479494Y-89237333D01*
X181578420Y-89186928D01*
X181656928Y-89108420D01*
X181707333Y-89009494D01*
X181724702Y-88899833D01*
X181707333Y-88790172D01*
X181656928Y-88691246D01*
X181578420Y-88612738D01*
X181479494Y-88562333D01*
X181434005Y-88555128D01*
X181404785Y-88550500D01*
X181369833Y-88544964D01*
X181334881Y-88550500D01*
X181305662Y-88555128D01*
X181260172Y-88562333D01*
X181161246Y-88612738D01*
X181156727Y-88617257D01*
X181091701Y-88640459D01*
X181022550Y-88624380D01*
X180981260Y-88586575D01*
X180976939Y-88576847D01*
X180897713Y-88497759D01*
X180887076Y-88493056D01*
X180887074Y-88493055D01*
X180809414Y-88458722D01*
X180795327Y-88452494D01*
X180769646Y-88449500D01*
X179505354Y-88449500D01*
X179501650Y-88449941D01*
X179501647Y-88449941D01*
X179494254Y-88450821D01*
X179479154Y-88452618D01*
X179376847Y-88498061D01*
X179297759Y-88577287D01*
X179297074Y-88576603D01*
X179250558Y-88614592D01*
X179201581Y-88624500D01*
X178769537Y-88624500D01*
X178744957Y-88622079D01*
X178742172Y-88621525D01*
X178730000Y-88619104D01*
X178717828Y-88621525D01*
X178702876Y-88624499D01*
X178702868Y-88624500D01*
X178702865Y-88624500D01*
X178702860Y-88624501D01*
X178668792Y-88631278D01*
X178622505Y-88640485D01*
X178554378Y-88686006D01*
X178554377Y-88686007D01*
X178531376Y-88701376D01*
X178524485Y-88711689D01*
X178522898Y-88714064D01*
X178507228Y-88733156D01*
X178322789Y-88917595D01*
X178260477Y-88951621D01*
X178233694Y-88954500D01*
X177292950Y-88954500D01*
X177224829Y-88934498D01*
X177199826Y-88909938D01*
X177199174Y-88910590D01*
X177190399Y-88901815D01*
X177183504Y-88891496D01*
X177173185Y-88884601D01*
X177144042Y-88865128D01*
X177144040Y-88865127D01*
X177133722Y-88858233D01*
X177089820Y-88849500D01*
X176110180Y-88849500D01*
X176066278Y-88858233D01*
X176055960Y-88865127D01*
X176055958Y-88865128D01*
X176020001Y-88889154D01*
X175952248Y-88910369D01*
X175879999Y-88889154D01*
X175844042Y-88865128D01*
X175844040Y-88865127D01*
X175833722Y-88858233D01*
X175789820Y-88849500D01*
X174810180Y-88849500D01*
X174766278Y-88858233D01*
X174755960Y-88865127D01*
X174755958Y-88865128D01*
X174726815Y-88884601D01*
X174716496Y-88891496D01*
X174709601Y-88901815D01*
X174690128Y-88930958D01*
X174690127Y-88930960D01*
X174683233Y-88941278D01*
X174674500Y-88985180D01*
X174674500Y-89248500D01*
X174654498Y-89316621D01*
X174600842Y-89363114D01*
X174548500Y-89374500D01*
X174457809Y-89374500D01*
X174389688Y-89354498D01*
X174343302Y-89298996D01*
X174341767Y-89291278D01*
X174316083Y-89252838D01*
X174315399Y-89251815D01*
X174308504Y-89241496D01*
X174298185Y-89234601D01*
X174269042Y-89215128D01*
X174269040Y-89215127D01*
X174258722Y-89208233D01*
X174214820Y-89199500D01*
X172885180Y-89199500D01*
X172841278Y-89208233D01*
X172830960Y-89215127D01*
X172830958Y-89215128D01*
X172801815Y-89234601D01*
X172791496Y-89241496D01*
X172784601Y-89251815D01*
X172765128Y-89280958D01*
X172765127Y-89280960D01*
X172758233Y-89291278D01*
X172749500Y-89335180D01*
X172749500Y-89964820D01*
X172758233Y-90008722D01*
X172765127Y-90019040D01*
X172765128Y-90019042D01*
X172780313Y-90041767D01*
X172791496Y-90058504D01*
X172801815Y-90065399D01*
X172830958Y-90084872D01*
X172830960Y-90084873D01*
X172841278Y-90091767D01*
X172885180Y-90100500D01*
X173558694Y-90100500D01*
X173626815Y-90120502D01*
X173647789Y-90137405D01*
X173687595Y-90177211D01*
X173721621Y-90239523D01*
X173724500Y-90266306D01*
X173724500Y-90433500D01*
X173704498Y-90501621D01*
X173650842Y-90548114D01*
X173607399Y-90557564D01*
X173607530Y-90558893D01*
X173601367Y-90559500D01*
X173595180Y-90559500D01*
X173551278Y-90568233D01*
X173540960Y-90575127D01*
X173540958Y-90575128D01*
X173515380Y-90592219D01*
X173501496Y-90601496D01*
X173500928Y-90600646D01*
X173449283Y-90628847D01*
X173378468Y-90623782D01*
X173349425Y-90605117D01*
X173348504Y-90606496D01*
X173309042Y-90580128D01*
X173309040Y-90580127D01*
X173298722Y-90573233D01*
X173254820Y-90564500D01*
X172325180Y-90564500D01*
X172281278Y-90573233D01*
X172270960Y-90580127D01*
X172270958Y-90580128D01*
X172250355Y-90593895D01*
X172231496Y-90606496D01*
X172224601Y-90616815D01*
X172205128Y-90645958D01*
X172205127Y-90645960D01*
X172198233Y-90656278D01*
X172189500Y-90700180D01*
X172189500Y-91679820D01*
X172198233Y-91723722D01*
X172205127Y-91734040D01*
X172205128Y-91734042D01*
X172223417Y-91761413D01*
X172231496Y-91773504D01*
X172241815Y-91780399D01*
X172270958Y-91799872D01*
X172270960Y-91799873D01*
X172281278Y-91806767D01*
X172325180Y-91815500D01*
X172973694Y-91815500D01*
X173041815Y-91835502D01*
X173062789Y-91852405D01*
X173119789Y-91909405D01*
X173153815Y-91971717D01*
X173148750Y-92042532D01*
X173106203Y-92099368D01*
X173039683Y-92124179D01*
X173030694Y-92124500D01*
X172005595Y-92124500D01*
X171937474Y-92104498D01*
X171916500Y-92087595D01*
X171809543Y-91980638D01*
X171775517Y-91918326D01*
X171780582Y-91847511D01*
X171828637Y-91786779D01*
X171848504Y-91773504D01*
X171856583Y-91761413D01*
X171874872Y-91734042D01*
X171874873Y-91734040D01*
X171881767Y-91723722D01*
X171890500Y-91679820D01*
X171890500Y-90700180D01*
X171881767Y-90656278D01*
X171874873Y-90645960D01*
X171874872Y-90645958D01*
X171855399Y-90616815D01*
X171848504Y-90606496D01*
X171798722Y-90573233D01*
X171797346Y-90572959D01*
X171748001Y-90533195D01*
X171725500Y-90461334D01*
X171725500Y-89276500D01*
X171745502Y-89208379D01*
X171799158Y-89161886D01*
X171851500Y-89150500D01*
X172114820Y-89150500D01*
X172158722Y-89141767D01*
X172169040Y-89134873D01*
X172169042Y-89134872D01*
X172198185Y-89115399D01*
X172208504Y-89108504D01*
X172215399Y-89098185D01*
X172234872Y-89069042D01*
X172234873Y-89069040D01*
X172241767Y-89058722D01*
X172250500Y-89014820D01*
X172250500Y-88385180D01*
X172241767Y-88341278D01*
X172234873Y-88330960D01*
X172234872Y-88330958D01*
X172215399Y-88301815D01*
X172208504Y-88291496D01*
X172178069Y-88271160D01*
X172169042Y-88265128D01*
X172169040Y-88265127D01*
X172158722Y-88258233D01*
X172114820Y-88249500D01*
X170785180Y-88249500D01*
X170771219Y-88252277D01*
X170753447Y-88255812D01*
X170753445Y-88255813D01*
X170741278Y-88258233D01*
X170733017Y-88263753D01*
X170664130Y-88271160D01*
X170600642Y-88239382D01*
X170564414Y-88178324D01*
X170560500Y-88147162D01*
X170560500Y-87016000D01*
X170580502Y-86947879D01*
X170634158Y-86901386D01*
X170686500Y-86890000D01*
X174559795Y-86890000D01*
X174627916Y-86910002D01*
G37*
G04 #@! TD.AperFunction*
G04 #@! TA.AperFunction,Conductor*
G36*
X184917256Y-97365105D02*
G01*
X184962319Y-97394066D01*
X184968805Y-97400552D01*
X184974224Y-97406322D01*
X184996842Y-97431977D01*
X184995962Y-97432753D01*
X184999402Y-97437027D01*
X185002341Y-97434088D01*
X185502658Y-97934405D01*
X185536684Y-97996717D01*
X185531619Y-98067532D01*
X185489072Y-98124368D01*
X185422552Y-98149179D01*
X185413563Y-98149500D01*
X185155180Y-98149500D01*
X185111278Y-98158233D01*
X185100960Y-98165127D01*
X185100958Y-98165128D01*
X185072990Y-98183816D01*
X185061496Y-98191496D01*
X185054601Y-98201815D01*
X185035128Y-98230958D01*
X185035127Y-98230960D01*
X185028233Y-98241278D01*
X185019500Y-98285180D01*
X185019500Y-98934820D01*
X185028233Y-98978722D01*
X185035127Y-98989040D01*
X185035128Y-98989042D01*
X185054601Y-99018185D01*
X185061496Y-99028504D01*
X185071815Y-99035399D01*
X185100958Y-99054872D01*
X185100960Y-99054873D01*
X185111278Y-99061767D01*
X185155180Y-99070500D01*
X185656405Y-99070500D01*
X185724526Y-99090502D01*
X185771019Y-99144158D01*
X185781123Y-99214432D01*
X185751629Y-99279012D01*
X185745500Y-99285595D01*
X185538119Y-99492976D01*
X185533335Y-99497517D01*
X185504538Y-99523446D01*
X185496292Y-99541968D01*
X185486864Y-99559331D01*
X185478244Y-99572604D01*
X185461672Y-99593067D01*
X185403952Y-99650787D01*
X185353547Y-99749713D01*
X185336178Y-99859374D01*
X185337729Y-99869166D01*
X185337729Y-99869167D01*
X185339253Y-99878789D01*
X185330153Y-99949201D01*
X185284431Y-100003515D01*
X185214804Y-100024500D01*
X184740273Y-100024500D01*
X184672152Y-100004498D01*
X184625659Y-99950842D01*
X184615824Y-99878789D01*
X184626752Y-99809793D01*
X184626752Y-99809792D01*
X184628303Y-99800000D01*
X184610934Y-99690339D01*
X184560529Y-99591413D01*
X184482021Y-99512905D01*
X184383095Y-99462500D01*
X184373303Y-99460949D01*
X184372564Y-99460709D01*
X184313958Y-99420636D01*
X184286321Y-99355239D01*
X184285500Y-99340876D01*
X184285500Y-97944885D01*
X184305502Y-97876764D01*
X184322405Y-97855790D01*
X184784129Y-97394066D01*
X184846441Y-97360040D01*
X184917256Y-97365105D01*
G37*
G04 #@! TD.AperFunction*
G04 #@! TA.AperFunction,Conductor*
G36*
X187175749Y-94295502D02*
G01*
X187196723Y-94312405D01*
X187261413Y-94377095D01*
X187360339Y-94427500D01*
X187370131Y-94429051D01*
X187393984Y-94432829D01*
X187470000Y-94444869D01*
X187479792Y-94443318D01*
X187503437Y-94439573D01*
X187573848Y-94448672D01*
X187628162Y-94494394D01*
X187649135Y-94562222D01*
X187630108Y-94630622D01*
X187612243Y-94653117D01*
X187066613Y-95198747D01*
X187004301Y-95232773D01*
X186933486Y-95227708D01*
X186872752Y-95179652D01*
X186866303Y-95170000D01*
X186845089Y-95102247D01*
X186866304Y-95029998D01*
X186898287Y-94982133D01*
X186914624Y-94900000D01*
X186898287Y-94817867D01*
X186851762Y-94748238D01*
X186838585Y-94739433D01*
X186792452Y-94708608D01*
X186782133Y-94701713D01*
X186700000Y-94685376D01*
X186687829Y-94687797D01*
X186675419Y-94687797D01*
X186675419Y-94684328D01*
X186625286Y-94679839D01*
X186569222Y-94636281D01*
X186545606Y-94569327D01*
X186547847Y-94538013D01*
X186555408Y-94500000D01*
X186547847Y-94461990D01*
X186554174Y-94391278D01*
X186597728Y-94335210D01*
X186664680Y-94311590D01*
X186675419Y-94312358D01*
X186675419Y-94312203D01*
X186687829Y-94312203D01*
X186700000Y-94314624D01*
X186782133Y-94298287D01*
X186792452Y-94291392D01*
X186803917Y-94286643D01*
X186805458Y-94290363D01*
X186854458Y-94275500D01*
X187107628Y-94275500D01*
X187175749Y-94295502D01*
G37*
G04 #@! TD.AperFunction*
G04 #@! TA.AperFunction,Conductor*
G36*
X193561442Y-94613282D02*
G01*
X193593256Y-94619610D01*
X193630962Y-94627110D01*
X193637829Y-94628476D01*
X193650000Y-94630897D01*
X193662171Y-94628476D01*
X193669039Y-94627110D01*
X193706744Y-94619610D01*
X193738558Y-94613282D01*
X193809272Y-94619610D01*
X193865339Y-94663165D01*
X193888958Y-94730117D01*
X193886718Y-94761442D01*
X193869103Y-94850000D01*
X193871524Y-94862171D01*
X193886718Y-94938558D01*
X193880390Y-95009272D01*
X193836835Y-95065339D01*
X193769883Y-95088958D01*
X193738558Y-95086718D01*
X193662171Y-95071524D01*
X193650000Y-95069103D01*
X193637829Y-95071524D01*
X193561442Y-95086718D01*
X193490728Y-95080390D01*
X193434661Y-95036835D01*
X193411042Y-94969883D01*
X193413282Y-94938558D01*
X193428476Y-94862171D01*
X193430897Y-94850000D01*
X193413282Y-94761442D01*
X193419610Y-94690728D01*
X193463165Y-94634661D01*
X193530117Y-94611042D01*
X193561442Y-94613282D01*
G37*
G04 #@! TD.AperFunction*
G04 #@! TA.AperFunction,Conductor*
G36*
X192061442Y-94613282D02*
G01*
X192093256Y-94619610D01*
X192130962Y-94627110D01*
X192137829Y-94628476D01*
X192150000Y-94630897D01*
X192162171Y-94628476D01*
X192169039Y-94627110D01*
X192206744Y-94619610D01*
X192238558Y-94613282D01*
X192309272Y-94619610D01*
X192365339Y-94663165D01*
X192388958Y-94730117D01*
X192386718Y-94761442D01*
X192369103Y-94850000D01*
X192371524Y-94862171D01*
X192386718Y-94938558D01*
X192380390Y-95009272D01*
X192336835Y-95065339D01*
X192269883Y-95088958D01*
X192238558Y-95086718D01*
X192162171Y-95071524D01*
X192150000Y-95069103D01*
X192137829Y-95071524D01*
X192061442Y-95086718D01*
X191990728Y-95080390D01*
X191934661Y-95036835D01*
X191911042Y-94969883D01*
X191913282Y-94938558D01*
X191928476Y-94862171D01*
X191930897Y-94850000D01*
X191913282Y-94761442D01*
X191919610Y-94690728D01*
X191963165Y-94634661D01*
X192030117Y-94611042D01*
X192061442Y-94613282D01*
G37*
G04 #@! TD.AperFunction*
G04 #@! TA.AperFunction,Conductor*
G36*
X185100498Y-93955908D02*
G01*
X185112669Y-93953487D01*
X185121013Y-93953487D01*
X185189134Y-93973489D01*
X185235627Y-94027145D01*
X185247013Y-94079487D01*
X185247013Y-94087829D01*
X185244592Y-94100000D01*
X185264034Y-94197740D01*
X185270927Y-94208056D01*
X185270929Y-94208061D01*
X185285588Y-94230000D01*
X185306802Y-94297753D01*
X185285588Y-94370000D01*
X185270929Y-94391939D01*
X185270928Y-94391942D01*
X185264034Y-94402260D01*
X185244592Y-94500000D01*
X185247013Y-94512169D01*
X185247013Y-94521112D01*
X185227011Y-94589233D01*
X185173355Y-94635726D01*
X185121013Y-94647112D01*
X185112115Y-94647112D01*
X185099944Y-94644691D01*
X185087773Y-94647112D01*
X185079484Y-94647112D01*
X185011363Y-94627110D01*
X184964870Y-94573454D01*
X184953484Y-94521112D01*
X184953484Y-94512169D01*
X184955905Y-94500000D01*
X184936463Y-94402260D01*
X184914660Y-94369629D01*
X184893446Y-94301876D01*
X184914661Y-94229627D01*
X184929070Y-94208061D01*
X184929070Y-94208060D01*
X184935966Y-94197740D01*
X184955408Y-94100000D01*
X184952987Y-94087829D01*
X184952987Y-94079487D01*
X184972989Y-94011366D01*
X185026645Y-93964873D01*
X185078987Y-93953487D01*
X185088327Y-93953487D01*
X185100498Y-93955908D01*
G37*
G04 #@! TD.AperFunction*
G04 #@! TA.AperFunction,Conductor*
G36*
X192561442Y-94113282D02*
G01*
X192637829Y-94128476D01*
X192650000Y-94130897D01*
X192662171Y-94128476D01*
X192738558Y-94113282D01*
X192809272Y-94119610D01*
X192865339Y-94163165D01*
X192888958Y-94230117D01*
X192886718Y-94261442D01*
X192878908Y-94300708D01*
X192869103Y-94350000D01*
X192873007Y-94369629D01*
X192886718Y-94438558D01*
X192880390Y-94509272D01*
X192836835Y-94565339D01*
X192769883Y-94588958D01*
X192738558Y-94586718D01*
X192662171Y-94571524D01*
X192650000Y-94569103D01*
X192637829Y-94571524D01*
X192561442Y-94586718D01*
X192490728Y-94580390D01*
X192434661Y-94536835D01*
X192411042Y-94469883D01*
X192413282Y-94438558D01*
X192426993Y-94369629D01*
X192430897Y-94350000D01*
X192421092Y-94300708D01*
X192413282Y-94261442D01*
X192419610Y-94190728D01*
X192463165Y-94134661D01*
X192530117Y-94111042D01*
X192561442Y-94113282D01*
G37*
G04 #@! TD.AperFunction*
G04 #@! TA.AperFunction,Conductor*
G36*
X191491059Y-92556423D02*
G01*
X191531966Y-92614450D01*
X191537149Y-92635382D01*
X191542500Y-92669163D01*
X191592905Y-92768089D01*
X191632422Y-92807606D01*
X191660382Y-92859102D01*
X191661252Y-92858715D01*
X191666176Y-92869773D01*
X191666574Y-92870507D01*
X191666639Y-92870815D01*
X191666640Y-92870818D01*
X191669393Y-92883768D01*
X191677177Y-92894481D01*
X191680552Y-92902062D01*
X191689987Y-92972429D01*
X191659882Y-93036726D01*
X191599793Y-93074540D01*
X191565446Y-93079312D01*
X191564828Y-93079312D01*
X191556917Y-93079063D01*
X191522804Y-93076917D01*
X191522878Y-93075745D01*
X191517425Y-93075156D01*
X191517425Y-93079312D01*
X191189392Y-93079312D01*
X191121271Y-93059310D01*
X191108401Y-93049834D01*
X191046199Y-92997640D01*
X191046197Y-92997639D01*
X191037756Y-92990556D01*
X190982786Y-92970549D01*
X190948530Y-92958081D01*
X190948529Y-92958081D01*
X190938174Y-92954312D01*
X190832202Y-92954312D01*
X190821847Y-92958081D01*
X190821846Y-92958081D01*
X190787590Y-92970549D01*
X190732620Y-92990556D01*
X190724179Y-92997639D01*
X190724177Y-92997640D01*
X190661181Y-93050500D01*
X190651440Y-93058674D01*
X190651404Y-93058737D01*
X190597917Y-93094324D01*
X190526929Y-93095452D01*
X190466867Y-93058318D01*
X190444371Y-93033334D01*
X190444367Y-93033331D01*
X190435507Y-93023491D01*
X190423413Y-93018106D01*
X190423411Y-93018105D01*
X190360030Y-92989886D01*
X190360028Y-92989886D01*
X190347932Y-92984500D01*
X189896298Y-92984500D01*
X189889845Y-92985872D01*
X189889841Y-92985872D01*
X189842616Y-92995911D01*
X189826232Y-92999393D01*
X189793064Y-93023491D01*
X189774848Y-93036726D01*
X189748677Y-93055740D01*
X189700745Y-93138760D01*
X189699361Y-93151931D01*
X189695268Y-93164527D01*
X189691529Y-93163312D01*
X189673435Y-93207303D01*
X189664226Y-93217580D01*
X189473410Y-93408396D01*
X189411098Y-93442422D01*
X189340283Y-93437357D01*
X189283447Y-93394810D01*
X189272048Y-93376503D01*
X189266409Y-93365436D01*
X189266408Y-93365434D01*
X189261907Y-93356601D01*
X189183399Y-93278093D01*
X189084473Y-93227688D01*
X189033750Y-93219654D01*
X189020655Y-93217580D01*
X188974812Y-93210319D01*
X188928969Y-93217580D01*
X188915875Y-93219654D01*
X188865151Y-93227688D01*
X188766225Y-93278093D01*
X188741514Y-93302804D01*
X188679202Y-93336830D01*
X188672128Y-93338158D01*
X188671976Y-93338182D01*
X188658748Y-93337489D01*
X188646385Y-93342235D01*
X188646384Y-93342235D01*
X188639830Y-93344751D01*
X188620872Y-93350367D01*
X188601044Y-93354581D01*
X188590332Y-93362363D01*
X188585791Y-93364385D01*
X188581615Y-93367097D01*
X188569252Y-93371843D01*
X188554924Y-93386171D01*
X188539891Y-93399011D01*
X188523489Y-93410928D01*
X188516869Y-93422394D01*
X188508005Y-93432239D01*
X188507652Y-93431921D01*
X188502635Y-93438460D01*
X188157072Y-93784023D01*
X188152288Y-93788564D01*
X188123491Y-93814493D01*
X188115245Y-93833015D01*
X188105817Y-93850378D01*
X188094774Y-93867382D01*
X188092702Y-93880463D01*
X188090920Y-93885106D01*
X188089886Y-93889972D01*
X188084500Y-93902068D01*
X188084500Y-93922334D01*
X188082949Y-93942043D01*
X188079778Y-93962065D01*
X188083205Y-93974854D01*
X188083898Y-93988082D01*
X188083424Y-93988107D01*
X188084500Y-93996277D01*
X188084500Y-94128670D01*
X188064498Y-94196791D01*
X188047595Y-94217765D01*
X188033117Y-94232243D01*
X187970805Y-94266269D01*
X187899990Y-94261204D01*
X187843154Y-94218657D01*
X187818343Y-94152137D01*
X187819573Y-94123437D01*
X187823318Y-94099792D01*
X187824869Y-94090000D01*
X187807500Y-93980339D01*
X187757095Y-93881413D01*
X187691887Y-93816205D01*
X187657861Y-93753893D01*
X187662926Y-93683078D01*
X187705473Y-93626242D01*
X187746183Y-93609038D01*
X187745436Y-93606740D01*
X187754869Y-93603675D01*
X187764661Y-93602124D01*
X187863587Y-93551719D01*
X187942095Y-93473211D01*
X187992500Y-93374285D01*
X188009869Y-93264624D01*
X187998143Y-93190588D01*
X187994051Y-93164755D01*
X187992500Y-93154963D01*
X187988000Y-93146131D01*
X187987999Y-93146128D01*
X187984086Y-93138449D01*
X187970981Y-93068672D01*
X187997680Y-93002887D01*
X188055708Y-92961980D01*
X188120936Y-92957667D01*
X188129108Y-92959293D01*
X188129116Y-92959294D01*
X188135180Y-92960500D01*
X188784820Y-92960500D01*
X188828722Y-92951767D01*
X188839040Y-92944873D01*
X188839042Y-92944872D01*
X188868185Y-92925399D01*
X188878504Y-92918504D01*
X188889490Y-92902062D01*
X188904872Y-92879042D01*
X188904873Y-92879040D01*
X188911767Y-92868722D01*
X188920500Y-92824820D01*
X188920500Y-92818633D01*
X188921107Y-92812470D01*
X188923798Y-92812735D01*
X188940502Y-92755845D01*
X188994158Y-92709352D01*
X189066211Y-92699517D01*
X189100000Y-92704869D01*
X189109792Y-92703318D01*
X189199869Y-92689051D01*
X189209661Y-92687500D01*
X189255326Y-92664233D01*
X189312528Y-92650500D01*
X191042134Y-92650500D01*
X191044807Y-92650696D01*
X191049842Y-92652425D01*
X191061464Y-92651989D01*
X191061466Y-92651989D01*
X191098755Y-92650589D01*
X191103481Y-92650500D01*
X191122448Y-92650500D01*
X191127183Y-92649618D01*
X191130709Y-92649390D01*
X191134449Y-92649249D01*
X191161708Y-92648226D01*
X191172393Y-92643636D01*
X191176993Y-92642599D01*
X191188714Y-92639038D01*
X191193117Y-92637339D01*
X191204553Y-92635209D01*
X191225541Y-92622272D01*
X191241911Y-92613769D01*
X191256388Y-92607549D01*
X191256392Y-92607547D01*
X191264563Y-92604036D01*
X191269449Y-92600022D01*
X191271634Y-92597837D01*
X191273897Y-92595785D01*
X191274042Y-92595945D01*
X191283041Y-92588832D01*
X191289942Y-92582574D01*
X191299848Y-92576468D01*
X191303884Y-92571161D01*
X191340409Y-92549988D01*
X191341911Y-92549750D01*
X191355498Y-92542827D01*
X191425274Y-92529723D01*
X191491059Y-92556423D01*
G37*
G04 #@! TD.AperFunction*
G04 #@! TA.AperFunction,Conductor*
G36*
X184570000Y-93466303D02*
G01*
X184617867Y-93498287D01*
X184687829Y-93512203D01*
X184700000Y-93514624D01*
X184712171Y-93512203D01*
X184724581Y-93512203D01*
X184724581Y-93515493D01*
X184775328Y-93520034D01*
X184831396Y-93563588D01*
X184855015Y-93630540D01*
X184852775Y-93661864D01*
X184845090Y-93700500D01*
X184847511Y-93712671D01*
X184847511Y-93721013D01*
X184827509Y-93789134D01*
X184773853Y-93835627D01*
X184721511Y-93847013D01*
X184712171Y-93847013D01*
X184700000Y-93844592D01*
X184602260Y-93864034D01*
X184591944Y-93870927D01*
X184591939Y-93870929D01*
X184570000Y-93885588D01*
X184502247Y-93906802D01*
X184430000Y-93885588D01*
X184408061Y-93870929D01*
X184408056Y-93870927D01*
X184397740Y-93864034D01*
X184300000Y-93844592D01*
X184287829Y-93847013D01*
X184278987Y-93847013D01*
X184210866Y-93827011D01*
X184164373Y-93773355D01*
X184152987Y-93721013D01*
X184152987Y-93712171D01*
X184155408Y-93700000D01*
X184147847Y-93661990D01*
X184154174Y-93591278D01*
X184197728Y-93535210D01*
X184264680Y-93511590D01*
X184275419Y-93512358D01*
X184275419Y-93512203D01*
X184287829Y-93512203D01*
X184300000Y-93514624D01*
X184382133Y-93498287D01*
X184430000Y-93466303D01*
X184497750Y-93445089D01*
X184570000Y-93466303D01*
G37*
G04 #@! TD.AperFunction*
G04 #@! TA.AperFunction,Conductor*
G36*
X196531704Y-86910002D02*
G01*
X196578197Y-86963658D01*
X196589583Y-87016000D01*
X196589583Y-88023256D01*
X196569581Y-88091377D01*
X196552678Y-88112351D01*
X194752434Y-89912595D01*
X194690122Y-89946621D01*
X194663339Y-89949500D01*
X194625550Y-89949500D01*
X194557429Y-89929498D01*
X194510936Y-89875842D01*
X194501101Y-89803788D01*
X194503318Y-89789791D01*
X194504869Y-89780000D01*
X194487500Y-89670339D01*
X194437095Y-89571413D01*
X194392405Y-89526723D01*
X194358379Y-89464411D01*
X194355500Y-89437628D01*
X194355500Y-87016000D01*
X194375502Y-86947879D01*
X194429158Y-86901386D01*
X194481500Y-86890000D01*
X196463583Y-86890000D01*
X196531704Y-86910002D01*
G37*
G04 #@! TD.AperFunction*
G04 #@! TD*
M02*
