M48
; DRILL file {KiCad (6.0.7)} date Thu Sep  1 19:33:16 2022
; FORMAT={-:-/ absolute / inch / decimal}
; #@! TF.CreationDate,2022-09-01T19:33:16+03:00
; #@! TF.GenerationSoftware,Kicad,Pcbnew,(6.0.7)
; #@! TF.FileFunction,Plated,1,3,Blind
FMAT,2
INCH
; #@! TA.AperFunction,Plated,Buried,ViaDrill
T1C0.0039
%
G90
G05
T1
X6.7803Y-3.628
X6.8465Y-3.9055
X6.878Y-3.9055
X6.9134Y-3.9409
X6.9457Y-3.9417
X7.2165Y-3.7913
X7.2323Y-3.7756
X7.248Y-3.7913
X7.248Y-3.8228
X7.2634Y-3.7756
X7.2791Y-3.6811
X7.3106Y-3.7602
X7.311Y-3.7441
X7.3114Y-3.776
X7.3264Y-3.6972
X7.3264Y-3.8071
X7.3268Y-3.7126
X7.3268Y-3.7913
X7.3421Y-3.6965
X7.3421Y-3.7917
X7.4134Y-3.7795
X7.4587Y-3.7327
X7.5949Y-3.7051
T0
M30
