G04 #@! TF.GenerationSoftware,KiCad,Pcbnew,(6.0.7)*
G04 #@! TF.CreationDate,2022-09-12T14:42:07+03:00*
G04 #@! TF.ProjectId,MCU_M_V3,4d43555f-4d5f-4563-932e-6b696361645f,rev?*
G04 #@! TF.SameCoordinates,Original*
G04 #@! TF.FileFunction,Copper,L4,Bot*
G04 #@! TF.FilePolarity,Positive*
%FSLAX46Y46*%
G04 Gerber Fmt 4.6, Leading zero omitted, Abs format (unit mm)*
G04 Created by KiCad (PCBNEW (6.0.7)) date 2022-09-12 14:42:07*
%MOMM*%
%LPD*%
G01*
G04 APERTURE LIST*
G04 #@! TA.AperFunction,ComponentPad*
%ADD10R,0.800000X1.400000*%
G04 #@! TD*
G04 #@! TA.AperFunction,ViaPad*
%ADD11C,0.400000*%
G04 #@! TD*
G04 #@! TA.AperFunction,ViaPad*
%ADD12C,0.300000*%
G04 #@! TD*
G04 #@! TA.AperFunction,Conductor*
%ADD13C,0.250000*%
G04 #@! TD*
G04 #@! TA.AperFunction,Conductor*
%ADD14C,0.150000*%
G04 #@! TD*
G04 #@! TA.AperFunction,Conductor*
%ADD15C,0.300000*%
G04 #@! TD*
G04 APERTURE END LIST*
D10*
G04 #@! TO.P,H2,1*
G04 #@! TO.N,/M1_D2*
X170960885Y-104300000D03*
G04 #@! TO.P,H2,2*
G04 #@! TO.N,/M1_D1*
X172254609Y-104300000D03*
G04 #@! TO.P,H2,3*
G04 #@! TO.N,/M1_D4*
X173548383Y-104300000D03*
G04 #@! TO.P,H2,4*
G04 #@! TO.N,/M1_D3*
X174842107Y-104300000D03*
G04 #@! TO.P,H2,5*
G04 #@! TO.N,/M4_D7*
X176135881Y-104300000D03*
G04 #@! TO.P,H2,6*
G04 #@! TO.N,/M3_D7*
X177429605Y-104300000D03*
G04 #@! TO.P,H2,7*
G04 #@! TO.N,/B1*
X178723379Y-104300000D03*
G04 #@! TO.P,H2,8*
G04 #@! TO.N,/B2*
X180017103Y-104300000D03*
G04 #@! TO.P,H2,9*
G04 #@! TO.N,/B3*
X181310877Y-104300000D03*
G04 #@! TO.P,H2,10*
G04 #@! TO.N,/B5*
X182604905Y-104300000D03*
G04 #@! TO.P,H2,11*
G04 #@! TO.N,/B4*
X183898934Y-104300000D03*
G04 #@! TO.P,H2,12*
G04 #@! TO.N,GND*
X185192911Y-104300000D03*
G04 #@! TO.P,H2,13*
G04 #@! TO.N,/M2_D5*
X186486940Y-104300000D03*
G04 #@! TO.P,H2,14*
G04 #@! TO.N,/M2_D4*
X187780968Y-104300000D03*
G04 #@! TO.P,H2,15*
G04 #@! TO.N,/M2_D3*
X189074997Y-104300000D03*
G04 #@! TO.P,H2,16*
G04 #@! TO.N,/M2_D2*
X190369025Y-104300000D03*
G04 #@! TO.P,H2,17*
G04 #@! TO.N,/M2_D1*
X191663053Y-104300000D03*
G04 #@! TO.P,H2,18*
G04 #@! TO.N,GND*
X192957082Y-104300000D03*
G04 #@! TO.P,H2,19*
G04 #@! TO.N,/P0_D1*
X194251059Y-104300000D03*
G04 #@! TO.P,H2,20*
G04 #@! TO.N,/P0_D2*
X195545088Y-104300000D03*
G04 #@! TO.P,H2,21*
G04 #@! TO.N,/P0_D3*
X196839116Y-104300000D03*
G04 #@! TD*
G04 #@! TO.P,H1,1*
G04 #@! TO.N,/+3.3*
X196840083Y-85900000D03*
G04 #@! TO.P,H1,2*
G04 #@! TO.N,/+5*
X195546359Y-85900000D03*
G04 #@! TO.P,H1,3*
G04 #@! TO.N,/M2_D6*
X194252585Y-85900000D03*
G04 #@! TO.P,H1,4*
G04 #@! TO.N,/M2_D7*
X192958861Y-85900000D03*
G04 #@! TO.P,H1,5*
G04 #@! TO.N,/M2_D8*
X191665087Y-85900000D03*
G04 #@! TO.P,H1,6*
G04 #@! TO.N,/M2_D9*
X190371363Y-85900000D03*
G04 #@! TO.P,H1,7*
G04 #@! TO.N,/M2_D10*
X189077589Y-85900000D03*
G04 #@! TO.P,H1,8*
G04 #@! TO.N,GND*
X187783865Y-85900000D03*
G04 #@! TO.P,H1,9*
G04 #@! TO.N,/M4_D3*
X186490091Y-85900000D03*
G04 #@! TO.P,H1,10*
G04 #@! TO.N,/M4_D4*
X185196063Y-85900000D03*
G04 #@! TO.P,H1,11*
G04 #@! TO.N,/M4_D1*
X183902034Y-85900000D03*
G04 #@! TO.P,H1,12*
G04 #@! TO.N,/M4_D2*
X182608057Y-85900000D03*
G04 #@! TO.P,H1,13*
G04 #@! TO.N,/M1_D7*
X181314028Y-85900000D03*
G04 #@! TO.P,H1,14*
G04 #@! TO.N,GND*
X180020000Y-85900000D03*
G04 #@! TO.P,H1,15*
G04 #@! TO.N,unconnected-(H1-Pad15)*
X178725971Y-85900000D03*
G04 #@! TO.P,H1,16*
G04 #@! TO.N,/M3_D1*
X177431943Y-85900000D03*
G04 #@! TO.P,H1,17*
G04 #@! TO.N,/M3_D2*
X176137915Y-85900000D03*
G04 #@! TO.P,H1,18*
G04 #@! TO.N,/M4_D5*
X174843886Y-85900000D03*
G04 #@! TO.P,H1,19*
G04 #@! TO.N,/M4_D6*
X173549909Y-85900000D03*
G04 #@! TO.P,H1,20*
G04 #@! TO.N,/M1_D5*
X172255880Y-85900000D03*
G04 #@! TO.P,H1,21*
G04 #@! TO.N,/M1_D6*
X170961852Y-85900000D03*
G04 #@! TD*
D11*
G04 #@! TO.N,/+3.3*
X189100000Y-92350000D03*
X182116615Y-96863019D03*
D12*
X185900000Y-93700000D03*
X185100000Y-95700000D03*
D11*
X182920000Y-92070000D03*
X180685500Y-96840000D03*
D12*
X185099944Y-94900099D03*
D11*
X185910000Y-98660000D03*
X182960000Y-94125500D03*
D12*
X185500000Y-94500000D03*
D11*
G04 #@! TO.N,GND*
X177660000Y-93500000D03*
X187770000Y-87940000D03*
D12*
X185100000Y-95300000D03*
X184700498Y-93700498D03*
D11*
X193870000Y-91950000D03*
X190180000Y-91690000D03*
X171050000Y-95150000D03*
X194800000Y-88420000D03*
X174140000Y-96130000D03*
X172895000Y-94065000D03*
X184524812Y-97934812D03*
D12*
X185100000Y-94100000D03*
D11*
X193462000Y-101398000D03*
D12*
X185100498Y-94500597D03*
D11*
X183690000Y-87920000D03*
X189640000Y-101760000D03*
X177660000Y-94660000D03*
X185640000Y-87930000D03*
X194280000Y-91950000D03*
X188900000Y-89190000D03*
D12*
G04 #@! TO.N,Net-(C11-Pad1)*
X185500000Y-95700000D03*
D11*
X182604710Y-98052428D03*
G04 #@! TO.N,/+5*
X180670000Y-97350000D03*
G04 #@! TD*
D13*
G04 #@! TO.N,/+3.3*
X182116615Y-96853385D02*
X182116615Y-96863019D01*
X182083596Y-96830000D02*
X180695500Y-96830000D01*
D14*
X184053584Y-96250000D02*
X183453584Y-96850000D01*
D13*
X185910000Y-93700000D02*
X187260000Y-92350000D01*
X184752572Y-98477428D02*
X185240000Y-97990000D01*
X186240000Y-94650000D02*
X186240000Y-96979335D01*
X185500000Y-94500000D02*
X185900000Y-94100000D01*
X182960000Y-92110000D02*
X182920000Y-92070000D01*
D14*
X184550000Y-96250000D02*
X184053584Y-96250000D01*
D13*
X185790000Y-94210000D02*
X185800000Y-94210000D01*
X182116615Y-98476615D02*
X182117428Y-98477428D01*
X182116615Y-96863019D02*
X182116615Y-98476615D01*
D14*
X182129634Y-96850000D02*
X182116615Y-96863019D01*
D13*
X182960000Y-94125500D02*
X182960000Y-96010000D01*
X185240000Y-97990000D02*
X185910000Y-98660000D01*
X182117428Y-98477428D02*
X184752572Y-98477428D01*
X185500000Y-94500000D02*
X185790000Y-94210000D01*
X185500000Y-94630331D02*
X185500000Y-94500000D01*
X185900000Y-93700000D02*
X185910000Y-93700000D01*
X185100000Y-94900000D02*
X185270000Y-94900000D01*
X182116615Y-96863019D02*
X182083596Y-96830000D01*
X185800000Y-94210000D02*
X186240000Y-94650000D01*
X180695500Y-96830000D02*
X180685500Y-96840000D01*
X187260000Y-92350000D02*
X189100000Y-92350000D01*
D14*
X183453584Y-96850000D02*
X182129634Y-96850000D01*
D13*
X182960000Y-96010000D02*
X182116615Y-96853385D01*
X185234668Y-97984668D02*
X185910000Y-98660000D01*
X182116615Y-96863019D02*
X182116981Y-96863019D01*
X182960000Y-94125500D02*
X182960000Y-92110000D01*
D14*
X185100000Y-95700000D02*
X184550000Y-96250000D01*
D13*
X185900000Y-94100000D02*
X185900000Y-93700000D01*
X185500000Y-94670000D02*
X185500000Y-94500000D01*
X185270000Y-94900000D02*
X185500000Y-94670000D01*
X186240000Y-96979335D02*
X185234668Y-97984668D01*
D15*
G04 #@! TO.N,GND*
X172895000Y-94885000D02*
X176695000Y-94885000D01*
D13*
X188910000Y-90420000D02*
X188910000Y-89190000D01*
D14*
X185050000Y-93700000D02*
X185100000Y-93750000D01*
D15*
X194800000Y-91430000D02*
X194280000Y-91950000D01*
D13*
X185100000Y-94500099D02*
X185100000Y-94100000D01*
X184524812Y-97895188D02*
X185890000Y-96530000D01*
X188910000Y-89190000D02*
X187783865Y-88063865D01*
X185890000Y-96530000D02*
X185890000Y-95470000D01*
X189990000Y-91770000D02*
X190580000Y-91770000D01*
X193440000Y-91770000D02*
X193620000Y-91950000D01*
D15*
X193460000Y-102190000D02*
X192670000Y-102980000D01*
D13*
X177650000Y-93930000D02*
X177650000Y-93510000D01*
X187783865Y-88063865D02*
X187783865Y-87513865D01*
D15*
X190820000Y-102980000D02*
X192580000Y-102980000D01*
X192957082Y-103357082D02*
X192957082Y-104350000D01*
X172630000Y-95150000D02*
X172895000Y-94885000D01*
X176695000Y-94885000D02*
X177650000Y-93930000D01*
X194800000Y-88420000D02*
X194800000Y-91430000D01*
X185192911Y-103367089D02*
X185580000Y-102980000D01*
D13*
X184839403Y-94500597D02*
X184710000Y-94630000D01*
D15*
X185192911Y-104350000D02*
X185192911Y-103367089D01*
D13*
X184930000Y-95300000D02*
X185100000Y-95300000D01*
X184700498Y-93700498D02*
X184700996Y-93700000D01*
D15*
X172895000Y-94885000D02*
X174140000Y-96130000D01*
D13*
X184525188Y-97934812D02*
X184540000Y-97920000D01*
X177650000Y-94650000D02*
X177650000Y-93930000D01*
X189830000Y-91770000D02*
X189990000Y-91770000D01*
D15*
X172895000Y-94065000D02*
X172895000Y-94885000D01*
X192580000Y-102980000D02*
X192957082Y-103357082D01*
X189640000Y-101760000D02*
X189640000Y-102960000D01*
D13*
X190260000Y-91770000D02*
X190580000Y-91770000D01*
D15*
X187783865Y-87513865D02*
X187783865Y-85825000D01*
D13*
X187783865Y-87513865D02*
X187783865Y-87953865D01*
X189990000Y-91770000D02*
X187080000Y-91770000D01*
X185720000Y-95300000D02*
X185100000Y-95300000D01*
D15*
X171050000Y-95150000D02*
X172630000Y-95150000D01*
D13*
X177660000Y-94660000D02*
X177650000Y-94650000D01*
X185890000Y-95470000D02*
X185720000Y-95300000D01*
D15*
X189660000Y-102980000D02*
X190820000Y-102980000D01*
D13*
X184524812Y-97934812D02*
X184525188Y-97934812D01*
X187770000Y-87940000D02*
X180770000Y-87940000D01*
X184700996Y-93700000D02*
X185050000Y-93700000D01*
X190030000Y-91540000D02*
X188910000Y-90420000D01*
D15*
X193460000Y-101380000D02*
X193460000Y-102190000D01*
D13*
X185100498Y-94500597D02*
X184839403Y-94500597D01*
X190030000Y-91540000D02*
X190180000Y-91690000D01*
X180770000Y-87940000D02*
X179950000Y-87120000D01*
X184710000Y-95080000D02*
X184930000Y-95300000D01*
D15*
X192670000Y-102980000D02*
X190820000Y-102980000D01*
D13*
X185100000Y-94100000D02*
X185100000Y-93750000D01*
X190580000Y-91770000D02*
X193440000Y-91770000D01*
X185100498Y-94500597D02*
X185100000Y-94500099D01*
D15*
X179950000Y-87040000D02*
X179950000Y-85825000D01*
D13*
X187080000Y-91770000D02*
X185100000Y-93750000D01*
X185100000Y-94500099D02*
X185100000Y-93750000D01*
X190180000Y-91690000D02*
X190260000Y-91770000D01*
X179950000Y-87120000D02*
X179950000Y-87040000D01*
X177650000Y-93510000D02*
X177660000Y-93500000D01*
X187783865Y-87953865D02*
X187770000Y-87940000D01*
X193870000Y-91950000D02*
X194280000Y-91950000D01*
X184710000Y-94630000D02*
X184710000Y-95080000D01*
X179950000Y-85825000D02*
X180020000Y-85825000D01*
X193620000Y-91950000D02*
X193870000Y-91950000D01*
D15*
X185580000Y-102980000D02*
X189660000Y-102980000D01*
X189640000Y-102960000D02*
X189660000Y-102980000D01*
D13*
X184524812Y-97934812D02*
X184524812Y-97895188D01*
D14*
G04 #@! TO.N,Net-(C11-Pad1)*
X185500000Y-95759620D02*
X185500000Y-95700000D01*
X184157138Y-96500000D02*
X184759620Y-96500000D01*
X182604710Y-98052428D02*
X184157138Y-96500000D01*
X184759620Y-96500000D02*
X185500000Y-95759620D01*
D13*
G04 #@! TO.N,/+5*
X186660000Y-94370000D02*
X186660000Y-97170000D01*
X186660000Y-97170000D02*
X186430000Y-97400000D01*
X181400000Y-97350000D02*
X180670000Y-97350000D01*
X195546359Y-91463641D02*
X194230000Y-92780000D01*
X182120000Y-99100000D02*
X181700000Y-98680000D01*
X188250000Y-92780000D02*
X186660000Y-94370000D01*
X181700000Y-98680000D02*
X181700000Y-97650000D01*
X186430000Y-98741041D02*
X186071041Y-99100000D01*
X194230000Y-92780000D02*
X188250000Y-92780000D01*
X186430000Y-97400000D02*
X186430000Y-98741041D01*
X186071041Y-99100000D02*
X182120000Y-99100000D01*
X181700000Y-97650000D02*
X181400000Y-97350000D01*
X195546359Y-85825000D02*
X195546359Y-91463641D01*
G04 #@! TD*
G04 #@! TA.AperFunction,Conductor*
G04 #@! TO.N,GND*
G36*
X195262980Y-86910002D02*
G01*
X195309473Y-86963658D01*
X195320859Y-87016000D01*
X195320859Y-91247335D01*
X195300857Y-91315456D01*
X195283954Y-91336430D01*
X194152789Y-92467595D01*
X194090477Y-92501621D01*
X194063694Y-92504500D01*
X189577926Y-92504500D01*
X189509805Y-92484498D01*
X189463312Y-92430842D01*
X189454968Y-92369711D01*
X189453318Y-92369711D01*
X189453318Y-92359792D01*
X189454869Y-92350000D01*
X189446185Y-92295170D01*
X189439051Y-92250131D01*
X189437500Y-92240339D01*
X189387095Y-92141413D01*
X189308587Y-92062905D01*
X189209661Y-92012500D01*
X189100000Y-91995131D01*
X188990339Y-92012500D01*
X188981504Y-92017002D01*
X188981503Y-92017002D01*
X188895608Y-92060767D01*
X188838406Y-92074500D01*
X187232867Y-92074500D01*
X187152505Y-92090485D01*
X187061376Y-92151376D01*
X187000485Y-92242505D01*
X186998064Y-92254674D01*
X186998064Y-92254675D01*
X186995997Y-92265067D01*
X186961513Y-92329582D01*
X185857848Y-93433247D01*
X185816970Y-93460561D01*
X185814429Y-93461613D01*
X185802260Y-93464034D01*
X185719399Y-93519399D01*
X185664034Y-93602260D01*
X185644592Y-93700000D01*
X185664034Y-93797740D01*
X185666474Y-93801391D01*
X185674500Y-93841744D01*
X185674500Y-93950982D01*
X185654498Y-94019103D01*
X185637329Y-94037283D01*
X185638252Y-94038114D01*
X185629389Y-94047957D01*
X185618677Y-94055740D01*
X185612057Y-94067207D01*
X185603193Y-94077051D01*
X185602840Y-94076733D01*
X185597823Y-94083272D01*
X185440777Y-94240318D01*
X185406565Y-94263178D01*
X185402260Y-94264034D01*
X185391945Y-94270926D01*
X185391943Y-94270927D01*
X185366486Y-94287937D01*
X185319399Y-94319399D01*
X185264034Y-94402260D01*
X185244592Y-94500000D01*
X185247013Y-94512171D01*
X185247013Y-94521112D01*
X185227011Y-94589233D01*
X185173355Y-94635726D01*
X185121013Y-94647112D01*
X185112115Y-94647112D01*
X185099944Y-94644691D01*
X185002204Y-94664133D01*
X184919343Y-94719498D01*
X184863978Y-94802359D01*
X184844536Y-94900099D01*
X184863978Y-94997839D01*
X184919343Y-95080700D01*
X184948056Y-95099885D01*
X184989685Y-95127700D01*
X185002204Y-95136065D01*
X185099944Y-95155507D01*
X185197684Y-95136065D01*
X185201444Y-95133553D01*
X185241928Y-95125500D01*
X185260792Y-95125500D01*
X185267386Y-95125673D01*
X185292836Y-95127007D01*
X185292837Y-95127007D01*
X185306064Y-95127700D01*
X185324984Y-95120437D01*
X185343942Y-95114821D01*
X185350816Y-95113360D01*
X185363768Y-95110607D01*
X185374481Y-95102824D01*
X185379029Y-95100799D01*
X185383198Y-95098092D01*
X185395560Y-95093346D01*
X185409892Y-95079014D01*
X185424927Y-95066173D01*
X185430608Y-95062045D01*
X185441323Y-95054260D01*
X185447944Y-95042791D01*
X185456807Y-95032948D01*
X185457160Y-95033266D01*
X185462177Y-95026728D01*
X185652938Y-94835967D01*
X185657723Y-94831426D01*
X185676666Y-94814370D01*
X185676667Y-94814369D01*
X185686509Y-94805507D01*
X185694755Y-94786985D01*
X185704183Y-94769622D01*
X185715226Y-94752618D01*
X185717298Y-94739535D01*
X185719078Y-94734898D01*
X185720112Y-94730033D01*
X185725500Y-94717932D01*
X185725500Y-94717167D01*
X185754851Y-94662799D01*
X185817001Y-94628477D01*
X185887840Y-94633204D01*
X185933465Y-94662372D01*
X185977594Y-94706500D01*
X186011620Y-94768811D01*
X186014500Y-94795596D01*
X186014500Y-96833738D01*
X185994498Y-96901859D01*
X185977596Y-96922833D01*
X185214249Y-97686182D01*
X185149732Y-97720666D01*
X185139347Y-97722731D01*
X185139344Y-97722732D01*
X185127174Y-97725153D01*
X185036044Y-97786044D01*
X185029151Y-97796360D01*
X185006095Y-97830866D01*
X184990425Y-97849959D01*
X184675361Y-98165023D01*
X184613049Y-98199049D01*
X184586266Y-98201928D01*
X183083428Y-98201928D01*
X183015307Y-98181926D01*
X182968814Y-98128270D01*
X182961152Y-98072139D01*
X182958028Y-98072139D01*
X182958028Y-98062220D01*
X182959579Y-98052428D01*
X182958028Y-98042636D01*
X182958028Y-98042632D01*
X182955037Y-98023750D01*
X182964135Y-97953339D01*
X182990390Y-97914942D01*
X183590963Y-97314370D01*
X184192928Y-96712405D01*
X184255240Y-96678379D01*
X184282023Y-96675500D01*
X184730933Y-96675500D01*
X184753815Y-96677663D01*
X184754103Y-96677648D01*
X184769080Y-96680505D01*
X184802793Y-96670326D01*
X184809156Y-96668585D01*
X184810605Y-96668229D01*
X184843362Y-96660183D01*
X184846996Y-96656979D01*
X184851630Y-96655580D01*
X184854322Y-96653492D01*
X184876619Y-96631195D01*
X184882389Y-96625776D01*
X184908044Y-96603158D01*
X184908820Y-96604038D01*
X184913094Y-96600598D01*
X184910155Y-96597659D01*
X185540290Y-95967524D01*
X185581168Y-95940210D01*
X185585570Y-95938387D01*
X185597740Y-95935966D01*
X185608055Y-95929074D01*
X185608057Y-95929073D01*
X185670286Y-95887493D01*
X185680601Y-95880601D01*
X185735966Y-95797740D01*
X185755408Y-95700000D01*
X185735966Y-95602260D01*
X185680601Y-95519399D01*
X185597740Y-95464034D01*
X185500000Y-95444592D01*
X185402260Y-95464034D01*
X185391944Y-95470927D01*
X185391939Y-95470929D01*
X185370000Y-95485588D01*
X185302247Y-95506802D01*
X185230000Y-95485588D01*
X185208061Y-95470929D01*
X185208056Y-95470927D01*
X185197740Y-95464034D01*
X185100000Y-95444592D01*
X185002260Y-95464034D01*
X184919399Y-95519399D01*
X184864034Y-95602260D01*
X184861613Y-95614431D01*
X184850257Y-95671519D01*
X184815773Y-95736033D01*
X184514209Y-96037596D01*
X184451897Y-96071621D01*
X184425114Y-96074500D01*
X184082265Y-96074500D01*
X184059392Y-96072338D01*
X184059102Y-96072353D01*
X184044124Y-96069496D01*
X184026233Y-96074898D01*
X184010408Y-96079676D01*
X184004042Y-96081417D01*
X183979861Y-96087356D01*
X183979860Y-96087356D01*
X183969842Y-96089817D01*
X183966208Y-96093021D01*
X183961574Y-96094420D01*
X183958882Y-96096508D01*
X183936585Y-96118805D01*
X183930815Y-96124224D01*
X183905160Y-96146842D01*
X183904384Y-96145961D01*
X183900110Y-96149402D01*
X183903049Y-96152341D01*
X183417793Y-96637596D01*
X183355481Y-96671621D01*
X183328698Y-96674500D01*
X182918597Y-96674500D01*
X182850476Y-96654498D01*
X182803983Y-96600842D01*
X182793879Y-96530568D01*
X182823373Y-96465988D01*
X182829501Y-96459405D01*
X183112937Y-96175968D01*
X183117722Y-96171427D01*
X183136669Y-96154367D01*
X183146509Y-96145507D01*
X183154754Y-96126989D01*
X183164187Y-96109616D01*
X183168013Y-96103725D01*
X183168014Y-96103723D01*
X183175226Y-96092617D01*
X183177298Y-96079535D01*
X183179078Y-96074898D01*
X183180112Y-96070034D01*
X183185500Y-96057932D01*
X183185500Y-96037665D01*
X183187051Y-96017954D01*
X183188151Y-96011010D01*
X183190222Y-95997934D01*
X183186795Y-95985145D01*
X183186102Y-95971917D01*
X183186576Y-95971892D01*
X183185500Y-95963722D01*
X183185500Y-94369685D01*
X183202381Y-94306685D01*
X183213205Y-94287937D01*
X183246734Y-94229863D01*
X183265136Y-94125500D01*
X183246734Y-94021137D01*
X183202381Y-93944315D01*
X183185500Y-93881315D01*
X183185500Y-92346611D01*
X183204800Y-92280882D01*
X183207095Y-92278587D01*
X183257500Y-92179661D01*
X183264669Y-92134402D01*
X183273318Y-92079792D01*
X183274869Y-92070000D01*
X183257500Y-91960339D01*
X183207095Y-91861413D01*
X183128587Y-91782905D01*
X183029661Y-91732500D01*
X182920000Y-91715131D01*
X182810339Y-91732500D01*
X182711413Y-91782905D01*
X182632905Y-91861413D01*
X182582500Y-91960339D01*
X182565131Y-92070000D01*
X182566682Y-92079792D01*
X182575332Y-92134402D01*
X182582500Y-92179661D01*
X182632905Y-92278587D01*
X182697595Y-92343277D01*
X182731621Y-92405589D01*
X182734500Y-92432372D01*
X182734500Y-93881315D01*
X182717619Y-93944315D01*
X182673266Y-94021137D01*
X182654864Y-94125500D01*
X182673266Y-94229863D01*
X182706795Y-94287937D01*
X182717619Y-94306685D01*
X182734500Y-94369685D01*
X182734500Y-95864405D01*
X182714498Y-95932526D01*
X182697595Y-95953500D01*
X182176850Y-96474245D01*
X182107466Y-96509599D01*
X182093886Y-96511750D01*
X182006954Y-96525519D01*
X181977027Y-96540768D01*
X181919826Y-96554500D01*
X180927468Y-96554500D01*
X180870266Y-96540767D01*
X180803997Y-96507002D01*
X180803996Y-96507002D01*
X180795161Y-96502500D01*
X180685500Y-96485131D01*
X180575839Y-96502500D01*
X180476913Y-96552905D01*
X180398405Y-96631413D01*
X180348000Y-96730339D01*
X180330631Y-96840000D01*
X180348000Y-96949661D01*
X180352501Y-96958494D01*
X180385553Y-97023363D01*
X180398657Y-97093140D01*
X180380687Y-97140283D01*
X180382905Y-97141413D01*
X180332500Y-97240339D01*
X180315131Y-97350000D01*
X180332500Y-97459661D01*
X180382905Y-97558587D01*
X180461413Y-97637095D01*
X180560339Y-97687500D01*
X180670000Y-97704869D01*
X180679792Y-97703318D01*
X180695861Y-97700773D01*
X180779661Y-97687500D01*
X180788497Y-97682998D01*
X180874392Y-97639233D01*
X180931594Y-97625500D01*
X181233694Y-97625500D01*
X181301815Y-97645502D01*
X181322789Y-97662405D01*
X181387595Y-97727211D01*
X181421621Y-97789523D01*
X181424500Y-97816306D01*
X181424500Y-98640457D01*
X181422079Y-98665039D01*
X181419103Y-98680000D01*
X181424500Y-98707132D01*
X181424500Y-98707133D01*
X181440485Y-98787495D01*
X181441473Y-98788973D01*
X181485604Y-98855019D01*
X181501376Y-98878624D01*
X181511692Y-98885517D01*
X181511693Y-98885518D01*
X181514064Y-98887102D01*
X181533156Y-98902772D01*
X181897228Y-99266844D01*
X181912898Y-99285936D01*
X181921376Y-99298624D01*
X181931689Y-99305515D01*
X181944377Y-99313993D01*
X181942788Y-99316370D01*
X181942790Y-99316371D01*
X181944378Y-99313994D01*
X181970532Y-99331469D01*
X181970534Y-99331472D01*
X181970535Y-99331471D01*
X182012505Y-99359515D01*
X182024674Y-99361936D01*
X182024675Y-99361936D01*
X182092867Y-99375500D01*
X182107828Y-99378476D01*
X182107829Y-99378476D01*
X182120000Y-99380897D01*
X182132171Y-99378476D01*
X182132173Y-99378476D01*
X182134963Y-99377921D01*
X182159543Y-99375500D01*
X186031498Y-99375500D01*
X186056080Y-99377921D01*
X186071041Y-99380897D01*
X186098173Y-99375500D01*
X186098174Y-99375500D01*
X186178536Y-99359515D01*
X186220506Y-99331471D01*
X186220506Y-99331472D01*
X186220509Y-99331469D01*
X186246663Y-99313994D01*
X186249230Y-99317835D01*
X186249231Y-99317834D01*
X186246664Y-99313993D01*
X186259352Y-99305515D01*
X186269665Y-99298624D01*
X186278143Y-99285936D01*
X186293813Y-99266844D01*
X186643994Y-98916663D01*
X186659142Y-98893993D01*
X186682621Y-98858853D01*
X186682621Y-98858852D01*
X186689515Y-98848535D01*
X186710897Y-98741041D01*
X186689515Y-98633546D01*
X186676734Y-98614418D01*
X186655500Y-98544417D01*
X186655500Y-97545597D01*
X186675502Y-97477476D01*
X186692404Y-97456502D01*
X186812947Y-97335958D01*
X186817733Y-97331417D01*
X186836666Y-97314370D01*
X186836667Y-97314369D01*
X186846509Y-97305507D01*
X186854755Y-97286985D01*
X186864183Y-97269622D01*
X186875226Y-97252618D01*
X186877298Y-97239537D01*
X186879080Y-97234894D01*
X186880114Y-97230028D01*
X186885500Y-97217932D01*
X186885500Y-97197666D01*
X186887051Y-97177955D01*
X186888151Y-97171011D01*
X186890222Y-97157935D01*
X186886795Y-97145146D01*
X186886102Y-97131918D01*
X186886576Y-97131893D01*
X186885500Y-97123723D01*
X186885500Y-94515596D01*
X186905502Y-94447475D01*
X186922405Y-94426501D01*
X188256500Y-93092405D01*
X188318812Y-93058380D01*
X188345595Y-93055500D01*
X194190457Y-93055500D01*
X194215039Y-93057921D01*
X194230000Y-93060897D01*
X194257132Y-93055500D01*
X194257133Y-93055500D01*
X194337495Y-93039515D01*
X194379465Y-93011471D01*
X194379465Y-93011472D01*
X194379468Y-93011469D01*
X194405622Y-92993994D01*
X194408189Y-92997835D01*
X194408190Y-92997834D01*
X194405623Y-92993993D01*
X194418311Y-92985515D01*
X194428624Y-92978624D01*
X194437102Y-92965936D01*
X194452772Y-92946844D01*
X195760353Y-91639263D01*
X195805874Y-91571135D01*
X195827256Y-91463641D01*
X195805874Y-91356146D01*
X195793093Y-91337018D01*
X195771859Y-91267017D01*
X195771859Y-87016000D01*
X195791861Y-86947879D01*
X195845517Y-86901386D01*
X195897859Y-86890000D01*
X197123500Y-86890000D01*
X197191621Y-86910002D01*
X197238114Y-86963658D01*
X197249500Y-87016000D01*
X197249500Y-103183916D01*
X197229498Y-103252037D01*
X197175842Y-103298530D01*
X197123454Y-103309916D01*
X182909328Y-103304630D01*
X170686453Y-103300084D01*
X170618340Y-103280057D01*
X170571867Y-103226384D01*
X170560500Y-103174084D01*
X170560500Y-87016000D01*
X170580502Y-86947879D01*
X170634158Y-86901386D01*
X170686500Y-86890000D01*
X195194859Y-86890000D01*
X195262980Y-86910002D01*
G37*
G04 #@! TD.AperFunction*
G04 #@! TD*
M02*
