M48
; DRILL file {KiCad (6.0.7)} date Thu Sep  8 11:09:22 2022
; FORMAT={-:-/ absolute / inch / decimal}
; #@! TF.CreationDate,2022-09-08T11:09:22+03:00
; #@! TF.GenerationSoftware,Kicad,Pcbnew,(6.0.7)
; #@! TF.FileFunction,Plated,1,3,Blind
FMAT,2
INCH
; #@! TA.AperFunction,Plated,Buried,ViaDrill
T1C0.0039
; #@! TA.AperFunction,Plated,Buried,ViaDrill
T2C0.0079
%
G90
G05
T1
X7.2559Y-3.7047
X7.2559Y-3.7205
X7.2559Y-3.7677
X7.2717Y-3.7047
X7.2717Y-3.752
X7.2717Y-3.7835
X7.2717Y-3.7205
X7.2874Y-3.7835
X7.3031Y-3.7047
X7.3031Y-3.752
X7.3031Y-3.7835
X7.3189Y-3.7047
X7.3189Y-3.7677
X7.3189Y-3.7835
X7.5846Y-3.7343
X7.5846Y-3.7736
X7.6437Y-3.7146
T2
X6.924Y-3.6376
X6.9894Y-3.8504
X7.0646Y-3.8319
X7.1834Y-3.8415
X7.2315Y-3.8555
X7.237Y-4.0037
X7.2549Y-3.9291
X7.3201Y-4.0051
X7.3258Y-3.6291
X7.3541Y-3.9297
X7.3695Y-3.9024
X7.3807Y-3.7043
X7.388Y-3.6718
T0
M30
