G04 #@! TF.GenerationSoftware,KiCad,Pcbnew,(6.0.7)*
G04 #@! TF.CreationDate,2022-09-01T19:33:10+03:00*
G04 #@! TF.ProjectId,MCU_M_V3,4d43555f-4d5f-4563-932e-6b696361645f,rev?*
G04 #@! TF.SameCoordinates,Original*
G04 #@! TF.FileFunction,Copper,L1,Top*
G04 #@! TF.FilePolarity,Positive*
%FSLAX46Y46*%
G04 Gerber Fmt 4.6, Leading zero omitted, Abs format (unit mm)*
G04 Created by KiCad (PCBNEW (6.0.7)) date 2022-09-01 19:33:10*
%MOMM*%
%LPD*%
G01*
G04 APERTURE LIST*
G04 Aperture macros list*
%AMRoundRect*
0 Rectangle with rounded corners*
0 $1 Rounding radius*
0 $2 $3 $4 $5 $6 $7 $8 $9 X,Y pos of 4 corners*
0 Add a 4 corners polygon primitive as box body*
4,1,4,$2,$3,$4,$5,$6,$7,$8,$9,$2,$3,0*
0 Add four circle primitives for the rounded corners*
1,1,$1+$1,$2,$3*
1,1,$1+$1,$4,$5*
1,1,$1+$1,$6,$7*
1,1,$1+$1,$8,$9*
0 Add four rect primitives between the rounded corners*
20,1,$1+$1,$2,$3,$4,$5,0*
20,1,$1+$1,$4,$5,$6,$7,0*
20,1,$1+$1,$6,$7,$8,$9,0*
20,1,$1+$1,$8,$9,$2,$3,0*%
G04 Aperture macros list end*
G04 #@! TA.AperFunction,SMDPad,CuDef*
%ADD10R,0.620000X0.620000*%
G04 #@! TD*
G04 #@! TA.AperFunction,SMDPad,CuDef*
%ADD11R,0.620000X0.600000*%
G04 #@! TD*
G04 #@! TA.AperFunction,SMDPad,CuDef*
%ADD12R,0.650000X0.900000*%
G04 #@! TD*
G04 #@! TA.AperFunction,SMDPad,CuDef*
%ADD13C,0.220000*%
G04 #@! TD*
G04 #@! TA.AperFunction,SMDPad,CuDef*
%ADD14R,0.950000X0.900000*%
G04 #@! TD*
G04 #@! TA.AperFunction,SMDPad,CuDef*
%ADD15R,0.475000X0.500000*%
G04 #@! TD*
G04 #@! TA.AperFunction,SMDPad,CuDef*
%ADD16C,0.250000*%
G04 #@! TD*
G04 #@! TA.AperFunction,SMDPad,CuDef*
%ADD17R,0.600000X0.700000*%
G04 #@! TD*
G04 #@! TA.AperFunction,ComponentPad*
%ADD18R,1.000000X1.000000*%
G04 #@! TD*
G04 #@! TA.AperFunction,ComponentPad*
%ADD19C,1.000000*%
G04 #@! TD*
G04 #@! TA.AperFunction,SMDPad,CuDef*
%ADD20R,0.700000X0.600000*%
G04 #@! TD*
G04 #@! TA.AperFunction,SMDPad,CuDef*
%ADD21R,0.900000X0.950000*%
G04 #@! TD*
G04 #@! TA.AperFunction,SMDPad,CuDef*
%ADD22R,0.600000X0.620000*%
G04 #@! TD*
G04 #@! TA.AperFunction,SMDPad,CuDef*
%ADD23R,1.400000X1.200000*%
G04 #@! TD*
G04 #@! TA.AperFunction,SMDPad,CuDef*
%ADD24R,1.900000X1.100000*%
G04 #@! TD*
G04 #@! TA.AperFunction,SMDPad,CuDef*
%ADD25R,1.300000X0.600000*%
G04 #@! TD*
G04 #@! TA.AperFunction,SMDPad,CuDef*
%ADD26RoundRect,0.150000X-0.587500X-0.150000X0.587500X-0.150000X0.587500X0.150000X-0.587500X0.150000X0*%
G04 #@! TD*
G04 #@! TA.AperFunction,ComponentPad*
%ADD27R,0.800000X1.400000*%
G04 #@! TD*
G04 #@! TA.AperFunction,SMDPad,CuDef*
%ADD28R,0.780000X0.980000*%
G04 #@! TD*
G04 #@! TA.AperFunction,ViaPad*
%ADD29C,0.300000*%
G04 #@! TD*
G04 #@! TA.AperFunction,ViaPad*
%ADD30C,0.200000*%
G04 #@! TD*
G04 #@! TA.AperFunction,Conductor*
%ADD31C,0.100000*%
G04 #@! TD*
G04 #@! TA.AperFunction,Conductor*
%ADD32C,0.250000*%
G04 #@! TD*
G04 #@! TA.AperFunction,Conductor*
%ADD33C,0.200000*%
G04 #@! TD*
G04 #@! TA.AperFunction,Conductor*
%ADD34C,0.300000*%
G04 #@! TD*
G04 #@! TA.AperFunction,Conductor*
%ADD35C,0.150000*%
G04 #@! TD*
G04 APERTURE END LIST*
D10*
G04 #@! TO.P,C102,1*
G04 #@! TO.N,GND*
X181750000Y-95680000D03*
G04 #@! TO.P,C102,2*
G04 #@! TO.N,/+3.3*
X181750000Y-96600000D03*
G04 #@! TD*
D11*
G04 #@! TO.P,C15,1*
G04 #@! TO.N,Net-(C15-Pad1)*
X178270000Y-95130000D03*
G04 #@! TO.P,C15,2*
G04 #@! TO.N,GND*
X178270000Y-96050000D03*
G04 #@! TD*
D12*
G04 #@! TO.P,R11,1*
G04 #@! TO.N,/B1*
X180015000Y-97330000D03*
G04 #@! TO.P,R11,2*
G04 #@! TO.N,/+3.3*
X178565000Y-97330000D03*
G04 #@! TD*
D13*
G04 #@! TO.P,U1,J10,PA2*
G04 #@! TO.N,/M2_D2*
X186700000Y-93300000D03*
G04 #@! TO.P,U1,J9,PA4*
G04 #@! TO.N,/M4_D3*
X186700000Y-93700000D03*
G04 #@! TO.P,U1,J8,PA7*
G04 #@! TO.N,/B4*
X186700000Y-94100000D03*
G04 #@! TO.P,U1,J7,PB2*
G04 #@! TO.N,GND*
X186700000Y-94500000D03*
G04 #@! TO.P,U1,J6,PE9*
G04 #@! TO.N,unconnected-(U1-PadJ6)*
X186700000Y-94900000D03*
G04 #@! TO.P,U1,J5,PE11*
G04 #@! TO.N,unconnected-(U1-PadJ5)*
X186700000Y-95300000D03*
G04 #@! TO.P,U1,J4,PB11*
G04 #@! TO.N,/ULPI_D4*
X186700000Y-95700000D03*
G04 #@! TO.P,U1,J3,PB12*
G04 #@! TO.N,/ULPI_D5*
X186700000Y-96100000D03*
G04 #@! TO.P,U1,J2,PB14*
G04 #@! TO.N,/M4_D7*
X186700000Y-96500000D03*
G04 #@! TO.P,U1,J1,PB13*
G04 #@! TO.N,/ULPI_D6*
X186700000Y-96900000D03*
G04 #@! TO.P,U1,H10,VSSA*
G04 #@! TO.N,GND*
X186300000Y-93300000D03*
G04 #@! TO.P,U1,H9,PA3*
G04 #@! TO.N,/ULPI_D0*
X186300000Y-93700000D03*
G04 #@! TO.P,U1,H8,PA6*
G04 #@! TO.N,/M1_D4*
X186300000Y-94100000D03*
G04 #@! TO.P,U1,H7,PB1*
G04 #@! TO.N,/ULPI_D2*
X186300000Y-94500000D03*
G04 #@! TO.P,U1,H6,PE8*
G04 #@! TO.N,unconnected-(U1-PadH6)*
X186300000Y-94900000D03*
G04 #@! TO.P,U1,H5,PE12*
G04 #@! TO.N,unconnected-(U1-PadH5)*
X186300000Y-95300000D03*
G04 #@! TO.P,U1,H4,PB10*
G04 #@! TO.N,/ULPI_D3*
X186300000Y-95700000D03*
G04 #@! TO.P,U1,H3,PD9*
G04 #@! TO.N,/M2_D7*
X186300000Y-96100000D03*
G04 #@! TO.P,U1,H2,PD8*
G04 #@! TO.N,/M2_D6*
X186300000Y-96500000D03*
G04 #@! TO.P,U1,H1,PB15*
G04 #@! TO.N,/M3_D7*
X186300000Y-96900000D03*
G04 #@! TO.P,U1,G10,NRST*
G04 #@! TO.N,/MCU_RESET*
X185900000Y-93300000D03*
G04 #@! TO.P,U1,G9,VDDA*
G04 #@! TO.N,/+3.3*
X185900000Y-93700000D03*
G04 #@! TO.P,U1,G8,PA5*
G04 #@! TO.N,/ULPI_CLK*
X185900000Y-94100000D03*
G04 #@! TO.P,U1,G7,PB0*
G04 #@! TO.N,/ULPI_D1*
X185900000Y-94500000D03*
G04 #@! TO.P,U1,G6,PE7*
G04 #@! TO.N,unconnected-(U1-PadG6)*
X185900000Y-94900000D03*
G04 #@! TO.P,U1,G5,PE13*
G04 #@! TO.N,/M1_D3*
X185900000Y-95300000D03*
G04 #@! TO.P,U1,G4,PE15*
G04 #@! TO.N,/M1_D6*
X185900000Y-95700000D03*
G04 #@! TO.P,U1,G3,PD10*
G04 #@! TO.N,/M2_D8*
X185900000Y-96100000D03*
G04 #@! TO.P,U1,G2,PD12*
G04 #@! TO.N,/M2_D10*
X185900000Y-96500000D03*
G04 #@! TO.P,U1,G1,PD11*
G04 #@! TO.N,/M2_D9*
X185900000Y-96900000D03*
G04 #@! TO.P,U1,F10,PH0*
G04 #@! TO.N,Net-(C13-Pad1)*
X185500000Y-93300000D03*
G04 #@! TO.P,U1,F9,PH1*
G04 #@! TO.N,Net-(C12-Pad2)*
X185500000Y-93700000D03*
G04 #@! TO.P,U1,F8,PA1*
G04 #@! TO.N,/M2_D1*
X185500000Y-94100000D03*
G04 #@! TO.P,U1,F7,VDD*
G04 #@! TO.N,/+3.3*
X185500000Y-94500000D03*
G04 #@! TO.P,U1,F6,PE10*
G04 #@! TO.N,unconnected-(U1-PadF6)*
X185500000Y-94900000D03*
G04 #@! TO.P,U1,F5,PE14*
G04 #@! TO.N,/M1_D5*
X185500000Y-95300000D03*
G04 #@! TO.P,U1,F4,VCAP_1*
G04 #@! TO.N,Net-(C11-Pad1)*
X185500000Y-95700000D03*
G04 #@! TO.P,U1,F3,PC6*
G04 #@! TO.N,/M1_D7*
X185500000Y-96100000D03*
G04 #@! TO.P,U1,F2,PD14*
G04 #@! TO.N,/ULPI_PWRDN*
X185500000Y-96500000D03*
G04 #@! TO.P,U1,F1,PD15*
G04 #@! TO.N,/ULPI_RST*
X185500000Y-96900000D03*
G04 #@! TO.P,U1,E10,PC0*
G04 #@! TO.N,/ULPI_STP*
X185100000Y-93300000D03*
G04 #@! TO.P,U1,E9,PC3*
G04 #@! TO.N,/ULPI_NXT*
X185100000Y-93700000D03*
G04 #@! TO.P,U1,E8,VSS*
G04 #@! TO.N,GND*
X185100000Y-94100000D03*
G04 #@! TO.P,U1,E7,VSS*
X185100000Y-94500000D03*
G04 #@! TO.P,U1,E6,VDD*
G04 #@! TO.N,/+3.3*
X185100000Y-94900000D03*
G04 #@! TO.P,U1,E5,VSS*
G04 #@! TO.N,GND*
X185100000Y-95300000D03*
G04 #@! TO.P,U1,E4,VDD*
G04 #@! TO.N,/+3.3*
X185100000Y-95700000D03*
G04 #@! TO.P,U1,E3,PC9*
G04 #@! TO.N,/ULPI_XI*
X185100000Y-96100000D03*
G04 #@! TO.P,U1,E2,PC8*
G04 #@! TO.N,/M4_D6*
X185100000Y-96500000D03*
G04 #@! TO.P,U1,E1,PC7*
G04 #@! TO.N,/P0_D3*
X185100000Y-96900000D03*
G04 #@! TO.P,U1,D10,PC2*
G04 #@! TO.N,/ULPI_DIR*
X184700000Y-93300000D03*
G04 #@! TO.P,U1,D9,BYPASS_REG*
G04 #@! TO.N,GND*
X184700000Y-93700000D03*
G04 #@! TO.P,U1,D8,PB8*
G04 #@! TO.N,/P0_D2*
X184700000Y-94100000D03*
G04 #@! TO.P,U1,D7,PB5*
G04 #@! TO.N,/ULPI_D7*
X184700000Y-94500000D03*
G04 #@! TO.P,U1,D6,PD0*
G04 #@! TO.N,unconnected-(U1-PadD6)*
X184700000Y-94900000D03*
G04 #@! TO.P,U1,D5,PC10*
G04 #@! TO.N,/M3_D1*
X184700000Y-95300000D03*
G04 #@! TO.P,U1,D4,PA13*
G04 #@! TO.N,/SW_IO*
X184700000Y-95700000D03*
G04 #@! TO.P,U1,D3,PA10*
G04 #@! TO.N,/M4_D2*
X184700000Y-96100000D03*
G04 #@! TO.P,U1,D2,PA9*
G04 #@! TO.N,/M4_D1*
X184700000Y-96500000D03*
G04 #@! TO.P,U1,D1,PA8*
G04 #@! TO.N,/M2_D5*
X184700000Y-96900000D03*
G04 #@! TO.P,U1,C10,PA0*
G04 #@! TO.N,/M4_D4*
X184300000Y-93300000D03*
G04 #@! TO.P,U1,C9,VSS*
G04 #@! TO.N,GND*
X184300000Y-93700000D03*
G04 #@! TO.P,U1,C8,PB9*
G04 #@! TO.N,/P0_D1*
X184300000Y-94100000D03*
G04 #@! TO.P,U1,C7,PB6*
G04 #@! TO.N,/B1*
X184300000Y-94500000D03*
G04 #@! TO.P,U1,C6,PD5*
G04 #@! TO.N,unconnected-(U1-PadC6)*
X184300000Y-94900000D03*
G04 #@! TO.P,U1,C5,PD1*
G04 #@! TO.N,unconnected-(U1-PadC5)*
X184300000Y-95300000D03*
G04 #@! TO.P,U1,C4,PC11*
G04 #@! TO.N,/M3_D2*
X184300000Y-95700000D03*
G04 #@! TO.P,U1,C3,PI0*
G04 #@! TO.N,unconnected-(U1-PadC3)*
X184300000Y-96100000D03*
G04 #@! TO.P,U1,C2,PA12*
G04 #@! TO.N,/PA12*
X184300000Y-96500000D03*
G04 #@! TO.P,U1,C1,PA11*
G04 #@! TO.N,/PA11*
X184300000Y-96900000D03*
G04 #@! TO.P,U1,B10,PC14*
G04 #@! TO.N,Net-(C14-Pad2)*
X183900000Y-93300000D03*
G04 #@! TO.P,U1,B9,PC15*
G04 #@! TO.N,Net-(C15-Pad1)*
X183900000Y-93700000D03*
G04 #@! TO.P,U1,B8,VDD*
G04 #@! TO.N,/+3.3*
X183900000Y-94100000D03*
G04 #@! TO.P,U1,B7,PB7*
G04 #@! TO.N,/B2*
X183900000Y-94500000D03*
G04 #@! TO.P,U1,B6,PB3*
G04 #@! TO.N,/B3*
X183900000Y-94900000D03*
G04 #@! TO.P,U1,B5,PD6*
G04 #@! TO.N,/M2_D3*
X183900000Y-95300000D03*
G04 #@! TO.P,U1,B4,PD2*
G04 #@! TO.N,/PD2*
X183900000Y-95700000D03*
G04 #@! TO.P,U1,B3,PA15*
G04 #@! TO.N,unconnected-(U1-PadB3)*
X183900000Y-96100000D03*
G04 #@! TO.P,U1,B2,PI1*
G04 #@! TO.N,unconnected-(U1-PadB2)*
X183900000Y-96500000D03*
G04 #@! TO.P,U1,B1,VCAP_2*
G04 #@! TO.N,Net-(C11-Pad2)*
X183900000Y-96900000D03*
G04 #@! TO.P,U1,A10,VBAT*
G04 #@! TO.N,/VBAT*
X183500000Y-93300000D03*
G04 #@! TO.P,U1,A9,PC13*
G04 #@! TO.N,unconnected-(U1-PadA9)*
X183500000Y-93700000D03*
G04 #@! TO.P,U1,A8,PDR_ON*
G04 #@! TO.N,/+3.3*
X183500000Y-94100000D03*
G04 #@! TO.P,U1,A7,BOOT0*
G04 #@! TO.N,/MCU_BOOT0*
X183500000Y-94500000D03*
G04 #@! TO.P,U1,A6,PB4*
G04 #@! TO.N,/B5*
X183500000Y-94900000D03*
G04 #@! TO.P,U1,A5,PD7*
G04 #@! TO.N,/M2_D4*
X183500000Y-95300000D03*
G04 #@! TO.P,U1,A4,PD4*
G04 #@! TO.N,unconnected-(U1-PadA4)*
X183500000Y-95700000D03*
G04 #@! TO.P,U1,A3,PC12*
G04 #@! TO.N,/PC12*
X183500000Y-96100000D03*
G04 #@! TO.P,U1,A2,PA14*
G04 #@! TO.N,/SW_CLK*
X183500000Y-96500000D03*
G04 #@! TO.P,U1,A1,VDD*
G04 #@! TO.N,/+3.3*
X183500000Y-96900000D03*
G04 #@! TD*
D14*
G04 #@! TO.P,R3,1*
G04 #@! TO.N,Net-(C1-Pad1)*
X175300000Y-89450000D03*
G04 #@! TO.P,R3,2*
G04 #@! TO.N,GND*
X175300000Y-87950000D03*
G04 #@! TD*
D15*
G04 #@! TO.P,R23,1*
G04 #@! TO.N,Net-(U2-PadC2)*
X191818000Y-98170000D03*
G04 #@! TO.P,R23,2*
G04 #@! TO.N,GND*
X192842000Y-98170000D03*
G04 #@! TD*
D16*
G04 #@! TO.P,U2,A1,D1*
G04 #@! TO.N,/ULPI_D1*
X191650000Y-96350000D03*
G04 #@! TO.P,U2,A2,D2*
G04 #@! TO.N,/ULPI_D2*
X191650000Y-95850000D03*
G04 #@! TO.P,U2,A3,D3*
G04 #@! TO.N,/ULPI_D3*
X191650000Y-95350000D03*
G04 #@! TO.P,U2,A4,CLK*
G04 #@! TO.N,/ULPI_CLK*
X191650000Y-94850000D03*
G04 #@! TO.P,U2,A5,D4*
G04 #@! TO.N,/ULPI_D4*
X191650000Y-94350000D03*
G04 #@! TO.P,U2,A6,D5*
G04 #@! TO.N,/ULPI_D5*
X191650000Y-93850000D03*
G04 #@! TO.P,U2,B1,D0*
G04 #@! TO.N,/ULPI_D0*
X192150000Y-96350000D03*
G04 #@! TO.P,U2,B2,VDVIO*
G04 #@! TO.N,/+3.3*
X192150000Y-95850000D03*
G04 #@! TO.P,U2,B3,VDVIO*
X192150000Y-95350000D03*
G04 #@! TO.P,U2,B4,GND*
G04 #@! TO.N,GND*
X192150000Y-94850000D03*
G04 #@! TO.P,U2,B5,VDVIO*
G04 #@! TO.N,/+3.3*
X192150000Y-94350000D03*
G04 #@! TO.P,U2,B6,D6*
G04 #@! TO.N,/ULPI_D6*
X192150000Y-93850000D03*
G04 #@! TO.P,U2,C1,DM*
G04 #@! TO.N,Net-(R26-Pad2)*
X192650000Y-96350000D03*
G04 #@! TO.P,U2,C2,RREF*
G04 #@! TO.N,Net-(U2-PadC2)*
X192650000Y-95850000D03*
G04 #@! TO.P,U2,C3,~{CS}/PWRDN*
G04 #@! TO.N,/ULPI_PWRDN*
X192650000Y-95350000D03*
G04 #@! TO.P,U2,C4,~{RESET}*
G04 #@! TO.N,/ULPI_RST*
X192650000Y-94850000D03*
G04 #@! TO.P,U2,C5,GND*
G04 #@! TO.N,GND*
X192650000Y-94350000D03*
G04 #@! TO.P,U2,C6,D7*
G04 #@! TO.N,/ULPI_D7*
X192650000Y-93850000D03*
G04 #@! TO.P,U2,D1,DP*
G04 #@! TO.N,Net-(R25-Pad2)*
X193150000Y-96350000D03*
G04 #@! TO.P,U2,D2,GND*
G04 #@! TO.N,GND*
X193150000Y-95850000D03*
G04 #@! TO.P,U2,D3,ID*
G04 #@! TO.N,Net-(U2-PadD3)*
X193150000Y-95350000D03*
G04 #@! TO.P,U2,D4,~{PSW}*
G04 #@! TO.N,unconnected-(U2-PadD4)*
X193150000Y-94850000D03*
G04 #@! TO.P,U2,D5,NXT*
G04 #@! TO.N,/ULPI_NXT*
X193150000Y-94350000D03*
G04 #@! TO.P,U2,D6,STP*
G04 #@! TO.N,/ULPI_STP*
X193150000Y-93850000D03*
G04 #@! TO.P,U2,E1,GND*
G04 #@! TO.N,GND*
X193650000Y-96350000D03*
G04 #@! TO.P,U2,E2,VB_REF_FAULT*
X193650000Y-95850000D03*
G04 #@! TO.P,U2,E3,3V3V*
G04 #@! TO.N,Net-(U2-PadE3)*
X193650000Y-95350000D03*
G04 #@! TO.P,U2,E4,GND*
G04 #@! TO.N,GND*
X193650000Y-94850000D03*
G04 #@! TO.P,U2,E5,DIR*
G04 #@! TO.N,/ULPI_DIR*
X193650000Y-94350000D03*
G04 #@! TO.P,U2,E6,1V2V*
G04 #@! TO.N,Net-(U2-PadE6)*
X193650000Y-93850000D03*
G04 #@! TO.P,U2,F1,NC*
G04 #@! TO.N,unconnected-(U2-PadF1)*
X194150000Y-96350000D03*
G04 #@! TO.P,U2,F2,NC*
G04 #@! TO.N,unconnected-(U2-PadF2)*
X194150000Y-95850000D03*
G04 #@! TO.P,U2,F3,VBAT*
G04 #@! TO.N,/+3.3*
X194150000Y-95350000D03*
G04 #@! TO.P,U2,F4,VBUS*
G04 #@! TO.N,unconnected-(U2-PadF4)*
X194150000Y-94850000D03*
G04 #@! TO.P,U2,F5,XI*
G04 #@! TO.N,/ULPI_XI*
X194150000Y-94350000D03*
G04 #@! TO.P,U2,F6,XO*
G04 #@! TO.N,unconnected-(U2-PadF6)*
X194150000Y-93850000D03*
G04 #@! TD*
D11*
G04 #@! TO.P,C12,1*
G04 #@! TO.N,GND*
X183200000Y-89530000D03*
G04 #@! TO.P,C12,2*
G04 #@! TO.N,Net-(C12-Pad2)*
X183200000Y-90450000D03*
G04 #@! TD*
D17*
G04 #@! TO.P,R21,1*
G04 #@! TO.N,/M1_D2*
X174060000Y-101110000D03*
G04 #@! TO.P,R21,2*
G04 #@! TO.N,/PD2*
X174060000Y-100010000D03*
G04 #@! TD*
D18*
G04 #@! TO.P,J1,1,1*
G04 #@! TO.N,GND*
X172100000Y-94065000D03*
D19*
G04 #@! TO.P,J1,2,2*
G04 #@! TO.N,/VBAT*
X172100000Y-95335000D03*
G04 #@! TD*
D17*
G04 #@! TO.P,R27,1*
G04 #@! TO.N,/M1_D2*
X174820000Y-101110000D03*
G04 #@! TO.P,R27,2*
G04 #@! TO.N,/PA12*
X174820000Y-100010000D03*
G04 #@! TD*
D20*
G04 #@! TO.P,R24,1*
G04 #@! TO.N,GND*
X194880000Y-98210000D03*
G04 #@! TO.P,R24,2*
G04 #@! TO.N,Net-(U2-PadD3)*
X193780000Y-98210000D03*
G04 #@! TD*
D11*
G04 #@! TO.P,C14,1*
G04 #@! TO.N,GND*
X178270000Y-92180000D03*
G04 #@! TO.P,C14,2*
G04 #@! TO.N,Net-(C14-Pad2)*
X178270000Y-93100000D03*
G04 #@! TD*
D21*
G04 #@! TO.P,R2,1*
G04 #@! TO.N,/MCU_RESET*
X171290000Y-91190000D03*
G04 #@! TO.P,R2,2*
G04 #@! TO.N,/+3.3*
X172790000Y-91190000D03*
G04 #@! TD*
D11*
G04 #@! TO.P,C21,1*
G04 #@! TO.N,Net-(U2-PadE6)*
X196050000Y-93620000D03*
G04 #@! TO.P,C21,2*
G04 #@! TO.N,GND*
X196050000Y-94540000D03*
G04 #@! TD*
D22*
G04 #@! TO.P,C23,1*
G04 #@! TO.N,/+3.3*
X192070000Y-91140000D03*
G04 #@! TO.P,C23,2*
G04 #@! TO.N,GND*
X192990000Y-91140000D03*
G04 #@! TD*
D12*
G04 #@! TO.P,R12,1*
G04 #@! TO.N,/B2*
X180485000Y-98490000D03*
G04 #@! TO.P,R12,2*
G04 #@! TO.N,/+3.3*
X179035000Y-98490000D03*
G04 #@! TD*
D20*
G04 #@! TO.P,R25,1*
G04 #@! TO.N,/M1_D2*
X177250000Y-101070000D03*
G04 #@! TO.P,R25,2*
G04 #@! TO.N,Net-(R25-Pad2)*
X178350000Y-101070000D03*
G04 #@! TD*
D14*
G04 #@! TO.P,R1,1*
G04 #@! TO.N,/MCU_BOOT0*
X176600000Y-89450000D03*
G04 #@! TO.P,R1,2*
G04 #@! TO.N,/M4_D5*
X176600000Y-87950000D03*
G04 #@! TD*
D11*
G04 #@! TO.P,C13,1*
G04 #@! TO.N,Net-(C13-Pad1)*
X188010000Y-89530000D03*
G04 #@! TO.P,C13,2*
G04 #@! TO.N,GND*
X188010000Y-90450000D03*
G04 #@! TD*
D23*
G04 #@! TO.P,Y11,1,CRYSTAL__1*
G04 #@! TO.N,Net-(C12-Pad2)*
X184500000Y-90890000D03*
G04 #@! TO.P,Y11,2,GND_1*
G04 #@! TO.N,GND*
X186700000Y-90890000D03*
G04 #@! TO.P,Y11,3,CRYSTAL__2*
G04 #@! TO.N,Net-(C13-Pad1)*
X186700000Y-89290000D03*
G04 #@! TO.P,Y11,4,GND_2*
G04 #@! TO.N,GND*
X184500000Y-89290000D03*
G04 #@! TD*
D10*
G04 #@! TO.P,C103,1*
G04 #@! TO.N,GND*
X193000000Y-91950000D03*
G04 #@! TO.P,C103,2*
G04 #@! TO.N,/+3.3*
X192080000Y-91950000D03*
G04 #@! TD*
D20*
G04 #@! TO.P,R26,1*
G04 #@! TO.N,/M1_D1*
X177250000Y-101800000D03*
G04 #@! TO.P,R26,2*
G04 #@! TO.N,Net-(R26-Pad2)*
X178350000Y-101800000D03*
G04 #@! TD*
D22*
G04 #@! TO.P,C24,1*
G04 #@! TO.N,/+3.3*
X188410000Y-91980000D03*
G04 #@! TO.P,C24,2*
G04 #@! TO.N,GND*
X189330000Y-91980000D03*
G04 #@! TD*
D11*
G04 #@! TO.P,C22,1*
G04 #@! TO.N,Net-(U2-PadE3)*
X196050000Y-95650000D03*
G04 #@! TO.P,C22,2*
G04 #@! TO.N,GND*
X196050000Y-96570000D03*
G04 #@! TD*
D17*
G04 #@! TO.P,R28,1*
G04 #@! TO.N,/M1_D1*
X176370000Y-101750000D03*
G04 #@! TO.P,R28,2*
G04 #@! TO.N,/PA11*
X176370000Y-100650000D03*
G04 #@! TD*
D24*
G04 #@! TO.P,Y12,2*
G04 #@! TO.N,Net-(C15-Pad1)*
X180100000Y-95350000D03*
G04 #@! TO.P,Y12,1*
G04 #@! TO.N,Net-(C14-Pad2)*
X180100000Y-92850000D03*
G04 #@! TD*
D25*
G04 #@! TO.P,Q1,1*
G04 #@! TO.N,Net-(C1-Pad1)*
X173550000Y-89650000D03*
G04 #@! TO.P,Q1,2*
G04 #@! TO.N,GND*
X173550000Y-87750000D03*
G04 #@! TO.P,Q1,3*
G04 #@! TO.N,/MCU_RESET*
X171450000Y-88700000D03*
G04 #@! TD*
D26*
G04 #@! TO.P,D1,1*
G04 #@! TO.N,GND*
X178262500Y-87950000D03*
G04 #@! TO.P,D1,2*
G04 #@! TO.N,/+3.3*
X178262500Y-89850000D03*
G04 #@! TO.P,D1,3*
G04 #@! TO.N,/MCU_BOOT0*
X180137500Y-88900000D03*
G04 #@! TD*
D18*
G04 #@! TO.P,J2,1,1*
G04 #@! TO.N,GND*
X172100000Y-97430000D03*
D19*
G04 #@! TO.P,J2,2,2*
G04 #@! TO.N,/SW_CLK*
X172100000Y-98700000D03*
G04 #@! TO.P,J2,3,3*
G04 #@! TO.N,/SW_IO*
X172100000Y-99970000D03*
G04 #@! TD*
D27*
G04 #@! TO.P,H2,21*
G04 #@! TO.N,/P0_D3*
X196839116Y-104300000D03*
G04 #@! TO.P,H2,20*
G04 #@! TO.N,/P0_D2*
X195545088Y-104300000D03*
G04 #@! TO.P,H2,19*
G04 #@! TO.N,/P0_D1*
X194251059Y-104300000D03*
G04 #@! TO.P,H2,18*
G04 #@! TO.N,GND*
X192957082Y-104300000D03*
G04 #@! TO.P,H2,17*
G04 #@! TO.N,/M2_D1*
X191663053Y-104300000D03*
G04 #@! TO.P,H2,16*
G04 #@! TO.N,/M2_D2*
X190369025Y-104300000D03*
G04 #@! TO.P,H2,15*
G04 #@! TO.N,/M2_D3*
X189074997Y-104300000D03*
G04 #@! TO.P,H2,14*
G04 #@! TO.N,/M2_D4*
X187780968Y-104300000D03*
G04 #@! TO.P,H2,13*
G04 #@! TO.N,/M2_D5*
X186486940Y-104300000D03*
G04 #@! TO.P,H2,12*
G04 #@! TO.N,GND*
X185192911Y-104300000D03*
G04 #@! TO.P,H2,11*
G04 #@! TO.N,/B4*
X183898934Y-104300000D03*
G04 #@! TO.P,H2,10*
G04 #@! TO.N,/B5*
X182604905Y-104300000D03*
G04 #@! TO.P,H2,9*
G04 #@! TO.N,/B3*
X181310877Y-104300000D03*
G04 #@! TO.P,H2,8*
G04 #@! TO.N,/B2*
X180017103Y-104300000D03*
G04 #@! TO.P,H2,7*
G04 #@! TO.N,/B1*
X178723379Y-104300000D03*
G04 #@! TO.P,H2,6*
G04 #@! TO.N,/M3_D7*
X177429605Y-104300000D03*
G04 #@! TO.P,H2,5*
G04 #@! TO.N,/M4_D7*
X176135881Y-104300000D03*
G04 #@! TO.P,H2,4*
G04 #@! TO.N,/M1_D3*
X174842107Y-104300000D03*
G04 #@! TO.P,H2,3*
G04 #@! TO.N,/M1_D4*
X173548383Y-104300000D03*
G04 #@! TO.P,H2,2*
G04 #@! TO.N,/M1_D1*
X172254609Y-104300000D03*
G04 #@! TO.P,H2,1*
G04 #@! TO.N,/M1_D2*
X170960885Y-104300000D03*
G04 #@! TD*
D21*
G04 #@! TO.P,R4,1*
G04 #@! TO.N,/MCU_BOOT0*
X176550000Y-91200000D03*
G04 #@! TO.P,R4,2*
G04 #@! TO.N,GND*
X178050000Y-91200000D03*
G04 #@! TD*
D28*
G04 #@! TO.P,C1,1*
G04 #@! TO.N,Net-(C1-Pad1)*
X174000000Y-91200000D03*
G04 #@! TO.P,C1,2*
G04 #@! TO.N,/MCU_BOOT0*
X175400000Y-91200000D03*
G04 #@! TD*
D27*
G04 #@! TO.P,H1,21*
G04 #@! TO.N,/M1_D6*
X170961852Y-85900000D03*
G04 #@! TO.P,H1,20*
G04 #@! TO.N,/M1_D5*
X172255880Y-85900000D03*
G04 #@! TO.P,H1,19*
G04 #@! TO.N,/M4_D6*
X173549909Y-85900000D03*
G04 #@! TO.P,H1,18*
G04 #@! TO.N,/M4_D5*
X174843886Y-85900000D03*
G04 #@! TO.P,H1,17*
G04 #@! TO.N,/M3_D2*
X176137915Y-85900000D03*
G04 #@! TO.P,H1,16*
G04 #@! TO.N,/M3_D1*
X177431943Y-85900000D03*
G04 #@! TO.P,H1,15*
G04 #@! TO.N,unconnected-(H1-Pad15)*
X178725971Y-85900000D03*
G04 #@! TO.P,H1,14*
G04 #@! TO.N,GND*
X180020000Y-85900000D03*
G04 #@! TO.P,H1,13*
G04 #@! TO.N,/M1_D7*
X181314028Y-85900000D03*
G04 #@! TO.P,H1,12*
G04 #@! TO.N,/M4_D2*
X182608057Y-85900000D03*
G04 #@! TO.P,H1,11*
G04 #@! TO.N,/M4_D1*
X183902034Y-85900000D03*
G04 #@! TO.P,H1,10*
G04 #@! TO.N,/M4_D4*
X185196063Y-85900000D03*
G04 #@! TO.P,H1,9*
G04 #@! TO.N,/M4_D3*
X186490091Y-85900000D03*
G04 #@! TO.P,H1,8*
G04 #@! TO.N,GND*
X187783865Y-85900000D03*
G04 #@! TO.P,H1,7*
G04 #@! TO.N,/M2_D10*
X189077589Y-85900000D03*
G04 #@! TO.P,H1,6*
G04 #@! TO.N,/M2_D9*
X190371363Y-85900000D03*
G04 #@! TO.P,H1,5*
G04 #@! TO.N,/M2_D8*
X191665087Y-85900000D03*
G04 #@! TO.P,H1,4*
G04 #@! TO.N,/M2_D7*
X192958861Y-85900000D03*
G04 #@! TO.P,H1,3*
G04 #@! TO.N,/M2_D6*
X194252585Y-85900000D03*
G04 #@! TO.P,H1,2*
G04 #@! TO.N,/VCC3*
X195546359Y-85900000D03*
G04 #@! TO.P,H1,1*
G04 #@! TO.N,/+3.3*
X196840083Y-85900000D03*
G04 #@! TD*
D22*
G04 #@! TO.P,C11,1*
G04 #@! TO.N,Net-(C11-Pad1)*
X184850000Y-98600000D03*
G04 #@! TO.P,C11,2*
G04 #@! TO.N,Net-(C11-Pad2)*
X183930000Y-98600000D03*
G04 #@! TD*
D17*
G04 #@! TO.P,R22,1*
G04 #@! TO.N,/M1_D1*
X175600000Y-101750000D03*
G04 #@! TO.P,R22,2*
G04 #@! TO.N,/PC12*
X175600000Y-100650000D03*
G04 #@! TD*
D29*
G04 #@! TO.N,/+3.3*
X184880000Y-91800000D03*
G04 #@! TO.N,GND*
X193810000Y-91950000D03*
X189350000Y-91170000D03*
X189650000Y-91170000D03*
G04 #@! TO.N,/+3.3*
X187800000Y-91380000D03*
X188090000Y-91380000D03*
X191550000Y-92150000D03*
D30*
G04 #@! TO.N,/B1*
X180030000Y-97870000D03*
G04 #@! TO.N,/+3.3*
X187480000Y-94070000D03*
X185700000Y-94700000D03*
G04 #@! TO.N,GND*
X185290000Y-94290000D03*
X186100000Y-92370000D03*
X184510000Y-93500000D03*
G04 #@! TO.N,Net-(U2-PadD3)*
X193790000Y-97710000D03*
X192900000Y-95600000D03*
D29*
G04 #@! TO.N,GND*
X177650000Y-96110000D03*
X177670000Y-92370000D03*
G04 #@! TO.N,/+3.3*
X178580000Y-90390000D03*
X188390000Y-91380000D03*
X184584500Y-91800000D03*
X183230000Y-91810000D03*
G04 #@! TO.N,GND*
X193500000Y-91950000D03*
X189350000Y-91450000D03*
G04 #@! TO.N,/+3.3*
X182650000Y-94270000D03*
D30*
G04 #@! TO.N,/MCU_RESET*
X172220000Y-92150000D03*
X185690000Y-93510000D03*
G04 #@! TO.N,GND*
X186900000Y-94300000D03*
X186100000Y-93100000D03*
G04 #@! TO.N,/MCU_BOOT0*
X180260000Y-89360000D03*
X183300000Y-94700000D03*
G04 #@! TO.N,/M1_D7*
X185700000Y-96300000D03*
G04 #@! TO.N,/M1_D5*
X185700000Y-95100000D03*
G04 #@! TO.N,/M1_D6*
X186100000Y-95500000D03*
G04 #@! TO.N,/M3_D2*
X184100000Y-95500000D03*
G04 #@! TO.N,/M3_D1*
X184500000Y-95100000D03*
G04 #@! TO.N,/M4_D2*
X184500000Y-96300000D03*
G04 #@! TO.N,/M4_D1*
X184500000Y-96700000D03*
G04 #@! TO.N,/M4_D6*
X184920500Y-96716288D03*
G04 #@! TO.N,/M2_D8*
X191000000Y-91500000D03*
G04 #@! TO.N,/M2_D1*
X189350000Y-97920000D03*
X185300000Y-93900000D03*
G04 #@! TO.N,/M2_D2*
X189020000Y-98280000D03*
X186890000Y-93090000D03*
G04 #@! TO.N,/SW_IO*
X184489500Y-95900000D03*
G04 #@! TO.N,/PD2*
X173900000Y-99200000D03*
X183700000Y-95900000D03*
G04 #@! TO.N,/PA12*
X174700000Y-99200000D03*
X184100000Y-96300000D03*
G04 #@! TO.N,/PC12*
X175600000Y-100100000D03*
X183300000Y-96300000D03*
G04 #@! TO.N,/PA11*
X176420000Y-100120000D03*
G04 #@! TO.N,/+3.3*
X194420000Y-95070000D03*
G04 #@! TO.N,/M2_D6*
X186490000Y-96310000D03*
G04 #@! TO.N,/M2_D7*
X186110000Y-95910000D03*
G04 #@! TO.N,/M2_D8*
X185710000Y-95910000D03*
G04 #@! TO.N,/M2_D9*
X186090500Y-96700000D03*
G04 #@! TO.N,/M2_D10*
X186100000Y-96300000D03*
G04 #@! TO.N,/M4_D3*
X186900000Y-93489500D03*
G04 #@! TO.N,/M4_D4*
X184090000Y-93090000D03*
G04 #@! TO.N,/M1_D4*
X186100000Y-94300000D03*
G04 #@! TO.N,/M1_D3*
X185690000Y-95510000D03*
G04 #@! TO.N,/M4_D7*
X179190000Y-99490000D03*
X186230000Y-97970000D03*
X186500000Y-96700000D03*
G04 #@! TO.N,/M3_D7*
X179400000Y-99930000D03*
G04 #@! TO.N,/B1*
X184100000Y-94700000D03*
G04 #@! TO.N,/B2*
X183710000Y-94690000D03*
X180560000Y-97870000D03*
G04 #@! TO.N,/B3*
X183710000Y-95090000D03*
G04 #@! TO.N,/B5*
X183300000Y-95100000D03*
G04 #@! TO.N,/B4*
X186500000Y-94300000D03*
X187300000Y-100020000D03*
G04 #@! TO.N,/M2_D5*
X186470000Y-101290000D03*
X184400000Y-99070000D03*
G04 #@! TO.N,/M2_D4*
X183310000Y-95490000D03*
G04 #@! TO.N,/M2_D3*
X183690000Y-95510000D03*
G04 #@! TO.N,/P0_D1*
X184110000Y-94290000D03*
G04 #@! TO.N,/P0_D2*
X184500000Y-94300000D03*
G04 #@! TO.N,/P0_D3*
X184900000Y-97100000D03*
G04 #@! TO.N,Net-(U2-PadC2)*
X192410000Y-95610000D03*
X191790000Y-97720000D03*
G04 #@! TO.N,/ULPI_PWRDN*
X192900000Y-95090000D03*
X185710000Y-96700000D03*
G04 #@! TO.N,/ULPI_RST*
X185710000Y-97130000D03*
X192410000Y-95100000D03*
G04 #@! TO.N,/PA11*
X184100000Y-97100000D03*
G04 #@! TO.N,/ULPI_D7*
X192650000Y-93470000D03*
X184885000Y-94295000D03*
G04 #@! TO.N,/ULPI_DIR*
X184510000Y-93110000D03*
X193390000Y-94100000D03*
G04 #@! TO.N,/ULPI_XI*
X184910000Y-96300000D03*
X193925000Y-94125000D03*
G04 #@! TO.N,/ULPI_NXT*
X192910000Y-94110000D03*
X184890000Y-93500000D03*
G04 #@! TO.N,/ULPI_STP*
X193150000Y-93470000D03*
X184889500Y-93100000D03*
G04 #@! TO.N,/ULPI_D1*
X188700000Y-96000000D03*
X186100000Y-94700000D03*
G04 #@! TO.N,/ULPI_CLK*
X186090000Y-93910000D03*
X189450000Y-94810000D03*
G04 #@! TO.N,/ULPI_D3*
X186500000Y-95900000D03*
X187630265Y-95958496D03*
G04 #@! TO.N,/ULPI_D2*
X188980000Y-95720000D03*
X186500000Y-94690500D03*
G04 #@! TO.N,/ULPI_D0*
X186490000Y-93890000D03*
X188300000Y-96000000D03*
G04 #@! TO.N,/ULPI_D4*
X186890000Y-95510000D03*
X187640000Y-95650000D03*
G04 #@! TD*
D31*
G04 #@! TO.N,/M2_D2*
X186700000Y-93280000D02*
X186890000Y-93090000D01*
X186700000Y-93300000D02*
X186700000Y-93280000D01*
D32*
G04 #@! TO.N,/+3.3*
X188030000Y-92830000D02*
X186690000Y-92830000D01*
X188390000Y-92470000D02*
X188030000Y-92830000D01*
D33*
G04 #@! TO.N,Net-(C15-Pad1)*
X180950000Y-95350000D02*
X180100000Y-95350000D01*
X180950000Y-94650000D02*
X180950000Y-95350000D01*
X182120000Y-93480000D02*
X180950000Y-94650000D01*
X182980000Y-93480000D02*
X182120000Y-93480000D01*
D32*
G04 #@! TO.N,/VBAT*
X174310000Y-93800000D02*
X172775000Y-95335000D01*
X172775000Y-95335000D02*
X172100000Y-95335000D01*
X181950000Y-93010000D02*
X181160000Y-93800000D01*
X181160000Y-93800000D02*
X174310000Y-93800000D01*
X182950000Y-93010000D02*
X181950000Y-93010000D01*
D33*
G04 #@! TO.N,Net-(C14-Pad2)*
X180550000Y-92400000D02*
X180460000Y-92490000D01*
X183370000Y-92400000D02*
X180550000Y-92400000D01*
X183650000Y-92680000D02*
X183370000Y-92400000D01*
D32*
G04 #@! TO.N,GND*
X182420000Y-93860000D02*
X181750000Y-94530000D01*
X181750000Y-94530000D02*
X181750000Y-95680000D01*
X182940000Y-93860000D02*
X182420000Y-93860000D01*
D33*
G04 #@! TO.N,Net-(C13-Pad1)*
X186465000Y-89290000D02*
X186500000Y-89290000D01*
X185640000Y-90115000D02*
X186465000Y-89290000D01*
X185640000Y-92840000D02*
X185640000Y-90115000D01*
G04 #@! TO.N,Net-(C12-Pad2)*
X184640000Y-90890000D02*
X184500000Y-90890000D01*
X185310000Y-91560000D02*
X184640000Y-90890000D01*
X185310000Y-92850000D02*
X185310000Y-91560000D01*
D34*
G04 #@! TO.N,GND*
X184260000Y-89530000D02*
X184500000Y-89290000D01*
X183200000Y-89530000D02*
X184260000Y-89530000D01*
D32*
X188180000Y-88460000D02*
X187783865Y-88063865D01*
X187783865Y-88063865D02*
X187783865Y-85725000D01*
X182370000Y-88330000D02*
X184860000Y-88330000D01*
X181680000Y-89020000D02*
X182370000Y-88330000D01*
X184860000Y-88930000D02*
X184500000Y-89290000D01*
G04 #@! TO.N,/+3.3*
X177280000Y-91740000D02*
X177000000Y-92020000D01*
X177000000Y-92020000D02*
X173130000Y-92020000D01*
X177280000Y-90715000D02*
X177280000Y-91740000D01*
X173130000Y-92020000D02*
X172790000Y-91680000D01*
X172790000Y-91680000D02*
X172790000Y-91190000D01*
X177605000Y-90390000D02*
X177280000Y-90715000D01*
X178580000Y-90390000D02*
X177605000Y-90390000D01*
D35*
G04 #@! TO.N,/M4_D7*
X179210000Y-99510000D02*
X179200000Y-99500000D01*
X185010000Y-99510000D02*
X179210000Y-99510000D01*
X186230000Y-98290000D02*
X185010000Y-99510000D01*
X186230000Y-97970000D02*
X186230000Y-98290000D01*
G04 #@! TO.N,/SW_CLK*
X174600000Y-98700000D02*
X172100000Y-98700000D01*
X175020000Y-99120000D02*
X174600000Y-98700000D01*
X181680000Y-99120000D02*
X175020000Y-99120000D01*
X183700000Y-97100000D02*
X181680000Y-99120000D01*
D32*
G04 #@! TO.N,GND*
X181640000Y-95680000D02*
X181750000Y-95680000D01*
X181140000Y-96180000D02*
X181640000Y-95680000D01*
X178350000Y-96180000D02*
X181140000Y-96180000D01*
X178300000Y-96130000D02*
X178350000Y-96180000D01*
G04 #@! TO.N,Net-(C15-Pad1)*
X179860000Y-95110000D02*
X180100000Y-95350000D01*
X178290000Y-95110000D02*
X179860000Y-95110000D01*
X178270000Y-95130000D02*
X178290000Y-95110000D01*
G04 #@! TO.N,GND*
X187020000Y-90570000D02*
X186700000Y-90890000D01*
X187980000Y-90550000D02*
X187020000Y-90550000D01*
X188810000Y-90450000D02*
X188100000Y-90450000D01*
X188100000Y-90450000D02*
X187980000Y-90570000D01*
G04 #@! TO.N,Net-(C13-Pad1)*
X187040000Y-89630000D02*
X186700000Y-89290000D01*
X188000000Y-89630000D02*
X187040000Y-89630000D01*
X188100000Y-89530000D02*
X188000000Y-89630000D01*
G04 #@! TO.N,GND*
X178210000Y-96110000D02*
X178270000Y-96050000D01*
X177650000Y-96110000D02*
X178210000Y-96110000D01*
X171445000Y-94065000D02*
X172100000Y-94065000D01*
X171050000Y-94460000D02*
X171445000Y-94065000D01*
X177650000Y-96110000D02*
X177630000Y-96130000D01*
X171680000Y-96130000D02*
X171050000Y-95500000D01*
X177630000Y-96130000D02*
X171680000Y-96130000D01*
X171050000Y-95500000D02*
X171050000Y-94460000D01*
X193462000Y-99172000D02*
X193462000Y-99250000D01*
X192842000Y-98552000D02*
X193462000Y-99172000D01*
X192842000Y-98170000D02*
X192842000Y-98552000D01*
D33*
G04 #@! TO.N,Net-(R26-Pad2)*
X184970000Y-101800000D02*
X178350000Y-101800000D01*
X189510000Y-97260000D02*
X184970000Y-101800000D01*
X192460000Y-97260000D02*
X189510000Y-97260000D01*
X192660000Y-97060000D02*
X192460000Y-97260000D01*
D35*
G04 #@! TO.N,/ULPI_D4*
X187880000Y-95650000D02*
X189180000Y-94350000D01*
X187640000Y-95650000D02*
X187880000Y-95650000D01*
X189180000Y-94350000D02*
X190990000Y-94350000D01*
G04 #@! TO.N,/ULPI_D6*
X187370000Y-95400000D02*
X188680000Y-94090000D01*
X188680000Y-94090000D02*
X190990000Y-94090000D01*
X187370000Y-96230000D02*
X187370000Y-95400000D01*
X187130000Y-96470000D02*
X187370000Y-96230000D01*
G04 #@! TO.N,/ULPI_D5*
X187140000Y-95230000D02*
X187140000Y-95620000D01*
X188520000Y-93850000D02*
X187140000Y-95230000D01*
X190970000Y-93850000D02*
X188520000Y-93850000D01*
D32*
G04 #@! TO.N,GND*
X192990000Y-91940000D02*
X193000000Y-91950000D01*
X192990000Y-91140000D02*
X192990000Y-91940000D01*
X193500000Y-91950000D02*
X193000000Y-91950000D01*
X193025940Y-91140000D02*
X192990000Y-91140000D01*
X172370000Y-97160000D02*
X172100000Y-97430000D01*
X172760000Y-96150000D02*
X172370000Y-96540000D01*
X172370000Y-96540000D02*
X172370000Y-97160000D01*
G04 #@! TO.N,/+3.3*
X184584500Y-91800000D02*
X184880000Y-91800000D01*
X187820000Y-91380000D02*
X187800000Y-91380000D01*
X188090000Y-91380000D02*
X187820000Y-91380000D01*
X188390000Y-91380000D02*
X188090000Y-91380000D01*
G04 #@! TO.N,GND*
X189350000Y-91170000D02*
X189350000Y-91450000D01*
X188050000Y-88330000D02*
X184870000Y-88330000D01*
X188900000Y-89180000D02*
X188050000Y-88330000D01*
X189350000Y-91140000D02*
X188900000Y-90690000D01*
X189350000Y-91170000D02*
X189350000Y-91140000D01*
X189350000Y-91170000D02*
X189650000Y-91170000D01*
X188900000Y-90690000D02*
X188900000Y-89180000D01*
X184500000Y-88700000D02*
X184500000Y-89290000D01*
X184870000Y-88330000D02*
X184500000Y-88700000D01*
X189350000Y-91960000D02*
X189330000Y-91980000D01*
X189350000Y-91450000D02*
X189350000Y-91960000D01*
D33*
G04 #@! TO.N,/M1_D1*
X172254609Y-103085391D02*
X172254609Y-104475000D01*
X173590000Y-101750000D02*
X172254609Y-103085391D01*
X175600000Y-101750000D02*
X173590000Y-101750000D01*
G04 #@! TO.N,/M1_D2*
X170940000Y-103070000D02*
X170940000Y-104475000D01*
X172810000Y-101200000D02*
X170940000Y-103070000D01*
X175320000Y-101200000D02*
X172810000Y-101200000D01*
D32*
G04 #@! TO.N,/+3.3*
X184574500Y-91810000D02*
X184584500Y-91800000D01*
X183230000Y-91810000D02*
X184574500Y-91810000D01*
X178262500Y-90352500D02*
X178262500Y-89850000D01*
X178300000Y-90390000D02*
X178262500Y-90352500D01*
X178580000Y-90390000D02*
X178300000Y-90390000D01*
G04 #@! TO.N,/MCU_BOOT0*
X180137500Y-89237500D02*
X180260000Y-89360000D01*
X180137500Y-88900000D02*
X180137500Y-89237500D01*
D34*
G04 #@! TO.N,/+3.3*
X188390000Y-91380000D02*
X188390000Y-92470000D01*
X191750000Y-91950000D02*
X192080000Y-91950000D01*
X188490000Y-92570000D02*
X191130000Y-92570000D01*
X188390000Y-92470000D02*
X188490000Y-92570000D01*
X191130000Y-92570000D02*
X191750000Y-91950000D01*
D35*
G04 #@! TO.N,Net-(U2-PadC2)*
X191790000Y-97720000D02*
X191790000Y-98122000D01*
D32*
X191790000Y-98122000D02*
X191780000Y-98132000D01*
D31*
G04 #@! TO.N,Net-(U2-PadD3)*
X193780000Y-97720000D02*
X193780000Y-98210000D01*
X193790000Y-97710000D02*
X193780000Y-97720000D01*
D35*
G04 #@! TO.N,/B1*
X180030000Y-97345000D02*
X180015000Y-97330000D01*
X180030000Y-97870000D02*
X180030000Y-97345000D01*
D31*
G04 #@! TO.N,/VBAT*
X183500000Y-93200000D02*
X183500000Y-93300000D01*
X182950000Y-93010000D02*
X183310000Y-93010000D01*
X183310000Y-93010000D02*
X183500000Y-93200000D01*
G04 #@! TO.N,Net-(C12-Pad2)*
X185300000Y-93500000D02*
X185500000Y-93700000D01*
X185310000Y-92850000D02*
X185300000Y-92860000D01*
X185300000Y-92860000D02*
X185300000Y-93500000D01*
G04 #@! TO.N,Net-(C13-Pad1)*
X185640000Y-92840000D02*
X185640000Y-93160000D01*
X185640000Y-93160000D02*
X185500000Y-93300000D01*
D32*
G04 #@! TO.N,GND*
X179555000Y-91200000D02*
X181700000Y-89055000D01*
X178050000Y-91200000D02*
X179555000Y-91200000D01*
X180020000Y-87310000D02*
X180020000Y-87160000D01*
X181700000Y-88990000D02*
X180020000Y-87310000D01*
D35*
G04 #@! TO.N,/ULPI_D3*
X187981504Y-95958496D02*
X187630265Y-95958496D01*
X188090000Y-95850000D02*
X187981504Y-95958496D01*
X188590000Y-95350000D02*
X188085000Y-95855000D01*
X190990000Y-95350000D02*
X188590000Y-95350000D01*
D31*
G04 #@! TO.N,Net-(R25-Pad2)*
X192900000Y-96100000D02*
X193150000Y-96350000D01*
X192400000Y-96190000D02*
X192490000Y-96100000D01*
X192490000Y-96100000D02*
X192900000Y-96100000D01*
X192400000Y-96770000D02*
X192400000Y-96190000D01*
X192390000Y-96780000D02*
X192400000Y-96770000D01*
D33*
X192390000Y-96800000D02*
X192250000Y-96940000D01*
X192250000Y-96940000D02*
X189290000Y-96940000D01*
X189290000Y-96940000D02*
X185230000Y-101000000D01*
X185230000Y-101000000D02*
X178350000Y-101000000D01*
D31*
G04 #@! TO.N,Net-(R26-Pad2)*
X192660000Y-97060000D02*
X192650000Y-97050000D01*
X192650000Y-97050000D02*
X192650000Y-96350000D01*
D35*
G04 #@! TO.N,Net-(U2-PadE3)*
X196000000Y-95600000D02*
X194770000Y-95600000D01*
D31*
X194770000Y-95600000D02*
X193900000Y-95600000D01*
X193900000Y-95600000D02*
X193650000Y-95350000D01*
G04 #@! TO.N,Net-(U2-PadE6)*
X193650000Y-93850000D02*
X194020000Y-93480000D01*
D35*
X194780000Y-93480000D02*
X195910000Y-93480000D01*
D31*
X194020000Y-93480000D02*
X194780000Y-93480000D01*
G04 #@! TO.N,/+3.3*
X192400000Y-93290000D02*
X192400000Y-94100000D01*
X192365000Y-93255000D02*
X192400000Y-93290000D01*
X192400000Y-94100000D02*
X192150000Y-94350000D01*
G04 #@! TO.N,/ULPI_D4*
X190990000Y-94350000D02*
X191650000Y-94350000D01*
G04 #@! TO.N,/ULPI_CLK*
X191650000Y-94850000D02*
X190990000Y-94850000D01*
D35*
X190990000Y-94850000D02*
X189490000Y-94850000D01*
D31*
G04 #@! TO.N,/ULPI_D3*
X190990000Y-95350000D02*
X191650000Y-95350000D01*
G04 #@! TO.N,/ULPI_D5*
X187140000Y-95660000D02*
X187140000Y-95620000D01*
X186700000Y-96100000D02*
X187140000Y-95660000D01*
G04 #@! TO.N,/ULPI_D6*
X187130000Y-96470000D02*
X186700000Y-96900000D01*
X190920000Y-94100000D02*
X190900000Y-94080000D01*
X191900000Y-94100000D02*
X190920000Y-94100000D01*
X192150000Y-93850000D02*
X191900000Y-94100000D01*
G04 #@! TO.N,/ULPI_D5*
X190990000Y-93850000D02*
X191650000Y-93850000D01*
X190980000Y-93860000D02*
X190990000Y-93850000D01*
D35*
G04 #@! TO.N,/M2_D5*
X184400000Y-99070000D02*
X184400000Y-97200000D01*
D31*
X184400000Y-97200000D02*
X184700000Y-96900000D01*
D35*
G04 #@! TO.N,/M3_D7*
X185050000Y-99930000D02*
X179400000Y-99930000D01*
X186540000Y-97340000D02*
X186540000Y-98440000D01*
X186490000Y-97290000D02*
X186540000Y-97340000D01*
X186540000Y-98440000D02*
X185050000Y-99930000D01*
D31*
G04 #@! TO.N,GND*
X193650000Y-96800000D02*
X193650000Y-96350000D01*
D32*
X193970000Y-97120000D02*
X193650000Y-96800000D01*
X194420000Y-97120000D02*
X193970000Y-97120000D01*
G04 #@! TO.N,/+3.3*
X192110000Y-93000000D02*
X192365000Y-93255000D01*
X192110000Y-92000000D02*
X192110000Y-93000000D01*
D31*
X192090000Y-91980000D02*
X192110000Y-92000000D01*
D32*
X187480000Y-93380000D02*
X188390000Y-92470000D01*
X187480000Y-94070000D02*
X187480000Y-93380000D01*
D31*
X185500000Y-94500000D02*
X185700000Y-94700000D01*
G04 #@! TO.N,GND*
X184510000Y-93500000D02*
X184500000Y-93500000D01*
X184500000Y-93500000D02*
X184300000Y-93700000D01*
X185290000Y-94290000D02*
X185100000Y-94100000D01*
X185290000Y-94310000D02*
X185290000Y-94290000D01*
X185100000Y-94500000D02*
X185290000Y-94310000D01*
D35*
X186100000Y-92370000D02*
X186100000Y-91490000D01*
D31*
X184510000Y-93510000D02*
X184510000Y-93500000D01*
X184700000Y-93700000D02*
X184510000Y-93510000D01*
G04 #@! TO.N,/+3.3*
X194420000Y-95070000D02*
X194420000Y-95080000D01*
X194420000Y-95080000D02*
X194150000Y-95350000D01*
G04 #@! TO.N,Net-(U2-PadC2)*
X192410000Y-95610000D02*
X192650000Y-95850000D01*
G04 #@! TO.N,/ULPI_DIR*
X193400000Y-94100000D02*
X193390000Y-94100000D01*
X193650000Y-94350000D02*
X193400000Y-94100000D01*
G04 #@! TO.N,/M4_D4*
X184300000Y-93300000D02*
X184090000Y-93090000D01*
D32*
G04 #@! TO.N,GND*
X173495000Y-92670000D02*
X172100000Y-94065000D01*
X177365000Y-92670000D02*
X173495000Y-92670000D01*
X177665000Y-92370000D02*
X177365000Y-92670000D01*
X177670000Y-92370000D02*
X177665000Y-92370000D01*
X177860000Y-92180000D02*
X178270000Y-92180000D01*
X177670000Y-92370000D02*
X177860000Y-92180000D01*
G04 #@! TO.N,/M4_D5*
X176300000Y-87120000D02*
X176600000Y-87420000D01*
X176600000Y-87420000D02*
X176600000Y-87950000D01*
X174843886Y-86803886D02*
X175160000Y-87120000D01*
X174843886Y-85725000D02*
X174843886Y-86803886D01*
X175160000Y-87120000D02*
X176300000Y-87120000D01*
G04 #@! TO.N,GND*
X180020000Y-87160000D02*
X180020000Y-85725000D01*
X179160000Y-87950000D02*
X178262500Y-87950000D01*
X179950000Y-87160000D02*
X179160000Y-87950000D01*
X180020000Y-87160000D02*
X179950000Y-87160000D01*
G04 #@! TO.N,/+3.3*
X182740000Y-94360000D02*
X182740000Y-94630000D01*
X182650000Y-94270000D02*
X182740000Y-94360000D01*
D31*
G04 #@! TO.N,GND*
X186100000Y-91490000D02*
X186700000Y-90890000D01*
D35*
X186100000Y-93100000D02*
X186100000Y-92370000D01*
D31*
G04 #@! TO.N,/SW_IO*
X184500000Y-95900000D02*
X184700000Y-95700000D01*
X184489500Y-95900000D02*
X184500000Y-95900000D01*
G04 #@! TO.N,/ULPI_XI*
X184910000Y-96290000D02*
X185100000Y-96100000D01*
X184910000Y-96300000D02*
X184910000Y-96290000D01*
D32*
G04 #@! TO.N,Net-(C13-Pad1)*
X186500000Y-89290000D02*
X186700000Y-89290000D01*
D31*
G04 #@! TO.N,/+3.3*
X186500000Y-93020000D02*
X186690000Y-92830000D01*
X186500000Y-93420000D02*
X186500000Y-93020000D01*
X186420000Y-93500000D02*
X186500000Y-93420000D01*
X186100000Y-93500000D02*
X186420000Y-93500000D01*
X185900000Y-93700000D02*
X186100000Y-93500000D01*
G04 #@! TO.N,/M4_D3*
X186700000Y-93700000D02*
X186900000Y-93500000D01*
X186900000Y-93500000D02*
X186900000Y-93489500D01*
G04 #@! TO.N,/ULPI_STP*
X185089500Y-93300000D02*
X185100000Y-93300000D01*
X184889500Y-93100000D02*
X185089500Y-93300000D01*
G04 #@! TO.N,/ULPI_NXT*
X184900000Y-93500000D02*
X185100000Y-93700000D01*
X184890000Y-93500000D02*
X184900000Y-93500000D01*
G04 #@! TO.N,/B4*
X183890000Y-104550000D02*
X183898934Y-104550000D01*
D35*
X183890000Y-103430000D02*
X183890000Y-104550000D01*
X187300000Y-100020000D02*
X183890000Y-103430000D01*
G04 #@! TO.N,/M2_D5*
X186486940Y-101306940D02*
X186486940Y-104550000D01*
D31*
X186470000Y-101290000D02*
X186486940Y-101306940D01*
G04 #@! TO.N,/M4_D7*
X179200000Y-99500000D02*
X179190000Y-99490000D01*
G04 #@! TO.N,/ULPI_RST*
X185710000Y-97110000D02*
X185500000Y-96900000D01*
X185710000Y-97130000D02*
X185710000Y-97110000D01*
D35*
G04 #@! TO.N,/M2_D1*
X191663053Y-100233053D02*
X191663053Y-104550000D01*
X189350000Y-97920000D02*
X191663053Y-100233053D01*
G04 #@! TO.N,/M2_D2*
X189020000Y-98280000D02*
X190369025Y-99629025D01*
X190369025Y-99629025D02*
X190369025Y-104550000D01*
D31*
G04 #@! TO.N,/M2_D10*
X189027589Y-85650000D02*
X189077589Y-85650000D01*
X189000000Y-85677589D02*
X189027589Y-85650000D01*
G04 #@! TO.N,/M2_D9*
X190421363Y-85650000D02*
X190371363Y-85650000D01*
X190500000Y-85728637D02*
X190421363Y-85650000D01*
D32*
G04 #@! TO.N,/+3.3*
X182740000Y-96360000D02*
X182740000Y-95610000D01*
X181750000Y-96600000D02*
X182500000Y-96600000D01*
X182500000Y-96600000D02*
X182740000Y-96360000D01*
D31*
G04 #@! TO.N,GND*
X182820000Y-93900000D02*
X184100000Y-93900000D01*
X184100000Y-93900000D02*
X184300000Y-93700000D01*
G04 #@! TO.N,Net-(C15-Pad1)*
X183700000Y-93500000D02*
X183900000Y-93700000D01*
X182840000Y-93500000D02*
X183700000Y-93500000D01*
D32*
G04 #@! TO.N,/+3.3*
X178565000Y-96895000D02*
X178565000Y-97330000D01*
X178860000Y-96600000D02*
X178565000Y-96895000D01*
X181750000Y-96600000D02*
X178860000Y-96600000D01*
X179035000Y-97800000D02*
X178565000Y-97330000D01*
X179035000Y-98490000D02*
X179035000Y-97800000D01*
D34*
X192180000Y-90540000D02*
X193920000Y-88800000D01*
D31*
G04 #@! TO.N,/MCU_RESET*
X185900000Y-93300000D02*
X185690000Y-93510000D01*
G04 #@! TO.N,GND*
X186700000Y-94500000D02*
X186900000Y-94300000D01*
X186300000Y-93300000D02*
X186100000Y-93100000D01*
G04 #@! TO.N,/M1_D5*
X172200000Y-85705880D02*
X172255880Y-85650000D01*
G04 #@! TO.N,/P0_D3*
X185100000Y-96900000D02*
X184900000Y-97100000D01*
G04 #@! TO.N,/MCU_BOOT0*
X183500000Y-94500000D02*
X183300000Y-94700000D01*
G04 #@! TO.N,/M1_D5*
X185500000Y-95300000D02*
X185700000Y-95100000D01*
G04 #@! TO.N,/M1_D6*
X185900000Y-95700000D02*
X186100000Y-95500000D01*
G04 #@! TO.N,/M1_D7*
X185500000Y-96100000D02*
X185700000Y-96300000D01*
G04 #@! TO.N,/M3_D1*
X184700000Y-95300000D02*
X184500000Y-95100000D01*
G04 #@! TO.N,/M3_D2*
X184300000Y-95700000D02*
X184100000Y-95500000D01*
G04 #@! TO.N,/M4_D2*
X184700000Y-96100000D02*
X184500000Y-96300000D01*
G04 #@! TO.N,/M4_D1*
X184700000Y-96500000D02*
X184500000Y-96700000D01*
G04 #@! TO.N,/M4_D6*
X184920500Y-96679500D02*
X184920500Y-96716288D01*
X185100000Y-96500000D02*
X184920500Y-96679500D01*
G04 #@! TO.N,/M2_D8*
X191700000Y-85650000D02*
X191665087Y-85650000D01*
D35*
X191500000Y-87500000D02*
X191700000Y-87300000D01*
X191700000Y-87300000D02*
X191700000Y-85650000D01*
X191500000Y-91000000D02*
X191500000Y-87500000D01*
X191000000Y-91500000D02*
X191500000Y-91000000D01*
D31*
G04 #@! TO.N,/M3_D7*
X186300000Y-97100000D02*
X186490000Y-97290000D01*
X186300000Y-96900000D02*
X186300000Y-97100000D01*
G04 #@! TO.N,/ULPI_PWRDN*
X185510000Y-96500000D02*
X185500000Y-96500000D01*
X185710000Y-96700000D02*
X185510000Y-96500000D01*
G04 #@! TO.N,/M2_D9*
X186090500Y-96700000D02*
X185900000Y-96890500D01*
X185900000Y-96890500D02*
X185900000Y-96900000D01*
D35*
G04 #@! TO.N,/ULPI_D1*
X189050000Y-96350000D02*
X191650000Y-96350000D01*
X188700000Y-96000000D02*
X189050000Y-96350000D01*
D31*
G04 #@! TO.N,/ULPI_D0*
X191840000Y-96660000D02*
X192150000Y-96350000D01*
D35*
X188960000Y-96660000D02*
X191840000Y-96660000D01*
X188300000Y-96000000D02*
X188960000Y-96660000D01*
D31*
G04 #@! TO.N,/M2_D1*
X185500000Y-94100000D02*
X185300000Y-93900000D01*
G04 #@! TO.N,/SW_CLK*
X183700000Y-96700000D02*
X183700000Y-97100000D01*
X183500000Y-96500000D02*
X183700000Y-96700000D01*
G04 #@! TO.N,/PD2*
X173900000Y-99840000D02*
X173890000Y-99850000D01*
X173900000Y-99200000D02*
X173900000Y-99840000D01*
X183900000Y-95700000D02*
X183700000Y-95900000D01*
G04 #@! TO.N,/PA12*
X174700000Y-99800000D02*
X174650000Y-99850000D01*
X174700000Y-99200000D02*
X174700000Y-99800000D01*
X184300000Y-96500000D02*
X184100000Y-96300000D01*
G04 #@! TO.N,/PC12*
X175600000Y-100100000D02*
X175600000Y-100650000D01*
X183500000Y-96100000D02*
X183300000Y-96300000D01*
G04 #@! TO.N,/PA11*
X176420000Y-100600000D02*
X176370000Y-100650000D01*
X176420000Y-100120000D02*
X176420000Y-100600000D01*
D34*
G04 #@! TO.N,/+3.3*
X196830000Y-86950000D02*
X196830000Y-85725000D01*
D31*
X192150000Y-95850000D02*
X192150000Y-95350000D01*
D32*
X196830000Y-85725000D02*
X196840083Y-85725000D01*
D31*
X185700000Y-94300000D02*
X185500000Y-94500000D01*
X192150000Y-95350000D02*
X191900000Y-95100000D01*
X191900000Y-94600000D02*
X192150000Y-94350000D01*
X185300000Y-95100000D02*
X185300000Y-95500000D01*
X185100000Y-94900000D02*
X185300000Y-95100000D01*
D32*
X183250000Y-96900000D02*
X182740000Y-96390000D01*
D34*
X194980000Y-88800000D02*
X196830000Y-86950000D01*
D32*
X182740000Y-94630000D02*
X182740000Y-95580000D01*
D34*
X192080000Y-90640000D02*
X192180000Y-90540000D01*
D31*
X183900000Y-94100000D02*
X183500000Y-94100000D01*
X182740000Y-95610000D02*
X182740000Y-95580000D01*
D34*
X192080000Y-91950000D02*
X192080000Y-90640000D01*
D31*
X185500000Y-94500000D02*
X185100000Y-94900000D01*
X185300000Y-95500000D02*
X185100000Y-95700000D01*
D34*
X193920000Y-88800000D02*
X194980000Y-88800000D01*
D31*
X183500000Y-96900000D02*
X183250000Y-96900000D01*
D32*
X182740000Y-96390000D02*
X182740000Y-95580000D01*
D31*
X185700000Y-93900000D02*
X185700000Y-94300000D01*
X185900000Y-93700000D02*
X185700000Y-93900000D01*
X183270000Y-94100000D02*
X182740000Y-94630000D01*
X191900000Y-95100000D02*
X191900000Y-94600000D01*
X183500000Y-94100000D02*
X183270000Y-94100000D01*
G04 #@! TO.N,/M2_D6*
X194270000Y-85650000D02*
X194252585Y-85650000D01*
X186300000Y-96500000D02*
X186490000Y-96310000D01*
G04 #@! TO.N,/M2_D7*
X192908861Y-85650000D02*
X192958861Y-85650000D01*
X186300000Y-96100000D02*
X186110000Y-95910000D01*
X192650000Y-85908861D02*
X192908861Y-85650000D01*
G04 #@! TO.N,/M2_D8*
X185900000Y-96100000D02*
X185710000Y-95910000D01*
G04 #@! TO.N,/M2_D10*
X185900000Y-96500000D02*
X186100000Y-96300000D01*
G04 #@! TO.N,GND*
X192150000Y-94850000D02*
X192650000Y-94350000D01*
X192900000Y-94600000D02*
X193400000Y-94600000D01*
X184900000Y-95100000D02*
X185100000Y-95300000D01*
X193400000Y-94600000D02*
X193650000Y-94850000D01*
D32*
X194840000Y-97540000D02*
X194840000Y-97230000D01*
X175300000Y-87950000D02*
X175300000Y-88300000D01*
X184860000Y-89290000D02*
X184500000Y-89290000D01*
X196650000Y-96570000D02*
X196860000Y-96360000D01*
X178270000Y-92180000D02*
X178270000Y-91420000D01*
X194840000Y-97230000D02*
X195430000Y-96640000D01*
D31*
X184300000Y-93700000D02*
X184700000Y-93700000D01*
D32*
X175300000Y-88300000D02*
X175710000Y-88710000D01*
D31*
X193390000Y-95110000D02*
X193390000Y-95810000D01*
X193390000Y-95810000D02*
X193350000Y-95850000D01*
D32*
X194840000Y-97120000D02*
X194420000Y-97120000D01*
X195530000Y-91950000D02*
X196870000Y-93290000D01*
X193462000Y-100708000D02*
X193462000Y-102188000D01*
D31*
X194840000Y-97540000D02*
X194840000Y-97120000D01*
X185100000Y-94500000D02*
X184900000Y-94700000D01*
D32*
X196860000Y-96360000D02*
X196860000Y-95350000D01*
D31*
X192650000Y-94350000D02*
X192900000Y-94600000D01*
D32*
X193462000Y-102188000D02*
X192940000Y-102710000D01*
X196870000Y-95340000D02*
X196860000Y-95350000D01*
X194840000Y-98720000D02*
X194620000Y-98940000D01*
D31*
X184900000Y-94700000D02*
X184900000Y-95100000D01*
X193150000Y-95850000D02*
X193350000Y-95850000D01*
D32*
X173550000Y-87750000D02*
X175100000Y-87750000D01*
X186700000Y-90890000D02*
X186460000Y-90890000D01*
X196860000Y-95350000D02*
X196050000Y-94540000D01*
X196050000Y-96570000D02*
X196650000Y-96570000D01*
X193462000Y-99250000D02*
X193462000Y-100708000D01*
X178270000Y-91420000D02*
X178050000Y-91200000D01*
X192940000Y-102710000D02*
X192940000Y-104475000D01*
X178262500Y-88037500D02*
X178262500Y-87950000D01*
D31*
X186900000Y-91090000D02*
X186700000Y-90890000D01*
D32*
X177590000Y-88710000D02*
X178262500Y-88037500D01*
X194840000Y-97540000D02*
X194840000Y-98720000D01*
D31*
X184700000Y-93700000D02*
X185100000Y-94100000D01*
D32*
X195430000Y-96640000D02*
X195980000Y-96640000D01*
X175100000Y-87750000D02*
X175300000Y-87950000D01*
X193000000Y-91950000D02*
X195530000Y-91950000D01*
X196870000Y-93290000D02*
X196870000Y-95340000D01*
X175710000Y-88710000D02*
X177590000Y-88710000D01*
X195980000Y-96640000D02*
X196050000Y-96570000D01*
X194620000Y-98940000D02*
X193772000Y-98940000D01*
X192940000Y-104475000D02*
X192957082Y-104475000D01*
D31*
X193350000Y-95850000D02*
X193650000Y-95850000D01*
D32*
X193772000Y-98940000D02*
X193462000Y-99250000D01*
D31*
X193650000Y-95850000D02*
X193650000Y-96350000D01*
X193650000Y-94850000D02*
X193390000Y-95110000D01*
G04 #@! TO.N,/M4_D3*
X186520000Y-85650000D02*
X186490091Y-85650000D01*
G04 #@! TO.N,/M4_D4*
X185160000Y-85650000D02*
X185196063Y-85650000D01*
D33*
G04 #@! TO.N,/M1_D2*
X177250000Y-101000000D02*
X177050000Y-101200000D01*
X177050000Y-101200000D02*
X174900000Y-101200000D01*
D32*
X174110000Y-101170000D02*
X173890000Y-100950000D01*
X170940000Y-104475000D02*
X170960885Y-104475000D01*
D33*
X174900000Y-101200000D02*
X174650000Y-100950000D01*
D32*
G04 #@! TO.N,/M1_D1*
X176420000Y-101800000D02*
X176370000Y-101750000D01*
X175600000Y-101750000D02*
X176370000Y-101750000D01*
X177250000Y-101800000D02*
X176420000Y-101800000D01*
D31*
G04 #@! TO.N,/M1_D4*
X186300000Y-94100000D02*
X186100000Y-94300000D01*
X173550000Y-104550000D02*
X173548383Y-104550000D01*
G04 #@! TO.N,/M1_D3*
X185900000Y-95300000D02*
X185690000Y-95510000D01*
X174830000Y-104550000D02*
X174842107Y-104550000D01*
G04 #@! TO.N,/M4_D7*
X176070000Y-104534119D02*
X176085881Y-104550000D01*
X186700000Y-96500000D02*
X186500000Y-96700000D01*
X176085881Y-104550000D02*
X176135881Y-104550000D01*
G04 #@! TO.N,/M3_D7*
X177460000Y-104550000D02*
X177429605Y-104550000D01*
X179400000Y-99930000D02*
X179390000Y-99940000D01*
G04 #@! TO.N,/B1*
X178773379Y-104550000D02*
X178723379Y-104550000D01*
X178780000Y-104543379D02*
X178773379Y-104550000D01*
X184300000Y-94500000D02*
X184100000Y-94700000D01*
G04 #@! TO.N,/B2*
X183900000Y-94500000D02*
X183710000Y-94690000D01*
X180030000Y-104550000D02*
X180017103Y-104550000D01*
X180560000Y-98415000D02*
X180485000Y-98490000D01*
X180560000Y-97870000D02*
X180560000Y-98415000D01*
G04 #@! TO.N,/B3*
X183900000Y-94900000D02*
X183710000Y-95090000D01*
X181280000Y-104550000D02*
X181310877Y-104550000D01*
G04 #@! TO.N,/B5*
X182610000Y-104550000D02*
X182604905Y-104550000D01*
X183500000Y-94900000D02*
X183300000Y-95100000D01*
G04 #@! TO.N,/B4*
X186700000Y-94100000D02*
X186500000Y-94300000D01*
G04 #@! TO.N,/M2_D4*
X183500000Y-95300000D02*
X183310000Y-95490000D01*
G04 #@! TO.N,/M2_D3*
X183900000Y-95300000D02*
X183690000Y-95510000D01*
G04 #@! TO.N,/P0_D1*
X194250000Y-104550000D02*
X194251059Y-104550000D01*
X184300000Y-94100000D02*
X184110000Y-94290000D01*
G04 #@! TO.N,/P0_D2*
X184700000Y-94100000D02*
X184500000Y-94300000D01*
D32*
G04 #@! TO.N,Net-(C1-Pad1)*
X174000000Y-91200000D02*
X174000000Y-90100000D01*
X175100000Y-89650000D02*
X175300000Y-89450000D01*
X174000000Y-90100000D02*
X173550000Y-89650000D01*
X173550000Y-89650000D02*
X175100000Y-89650000D01*
D31*
G04 #@! TO.N,Net-(C11-Pad1)*
X185300000Y-95900000D02*
X185500000Y-95700000D01*
D35*
X184850000Y-98600000D02*
X185270000Y-98180000D01*
D31*
X185270000Y-98180000D02*
X185300000Y-98180000D01*
X185300000Y-98180000D02*
X185300000Y-95900000D01*
G04 #@! TO.N,Net-(C11-Pad2)*
X183900000Y-96900000D02*
X183900000Y-98570000D01*
X183900000Y-98570000D02*
X183930000Y-98600000D01*
G04 #@! TO.N,Net-(U2-PadE6)*
X195910000Y-93480000D02*
X196050000Y-93620000D01*
G04 #@! TO.N,Net-(U2-PadE3)*
X196050000Y-95650000D02*
X196000000Y-95600000D01*
G04 #@! TO.N,Net-(U2-PadC2)*
X191780000Y-98132000D02*
X191818000Y-98170000D01*
D32*
G04 #@! TO.N,/VBAT*
X172325000Y-95560000D02*
X172100000Y-95335000D01*
D31*
G04 #@! TO.N,/ULPI_PWRDN*
X192900000Y-95090000D02*
X192900000Y-95100000D01*
X192900000Y-95100000D02*
X192650000Y-95350000D01*
G04 #@! TO.N,/ULPI_RST*
X192410000Y-95090000D02*
X192650000Y-94850000D01*
X192410000Y-95100000D02*
X192410000Y-95090000D01*
G04 #@! TO.N,Net-(U2-PadD3)*
X192900000Y-95600000D02*
X193150000Y-95350000D01*
G04 #@! TO.N,/PA11*
X184300000Y-96900000D02*
X184100000Y-97100000D01*
D32*
G04 #@! TO.N,Net-(C12-Pad2)*
X183200000Y-90550000D02*
X184160000Y-90550000D01*
X184160000Y-90550000D02*
X184500000Y-90890000D01*
G04 #@! TO.N,Net-(C14-Pad2)*
X180460000Y-92490000D02*
X180100000Y-92850000D01*
D31*
X183900000Y-92930000D02*
X183900000Y-93300000D01*
X183650000Y-92680000D02*
X183900000Y-92930000D01*
D32*
X178270000Y-93100000D02*
X179850000Y-93100000D01*
X179850000Y-93100000D02*
X180100000Y-92850000D01*
G04 #@! TO.N,/MCU_BOOT0*
X176600000Y-89450000D02*
X176820000Y-89230000D01*
X176550000Y-91200000D02*
X176550000Y-89500000D01*
X178400000Y-89230000D02*
X178730000Y-88900000D01*
X176550000Y-89500000D02*
X176600000Y-89450000D01*
X175400000Y-91200000D02*
X176550000Y-91200000D01*
X178730000Y-88900000D02*
X180137500Y-88900000D01*
X176820000Y-89230000D02*
X178400000Y-89230000D01*
G04 #@! TO.N,/MCU_RESET*
X171450000Y-91030000D02*
X171290000Y-91190000D01*
X171450000Y-88700000D02*
X171450000Y-91030000D01*
X171290000Y-91190000D02*
X171290000Y-91770000D01*
X171670000Y-92150000D02*
X172220000Y-92150000D01*
X171290000Y-91770000D02*
X171670000Y-92150000D01*
D31*
G04 #@! TO.N,/ULPI_D7*
X192650000Y-93850000D02*
X192650000Y-93470000D01*
X184885000Y-94315000D02*
X184700000Y-94500000D01*
X184885000Y-94295000D02*
X184885000Y-94315000D01*
G04 #@! TO.N,/ULPI_DIR*
X184510000Y-93110000D02*
X184700000Y-93300000D01*
G04 #@! TO.N,/ULPI_XI*
X194150000Y-94350000D02*
X193925000Y-94125000D01*
X193925000Y-94125000D02*
X193920000Y-94120000D01*
G04 #@! TO.N,/ULPI_NXT*
X193150000Y-94350000D02*
X192910000Y-94110000D01*
G04 #@! TO.N,/ULPI_STP*
X193150000Y-93850000D02*
X193150000Y-93470000D01*
G04 #@! TO.N,/ULPI_D1*
X186100000Y-94700000D02*
X185900000Y-94500000D01*
G04 #@! TO.N,/ULPI_CLK*
X189490000Y-94850000D02*
X189450000Y-94810000D01*
X185900000Y-94100000D02*
X186090000Y-93910000D01*
G04 #@! TO.N,/ULPI_D3*
X186500000Y-95900000D02*
X186300000Y-95700000D01*
D35*
G04 #@! TO.N,/ULPI_D2*
X189110000Y-95850000D02*
X188980000Y-95720000D01*
X191650000Y-95850000D02*
X189110000Y-95850000D01*
D31*
X186500000Y-94690500D02*
X186490500Y-94690500D01*
X186490500Y-94690500D02*
X186300000Y-94500000D01*
G04 #@! TO.N,/ULPI_D0*
X186490000Y-93890000D02*
X186300000Y-93700000D01*
G04 #@! TO.N,/ULPI_D4*
X186890000Y-95510000D02*
X186700000Y-95700000D01*
G04 #@! TD*
M02*
