G04 #@! TF.GenerationSoftware,KiCad,Pcbnew,(6.0.7)*
G04 #@! TF.CreationDate,2022-09-01T19:33:11+03:00*
G04 #@! TF.ProjectId,MCU_M_V3,4d43555f-4d5f-4563-932e-6b696361645f,rev?*
G04 #@! TF.SameCoordinates,Original*
G04 #@! TF.FileFunction,Legend,Bot*
G04 #@! TF.FilePolarity,Positive*
%FSLAX46Y46*%
G04 Gerber Fmt 4.6, Leading zero omitted, Abs format (unit mm)*
G04 Created by KiCad (PCBNEW (6.0.7)) date 2022-09-01 19:33:11*
%MOMM*%
%LPD*%
G01*
G04 APERTURE LIST*
%ADD10C,1.000000*%
%ADD11C,0.250000*%
G04 APERTURE END LIST*
D10*
X173100000Y-88400000D02*
G75*
G03*
X173100000Y-88400000I-500000J0D01*
G01*
D11*
X178999404Y-90752380D02*
X178999404Y-89752380D01*
X178666071Y-90466666D01*
X178332738Y-89752380D01*
X178332738Y-90752380D01*
X177285119Y-90657142D02*
X177332738Y-90704761D01*
X177475595Y-90752380D01*
X177570833Y-90752380D01*
X177713690Y-90704761D01*
X177808928Y-90609523D01*
X177856547Y-90514285D01*
X177904166Y-90323809D01*
X177904166Y-90180952D01*
X177856547Y-89990476D01*
X177808928Y-89895238D01*
X177713690Y-89800000D01*
X177570833Y-89752380D01*
X177475595Y-89752380D01*
X177332738Y-89800000D01*
X177285119Y-89847619D01*
X176856547Y-89752380D02*
X176856547Y-90561904D01*
X176808928Y-90657142D01*
X176761309Y-90704761D01*
X176666071Y-90752380D01*
X176475595Y-90752380D01*
X176380357Y-90704761D01*
X176332738Y-90657142D01*
X176285119Y-90561904D01*
X176285119Y-89752380D01*
X176047023Y-90847619D02*
X175285119Y-90847619D01*
X175047023Y-90752380D02*
X175047023Y-89752380D01*
X174713690Y-90466666D01*
X174380357Y-89752380D01*
X174380357Y-90752380D01*
X174142261Y-90847619D02*
X173380357Y-90847619D01*
X173285119Y-89752380D02*
X172951785Y-90752380D01*
X172618452Y-89752380D01*
X172380357Y-89752380D02*
X171761309Y-89752380D01*
X172094642Y-90133333D01*
X171951785Y-90133333D01*
X171856547Y-90180952D01*
X171808928Y-90228571D01*
X171761309Y-90323809D01*
X171761309Y-90561904D01*
X171808928Y-90657142D01*
X171856547Y-90704761D01*
X171951785Y-90752380D01*
X172237500Y-90752380D01*
X172332738Y-90704761D01*
X172380357Y-90657142D01*
M02*
