M48
; DRILL file {KiCad (6.0.7)} date Mon Sep 12 14:42:11 2022
; FORMAT={-:-/ absolute / inch / decimal}
; #@! TF.CreationDate,2022-09-12T14:42:11+03:00
; #@! TF.GenerationSoftware,Kicad,Pcbnew,(6.0.7)
; #@! TF.FileFunction,Plated,1,2,Blind
FMAT,2
INCH
; #@! TA.AperFunction,Plated,Buried,ViaDrill
T1C0.0039
; #@! TA.AperFunction,Plated,Buried,ViaDrill
T2C0.0059
; #@! TA.AperFunction,Plated,Buried,ViaDrill
T3C0.0079
%
G90
G05
T1
X7.2402Y-3.689
X7.2402Y-3.7205
X7.2402Y-3.7362
X7.2402Y-3.752
X7.2402Y-3.7677
X7.2559Y-3.7992
X7.2717Y-3.7677
X7.2717Y-3.7992
X7.2874Y-3.7992
X7.2874Y-3.689
X7.3031Y-3.689
X7.3031Y-3.7992
X7.3189Y-3.752
X7.3189Y-3.7205
X7.3189Y-3.7992
X7.3346Y-3.7047
X7.3346Y-3.689
X7.3346Y-3.7205
X7.3346Y-3.7677
X7.3346Y-3.7835
X7.3346Y-3.7992
X7.565Y-3.7146
X7.565Y-3.7539
X7.5846Y-3.7146
X7.5846Y-3.7539
X7.6043Y-3.7146
X7.6043Y-3.7539
X7.624Y-3.7146
X7.624Y-3.7343
X7.624Y-3.7539
X7.6437Y-3.7539
X7.6437Y-3.7539
T2
X7.1405Y-3.5
X7.5972Y-3.8343
X7.6291Y-3.8425
T3
X6.826Y-3.9256
X6.8618Y-3.9031
X6.8776Y-3.6211
X6.8902Y-3.911
X6.9437Y-3.8787
X6.9437Y-3.837
X6.9673Y-3.9555
X6.998Y-3.9382
X7.0028Y-3.8197
X7.0835Y-4.0362
X7.0894Y-3.7232
X7.1243Y-4.0234
X7.1283Y-3.8776
X7.1397Y-3.7516
X7.1409Y-3.7283
X7.1461Y-4.0234
X7.1535Y-3.6791
X7.1764Y-3.5559
X7.2358Y-3.6209
X7.2783Y-3.6252
X7.2941Y-3.6417
X7.3107Y-3.9315
X7.338Y-3.8459
X7.3738Y-3.6386
X7.374Y-4.0252
X7.3807Y-3.7984
X7.3984Y-3.8224
X7.3995Y-3.9465
X7.4146Y-4.0232
X7.44Y-3.6837
X7.4406Y-3.7626
X7.4502Y-3.7415
X7.4638Y-3.5437
X7.465Y-3.7776
X7.4776Y-3.722
X7.4871Y-3.6855
X7.5031Y-3.8366
X7.5091Y-3.7307
X7.5136Y-3.7581
X7.5152Y-3.6714
X7.5175Y-3.8531
X7.5193Y-3.599
X7.5288Y-3.6304
X7.5299Y-3.8835
X7.5504Y-3.9018
X7.5541Y-3.8388
X7.5543Y-3.6441
X7.5677Y-3.5142
X7.5886Y-3.6602
X7.5961Y-3.5134
X7.6402Y-3.6547
X7.6437Y-3.5346
X7.6642Y-3.7343
X7.6724Y-3.7752
T0
M30
