M48
; DRILL file {KiCad (6.0.1)} date Fri Mar  4 18:54:39 2022
; FORMAT={-:-/ absolute / inch / decimal}
; #@! TF.CreationDate,2022-03-04T18:54:39+03:00
; #@! TF.GenerationSoftware,Kicad,Pcbnew,(6.0.1)
; #@! TF.FileFunction,MixedPlating,1,2
FMAT,2
INCH
; #@! TA.AperFunction,Plated,PTH,ViaDrill
T1C0.0157
; #@! TA.AperFunction,Plated,PTH,ComponentDrill
T2C0.0315
%
G90
G05
T1
X3.9016Y-5.3307
X3.9429Y-5.2323
X3.9646Y-5.3287
X4.1339Y-5.2559
X4.1772Y-5.3209
X4.2205Y-5.2264
X4.3071Y-5.2854
X4.872Y-5.2559
X4.9154Y-5.3209
X4.9587Y-5.2264
X5.0453Y-5.2854
X5.2047Y-5.8091
X5.2362Y-5.7539
X5.25Y-5.6142
X5.4144Y-5.6191
X5.6083Y-5.2559
X5.6535Y-5.3209
X5.6949Y-5.2264
X5.7815Y-5.2854
X5.8268Y-5.378
X6.3468Y-5.2556
X6.3898Y-5.3209
X6.4334Y-5.2261
X6.4685Y-5.2854
T2
X4.1194Y-5.5709
X4.4344Y-5.5709
X4.857Y-5.5709
X5.1719Y-5.5709
X5.5945Y-5.5709
X5.9094Y-5.5709
X6.332Y-5.5709
X6.647Y-5.5709
T0
M30
