M48
;Layer_Color=9474304
;FILE_FORMAT=2:5
INCH,TZ
;TYPE=PLATED
T1F00S00C0.01220
T2F00S00C0.03150
%
T01
X7835Y15433
X5079Y25827
X16299Y25394
X18937Y36378
X22874Y35118
X23661Y43268
X14291Y40709
X14850Y47803
X7598Y46968
X14646Y56535
X25827Y56732
X6811Y62953
T02
X2441Y433
X7534
X12628
X17721
X22815
X27908
X33002
X38095
X43189
X48284
X53379
Y75236
X48285
X43192
X38098
X33005
X27911
X22818
X17724
X12631
X7536
X2441
M30
