G04*
G04 #@! TF.GenerationSoftware,Altium Limited,Altium Designer,20.0.2 (26)*
G04*
G04 Layer_Color=32896*
%FSLAX25Y25*%
%MOIN*%
G70*
G01*
G75*
%ADD11C,0.01000*%
%ADD29C,0.03937*%
D11*
X10396Y17387D02*
X9740Y16731D01*
X8428D01*
X7772Y17387D01*
Y20011D01*
X8428Y20667D01*
X9740D01*
X10396Y20011D01*
X11707Y20667D02*
Y18043D01*
X13019Y16731D01*
X14331Y18043D01*
Y20667D01*
Y18699D01*
X11707D01*
X15643Y20667D02*
Y16731D01*
X18267Y20667D01*
Y16731D01*
X19579Y21323D02*
X22203D01*
X23515Y16731D02*
Y20011D01*
X24171Y20667D01*
X25482D01*
X26138Y20011D01*
Y16731D01*
X30074Y17387D02*
X29418Y16731D01*
X28106D01*
X27450Y17387D01*
Y18043D01*
X28106Y18699D01*
X29418D01*
X30074Y19355D01*
Y20011D01*
X29418Y20667D01*
X28106D01*
X27450Y20011D01*
X31386Y16731D02*
Y20667D01*
X33354D01*
X34010Y20011D01*
Y19355D01*
X33354Y18699D01*
X31386D01*
X33354D01*
X34010Y18043D01*
Y17387D01*
X33354Y16731D01*
X31386D01*
X35322Y21323D02*
X37946D01*
X39258Y20667D02*
Y16731D01*
X40569Y18043D01*
X41881Y16731D01*
Y20667D01*
X43193Y21323D02*
X45817D01*
X47129Y16731D02*
Y19355D01*
X48441Y20667D01*
X49753Y19355D01*
Y16731D01*
X51065Y20667D02*
X52377D01*
X51721D01*
Y16731D01*
X51065Y17387D01*
D29*
X51811Y10118D02*
G03*
X51811Y10118I-1969J0D01*
G01*
M02*
