G04*
G04 #@! TF.GenerationSoftware,Altium Limited,Altium Designer,20.0.2 (26)*
G04*
G04 Layer_Color=8388736*
%FSLAX25Y25*%
%MOIN*%
G70*
G01*
G75*
%ADD12R,0.04740X0.03953*%
%ADD13R,0.03165X0.03559*%
%ADD14R,0.03756X0.04504*%
%ADD15R,0.02772X0.04937*%
%ADD16R,0.03165X0.05331*%
%ADD17R,0.02575X0.05528*%
%ADD18R,0.03953X0.06315*%
D12*
X21693Y24646D02*
D03*
Y31339D02*
D03*
D13*
X4055Y29449D02*
D03*
Y33779D02*
D03*
X7992Y30512D02*
D03*
Y26181D02*
D03*
X12717Y30512D02*
D03*
Y26181D02*
D03*
X16614Y29449D02*
D03*
Y33779D02*
D03*
D14*
X31102Y52756D02*
D03*
X25591D02*
D03*
X31102Y47559D02*
D03*
X25591D02*
D03*
D15*
X4173Y59016D02*
D03*
X9291D02*
D03*
X6732Y67283D02*
D03*
D16*
X13937Y20551D02*
D03*
X10197D02*
D03*
X6457D02*
D03*
Y10315D02*
D03*
X10197D02*
D03*
X13937D02*
D03*
D17*
X4626Y42205D02*
D03*
X7185D02*
D03*
X9744D02*
D03*
X12303D02*
D03*
Y52047D02*
D03*
X9744D02*
D03*
X7185D02*
D03*
X4626D02*
D03*
D18*
X53379Y74055D02*
D03*
X48285D02*
D03*
X17724D02*
D03*
X22818D02*
D03*
X27911D02*
D03*
X33005D02*
D03*
X38098D02*
D03*
X43192D02*
D03*
X12631D02*
D03*
X2441D02*
D03*
X7536D02*
D03*
X2441Y1614D02*
D03*
X7534D02*
D03*
X38095D02*
D03*
X33002D02*
D03*
X27908D02*
D03*
X22815D02*
D03*
X17721D02*
D03*
X12628D02*
D03*
X43189D02*
D03*
X53379D02*
D03*
X48284D02*
D03*
M02*
