G04*
G04 #@! TF.GenerationSoftware,Altium Limited,Altium Designer,20.0.2 (26)*
G04*
G04 Layer_Color=16711935*
%FSLAX25Y25*%
%MOIN*%
G70*
G01*
G75*
%ADD30C,0.00394*%
D30*
X20020Y24843D02*
Y31142D01*
X23366D01*
Y24843D02*
Y31142D01*
X20020Y24843D02*
X23366D01*
X3071Y29598D02*
Y33630D01*
X5039D01*
Y29598D02*
Y33630D01*
X3071Y29598D02*
X5039D01*
X25197Y51181D02*
X31496D01*
X25197D02*
Y54331D01*
X31496D01*
Y51181D02*
Y54331D01*
X25197Y45984D02*
X31496D01*
X25197D02*
Y49134D01*
X31496D01*
Y45984D02*
Y49134D01*
X2795Y60689D02*
Y65610D01*
X10669D01*
Y60689D02*
Y65610D01*
X2795Y60689D02*
X10669D01*
X2795Y63248D02*
X5354Y60689D01*
X15953Y12236D02*
Y18630D01*
X4441Y12236D02*
X15953D01*
X4441D02*
Y18630D01*
X15953D01*
X12213D02*
X15953Y14890D01*
X2756Y43976D02*
Y50276D01*
X14173D01*
Y43976D02*
Y50276D01*
X2756Y43976D02*
X14173D01*
X2756Y46535D02*
X5315Y43976D01*
X8976Y26331D02*
Y30362D01*
X7008Y26331D02*
X8976D01*
X7008D02*
Y30362D01*
X8976D01*
X13701Y26331D02*
Y30362D01*
X11732Y26331D02*
X13701D01*
X11732D02*
Y30362D01*
X13701D01*
X15630Y29598D02*
Y33630D01*
X17598D01*
Y29598D02*
Y33630D01*
X15630Y29598D02*
X17598D01*
M02*
