G04*
G04 #@! TF.GenerationSoftware,Altium Limited,Altium Designer,20.0.2 (26)*
G04*
G04 Layer_Physical_Order=1*
G04 Layer_Color=255*
%FSLAX25Y25*%
%MOIN*%
G70*
G01*
G75*
%ADD12C,0.01000*%
%ADD17R,0.03347X0.03347*%
%ADD18R,0.06004X0.02559*%
%ADD19R,0.03347X0.03347*%
%ADD20R,0.03150X0.05512*%
%ADD21C,0.02520*%
G36*
X46111Y75022D02*
Y70699D01*
X50460D01*
Y70699D01*
X51204D01*
Y70699D01*
X55354D01*
Y62314D01*
X54770Y62020D01*
X54354Y61961D01*
X53869Y62447D01*
X53505Y62690D01*
X53076Y62775D01*
X53061Y63720D01*
Y64726D01*
X48514D01*
Y62743D01*
X47514Y62440D01*
X47444Y62544D01*
X47444Y62544D01*
X46743Y63246D01*
X46379Y63489D01*
X45950Y63574D01*
X45265Y64228D01*
Y64726D01*
X40719D01*
Y61664D01*
X40373Y61433D01*
X39719Y61277D01*
X38982Y62014D01*
X38618Y62257D01*
X38189Y62342D01*
X38155Y63291D01*
Y63868D01*
X31539Y63868D01*
X30775Y64207D01*
X30439Y64612D01*
X30439Y64612D01*
X30439Y64612D01*
X30408Y64643D01*
X29008Y66043D01*
X29214Y67033D01*
X29307Y67158D01*
X29845Y67517D01*
X30256Y68133D01*
X30400Y68858D01*
X30256Y69584D01*
X30179Y69699D01*
X30249Y70068D01*
X31089Y70699D01*
X35180D01*
Y70699D01*
X35924D01*
Y70699D01*
X40273D01*
Y75022D01*
X40316Y75236D01*
X46068D01*
X46111Y75022D01*
D02*
G37*
G36*
X11801Y67865D02*
X11801Y67865D01*
X11886Y67436D01*
X12129Y67072D01*
X14797Y64404D01*
X14797Y64404D01*
X15161Y64161D01*
X15590Y64075D01*
X24969D01*
X26617Y62427D01*
Y41671D01*
X26617Y41671D01*
X26703Y41241D01*
X26946Y40878D01*
X32199Y35624D01*
X32199Y35624D01*
X32563Y35381D01*
X32992Y35296D01*
X42410D01*
X42557Y35076D01*
X43172Y34665D01*
X43898Y34521D01*
X44357Y33593D01*
X43679Y32915D01*
X40719D01*
Y30699D01*
X40242Y30428D01*
X39719Y30332D01*
X39262Y30788D01*
X38899Y31031D01*
X38469Y31117D01*
X38155Y32018D01*
Y32057D01*
X30951D01*
Y28298D01*
X37934D01*
Y27057D01*
X30951D01*
Y23298D01*
X33432D01*
Y22057D01*
X30951D01*
Y18298D01*
X36921D01*
X37475Y17298D01*
X37328Y17062D01*
X37255Y17057D01*
X30951D01*
Y13298D01*
X38155D01*
X38155Y13298D01*
X38155Y13298D01*
X38716Y14065D01*
X39095Y14141D01*
X39459Y14384D01*
X40045Y14970D01*
X40045Y14970D01*
X40288Y15334D01*
X40374Y15763D01*
Y16347D01*
X43538Y19511D01*
X45022D01*
X45319Y19085D01*
X45470Y18545D01*
X45191Y18267D01*
X44948Y17903D01*
X44863Y17473D01*
X44863Y17473D01*
Y11752D01*
X44863Y11752D01*
X44948Y11323D01*
X45191Y10959D01*
X46605Y9545D01*
Y6585D01*
X47162D01*
Y4970D01*
X46109D01*
Y647D01*
X46066Y433D01*
X40313D01*
X40270Y647D01*
Y4970D01*
X35921D01*
Y4970D01*
X35177D01*
Y4970D01*
X30827D01*
Y4970D01*
X30083D01*
Y4970D01*
X25734D01*
Y4970D01*
X24990D01*
Y4970D01*
X20640D01*
Y4970D01*
X19896D01*
Y4970D01*
X15547D01*
Y4970D01*
X14803D01*
Y4970D01*
X10453D01*
Y4970D01*
X9709D01*
Y4970D01*
X7657D01*
Y16381D01*
X8657Y16526D01*
X8809Y16526D01*
X9597Y16015D01*
Y13298D01*
X16801D01*
Y14056D01*
X18287D01*
X18287Y14056D01*
X18717Y14141D01*
X19081Y14384D01*
X20281Y15585D01*
X20281Y15585D01*
X20524Y15949D01*
X20610Y16378D01*
Y24064D01*
X20829Y24210D01*
X21240Y24825D01*
X21384Y25551D01*
X21240Y26277D01*
X20829Y26892D01*
X20214Y27303D01*
X19488Y27448D01*
X18763Y27303D01*
X18147Y26892D01*
X16970Y26929D01*
X16801Y27054D01*
Y27057D01*
X9597D01*
Y27057D01*
X8809Y27175D01*
X8809Y27175D01*
X8646Y27175D01*
X4262D01*
Y24037D01*
X1648Y21423D01*
X647Y21726D01*
X472Y21858D01*
Y54843D01*
X1472Y54941D01*
X1484Y54886D01*
X1727Y54522D01*
X4262Y51986D01*
Y50069D01*
X8613D01*
X8809Y50069D01*
Y50069D01*
X9597Y50109D01*
Y50109D01*
X16801D01*
Y53868D01*
X10013D01*
X9733Y54394D01*
X10297Y55109D01*
X16801D01*
Y57907D01*
X16835Y57932D01*
Y57932D01*
X16970Y58031D01*
X17133Y58091D01*
X18117Y58069D01*
X18367Y57859D01*
Y48110D01*
X16801D01*
Y48868D01*
X9597D01*
Y45109D01*
X16801D01*
Y45867D01*
X19232D01*
X19232Y45867D01*
X19661Y45952D01*
X20025Y46195D01*
X20281Y46451D01*
X20281Y46451D01*
X20524Y46815D01*
X20610Y47244D01*
X20610Y47244D01*
Y57922D01*
X20829Y58069D01*
X21240Y58684D01*
X21384Y59409D01*
X21240Y60135D01*
X20829Y60750D01*
X20214Y61161D01*
X19488Y61306D01*
X18763Y61161D01*
X18147Y60750D01*
X17736Y60135D01*
X17630Y59600D01*
X17592Y59409D01*
X17550Y59309D01*
X16680Y58868D01*
X16419Y58868D01*
D01*
X15924Y58868D01*
X9597D01*
X8809Y59379D01*
Y60718D01*
X7736D01*
Y70699D01*
X9711D01*
Y70699D01*
X10456D01*
Y70699D01*
X11801D01*
Y67865D01*
D02*
G37*
D12*
X15590Y65197D02*
X25433D01*
X12922Y67865D02*
X15590Y65197D01*
X12922Y67865D02*
Y74945D01*
X46651Y38937D02*
X46654D01*
X34055D02*
X46651D01*
Y61751D01*
Y34301D02*
Y38937D01*
X29646Y43347D02*
X34055Y38937D01*
X29646Y43347D02*
Y63819D01*
X26260Y67205D02*
X29646Y63819D01*
X19213Y67205D02*
X26260D01*
X17724Y68693D02*
X19213Y67205D01*
X27739Y41671D02*
Y62891D01*
Y41671D02*
X32992Y36417D01*
X25433Y65197D02*
X27739Y62891D01*
X53076Y61654D02*
X53661Y61068D01*
Y34606D02*
Y61068D01*
X49567Y36181D02*
X52087D01*
X53661Y34606D01*
Y33516D02*
Y34606D01*
X50787Y30642D02*
X53661Y33516D01*
X32992Y36417D02*
X43898D01*
X42047Y50394D02*
Y51299D01*
X35866Y47047D02*
X44291D01*
X34583Y20207D02*
X39537D01*
X34553Y20177D02*
Y25177D01*
X52525Y11378D02*
Y15590D01*
X49035D02*
X49056Y15570D01*
X52504D01*
X52525Y15590D01*
Y11378D02*
X53110Y10792D01*
Y702D02*
Y10792D01*
X43073Y20633D02*
X45200D01*
X39252Y15763D02*
Y16812D01*
X43073Y20633D01*
X39449Y20295D02*
Y20354D01*
Y20295D02*
X39537Y20207D01*
X34553Y20177D02*
X34583Y20207D01*
X40405Y24674D02*
X42858D01*
X39055Y26024D02*
X40405Y24674D01*
X45200Y20633D02*
X49106Y24539D01*
X45984Y17473D02*
X48106Y19595D01*
X35807Y46988D02*
X35866Y47047D01*
X34553Y46988D02*
X35807D01*
X45950Y62453D02*
X46651Y61751D01*
X42992Y30642D02*
X46651Y34301D01*
X34553Y51988D02*
X41358D01*
X42047Y51299D01*
X49106Y24539D02*
X50787D01*
X45984Y11752D02*
Y17473D01*
Y11752D02*
X48878Y8858D01*
X53110Y702D02*
X53379Y433D01*
X42933Y9016D02*
Y15590D01*
X42776Y8858D02*
X42933Y9016D01*
X34553Y15177D02*
X38666D01*
X39252Y15763D01*
X34553Y30177D02*
X34735Y29995D01*
X38469D01*
X39055Y29409D01*
Y26024D02*
Y29409D01*
X42858Y24674D02*
X42992Y24539D01*
X50787Y48504D02*
Y56350D01*
X49291Y47008D02*
X50787Y48504D01*
X51587Y61654D02*
X53076D01*
X50787Y62453D02*
X51587Y61654D01*
X42992Y62453D02*
X45950D01*
X34553Y61988D02*
X35320Y61221D01*
X38189D01*
X39094Y60315D01*
X39680Y56350D02*
X42992D01*
X39094Y56936D02*
X39680Y56350D01*
X39094Y56936D02*
Y60315D01*
X25236Y60787D02*
X25379D01*
X19488Y47244D02*
Y59409D01*
X19232Y46988D02*
X19488Y47244D01*
X13199Y46988D02*
X19232D01*
X13199Y61988D02*
X24035D01*
X25236Y60787D01*
X11785Y61988D02*
X12492Y62695D01*
X10098Y34587D02*
X14095Y30591D01*
Y30177D02*
Y30591D01*
X10236Y64951D02*
X12492Y62695D01*
X14095Y30177D02*
X18445D01*
X13199D02*
X14095D01*
X6535Y18268D02*
X8445Y20177D01*
X6535Y1432D02*
Y18268D01*
Y1432D02*
X7534Y433D01*
X5847Y51988D02*
X13199D01*
X2520Y55315D02*
X5847Y51988D01*
X2520Y55315D02*
Y75157D01*
X7658Y56988D02*
X13199D01*
X6614Y58031D02*
X7658Y56988D01*
X6614Y58031D02*
Y74314D01*
X7536Y75236D01*
X11785Y61988D02*
X13199D01*
X10236Y64951D02*
Y65905D01*
X18445Y30177D02*
X23189Y25433D01*
Y12244D02*
Y25433D01*
Y12244D02*
X26575Y8858D01*
X19488Y16378D02*
Y25551D01*
X18287Y15177D02*
X19488Y16378D01*
X13199Y15177D02*
X18287D01*
X27911Y69451D02*
Y75236D01*
Y69451D02*
X28504Y68858D01*
X40945Y67835D02*
X43192Y70082D01*
Y75236D01*
X42776Y846D02*
Y8858D01*
Y846D02*
X43189Y433D01*
X26575Y8858D02*
X42776D01*
X34553Y51988D02*
Y56988D01*
X48284Y433D02*
Y8264D01*
X48878Y8858D01*
X12631Y75236D02*
X12922Y74945D01*
X17724Y68693D02*
Y75236D01*
X2441D02*
X2520Y75157D01*
X13022Y25000D02*
X13199Y25177D01*
X6811Y25000D02*
X13022D01*
X2441Y433D02*
Y20630D01*
X6811Y25000D01*
X8445Y20177D02*
X13199D01*
D17*
X50787Y56350D02*
D03*
Y62453D02*
D03*
X42992Y56350D02*
D03*
Y62453D02*
D03*
X50787Y24539D02*
D03*
Y30642D02*
D03*
X42992Y24539D02*
D03*
Y30642D02*
D03*
X6535Y52342D02*
D03*
Y58445D02*
D03*
Y18799D02*
D03*
Y24902D02*
D03*
D18*
X34553Y46988D02*
D03*
Y51988D02*
D03*
Y56988D02*
D03*
Y61988D02*
D03*
X13199D02*
D03*
Y56988D02*
D03*
Y51988D02*
D03*
Y46988D02*
D03*
X34553Y15177D02*
D03*
Y20177D02*
D03*
Y25177D02*
D03*
Y30177D02*
D03*
X13199D02*
D03*
Y25177D02*
D03*
Y20177D02*
D03*
Y15177D02*
D03*
D19*
X48878Y8858D02*
D03*
X42776D02*
D03*
X42933Y15590D02*
D03*
X49035D02*
D03*
D20*
X53379Y74055D02*
D03*
X48285D02*
D03*
X17724D02*
D03*
X22818D02*
D03*
X27911D02*
D03*
X33005D02*
D03*
X38098D02*
D03*
X43192D02*
D03*
X12631D02*
D03*
X2441D02*
D03*
X7536D02*
D03*
X2441Y1614D02*
D03*
X7534D02*
D03*
X38095D02*
D03*
X33002D02*
D03*
X27908D02*
D03*
X22815D02*
D03*
X17721D02*
D03*
X12628D02*
D03*
X43189D02*
D03*
X53379D02*
D03*
X48284D02*
D03*
D21*
X49567Y36181D02*
D03*
X43898Y36417D02*
D03*
X42047Y50394D02*
D03*
X52756Y15512D02*
D03*
X39449Y20354D02*
D03*
X48106Y19595D02*
D03*
X44291Y47047D02*
D03*
X49291Y47008D02*
D03*
X25379Y60787D02*
D03*
X19488Y59409D02*
D03*
X10098Y34587D02*
D03*
X10236Y65905D02*
D03*
X19488Y25551D02*
D03*
X28504Y68858D02*
D03*
X40945Y67835D02*
D03*
M02*
