G04*
G04 #@! TF.GenerationSoftware,Altium Limited,Altium Designer,20.0.2 (26)*
G04*
G04 Layer_Color=32896*
%FSLAX25Y25*%
%MOIN*%
G70*
G01*
G75*
%ADD12C,0.01000*%
%ADD24C,0.03937*%
D12*
X16039Y20746D02*
Y16810D01*
X18007D01*
X18663Y17466D01*
Y18778D01*
X18007Y19434D01*
X16039D01*
X17351D02*
X18663Y20746D01*
X22599Y17466D02*
X21943Y16810D01*
X20631D01*
X19975Y17466D01*
Y18122D01*
X20631Y18778D01*
X21943D01*
X22599Y19434D01*
Y20090D01*
X21943Y20746D01*
X20631D01*
X19975Y20090D01*
X26535Y20746D02*
X23911D01*
X26535Y18122D01*
Y17466D01*
X25879Y16810D01*
X24567D01*
X23911Y17466D01*
X27847D02*
X28503Y16810D01*
X29814D01*
X30470Y17466D01*
Y18122D01*
X29814Y18778D01*
X29158D01*
X29814D01*
X30470Y19434D01*
Y20090D01*
X29814Y20746D01*
X28503D01*
X27847Y20090D01*
X34406Y20746D02*
X31782D01*
X34406Y18122D01*
Y17466D01*
X33750Y16810D01*
X32438D01*
X31782Y17466D01*
X35718Y21402D02*
X38342D01*
X39654Y20746D02*
Y16810D01*
X40966Y18122D01*
X42278Y16810D01*
Y20746D01*
X43590Y21402D02*
X46213D01*
X47525Y16810D02*
Y19434D01*
X48837Y20746D01*
X50149Y19434D01*
Y16810D01*
X51461Y20746D02*
X52773D01*
X52117D01*
Y16810D01*
X51461Y17466D01*
D24*
X51811Y10118D02*
G03*
X51811Y10118I-1969J0D01*
G01*
M02*
