M48
;Layer_Color=9474304
;FILE_FORMAT=2:5
INCH,TZ
;TYPE=PLATED
T1F00S00C0.01220
T2F00S00C0.03150
%
T01
X10098Y34587
X19488Y25551
X39449Y20354
X48106Y19595
X52756Y15512
X49567Y36181
X43898Y36417
X44291Y47047
X49291Y47008
X42047Y50394
X40945Y67835
X28504Y68858
X25379Y60787
X19488Y59409
X10236Y65905
T02
X2441Y433
X7534
X12628
X17721
X22815
X27908
X33002
X38095
X43189
X48284
X53379
Y75236
X48285
X43192
X38098
X33005
X27911
X22818
X17724
X12631
X7536
X2441
M30
