G04*
G04 #@! TF.GenerationSoftware,Altium Limited,Altium Designer,20.0.2 (26)*
G04*
G04 Layer_Color=8388736*
%FSLAX25Y25*%
%MOIN*%
G70*
G01*
G75*
%ADD13R,0.04150X0.04150*%
%ADD14R,0.06807X0.03362*%
%ADD15R,0.04150X0.04150*%
%ADD16R,0.03953X0.06315*%
D13*
X50787Y56350D02*
D03*
Y62453D02*
D03*
X42992Y56350D02*
D03*
Y62453D02*
D03*
X50787Y24539D02*
D03*
Y30642D02*
D03*
X42992Y24539D02*
D03*
Y30642D02*
D03*
X6535Y52342D02*
D03*
Y58445D02*
D03*
Y18799D02*
D03*
Y24902D02*
D03*
D14*
X34553Y46988D02*
D03*
Y51988D02*
D03*
Y56988D02*
D03*
Y61988D02*
D03*
X13199D02*
D03*
Y56988D02*
D03*
Y51988D02*
D03*
Y46988D02*
D03*
X34553Y15177D02*
D03*
Y20177D02*
D03*
Y25177D02*
D03*
Y30177D02*
D03*
X13199D02*
D03*
Y25177D02*
D03*
Y20177D02*
D03*
Y15177D02*
D03*
D15*
X48878Y8858D02*
D03*
X42776D02*
D03*
X42933Y15590D02*
D03*
X49035D02*
D03*
D16*
X53379Y74055D02*
D03*
X48285D02*
D03*
X17724D02*
D03*
X22818D02*
D03*
X27911D02*
D03*
X33005D02*
D03*
X38098D02*
D03*
X43192D02*
D03*
X12631D02*
D03*
X2441D02*
D03*
X7536D02*
D03*
X2441Y1614D02*
D03*
X7534D02*
D03*
X38095D02*
D03*
X33002D02*
D03*
X27908D02*
D03*
X22815D02*
D03*
X17721D02*
D03*
X12628D02*
D03*
X43189D02*
D03*
X53379D02*
D03*
X48284D02*
D03*
M02*
