G04*
G04 #@! TF.GenerationSoftware,Altium Limited,Altium Designer,20.0.2 (26)*
G04*
G04 Layer_Color=32896*
%FSLAX25Y25*%
%MOIN*%
G70*
G01*
G75*
%ADD11C,0.01000*%
%ADD22C,0.03937*%
D11*
X3146Y21844D02*
Y19220D01*
X4458Y17908D01*
X5770Y19220D01*
Y21844D01*
Y19876D01*
X3146D01*
X7081Y17908D02*
Y21844D01*
X9049D01*
X9705Y21188D01*
Y18564D01*
X9049Y17908D01*
X7081D01*
X13641Y18564D02*
X12985Y17908D01*
X11673D01*
X11017Y18564D01*
Y21188D01*
X11673Y21844D01*
X12985D01*
X13641Y21188D01*
X14953Y22500D02*
X17577D01*
X18889Y17908D02*
Y21188D01*
X19545Y21844D01*
X20856D01*
X21512Y21188D01*
Y17908D01*
X22824Y21844D02*
Y19220D01*
X24136Y17908D01*
X25448Y19220D01*
Y21844D01*
Y19876D01*
X22824D01*
X26760Y21844D02*
Y17908D01*
X28728D01*
X29384Y18564D01*
Y19876D01*
X28728Y20532D01*
X26760D01*
X28072D02*
X29384Y21844D01*
X30696Y17908D02*
X33320D01*
X32008D01*
Y21844D01*
X34632Y22500D02*
X37255D01*
X38567Y21844D02*
Y17908D01*
X39879Y19220D01*
X41191Y17908D01*
Y21844D01*
X42503Y22500D02*
X45127D01*
X46439Y17908D02*
Y20532D01*
X47751Y21844D01*
X49063Y20532D01*
Y17908D01*
X50375Y21844D02*
X51687D01*
X51030D01*
Y17908D01*
X50375Y18564D01*
D22*
X51177Y11075D02*
G03*
X51177Y11075I-1969J0D01*
G01*
M02*
