G04*
G04 #@! TF.GenerationSoftware,Altium Limited,Altium Designer,20.0.2 (26)*
G04*
G04 Layer_Color=65535*
%FSLAX25Y25*%
%MOIN*%
G70*
G01*
G75*
%ADD10C,0.02000*%
%ADD11C,0.00984*%
%ADD12C,0.00600*%
%ADD13C,0.01000*%
%ADD14C,0.00394*%
D10*
X78753Y57402D02*
G03*
X78753Y57402I-1803J0D01*
G01*
D11*
X43645Y46752D02*
G03*
X43645Y46752I-492J0D01*
G01*
D12*
X4676Y53833D02*
X14124D01*
X4676Y48321D02*
X14124D01*
X4676Y59556D02*
X14124D01*
X4676Y54044D02*
X14124D01*
X119006Y20626D02*
Y30074D01*
X113494Y20626D02*
Y30074D01*
Y42476D02*
Y51924D01*
X119006Y42476D02*
Y51924D01*
X55256Y38576D02*
Y48024D01*
X49744Y38576D02*
Y48024D01*
X61556Y38576D02*
Y48024D01*
X56044Y38576D02*
Y48024D01*
Y26876D02*
Y36324D01*
X61556Y26876D02*
Y36324D01*
X49744Y26876D02*
Y36324D01*
X55256Y26876D02*
Y36324D01*
X9401Y37075D02*
Y40225D01*
X55225Y15600D02*
X58375D01*
X114675Y36276D02*
X117825D01*
X44701Y51675D02*
Y54825D01*
X43400Y16575D02*
Y19725D01*
D13*
X49338Y60907D02*
Y67993D01*
X54062Y60907D02*
Y67993D01*
X43348Y60907D02*
Y67993D01*
X48072Y60907D02*
Y67993D01*
X37358Y60907D02*
Y67993D01*
X42082Y60907D02*
Y67993D01*
X31368Y60907D02*
Y67993D01*
X36092Y60907D02*
Y67993D01*
X45338Y5957D02*
Y13043D01*
X50062Y5957D02*
Y13043D01*
X24112Y60907D02*
Y67993D01*
X19388Y60907D02*
Y67993D01*
X30102Y60907D02*
Y67993D01*
X25378Y60907D02*
Y67993D01*
X-16200Y5648D02*
Y-350D01*
Y2649D01*
X-12201D01*
Y5648D01*
Y-350D01*
X-6203D02*
X-10202D01*
X-6203Y3649D01*
Y4648D01*
X-7203Y5648D01*
X-9202D01*
X-10202Y4648D01*
X-13400Y77098D02*
Y71100D01*
Y74099D01*
X-9401D01*
Y77098D01*
Y71100D01*
X-7402D02*
X-5403D01*
X-6402D01*
Y77098D01*
X-7402Y76098D01*
D14*
X100946Y59055D02*
Y62402D01*
X100730D02*
X100946D01*
X72954D02*
X100730D01*
X72954Y59055D02*
Y62402D01*
X100946Y12402D02*
Y15748D01*
X100730Y12402D02*
X100946D01*
X72954D02*
X100730D01*
X72954D02*
Y15748D01*
M02*
