G04*
G04 #@! TF.GenerationSoftware,Altium Limited,Altium Designer,20.0.2 (26)*
G04*
G04 Layer_Color=16711935*
%FSLAX25Y25*%
%MOIN*%
G70*
G01*
G75*
%ADD39R,0.03953X0.06709*%
D39*
X119135Y73622D02*
D03*
X114041D02*
D03*
X83480D02*
D03*
X88574D02*
D03*
X93667D02*
D03*
X98761D02*
D03*
X103854D02*
D03*
X108948D02*
D03*
X78387D02*
D03*
X73292D02*
D03*
X68198D02*
D03*
X37630D02*
D03*
X42725D02*
D03*
X47819D02*
D03*
X52914D02*
D03*
X58008D02*
D03*
X63103D02*
D03*
X32536D02*
D03*
X17252D02*
D03*
X27441D02*
D03*
X22346D02*
D03*
X7063D02*
D03*
X12157D02*
D03*
X1969D02*
D03*
Y1181D02*
D03*
X7062D02*
D03*
X37623D02*
D03*
X32530D02*
D03*
X27436D02*
D03*
X22343D02*
D03*
X17249D02*
D03*
X12156D02*
D03*
X42717D02*
D03*
X47811D02*
D03*
X52906D02*
D03*
X83473D02*
D03*
X78378D02*
D03*
X73284D02*
D03*
X68189D02*
D03*
X63095D02*
D03*
X58000D02*
D03*
X88568D02*
D03*
X103851D02*
D03*
X93662D02*
D03*
X98757D02*
D03*
X114040D02*
D03*
X108946D02*
D03*
X119135D02*
D03*
M02*
