G04*
G04 #@! TF.GenerationSoftware,Altium Limited,Altium Designer,20.0.2 (26)*
G04*
G04 Layer_Color=8388736*
%FSLAX25Y25*%
%MOIN*%
G70*
G01*
G75*
%ADD15R,0.04150X0.04150*%
%ADD16R,0.04150X0.04150*%
%ADD17R,0.04347X0.04819*%
%ADD18R,0.04819X0.06591*%
%ADD19R,0.05331X0.04740*%
%ADD20R,0.02969X0.02969*%
%ADD21R,0.06787X0.03795*%
%ADD22R,0.01984X0.04150*%
%ADD23R,0.04150X0.01984*%
%ADD24R,0.11039X0.11039*%
%ADD25R,0.03953X0.06315*%
D15*
X12451Y51077D02*
D03*
X6349D02*
D03*
X12451Y56800D02*
D03*
X6349D02*
D03*
X12451Y38650D02*
D03*
X6349D02*
D03*
X47751Y53250D02*
D03*
X41649D02*
D03*
X46451Y18150D02*
D03*
X40349D02*
D03*
D16*
X116250Y22299D02*
D03*
Y28401D02*
D03*
Y50251D02*
D03*
Y44149D02*
D03*
X52500Y40249D02*
D03*
Y46351D02*
D03*
X58800Y40249D02*
D03*
Y46351D02*
D03*
Y34651D02*
D03*
Y28549D02*
D03*
X52500Y34651D02*
D03*
Y28549D02*
D03*
X56800Y18651D02*
D03*
Y12549D02*
D03*
X116250Y39326D02*
D03*
Y33224D02*
D03*
D17*
X6447Y44708D02*
D03*
X12038D02*
D03*
D18*
X12800Y31700D02*
D03*
X6500D02*
D03*
X12650Y24200D02*
D03*
X6350D02*
D03*
D19*
X15676Y16800D02*
D03*
X6424D02*
D03*
D20*
X51700Y66750D02*
D03*
Y62150D02*
D03*
X45710Y66750D02*
D03*
Y62150D02*
D03*
X39720Y66750D02*
D03*
Y62150D02*
D03*
X33730Y66750D02*
D03*
Y62150D02*
D03*
X47700Y11800D02*
D03*
Y7200D02*
D03*
X21750Y62150D02*
D03*
Y66750D02*
D03*
X27740Y62150D02*
D03*
Y66750D02*
D03*
D21*
X104450Y19902D02*
D03*
X69450D02*
D03*
X104450Y24902D02*
D03*
X69450D02*
D03*
X104450Y29902D02*
D03*
X69450D02*
D03*
X104450Y34902D02*
D03*
X69450D02*
D03*
X104450Y39902D02*
D03*
X69450D02*
D03*
X104450Y44902D02*
D03*
X69450D02*
D03*
X104450Y49902D02*
D03*
X69450D02*
D03*
X104450Y54902D02*
D03*
X69450D02*
D03*
D22*
X40200Y45079D02*
D03*
X38232D02*
D03*
X36263D02*
D03*
X34295D02*
D03*
X32326D02*
D03*
X30358D02*
D03*
Y29724D02*
D03*
X32326D02*
D03*
X34295D02*
D03*
X36263D02*
D03*
X38232D02*
D03*
X40200D02*
D03*
D23*
X27602Y42323D02*
D03*
Y40354D02*
D03*
Y38386D02*
D03*
Y36417D02*
D03*
Y34449D02*
D03*
Y32480D02*
D03*
X42956D02*
D03*
Y34449D02*
D03*
Y36417D02*
D03*
Y38386D02*
D03*
Y40354D02*
D03*
Y42323D02*
D03*
D24*
X35279Y37402D02*
D03*
D25*
X119135Y73622D02*
D03*
X114041D02*
D03*
X83480D02*
D03*
X88574D02*
D03*
X93667D02*
D03*
X98761D02*
D03*
X103854D02*
D03*
X108948D02*
D03*
X78387D02*
D03*
X73292D02*
D03*
X68198D02*
D03*
X37630D02*
D03*
X42725D02*
D03*
X47819D02*
D03*
X52914D02*
D03*
X58008D02*
D03*
X63103D02*
D03*
X32536D02*
D03*
X17252D02*
D03*
X27441D02*
D03*
X22346D02*
D03*
X7063D02*
D03*
X12157D02*
D03*
X1969D02*
D03*
Y1181D02*
D03*
X7062D02*
D03*
X37623D02*
D03*
X32530D02*
D03*
X27436D02*
D03*
X22343D02*
D03*
X17249D02*
D03*
X12156D02*
D03*
X42717D02*
D03*
X47811D02*
D03*
X52906D02*
D03*
X83473D02*
D03*
X78378D02*
D03*
X73284D02*
D03*
X68189D02*
D03*
X63095D02*
D03*
X58000D02*
D03*
X88568D02*
D03*
X103851D02*
D03*
X93662D02*
D03*
X98757D02*
D03*
X114040D02*
D03*
X108946D02*
D03*
X119135D02*
D03*
M02*
