M48
;Layer_Color=9474304
;FILE_FORMAT=2:5
INCH,TZ
;TYPE=PLATED
T1F00S00C0.01378
T2F00S00C0.03150
%
T01
X63350Y37450
X116100Y32900
X118900
X45100Y30700
X45600Y24500
X40650Y25150
X37620Y23513
X34250Y24100
X30900Y20000
X30000Y13450
X23750Y12100
X21050Y10300
X22724Y33800
X22000Y38750
X16450Y38600
X6600
Y44700
X6450Y31350
X6400Y24550
X40000Y18200
X44000Y12873
X49000Y14850
X50050Y18750
X50150Y22100
X56800Y18651
X38850Y34500
Y37750
X38750Y40850
X41600Y53250
X41650Y56900
X38000Y57550
X33950Y57500
X28250Y57700
X25410Y54490
Y50350
X29000Y51550
X16450Y51077
Y46700
Y57200
X6400Y56900
X6450Y51150
X49350Y53250
X61750Y60350
X60650Y66050
T02
X68189Y0
X73284
X78378
X83473
X88568
X93662
X98757
X103851
X108946
X114040
X119135
X63095
X58000
X52906
X47811
X42717
X37623
X32530
X27436
X22343
X17249
X12156
X7062
X1969
Y74803
X7063
X12157
X17252
X22346
X27441
X32536
X37630
X42725
X47819
X52914
X58008
X63103
X68198
X73292
X78387
X83480
X88574
X93667
X98761
X103854
X108948
X114041
X119135
M30
