G04*
G04 #@! TF.GenerationSoftware,Altium Limited,Altium Designer,20.0.2 (26)*
G04*
G04 Layer_Physical_Order=2*
G04 Layer_Color=16711680*
%FSLAX25Y25*%
%MOIN*%
G70*
G01*
G75*
%ADD13C,0.01000*%
%ADD37C,0.02559*%
%ADD38R,0.03150X0.05906*%
G36*
X50739Y73786D02*
Y70069D01*
X55089D01*
Y70069D01*
X55834D01*
Y70069D01*
X60183D01*
Y70069D01*
X60928D01*
Y70069D01*
X65278D01*
Y70069D01*
X66023D01*
Y70069D01*
X70372D01*
Y70069D01*
X71118D01*
Y70069D01*
X75467D01*
Y70069D01*
X76212D01*
Y70069D01*
X80562D01*
Y70069D01*
X81305D01*
Y70069D01*
X85655D01*
Y70069D01*
X86399D01*
Y70069D01*
X90749D01*
Y70069D01*
X91492D01*
Y70069D01*
X95842D01*
Y70069D01*
X96586D01*
Y70069D01*
X100936D01*
Y70069D01*
X101680D01*
Y70069D01*
X106029D01*
Y70069D01*
X106773D01*
Y70069D01*
X111123D01*
Y70069D01*
X111866D01*
Y70069D01*
X116216D01*
Y70069D01*
X116960D01*
Y70069D01*
X121050D01*
Y4734D01*
X116960D01*
Y4734D01*
X116215D01*
Y4734D01*
X111865D01*
Y4734D01*
X111121D01*
Y4734D01*
X106771D01*
Y4734D01*
X106026D01*
Y4734D01*
X101677D01*
Y4734D01*
X100932D01*
Y4734D01*
X96582D01*
Y4734D01*
X95837D01*
X95017Y5170D01*
X94784Y5408D01*
X94698Y5838D01*
X94455Y6201D01*
X94455Y6201D01*
X91993Y8664D01*
X91629Y8907D01*
X91200Y8992D01*
X91200Y8992D01*
X48685Y8992D01*
X48302Y9916D01*
X49793Y11407D01*
X49793Y11407D01*
X50036Y11771D01*
X50122Y12200D01*
X50122Y12200D01*
Y13339D01*
X50355Y13495D01*
X50511Y13728D01*
X51650D01*
X51650Y13728D01*
X52079Y13814D01*
X52443Y14057D01*
X55587Y17201D01*
X56067Y16881D01*
X56800Y16735D01*
X57533Y16881D01*
X58155Y17296D01*
X58570Y17918D01*
X58716Y18651D01*
X58570Y19385D01*
X58155Y20006D01*
X57533Y20422D01*
X56936Y20540D01*
Y22350D01*
X64143Y29557D01*
X64143Y29557D01*
X64386Y29921D01*
X64472Y30350D01*
X64472Y30350D01*
Y35939D01*
X64705Y36095D01*
X65121Y36717D01*
X65266Y37450D01*
X65121Y38183D01*
X64705Y38805D01*
X64472Y38961D01*
Y39250D01*
X64472Y39250D01*
X64386Y39679D01*
X64143Y40043D01*
X51212Y52975D01*
X51266Y53250D01*
X51147Y53849D01*
X51269Y54189D01*
X51745Y54849D01*
X52220D01*
X52220Y54849D01*
X52650Y54934D01*
X53013Y55177D01*
X57065Y59228D01*
X60239D01*
X60395Y58995D01*
X61017Y58579D01*
X61750Y58434D01*
X62483Y58579D01*
X63105Y58995D01*
X63520Y59617D01*
X63666Y60350D01*
X63520Y61083D01*
X63105Y61705D01*
X62483Y62120D01*
X61750Y62266D01*
X61017Y62120D01*
X60395Y61705D01*
X60239Y61472D01*
X56600D01*
X56600Y61472D01*
X56171Y61386D01*
X55807Y61143D01*
X51756Y57092D01*
X48705D01*
X48276Y57007D01*
X47912Y56763D01*
X47912Y56763D01*
X41962Y50813D01*
X41719Y50449D01*
X41633Y50020D01*
X41633Y50020D01*
Y31859D01*
X41599Y31686D01*
X41599Y31686D01*
Y29714D01*
X41599Y29714D01*
X41684Y29285D01*
X41927Y28921D01*
X43321Y27527D01*
X43321Y27527D01*
X43685Y27284D01*
X44114Y27199D01*
X46130D01*
X48818Y24511D01*
X48795Y23455D01*
X48379Y22833D01*
X48234Y22100D01*
X48379Y21367D01*
X48776Y20773D01*
X48707Y20590D01*
X48302Y19872D01*
X43865D01*
X43865Y19872D01*
X43436Y19786D01*
X43072Y19543D01*
X43072Y19543D01*
X41587Y18057D01*
X41486Y17907D01*
X40521Y16942D01*
X38979D01*
X34727Y21194D01*
X34961Y22129D01*
X35895Y22486D01*
X36265Y22158D01*
X36887Y21742D01*
X37620Y21596D01*
X38353Y21742D01*
X38975Y22158D01*
X39390Y22779D01*
X39917Y23380D01*
X40650Y23234D01*
X41383Y23380D01*
X42005Y23795D01*
X42421Y24417D01*
X42566Y25150D01*
X42421Y25883D01*
X42005Y26505D01*
X41383Y26921D01*
X40650Y27066D01*
X40161Y26969D01*
X37022Y30108D01*
Y50685D01*
X41374Y55038D01*
X41650Y54984D01*
X42383Y55129D01*
X43005Y55545D01*
X43420Y56167D01*
X43566Y56900D01*
X43420Y57633D01*
X43005Y58255D01*
X42383Y58671D01*
X41650Y58816D01*
X40917Y58671D01*
X40714Y58535D01*
X40103Y58372D01*
X39441Y58777D01*
X39355Y58905D01*
X38733Y59320D01*
X38000Y59466D01*
X37267Y59320D01*
X36645Y58905D01*
X36555Y58771D01*
X35379Y58744D01*
X35305Y58855D01*
X34683Y59271D01*
X33950Y59416D01*
X33217Y59271D01*
X32595Y58855D01*
X32179Y58233D01*
X32034Y57500D01*
X32088Y57225D01*
X31057Y56193D01*
X30814Y55829D01*
X30728Y55400D01*
X30728Y55400D01*
Y53858D01*
X29733Y53320D01*
X29000Y53466D01*
X28267Y53320D01*
X27951Y53110D01*
X27299Y53658D01*
X27190Y53804D01*
X27327Y54490D01*
X27222Y55015D01*
X27673Y55606D01*
X27972Y55839D01*
X28250Y55784D01*
X28983Y55929D01*
X29605Y56345D01*
X30020Y56967D01*
X30166Y57700D01*
X30020Y58433D01*
X29605Y59055D01*
X28983Y59470D01*
X28250Y59616D01*
X27517Y59470D01*
X26895Y59055D01*
X26739Y58822D01*
X21300D01*
X21300Y58822D01*
X20871Y58736D01*
X20507Y58493D01*
X20507Y58493D01*
X20335Y58322D01*
X17961D01*
X17805Y58555D01*
X17536Y58735D01*
X17279Y59893D01*
X19865Y62478D01*
X52750D01*
X52750Y62478D01*
X53179Y62564D01*
X53543Y62807D01*
X55665Y64928D01*
X59139D01*
X59295Y64695D01*
X59917Y64280D01*
X60650Y64134D01*
X61383Y64280D01*
X62005Y64695D01*
X62420Y65317D01*
X62566Y66050D01*
X62420Y66783D01*
X62005Y67405D01*
X61383Y67821D01*
X60650Y67966D01*
X59917Y67821D01*
X59295Y67405D01*
X59139Y67172D01*
X55200D01*
X54771Y67086D01*
X54407Y66843D01*
X54407Y66843D01*
X52285Y64722D01*
X19400D01*
X18971Y64636D01*
X18607Y64393D01*
X18607Y64393D01*
X12557Y58343D01*
X12314Y57979D01*
X12228Y57550D01*
X12228Y57550D01*
Y42250D01*
X12228Y42250D01*
X12314Y41821D01*
X12557Y41457D01*
X14680Y39334D01*
X14680Y39333D01*
X14534Y38600D01*
X14680Y37867D01*
X15095Y37245D01*
X15717Y36830D01*
X16450Y36684D01*
X17183Y36830D01*
X17805Y37245D01*
X18221Y37867D01*
X18366Y38600D01*
X18221Y39333D01*
X17805Y39955D01*
X17183Y40371D01*
X16724Y40462D01*
X14471Y42715D01*
Y44615D01*
X15472Y45093D01*
X15717Y44930D01*
X16450Y44784D01*
X17183Y44930D01*
X17805Y45345D01*
X17961Y45578D01*
X18900D01*
X18900Y45578D01*
X19329Y45664D01*
X19693Y45907D01*
X22967Y49181D01*
X23970Y49122D01*
X24055Y48995D01*
X24677Y48579D01*
X24879Y47650D01*
Y39039D01*
X23878Y38941D01*
X23771Y39483D01*
X23355Y40105D01*
X22733Y40521D01*
X22000Y40666D01*
X21267Y40521D01*
X20645Y40105D01*
X20230Y39483D01*
X20084Y38750D01*
X20138Y38475D01*
X19551Y37887D01*
X19308Y37523D01*
X19222Y37094D01*
X19222Y37094D01*
Y32814D01*
X19222Y32814D01*
X19308Y32385D01*
X19551Y32021D01*
X19929Y31644D01*
Y11811D01*
X19695Y11655D01*
X19279Y11033D01*
X19134Y10300D01*
X19279Y9567D01*
X19695Y8945D01*
X20317Y8529D01*
X21050Y8384D01*
X21230Y8420D01*
X22572Y7077D01*
X22572Y7077D01*
X22936Y6834D01*
X23365Y6749D01*
X23365Y6749D01*
X90735Y6749D01*
X91751Y5734D01*
X91487Y4734D01*
X90742D01*
Y4734D01*
X86393D01*
Y4734D01*
X85648D01*
Y4734D01*
X81298D01*
Y4734D01*
X80553D01*
Y4734D01*
X76204D01*
Y4734D01*
X75459D01*
Y4734D01*
X71109D01*
Y4734D01*
X70364D01*
Y4734D01*
X66015D01*
Y4734D01*
X65270D01*
Y4734D01*
X60920D01*
Y214D01*
X60887Y50D01*
X55113D01*
X55080Y214D01*
Y4734D01*
X50731D01*
Y4734D01*
X49986D01*
Y4734D01*
X45636D01*
Y4734D01*
X44891D01*
Y4734D01*
X40542D01*
Y4734D01*
X39798D01*
Y4734D01*
X35448D01*
Y4734D01*
X34704D01*
Y4734D01*
X30355D01*
Y214D01*
X30322Y50D01*
X24550D01*
X24517Y214D01*
Y4734D01*
X20168D01*
Y4734D01*
X19424D01*
Y4734D01*
X15074D01*
Y4734D01*
X14330D01*
Y4734D01*
X9981D01*
Y4734D01*
X9237D01*
Y4734D01*
X4887D01*
Y4734D01*
X4143D01*
Y4734D01*
X0D01*
Y70069D01*
X4143D01*
Y70069D01*
X4888D01*
Y70069D01*
X9238D01*
Y70069D01*
X9983D01*
Y70069D01*
X14332D01*
Y74589D01*
X14366Y74756D01*
X19242Y74758D01*
X20172Y73772D01*
Y70069D01*
X24521D01*
Y70069D01*
X25266D01*
Y70069D01*
X29616D01*
Y70069D01*
X30361D01*
Y70069D01*
X34710D01*
Y70069D01*
X35456D01*
Y70069D01*
X39805D01*
Y70069D01*
X40550D01*
Y70069D01*
X44900D01*
Y74589D01*
X44935Y74769D01*
X49814Y74771D01*
X50739Y73786D01*
D02*
G37*
G36*
X47849Y52114D02*
X47995Y51895D01*
X48617Y51480D01*
X49350Y51334D01*
X49625Y51388D01*
X62014Y39000D01*
X61995Y38805D01*
X61580Y38183D01*
X61434Y37450D01*
X61580Y36717D01*
X61995Y36095D01*
X62228Y35939D01*
Y30815D01*
X55400Y23986D01*
X48509Y30878D01*
X48145Y31121D01*
X47715Y31206D01*
X46870Y31433D01*
X46455Y32055D01*
X45833Y32471D01*
X45100Y32616D01*
X44877Y32572D01*
X43877Y33254D01*
Y49556D01*
X46671Y52350D01*
X47849Y52114D01*
D02*
G37*
D13*
X23365Y7870D02*
X91200Y7870D01*
X93662Y0D02*
Y5408D01*
X91200Y7870D02*
X93662Y5408D01*
X20993Y10243D02*
X23365Y7870D01*
X116100Y32900D02*
X118900D01*
X22750Y16700D02*
Y33800D01*
X42197Y11071D02*
X44000Y12873D01*
X55814Y19014D02*
Y22814D01*
X56502Y18949D02*
X56800Y18651D01*
X55879Y18949D02*
X56502D01*
X55814Y19014D02*
X55879Y18949D01*
X42380Y17264D02*
X43865Y18750D01*
X50050D01*
X49000Y14850D02*
X51650D01*
X55814Y19014D01*
X49000Y12200D02*
Y14850D01*
X46270Y9471D02*
X49000Y12200D01*
X6400Y16700D02*
Y17850D01*
Y16700D02*
X15350Y7750D01*
X19686D01*
X40000Y18200D02*
Y18900D01*
X26000Y28335D02*
X38514Y15821D01*
X40986D01*
X42380Y17214D02*
Y17264D01*
X40986Y15821D02*
X42380Y17214D01*
X40000Y18900D02*
X45600Y24500D01*
X34150Y28050D02*
X37620Y24580D01*
Y23513D02*
Y24580D01*
X42755Y31720D02*
Y50020D01*
X48705Y55971D02*
X52220D01*
X42755Y50020D02*
X48705Y55971D01*
X38850Y37750D02*
Y50550D01*
X6500Y56900D02*
Y62850D01*
Y44700D02*
Y51150D01*
X6400Y24550D02*
X6500Y38600D01*
X6400Y17950D02*
Y24550D01*
X47200Y58900D02*
X51300D01*
X38850Y50550D02*
X47200Y58900D01*
X34150Y53700D02*
X38000Y57550D01*
X34150Y28050D02*
Y53700D01*
X35900Y51150D02*
X41650Y56900D01*
X35900Y29644D02*
Y51150D01*
X54986Y22814D02*
X55814D01*
X26379Y9471D02*
X46270D01*
X16450Y38600D02*
Y39150D01*
X13350Y42250D02*
X16450Y39150D01*
X28275Y50825D02*
X29000Y51550D01*
X28275Y49850D02*
Y50825D01*
X26396Y47971D02*
X28275Y49850D01*
X61065Y69000D02*
X61665Y68400D01*
X48800Y69000D02*
X61065D01*
X47819Y69981D02*
X48800Y69000D01*
X47819Y69981D02*
Y72244D01*
X46950Y73114D02*
X47819Y72244D01*
X46950Y68800D02*
Y73114D01*
X12450Y68800D02*
X46950D01*
X6500Y62850D02*
X12450Y68800D01*
X38850Y34500D02*
Y37750D01*
Y31250D02*
Y34500D01*
X50150Y22100D02*
Y24765D01*
X46595Y28321D02*
X50150Y24765D01*
Y22100D02*
X50500Y21750D01*
X38850Y31250D02*
X45600Y24500D01*
X35900Y29644D02*
X40450Y25094D01*
X31850Y55400D02*
X33950Y57500D01*
X31850Y26904D02*
Y55400D01*
Y26904D02*
X34254Y24500D01*
X40506Y25150D02*
X40650D01*
X40450Y25094D02*
X40506Y25150D01*
X37620Y23330D02*
Y23513D01*
X30900Y19050D02*
Y20000D01*
X30000Y13450D02*
Y18150D01*
X28379Y11071D02*
X42197D01*
X22750Y16700D02*
X28379Y11071D01*
X34250Y24100D02*
Y24296D01*
X34150Y24396D02*
X34250Y24296D01*
X34150Y24396D02*
X34254Y24500D01*
X44114Y28321D02*
X46595D01*
X42720Y29714D02*
X44114Y28321D01*
X45100Y30700D02*
X45500D01*
X46115Y30085D01*
X47715D02*
X54986Y22814D01*
X46115Y30085D02*
X47715D01*
X26000Y28335D02*
Y47650D01*
X27436Y5500D02*
X58000D01*
Y0D02*
Y5500D01*
X27436Y0D02*
Y5500D01*
X21936D02*
X27436D01*
X19686Y7750D02*
X21936Y5500D01*
X30000Y18150D02*
X30900Y19050D01*
X23750Y12100D02*
X26379Y9471D01*
X63350Y37450D02*
Y39250D01*
X49350Y53250D02*
X63350Y39250D01*
X21300Y57700D02*
X28250D01*
X20800Y57200D02*
X21300Y57700D01*
X16450Y57200D02*
X20800D01*
X23650Y52729D02*
X25410Y54490D01*
X26320Y47971D02*
X26396D01*
X26000Y47650D02*
X26320Y47971D01*
X87550Y68400D02*
X96200Y59750D01*
X96278Y52300D02*
X115678Y32900D01*
X96200Y52300D02*
X96278D01*
X96200D02*
Y59750D01*
X63464Y68400D02*
X87550D01*
X115678Y32900D02*
X116100D01*
X47819Y72244D02*
Y74803D01*
X42720Y31686D02*
X42755Y31720D01*
X42720Y29714D02*
Y31686D01*
X64050Y64786D02*
Y67814D01*
X62935Y63670D02*
X64050Y64786D01*
X56071Y63670D02*
X62935D01*
X51300Y58900D02*
X56071Y63670D01*
X61665Y68400D02*
X63464D01*
X64050Y67814D01*
X52220Y55971D02*
X56600Y60350D01*
X61750D01*
X55200Y66050D02*
X60650D01*
X52750Y63600D02*
X55200Y66050D01*
X19400Y63600D02*
X52750D01*
X13350Y57550D02*
X19400Y63600D01*
X55814Y22814D02*
X63350Y30350D01*
X18102Y52729D02*
X23650D01*
X16450Y51077D02*
X18102Y52729D01*
X18900Y46700D02*
X22550Y50350D01*
X25200D01*
X13350Y42250D02*
Y57550D01*
X17000Y46700D02*
X18900D01*
X63350Y30350D02*
Y37450D01*
X21050Y10300D02*
Y32108D01*
X20344Y32814D02*
X21050Y32108D01*
X20344Y32814D02*
Y37094D01*
X22000Y38750D01*
X21050Y10300D02*
X21214D01*
D37*
X41600Y53250D02*
D03*
X44000Y12873D02*
D03*
X56800Y18651D02*
D03*
X50050Y18750D02*
D03*
X49000Y14850D02*
D03*
X40000Y18200D02*
D03*
X118900Y32900D02*
D03*
X41650Y56900D02*
D03*
X38000Y57550D02*
D03*
X16450Y38600D02*
D03*
X50150Y22100D02*
D03*
X38750Y40850D02*
D03*
X38850Y34500D02*
D03*
X45600Y24500D02*
D03*
X40650Y25150D02*
D03*
X30900Y20000D02*
D03*
X30000Y13450D02*
D03*
X34250Y24100D02*
D03*
X37620Y23513D02*
D03*
X45100Y30700D02*
D03*
X23750Y12100D02*
D03*
X28250Y57700D02*
D03*
X25410Y54490D02*
D03*
X29000Y51550D02*
D03*
X6400Y24550D02*
D03*
X116100Y32900D02*
D03*
X6600Y44700D02*
D03*
X6450Y51150D02*
D03*
X6400Y56900D02*
D03*
X6450Y31350D02*
D03*
X6600Y38600D02*
D03*
X38850Y37750D02*
D03*
X49350Y53250D02*
D03*
X61750Y60350D02*
D03*
X60650Y66050D02*
D03*
X25410Y50350D02*
D03*
X16450Y51077D02*
D03*
Y57200D02*
D03*
Y46700D02*
D03*
X22000Y38750D02*
D03*
X22724Y33800D02*
D03*
X21050Y10300D02*
D03*
X63350Y37450D02*
D03*
X33950Y57500D02*
D03*
D38*
X119135Y73622D02*
D03*
X114041D02*
D03*
X83480D02*
D03*
X88574D02*
D03*
X93667D02*
D03*
X98761D02*
D03*
X103854D02*
D03*
X108948D02*
D03*
X78387D02*
D03*
X73292D02*
D03*
X68198D02*
D03*
X37630D02*
D03*
X42725D02*
D03*
X47819D02*
D03*
X52914D02*
D03*
X58008D02*
D03*
X63103D02*
D03*
X32536D02*
D03*
X17252D02*
D03*
X27441D02*
D03*
X22346D02*
D03*
X7063D02*
D03*
X12157D02*
D03*
X1969D02*
D03*
Y1181D02*
D03*
X7062D02*
D03*
X37623D02*
D03*
X32530D02*
D03*
X27436D02*
D03*
X22343D02*
D03*
X17249D02*
D03*
X12156D02*
D03*
X42717D02*
D03*
X47811D02*
D03*
X52906D02*
D03*
X83473D02*
D03*
X78378D02*
D03*
X73284D02*
D03*
X68189D02*
D03*
X63095D02*
D03*
X58000D02*
D03*
X88568D02*
D03*
X103851D02*
D03*
X93662D02*
D03*
X98757D02*
D03*
X114040D02*
D03*
X108946D02*
D03*
X119135D02*
D03*
M02*
