G04*
G04 #@! TF.GenerationSoftware,Altium Limited,Altium Designer,20.0.2 (26)*
G04*
G04 Layer_Physical_Order=1*
G04 Layer_Color=255*
%FSLAX25Y25*%
%MOIN*%
G70*
G01*
G75*
%ADD13C,0.01000*%
%ADD26R,0.03347X0.03347*%
%ADD27R,0.03347X0.03347*%
%ADD28R,0.03543X0.04016*%
%ADD29R,0.04016X0.05787*%
%ADD30R,0.04528X0.03937*%
%ADD31R,0.02165X0.02165*%
%ADD32R,0.05984X0.02992*%
%ADD33R,0.01181X0.03347*%
%ADD34R,0.03347X0.01181*%
%ADD35R,0.10236X0.10236*%
%ADD36R,0.03150X0.05512*%
%ADD37C,0.02559*%
G36*
X50739Y74589D02*
Y70266D01*
X55089D01*
Y70266D01*
X55834D01*
Y70266D01*
X58633D01*
X58937Y69266D01*
X58871Y69223D01*
X58871Y69223D01*
X57477Y67829D01*
X57234Y67465D01*
X57149Y67036D01*
X57149Y67036D01*
Y62830D01*
X57149Y62830D01*
X57234Y62400D01*
X57477Y62037D01*
X59957Y59557D01*
X59957Y59557D01*
X60070Y59482D01*
X60395Y58995D01*
X61017Y58579D01*
X61750Y58434D01*
X62483Y58579D01*
X63105Y58995D01*
X63520Y59617D01*
X63666Y60350D01*
X63520Y61083D01*
X63105Y61705D01*
X62483Y62120D01*
X61750Y62266D01*
X61017Y62120D01*
X60746Y61940D01*
X59978Y62708D01*
X60038Y63310D01*
X60650Y64134D01*
X61383Y64280D01*
X62005Y64695D01*
X62113Y64857D01*
X70779D01*
X70779Y64857D01*
X71208Y64943D01*
X71572Y65186D01*
X73993Y67607D01*
X73993Y67607D01*
X74236Y67971D01*
X74322Y68400D01*
Y70266D01*
X75467D01*
Y70266D01*
X76212D01*
Y70266D01*
X80562D01*
Y70266D01*
X81305D01*
Y70266D01*
X85655D01*
Y70266D01*
X86399D01*
Y70266D01*
X90749D01*
Y70266D01*
X91492D01*
Y70266D01*
X95842D01*
Y70266D01*
X96586D01*
Y70266D01*
X100936D01*
Y70266D01*
X101680D01*
Y70266D01*
X106029D01*
Y70266D01*
X106773D01*
Y70266D01*
X111123D01*
X111123Y70266D01*
X112078Y70160D01*
Y62865D01*
X106211Y56998D01*
X100858D01*
Y52806D01*
X100858D01*
Y51998D01*
X100858D01*
Y47998D01*
X100858Y47806D01*
Y46998D01*
X100858Y46806D01*
Y42998D01*
X100858Y42805D01*
Y41998D01*
X100858Y41805D01*
Y37998D01*
X100858Y37806D01*
Y36998D01*
X100858Y36805D01*
Y32998D01*
X100858Y32805D01*
Y31998D01*
X100858Y31806D01*
Y27806D01*
X100858D01*
Y26998D01*
X100858D01*
Y22806D01*
X100858D01*
Y21998D01*
X100858D01*
Y17806D01*
X106058D01*
X112919Y10945D01*
Y4537D01*
X111865D01*
Y4537D01*
X111121D01*
Y4537D01*
X106771D01*
Y4537D01*
X106026D01*
Y4537D01*
X101677D01*
Y4537D01*
X100932D01*
Y4537D01*
X96582D01*
Y4537D01*
X95837D01*
Y4537D01*
X91487D01*
Y4537D01*
X90742D01*
Y4537D01*
X86393D01*
Y4537D01*
X85648D01*
Y4537D01*
X81298D01*
Y4537D01*
X80553D01*
Y4537D01*
X76204D01*
Y4537D01*
X75459D01*
Y4537D01*
X71109D01*
Y4537D01*
X70364D01*
Y4537D01*
X66015D01*
Y4537D01*
X65270D01*
Y4537D01*
X60920D01*
Y214D01*
X60887Y50D01*
X55113D01*
X55080Y214D01*
Y4537D01*
X52972D01*
Y17250D01*
X52972Y17250D01*
X52886Y17679D01*
X52643Y18043D01*
X51961Y18725D01*
X51966Y18750D01*
X51820Y19483D01*
X51696Y19670D01*
X51545Y20522D01*
X51734Y21088D01*
X51920Y21367D01*
X52066Y22100D01*
X51920Y22833D01*
X51505Y23455D01*
X50883Y23870D01*
X50150Y24016D01*
X49417Y23870D01*
X48795Y23455D01*
X48379Y22833D01*
X48264Y22255D01*
X40854D01*
X40755Y23255D01*
X41383Y23380D01*
X42005Y23795D01*
X42421Y24417D01*
X42566Y25150D01*
X42421Y25883D01*
X42005Y26505D01*
X41412Y26901D01*
Y28551D01*
X41412Y28551D01*
X41391Y28660D01*
Y31119D01*
X42391Y31275D01*
X43184Y30700D01*
X43330Y29967D01*
X43745Y29345D01*
X44367Y28929D01*
X45100Y28784D01*
X45833Y28929D01*
X46455Y29345D01*
X46675Y29674D01*
X47625Y29908D01*
X47875Y29889D01*
X48499Y29265D01*
X48499Y29265D01*
X48547Y29233D01*
X48851Y28929D01*
X49215Y28686D01*
X49644Y28600D01*
X50227Y27879D01*
Y26276D01*
X52688D01*
X57039Y21924D01*
X56625Y20924D01*
X54527D01*
Y16378D01*
X59073D01*
Y20608D01*
X65858D01*
Y17806D01*
X73042D01*
Y21805D01*
X73042Y21998D01*
X73042D01*
Y22806D01*
X73042D01*
Y26998D01*
X73042D01*
Y27806D01*
X73042D01*
Y31806D01*
X73042Y31998D01*
Y32805D01*
X73042Y32998D01*
Y36805D01*
X73042Y36998D01*
Y37806D01*
X73042Y37998D01*
Y41805D01*
X73042Y41998D01*
Y42805D01*
X73042Y42998D01*
Y46998D01*
X73042D01*
Y47806D01*
X73042D01*
Y51998D01*
X73042D01*
Y52806D01*
X73042D01*
Y56998D01*
X65858D01*
Y56023D01*
X60702D01*
X60702Y56023D01*
X60272Y55938D01*
X59908Y55695D01*
X59908Y55695D01*
X52838Y48624D01*
X51090D01*
X50676Y49624D01*
X52523Y51471D01*
X52523Y51471D01*
X52766Y51835D01*
X52851Y52264D01*
Y54236D01*
X52822Y54384D01*
Y60467D01*
X53383D01*
Y63833D01*
X50017D01*
Y60467D01*
X50578D01*
Y56294D01*
X50024Y55523D01*
X45478D01*
Y51543D01*
X41287Y47352D01*
X39263D01*
Y51959D01*
X39177Y52388D01*
X38934Y52752D01*
X38934Y52752D01*
X36961Y54725D01*
X37274Y55722D01*
X37334Y55766D01*
X38000Y55634D01*
X38733Y55779D01*
X38936Y55915D01*
X39547Y56078D01*
X40209Y55673D01*
X40295Y55545D01*
X40917Y55129D01*
X41650Y54984D01*
X42383Y55129D01*
X43005Y55545D01*
X43420Y56167D01*
X43566Y56900D01*
X43512Y57175D01*
X46503Y60167D01*
X46503Y60167D01*
X46704Y60467D01*
X47393D01*
Y63833D01*
X44027D01*
Y60863D01*
X42428Y59264D01*
X42026Y59286D01*
X41291Y60329D01*
X41333Y60467D01*
X41403D01*
Y63833D01*
X38037D01*
Y60467D01*
X38037D01*
X38058Y60397D01*
X37409Y59349D01*
X37267Y59320D01*
X36645Y58905D01*
X36636Y58891D01*
X35621Y58809D01*
X34910Y59467D01*
X34957Y60467D01*
X35413D01*
Y63833D01*
X32047D01*
Y60467D01*
X32608D01*
Y58864D01*
X32595Y58855D01*
X32179Y58233D01*
X32111Y57889D01*
X31099Y57495D01*
X31091Y57495D01*
X30093Y58493D01*
X29890Y58629D01*
X29605Y59055D01*
X28983Y59470D01*
X29098Y60467D01*
X29423D01*
Y63833D01*
X26057D01*
Y62053D01*
X24405Y60401D01*
X23433Y60843D01*
Y63833D01*
X20067D01*
Y62053D01*
X19407Y61393D01*
X19164Y61029D01*
X19078Y60600D01*
X19079Y60600D01*
Y58356D01*
X18079Y58146D01*
X17805Y58555D01*
X17183Y58970D01*
X16450Y59116D01*
X15717Y58970D01*
X14724Y59073D01*
X14724Y59073D01*
X10178D01*
Y54527D01*
X14724D01*
Y54890D01*
X15717Y55430D01*
X16450Y55284D01*
X17183Y55430D01*
X17805Y55845D01*
X18079Y56254D01*
X19079Y56044D01*
Y52233D01*
X18079Y52023D01*
X17805Y52432D01*
X17183Y52847D01*
X16450Y52993D01*
X15717Y52847D01*
X14724Y53350D01*
Y53350D01*
X10178D01*
Y48804D01*
X14265D01*
X14764Y47920D01*
X14303Y47315D01*
X13792Y47315D01*
X9666D01*
Y42100D01*
X10916D01*
Y40923D01*
X10178D01*
Y36377D01*
X14724D01*
Y36377D01*
X15717Y36830D01*
X16450Y36684D01*
X16725Y36738D01*
X17840Y35624D01*
X17840Y35624D01*
X18203Y35381D01*
X18633Y35296D01*
X18633Y35296D01*
X20260D01*
X20529Y34999D01*
X20913Y34360D01*
X20905Y34294D01*
X20807Y33800D01*
X20953Y33067D01*
X21369Y32445D01*
X21990Y32030D01*
X22724Y31884D01*
X23457Y32030D01*
X24079Y32445D01*
X24328Y32819D01*
X25328Y32526D01*
Y31290D01*
X25429D01*
Y18400D01*
X25428Y18400D01*
X25514Y17971D01*
X25757Y17607D01*
X28236Y15127D01*
X28236Y15127D01*
X28229Y14183D01*
X28084Y13450D01*
X28229Y12717D01*
X28645Y12095D01*
X28989Y11865D01*
Y7439D01*
X28989Y7439D01*
X29075Y7010D01*
X29318Y6646D01*
X30427Y5537D01*
X30355Y4537D01*
X30355D01*
Y214D01*
X30322Y50D01*
X24550D01*
X24517Y214D01*
Y4537D01*
X20168D01*
Y4537D01*
X19424D01*
Y4537D01*
X15074D01*
Y4537D01*
X14330D01*
Y4537D01*
X9981D01*
Y4537D01*
X9237D01*
Y4537D01*
X4887D01*
Y4537D01*
X4143D01*
Y4537D01*
X720D01*
X14Y5245D01*
X188Y70266D01*
X4143D01*
Y70266D01*
X4888D01*
Y70266D01*
X9238D01*
Y70266D01*
X9983D01*
Y70266D01*
X14332D01*
Y74589D01*
X14354Y74700D01*
X20150D01*
X20172Y74589D01*
Y70266D01*
X20266D01*
X20454Y70069D01*
X20772Y69266D01*
X20714Y69179D01*
X20628Y68750D01*
X20067Y68433D01*
Y65067D01*
X23433D01*
Y68433D01*
X23433Y68433D01*
X23558Y69381D01*
X23572Y69450D01*
X23752Y69710D01*
X24521Y70266D01*
X25266D01*
Y70266D01*
X26618D01*
Y68433D01*
X26057D01*
Y65067D01*
X29423D01*
Y68433D01*
X28861D01*
Y69673D01*
X29616Y70266D01*
X30361D01*
X31220Y69925D01*
X31278Y69900D01*
X31364Y69471D01*
X31532Y69219D01*
X32047Y68433D01*
Y65067D01*
X35413D01*
Y68433D01*
X35045D01*
X34672Y69147D01*
X34991Y69976D01*
X35607Y70177D01*
X36259Y69792D01*
X36378Y69700D01*
X36464Y69271D01*
X36707Y68907D01*
X38016Y67598D01*
Y67333D01*
X38016Y67333D01*
X38037Y67224D01*
Y65067D01*
X41403D01*
Y68057D01*
X42375Y68498D01*
X44027Y66847D01*
Y65067D01*
X47393D01*
Y68433D01*
X45613D01*
X44780Y69266D01*
X44900Y70266D01*
X44900D01*
Y74589D01*
X44922Y74700D01*
X50717D01*
X50739Y74589D01*
D02*
G37*
G36*
X121300Y4537D02*
X120256D01*
Y13865D01*
X120256Y13865D01*
X120171Y14294D01*
X119928Y14658D01*
X119928Y14658D01*
X115484Y19102D01*
X115867Y20026D01*
X118523D01*
Y24572D01*
X115359D01*
X114868Y25181D01*
X114860Y25195D01*
X115347Y26128D01*
X118523D01*
Y30674D01*
X115483D01*
X111347Y34811D01*
Y34812D01*
X111386Y34871D01*
X111472Y35300D01*
Y38205D01*
X113977D01*
Y37053D01*
X118523D01*
Y41599D01*
X118523D01*
Y41876D01*
X118523D01*
Y46422D01*
X113977D01*
Y46135D01*
X113663Y45234D01*
X113233Y45149D01*
X112870Y44906D01*
X112870Y44906D01*
X109557Y41593D01*
X109314Y41229D01*
X109228Y40800D01*
X109228Y40800D01*
Y39300D01*
X109228Y39300D01*
X109228Y39300D01*
Y35664D01*
X109189Y35604D01*
X109104Y35175D01*
X109104Y35175D01*
Y34347D01*
X109104Y34347D01*
X109189Y33917D01*
X109432Y33554D01*
X113977Y29009D01*
Y27174D01*
X112977Y26759D01*
X109149Y30587D01*
X108785Y30830D01*
X108356Y30915D01*
X108042Y31816D01*
X108042Y31998D01*
Y32805D01*
X108042Y32998D01*
Y36805D01*
X108042Y36998D01*
Y37806D01*
X108042Y37998D01*
Y41805D01*
X108042Y41998D01*
Y42805D01*
X108042Y42998D01*
Y44128D01*
X109700D01*
X109700Y44128D01*
X110129Y44214D01*
X110493Y44457D01*
X114014Y47978D01*
X118523D01*
Y52524D01*
X115125D01*
X114710Y53524D01*
X119793Y58607D01*
X119793Y58607D01*
X120036Y58971D01*
X120122Y59400D01*
X120122Y59400D01*
Y70266D01*
X121300D01*
Y4537D01*
D02*
G37*
%LPC*%
G36*
X15407Y35194D02*
X10192D01*
Y28206D01*
X10192D01*
X10042Y27694D01*
X10042Y27694D01*
X10042Y27268D01*
Y20706D01*
X11216D01*
X11528Y19826D01*
X11613Y19397D01*
X11857Y19033D01*
X12812Y18078D01*
Y14232D01*
X18540D01*
Y18446D01*
X18540Y19010D01*
X19500Y19464D01*
X22329Y16635D01*
Y13355D01*
X21980Y12833D01*
X21792Y12106D01*
X21050Y12216D01*
X20317Y12071D01*
X19695Y11655D01*
X19539Y11422D01*
X13389D01*
X9288Y15522D01*
Y19368D01*
X3560D01*
Y14232D01*
X7406D01*
X12131Y9507D01*
X12131Y9507D01*
X12495Y9264D01*
X12924Y9178D01*
X12924Y9178D01*
X19539D01*
X19695Y8945D01*
X20317Y8529D01*
X21050Y8384D01*
X21783Y8529D01*
X22405Y8945D01*
X22820Y9567D01*
X23008Y10294D01*
X23750Y10184D01*
X24483Y10329D01*
X25105Y10745D01*
X25521Y11367D01*
X25666Y12100D01*
X25521Y12833D01*
X25105Y13455D01*
X24572Y13812D01*
Y17100D01*
X24572Y17100D01*
X24486Y17529D01*
X24243Y17893D01*
X24243Y17893D01*
X17143Y24993D01*
X16779Y25236D01*
X16350Y25322D01*
X16350Y25321D01*
X15258D01*
Y27694D01*
X15258D01*
X15407Y28206D01*
X15407Y28206D01*
X15407Y28632D01*
Y35194D01*
D02*
G37*
%LPD*%
D13*
X42717Y0D02*
Y7784D01*
X32980Y17521D02*
X42717Y7784D01*
X30014Y17521D02*
X32980D01*
X38030Y406D02*
Y9521D01*
X31629Y15921D02*
X38030Y9521D01*
X29030Y15921D02*
X31629D01*
X46247Y13700D02*
X47700Y12247D01*
X44827Y13700D02*
X46247D01*
X44000Y12873D02*
X44827Y13700D01*
X44000Y12873D02*
Y13597D01*
X47700Y11800D02*
Y12247D01*
X59050Y39649D02*
X60000Y40599D01*
X59050Y35251D02*
X59800Y34501D01*
X40600Y45079D02*
X48771Y53250D01*
X46451Y18150D02*
X49751Y14850D01*
X23450Y12400D02*
Y17100D01*
X16350Y24200D02*
X23450Y17100D01*
X12650Y24200D02*
X16350D01*
X15381Y16800D02*
X15676D01*
X13912Y18269D02*
X15381Y16800D01*
X13912Y18269D02*
Y18564D01*
X12650Y19826D02*
X13912Y18564D01*
X12650Y19826D02*
Y24200D01*
X6424Y16800D02*
X6719D01*
X8188Y15331D01*
Y15036D02*
Y15331D01*
Y15036D02*
X12924Y10300D01*
X21050D01*
X54651Y12949D02*
X57201D01*
X53700Y13900D02*
X54651Y12949D01*
X53700Y13900D02*
Y22057D01*
X56800Y12549D02*
X58000Y11349D01*
X51257Y24500D02*
X53700Y22057D01*
X50350Y18750D02*
X51850Y17250D01*
Y1056D02*
Y17250D01*
Y1056D02*
X52906Y0D01*
X50050Y18750D02*
X50350D01*
X67622Y21730D02*
X69450Y19902D01*
X58820Y21730D02*
X67622D01*
X52386Y28164D02*
X58820Y21730D01*
X58000Y0D02*
Y11349D01*
X45600Y24500D02*
X51257D01*
X67123Y71366D02*
X68400D01*
X50035Y22100D02*
X50150Y21985D01*
X6349Y56800D02*
Y62149D01*
Y51077D02*
Y56800D01*
X6500Y23298D02*
Y31700D01*
X31879Y55120D02*
X34980D01*
X29300Y57700D02*
X31879Y55120D01*
X28250Y57700D02*
X29300D01*
X45710Y60960D02*
Y62150D01*
X41650Y56900D02*
X45710Y60960D01*
X38000Y57550D02*
X39720Y59270D01*
X16450Y38600D02*
X18633Y36417D01*
X20967D01*
X50150Y21985D02*
Y22100D01*
X49068Y21133D02*
X50035Y22100D01*
X31771Y22564D02*
X33202Y21133D01*
X49068D01*
X30050Y20850D02*
X30900Y20000D01*
X30050Y20850D02*
Y25598D01*
X34295Y27510D02*
Y29724D01*
X31771Y24986D02*
X34295Y27510D01*
X39720Y59270D02*
Y62150D01*
X34125Y24225D02*
X36250Y26349D01*
X38232Y24124D02*
Y29724D01*
X37620Y23513D02*
X38232Y24124D01*
X28350Y19185D02*
Y26634D01*
Y19185D02*
X30014Y17521D01*
X26550Y18400D02*
X29030Y15921D01*
X26550Y18400D02*
Y31690D01*
X30000Y13450D02*
X30111Y13339D01*
X34250Y23792D02*
Y24100D01*
X31771Y22564D02*
Y24986D01*
X32326Y27874D02*
Y29724D01*
X30050Y25598D02*
X32326Y27874D01*
X30358Y28642D02*
Y29724D01*
X28350Y26634D02*
X30358Y28642D01*
X36250Y26349D02*
Y29711D01*
X40291Y25510D02*
Y28551D01*
Y25510D02*
X40650Y25150D01*
X34150Y23692D02*
X34250Y23792D01*
X32530Y0D02*
Y5020D01*
X30111Y7439D02*
X32530Y5020D01*
X30111Y7439D02*
Y13339D01*
X23450Y12400D02*
X23750Y12100D01*
X40200Y45079D02*
X40600D01*
X42956Y43491D02*
X51730Y52264D01*
X42956Y42323D02*
Y43491D01*
X22000Y38750D02*
X22274Y38476D01*
X23032Y36417D02*
X27602D01*
X22986Y36371D02*
X23032Y36417D01*
X21014Y36371D02*
X22986D01*
X24254Y34539D02*
X27511D01*
X23515Y33800D02*
X24254Y34539D01*
X20967Y36417D02*
X21014Y36371D01*
X23946Y40354D02*
X27602D01*
X20200Y44100D02*
X23946Y40354D01*
X22274Y38476D02*
X27511D01*
X20200Y44100D02*
Y60600D01*
X38141Y45169D02*
Y51959D01*
X34980Y55120D02*
X38141Y51959D01*
X25410Y54490D02*
X29425D01*
X30395Y53521D01*
X33479D01*
X29000Y51550D02*
X30600D01*
X32326Y49824D01*
X26750Y50350D02*
X30379Y46721D01*
X25410Y50350D02*
X26750D01*
X26550Y31690D02*
X27341Y32480D01*
X48771Y53250D02*
X49350D01*
X51730Y52264D02*
Y54236D01*
X51700Y54265D02*
Y62150D01*
Y54265D02*
X51730Y54236D01*
X68400Y69150D02*
Y71366D01*
X67680Y68429D02*
X68400Y69150D01*
X59664Y68429D02*
X67680D01*
X72755Y71904D02*
X73292Y72441D01*
X72217Y71366D02*
X72755Y71904D01*
X73200Y71458D01*
X72217Y72441D02*
X72755Y71904D01*
X73200Y68400D02*
Y71458D01*
X72217Y71366D02*
Y72441D01*
X70779Y65979D02*
X73200Y68400D01*
X61824Y65979D02*
X70779D01*
X60750Y60350D02*
X61750D01*
X58271Y62830D02*
X60750Y60350D01*
X58271Y67036D02*
X59664Y68429D01*
X58271Y62830D02*
Y67036D01*
X61752Y66050D02*
X61824Y65979D01*
X60650Y66050D02*
X61752D01*
X36172Y46650D02*
X36353Y46832D01*
X59189Y26811D02*
Y28960D01*
X45211Y36417D02*
X50306Y31322D01*
X42956Y36417D02*
X45211D01*
X50306Y31322D02*
X56827D01*
X52386Y28164D02*
Y28672D01*
X44901Y34449D02*
X47693Y31657D01*
X47725Y31625D02*
X49292Y30058D01*
X42956Y34449D02*
X44901D01*
X40200Y28642D02*
Y29724D01*
Y28642D02*
X40291Y28551D01*
X37623Y0D02*
X38030Y406D01*
X15000Y44700D02*
X17000Y46700D01*
X30379Y45100D02*
Y46721D01*
X25200Y50350D02*
X25410D01*
X22150Y46218D02*
Y56560D01*
Y46218D02*
X26135Y42232D01*
X22150Y56560D02*
X27740Y62150D01*
X22724Y33800D02*
X23515D01*
X27091Y42045D02*
X27602D01*
Y42323D01*
X26904Y42232D02*
X27091Y42045D01*
X26135Y42232D02*
X26904D01*
X12451Y51077D02*
X16450D01*
X12038Y44708D02*
X14992D01*
X15000Y44700D01*
X12851Y57200D02*
X16450D01*
X12451Y56800D02*
X12851Y57200D01*
X20200Y60600D02*
X21750Y62150D01*
X42956Y32480D02*
X44039D01*
X44129Y32390D01*
Y31532D02*
Y32390D01*
X51336Y29722D02*
X52386Y28672D01*
X113200Y62400D02*
Y73962D01*
X105702Y54902D02*
X113200Y62400D01*
X104450Y54902D02*
X105702D01*
X114040Y0D02*
Y11410D01*
X105548Y19902D02*
X114040Y11410D01*
X104450Y19902D02*
X105548D01*
X27511Y38476D02*
X27602Y38386D01*
X51972Y46172D02*
X60702Y54902D01*
X51622Y46172D02*
X51972D01*
X50850Y45400D02*
X51622Y46172D01*
X49852Y45400D02*
X50850D01*
X44807Y40354D02*
X49852Y45400D01*
X49644Y29722D02*
X51336D01*
X49308Y30058D02*
X49644Y29722D01*
X49292Y30058D02*
X49308D01*
X54699Y43150D02*
X60650Y49101D01*
X50422Y43022D02*
X50550Y43150D01*
X50371Y43022D02*
X50422D01*
X49727Y42378D02*
X50371Y43022D01*
X49727Y42327D02*
Y42378D01*
X45786Y38386D02*
X49727Y42327D01*
X50550Y43150D02*
X54699D01*
X42956Y38386D02*
X45786D01*
X60702Y54902D02*
X69450D01*
X59050Y37152D02*
X63052D01*
X59050Y35251D02*
Y37152D01*
X58750Y37450D02*
X63350D01*
X52500D02*
X58750D01*
X59050Y37750D01*
Y39649D01*
X63350Y37450D02*
Y41253D01*
Y33491D02*
Y37450D01*
X63052Y37152D02*
X63350Y37450D01*
X52500D02*
Y40249D01*
Y34651D02*
Y37450D01*
X56827Y31322D02*
X59189Y28960D01*
X42956Y40354D02*
X44807D01*
X63350Y41253D02*
X66002Y43905D01*
X66958D01*
X61437Y49902D02*
X69450D01*
X60650Y49114D02*
X61437Y49902D01*
X59189Y26811D02*
X61098Y24902D01*
X60650Y49101D02*
Y49114D01*
X63350Y33491D02*
X65944Y30898D01*
X32326Y45079D02*
Y49824D01*
X33479Y53521D02*
X36353Y50647D01*
X33730Y57720D02*
X33950Y57500D01*
X36353Y46832D02*
Y50647D01*
X33730Y57720D02*
Y62150D01*
X27511Y34539D02*
X27602Y34449D01*
X36250Y29711D02*
X36263Y29724D01*
X38141Y45169D02*
X38232Y45079D01*
X36172Y45169D02*
Y46650D01*
Y45169D02*
X36263Y45079D01*
X30358D02*
X30379Y45100D01*
X12038Y39063D02*
Y44708D01*
Y39063D02*
X12451Y38650D01*
X9200Y65000D02*
X13450D01*
X6349Y62149D02*
X9200Y65000D01*
X13450D02*
X17252Y68802D01*
Y74803D01*
X6349Y38650D02*
Y44609D01*
X12800Y24350D02*
Y31700D01*
X12650Y24200D02*
X12800Y24350D01*
X110350Y39300D02*
Y40800D01*
Y35300D02*
Y39300D01*
X110376Y39326D02*
X116250D01*
X110350Y39300D02*
X110376Y39326D01*
X116214Y44113D02*
X116250Y44149D01*
X113663Y44113D02*
X116214D01*
X110350Y40800D02*
X113663Y44113D01*
X110225Y34347D02*
X114997Y29574D01*
X110225Y34347D02*
Y35175D01*
X110350Y35300D01*
X115077Y29574D02*
X116250Y28401D01*
X114997Y29574D02*
X115077D01*
X104450Y29902D02*
X104558Y29794D01*
X108356D01*
X115077Y23472D02*
X116250Y22299D01*
X114678Y23472D02*
X115077D01*
X108356Y29794D02*
X114678Y23472D01*
X108098Y24902D02*
X119135Y13865D01*
X104450Y24902D02*
X108098D01*
X119135Y0D02*
Y13865D01*
X104450Y44902D02*
X104798Y45250D01*
X109700D01*
X113742Y49292D01*
X115290D02*
X116250Y50251D01*
X113742Y49292D02*
X115290D01*
X119000Y59400D02*
Y74668D01*
X109502Y49902D02*
X119000Y59400D01*
X104450Y49902D02*
X109502D01*
X113200Y73962D02*
X114041Y74803D01*
X68198Y72441D02*
Y74803D01*
X67123Y71366D02*
X68198Y72441D01*
X73292D02*
Y74803D01*
X68454Y30898D02*
X69450Y29902D01*
X65944Y30898D02*
X68454D01*
X67954Y44902D02*
X69450D01*
X66958Y43905D02*
X67954Y44902D01*
X61098Y24902D02*
X69450D01*
X27341Y32480D02*
X27602D01*
X47811Y0D02*
Y7089D01*
X47700Y7200D02*
X47811Y7089D01*
X22346Y74803D02*
X22450Y74700D01*
Y69450D02*
Y74700D01*
X21750Y68750D02*
X22450Y69450D01*
X21750Y66750D02*
Y68750D01*
X27740Y66750D02*
Y74504D01*
X27441Y74803D02*
X27740Y74504D01*
X32400Y74668D02*
X32536Y74803D01*
X32400Y69900D02*
Y74668D01*
X33553Y66927D02*
X33730Y66750D01*
X33553Y66927D02*
Y68747D01*
X32400Y69900D02*
X33553Y68747D01*
X37500Y74673D02*
X37630Y74803D01*
X37500Y69700D02*
Y74673D01*
X39137Y67333D02*
X39720Y66750D01*
X39137Y67333D02*
Y68063D01*
X37500Y69700D02*
X39137Y68063D01*
X42725Y69735D02*
X45710Y66750D01*
X42725Y69735D02*
Y74803D01*
X47819D02*
X48498Y74124D01*
Y69952D02*
Y74124D01*
Y69952D02*
X51700Y66750D01*
X119000Y74668D02*
X119135Y74803D01*
D26*
X12451Y51077D02*
D03*
X6349D02*
D03*
X12451Y56800D02*
D03*
X6349D02*
D03*
X12451Y38650D02*
D03*
X6349D02*
D03*
X47751Y53250D02*
D03*
X41649D02*
D03*
X46451Y18150D02*
D03*
X40349D02*
D03*
D27*
X116250Y22299D02*
D03*
Y28401D02*
D03*
Y50251D02*
D03*
Y44149D02*
D03*
X52500Y40249D02*
D03*
Y46351D02*
D03*
X58800Y40249D02*
D03*
Y46351D02*
D03*
Y34651D02*
D03*
Y28549D02*
D03*
X52500Y34651D02*
D03*
Y28549D02*
D03*
X56800Y18651D02*
D03*
Y12549D02*
D03*
X116250Y39326D02*
D03*
Y33224D02*
D03*
D28*
X6447Y44708D02*
D03*
X12038D02*
D03*
D29*
X12800Y31700D02*
D03*
X6500D02*
D03*
X12650Y24200D02*
D03*
X6350D02*
D03*
D30*
X15676Y16800D02*
D03*
X6424D02*
D03*
D31*
X51700Y66750D02*
D03*
Y62150D02*
D03*
X45710Y66750D02*
D03*
Y62150D02*
D03*
X39720Y66750D02*
D03*
Y62150D02*
D03*
X33730Y66750D02*
D03*
Y62150D02*
D03*
X47700Y11800D02*
D03*
Y7200D02*
D03*
X21750Y62150D02*
D03*
Y66750D02*
D03*
X27740Y62150D02*
D03*
Y66750D02*
D03*
D32*
X104450Y19902D02*
D03*
X69450D02*
D03*
X104450Y24902D02*
D03*
X69450D02*
D03*
X104450Y29902D02*
D03*
X69450D02*
D03*
X104450Y34902D02*
D03*
X69450D02*
D03*
X104450Y39902D02*
D03*
X69450D02*
D03*
X104450Y44902D02*
D03*
X69450D02*
D03*
X104450Y49902D02*
D03*
X69450D02*
D03*
X104450Y54902D02*
D03*
X69450D02*
D03*
D33*
X40200Y45079D02*
D03*
X38232D02*
D03*
X36263D02*
D03*
X34295D02*
D03*
X32326D02*
D03*
X30358D02*
D03*
Y29724D02*
D03*
X32326D02*
D03*
X34295D02*
D03*
X36263D02*
D03*
X38232D02*
D03*
X40200D02*
D03*
D34*
X27602Y42323D02*
D03*
Y40354D02*
D03*
Y38386D02*
D03*
Y36417D02*
D03*
Y34449D02*
D03*
Y32480D02*
D03*
X42956D02*
D03*
Y34449D02*
D03*
Y36417D02*
D03*
Y38386D02*
D03*
Y40354D02*
D03*
Y42323D02*
D03*
D35*
X35279Y37402D02*
D03*
D36*
X119135Y73622D02*
D03*
X114041D02*
D03*
X83480D02*
D03*
X88574D02*
D03*
X93667D02*
D03*
X98761D02*
D03*
X103854D02*
D03*
X108948D02*
D03*
X78387D02*
D03*
X73292D02*
D03*
X68198D02*
D03*
X37630D02*
D03*
X42725D02*
D03*
X47819D02*
D03*
X52914D02*
D03*
X58008D02*
D03*
X63103D02*
D03*
X32536D02*
D03*
X17252D02*
D03*
X27441D02*
D03*
X22346D02*
D03*
X7063D02*
D03*
X12157D02*
D03*
X1969D02*
D03*
Y1181D02*
D03*
X7062D02*
D03*
X37623D02*
D03*
X32530D02*
D03*
X27436D02*
D03*
X22343D02*
D03*
X17249D02*
D03*
X12156D02*
D03*
X42717D02*
D03*
X47811D02*
D03*
X52906D02*
D03*
X83473D02*
D03*
X78378D02*
D03*
X73284D02*
D03*
X68189D02*
D03*
X63095D02*
D03*
X58000D02*
D03*
X88568D02*
D03*
X103851D02*
D03*
X93662D02*
D03*
X98757D02*
D03*
X114040D02*
D03*
X108946D02*
D03*
X119135D02*
D03*
D37*
X41600Y53250D02*
D03*
X44000Y12873D02*
D03*
X56800Y18651D02*
D03*
X50050Y18750D02*
D03*
X49000Y14850D02*
D03*
X40000Y18200D02*
D03*
X118900Y32900D02*
D03*
X41650Y56900D02*
D03*
X38000Y57550D02*
D03*
X16450Y38600D02*
D03*
X50150Y22100D02*
D03*
X38750Y40850D02*
D03*
X38850Y34500D02*
D03*
X45600Y24500D02*
D03*
X40650Y25150D02*
D03*
X30900Y20000D02*
D03*
X30000Y13450D02*
D03*
X34250Y24100D02*
D03*
X37620Y23513D02*
D03*
X45100Y30700D02*
D03*
X23750Y12100D02*
D03*
X28250Y57700D02*
D03*
X25410Y54490D02*
D03*
X29000Y51550D02*
D03*
X6400Y24550D02*
D03*
X116100Y32900D02*
D03*
X6600Y44700D02*
D03*
X6450Y51150D02*
D03*
X6400Y56900D02*
D03*
X6450Y31350D02*
D03*
X6600Y38600D02*
D03*
X38850Y37750D02*
D03*
X49350Y53250D02*
D03*
X61750Y60350D02*
D03*
X60650Y66050D02*
D03*
X25410Y50350D02*
D03*
X16450Y51077D02*
D03*
Y57200D02*
D03*
Y46700D02*
D03*
X22000Y38750D02*
D03*
X22724Y33800D02*
D03*
X21050Y10300D02*
D03*
X63350Y37450D02*
D03*
X33950Y57500D02*
D03*
M02*
