M48
;Layer_Color=9474304
;FILE_FORMAT=2:5
INCH,TZ
;TYPE=PLATED
T1F00S00C0.01200
T2F00S00C0.03150
%
T01
X15748Y9347
X33634Y12933
X34616Y17386
X32059Y28589
X24949Y35150
X34433Y43315
X11437Y30606
X5256Y66791
X28480Y65803
X32000Y61402
X34551Y53280
T02
X2205Y512
X7298
X12392
X17485
X22579
X27672
X32766
X37859
X42953
X42956Y75315
X37862
X32769
X27675
X22582
X17488
X12395
X7301
X2208
M30
