G04*
G04 #@! TF.GenerationSoftware,Altium Limited,Altium Designer,20.0.2 (26)*
G04*
G04 Layer_Physical_Order=2*
G04 Layer_Color=16711680*
%FSLAX25Y25*%
%MOIN*%
G70*
G01*
G75*
%ADD12C,0.01000*%
%ADD23C,0.02500*%
%ADD24R,0.03150X0.05906*%
G36*
X35645Y75315D02*
X35687Y75101D01*
Y70581D01*
X40037D01*
Y70581D01*
X40781D01*
Y70581D01*
X45024D01*
Y5246D01*
X40778D01*
Y5246D01*
X40034D01*
Y5246D01*
X35684D01*
Y726D01*
X35642Y512D01*
X29890D01*
X29847Y726D01*
Y5246D01*
X25497D01*
Y5246D01*
X24754D01*
Y5246D01*
X20404D01*
Y5246D01*
X19660D01*
Y5246D01*
X18607D01*
Y7609D01*
X18607Y7609D01*
X18521Y8038D01*
X18278Y8402D01*
X18278Y8402D01*
X17584Y9096D01*
X17634Y9347D01*
X17491Y10068D01*
X17082Y10680D01*
X16885Y10812D01*
X17189Y11812D01*
X32158D01*
X32300Y11599D01*
X32912Y11190D01*
X33634Y11047D01*
X34356Y11190D01*
X34968Y11599D01*
X35161Y11889D01*
X35201Y11897D01*
X35565Y12140D01*
X38608Y15183D01*
X38851Y15547D01*
X38936Y15976D01*
X38936Y15976D01*
Y37393D01*
X38851Y37822D01*
X38608Y38186D01*
X38608Y38186D01*
X35840Y40954D01*
X35767Y41981D01*
X36176Y42593D01*
X36319Y43315D01*
X36176Y44037D01*
X35767Y44649D01*
X35155Y45058D01*
X34433Y45201D01*
X33711Y45058D01*
X33099Y44649D01*
X32690Y44037D01*
X32547Y43315D01*
X32690Y42593D01*
X33099Y41981D01*
X33312Y41839D01*
Y40775D01*
X33312Y40775D01*
X33397Y40346D01*
X33640Y39982D01*
X36693Y36928D01*
Y19334D01*
X36550Y19216D01*
X35693Y18891D01*
X35338Y19128D01*
X34616Y19272D01*
X33894Y19128D01*
X33282Y18720D01*
X33141Y18507D01*
X16768D01*
X16768Y18507D01*
X16339Y18422D01*
X15975Y18179D01*
X15975Y18179D01*
X7580Y9784D01*
X7337Y9420D01*
X7252Y8991D01*
X7252Y8991D01*
Y5246D01*
X5123D01*
Y5246D01*
X4380D01*
Y5246D01*
X236D01*
Y70581D01*
X4382D01*
Y70581D01*
X5126D01*
Y70581D01*
X9476D01*
Y70581D01*
X10220D01*
Y70581D01*
X14569D01*
Y70581D01*
X15313D01*
Y70581D01*
X19663D01*
Y70581D01*
X20407D01*
Y70581D01*
X24756D01*
Y70581D01*
X25500D01*
Y70581D01*
X29850D01*
Y75101D01*
X29893Y75315D01*
X29896Y75319D01*
X35642D01*
X35645Y75315D01*
D02*
G37*
%LPC*%
G36*
X28480Y67689D02*
X27758Y67546D01*
X27147Y67137D01*
X26738Y66525D01*
X26594Y65803D01*
X26738Y65081D01*
X27147Y64469D01*
X27359Y64328D01*
Y59351D01*
X27359Y59350D01*
X27444Y58921D01*
X27687Y58557D01*
X32715Y53530D01*
X32665Y53280D01*
X32809Y52558D01*
X33217Y51946D01*
X33829Y51537D01*
X34551Y51393D01*
X35273Y51537D01*
X35885Y51946D01*
X36294Y52558D01*
X36437Y53280D01*
X36294Y54001D01*
X35885Y54613D01*
X35273Y55022D01*
X34551Y55166D01*
X34301Y55116D01*
X29602Y59815D01*
Y64328D01*
X29814Y64469D01*
X30223Y65081D01*
X30367Y65803D01*
X30223Y66525D01*
X29814Y67137D01*
X29202Y67546D01*
X28480Y67689D01*
D02*
G37*
G36*
X5256Y68678D02*
X4534Y68534D01*
X3922Y68125D01*
X3513Y67513D01*
X3370Y66791D01*
X3513Y66070D01*
X3922Y65458D01*
X4134Y65316D01*
Y65201D01*
X4134Y65201D01*
X4220Y64772D01*
X4463Y64408D01*
X10316Y58555D01*
Y32082D01*
X10103Y31940D01*
X9694Y31328D01*
X9551Y30606D01*
X9694Y29884D01*
X10103Y29272D01*
X10715Y28864D01*
X11437Y28720D01*
X12159Y28864D01*
X12771Y29272D01*
X13180Y29884D01*
X13323Y30606D01*
X13180Y31328D01*
X12771Y31940D01*
X12559Y32082D01*
Y59020D01*
X12473Y59449D01*
X12230Y59813D01*
X12230Y59813D01*
X6589Y65453D01*
X6590Y65458D01*
X6999Y66070D01*
X7142Y66791D01*
X6999Y67513D01*
X6590Y68125D01*
X5978Y68534D01*
X5256Y68678D01*
D02*
G37*
G36*
X24949Y37036D02*
X24227Y36892D01*
X23615Y36483D01*
X23206Y35871D01*
X23063Y35150D01*
X23206Y34428D01*
X23615Y33816D01*
X24227Y33407D01*
X24949Y33263D01*
X25671Y33407D01*
X26283Y33816D01*
X27255Y33470D01*
X30732Y29993D01*
X30725Y29923D01*
X30316Y29311D01*
X30173Y28589D01*
X30316Y27867D01*
X30725Y27255D01*
X31337Y26846D01*
X32059Y26703D01*
X32781Y26846D01*
X33393Y27255D01*
X33802Y27867D01*
X33945Y28589D01*
X33802Y29311D01*
X33393Y29923D01*
X33181Y30064D01*
Y30252D01*
X33181Y30252D01*
X33095Y30681D01*
X32852Y31045D01*
X32852Y31045D01*
X27955Y35943D01*
X27591Y36186D01*
X27161Y36271D01*
X27161Y36271D01*
X26424D01*
X26283Y36483D01*
X25671Y36892D01*
X24949Y37036D01*
D02*
G37*
%LPD*%
D12*
X17485Y512D02*
Y7609D01*
X15748Y9347D02*
X17485Y7609D01*
X12392Y9636D02*
X15689Y12933D01*
X33634D01*
X8373Y8991D02*
X16768Y17386D01*
X12392Y512D02*
Y9636D01*
X8373Y4146D02*
Y8991D01*
X16768Y17386D02*
X34616D01*
X11437Y30606D02*
Y59020D01*
X5256Y65201D02*
X11437Y59020D01*
X5256Y65201D02*
Y66791D01*
X32776Y62177D02*
Y75308D01*
X32000Y61402D02*
X32776Y62177D01*
X28480Y59350D02*
X34551Y53280D01*
X28480Y59350D02*
Y65803D01*
X32769Y75315D02*
X32776Y75308D01*
X33634Y12933D02*
X34772D01*
X37815Y15976D01*
Y37393D01*
X24949Y35150D02*
X27161D01*
X32059Y30252D01*
Y28589D02*
Y30252D01*
X34433Y40775D02*
X37815Y37393D01*
X34433Y40775D02*
Y43315D01*
X7298Y512D02*
Y3071D01*
X8373Y4146D01*
D23*
X15748Y9347D02*
D03*
X5256Y66791D02*
D03*
X32000Y61402D02*
D03*
X11437Y30606D02*
D03*
X33634Y12933D02*
D03*
X34616Y17386D02*
D03*
X24949Y35150D02*
D03*
X28480Y65803D02*
D03*
X32059Y28589D02*
D03*
X34551Y53280D02*
D03*
X34433Y43315D02*
D03*
D24*
X42956Y74134D02*
D03*
X37862D02*
D03*
X7301D02*
D03*
X12395D02*
D03*
X17488D02*
D03*
X22582D02*
D03*
X27675D02*
D03*
X32769D02*
D03*
X2208D02*
D03*
X2205Y1693D02*
D03*
X7298D02*
D03*
X37859D02*
D03*
X32766D02*
D03*
X27672D02*
D03*
X22579D02*
D03*
X17485D02*
D03*
X12392D02*
D03*
X42953D02*
D03*
M02*
