G04*
G04 #@! TF.GenerationSoftware,Altium Limited,Altium Designer,20.0.2 (26)*
G04*
G04 Layer_Color=16711935*
%FSLAX25Y25*%
%MOIN*%
G70*
G01*
G75*
%ADD23C,0.04737*%
%ADD24R,0.04737X0.04737*%
%ADD40R,0.03950X0.06706*%
D23*
X4189Y23354D02*
D03*
Y18354D02*
D03*
D24*
Y13354D02*
D03*
D40*
X98757Y1181D02*
D03*
X93662D02*
D03*
X103851D02*
D03*
X88568D02*
D03*
X58000D02*
D03*
X63095D02*
D03*
X68189D02*
D03*
X73284D02*
D03*
X78378D02*
D03*
X83473D02*
D03*
X52906D02*
D03*
X47811D02*
D03*
X42717D02*
D03*
X12156D02*
D03*
X17249D02*
D03*
X22343D02*
D03*
X27436D02*
D03*
X32530D02*
D03*
X37623D02*
D03*
X7062D02*
D03*
X1969D02*
D03*
X7063Y73622D02*
D03*
X12158D02*
D03*
X1969D02*
D03*
X17252D02*
D03*
X47820D02*
D03*
X42725D02*
D03*
X37630D02*
D03*
X32536D02*
D03*
X27441D02*
D03*
X22347D02*
D03*
X52914D02*
D03*
X58009D02*
D03*
X63103D02*
D03*
X93664D02*
D03*
X88571D02*
D03*
X83477D02*
D03*
X78384D02*
D03*
X73290D02*
D03*
X68197D02*
D03*
X98758D02*
D03*
X103851D02*
D03*
M02*
