G04*
G04 #@! TF.GenerationSoftware,Altium Limited,Altium Designer,20.0.2 (26)*
G04*
G04 Layer_Physical_Order=2*
G04 Layer_Color=16711680*
%FSLAX25Y25*%
%MOIN*%
G70*
G01*
G75*
%ADD11C,0.01000*%
%ADD35C,0.03937*%
%ADD36R,0.03937X0.03937*%
%ADD38C,0.02520*%
%ADD39R,0.03150X0.05906*%
D11*
X10913Y30078D02*
X25370D01*
X4189Y23354D02*
X10913Y30078D01*
X7114Y31941D02*
X11748D01*
X992Y25819D02*
X7114Y31941D01*
X992Y16551D02*
Y25819D01*
X39850Y65500D02*
X42250Y67900D01*
X53250Y56211D02*
Y64801D01*
X58776Y45286D02*
X59572Y46082D01*
X49506Y11795D02*
X56673Y18963D01*
X39819Y11795D02*
X49506D01*
X39764Y11850D02*
X39819Y11795D01*
X37378Y9772D02*
X55949D01*
X59033Y12856D01*
X3043Y-1075D02*
Y1756D01*
X1969Y4906D02*
X13180Y16117D01*
X7400Y7302D02*
X14615Y14517D01*
X16149Y12917D02*
X31837D01*
X12156Y8923D02*
X16149Y12917D01*
X17045Y10958D02*
X17404Y11317D01*
X7400Y1715D02*
Y7302D01*
X12156Y0D02*
Y8923D01*
X32414Y19236D02*
X32564Y19386D01*
X4189Y18354D02*
X13553Y27718D01*
X69658Y51920D02*
Y52205D01*
X54368Y25734D02*
Y26922D01*
X53007Y24373D02*
X54368Y25734D01*
X51197Y24373D02*
X53007D01*
X48785Y24223D02*
X50566Y26004D01*
X44364Y24223D02*
X48785D01*
X44359Y24219D02*
X44364Y24223D01*
X42404Y24219D02*
X44359D01*
X40740Y25883D02*
X42404Y24219D01*
X49448Y22623D02*
X51197Y24373D01*
X45026Y22623D02*
X49448D01*
X50111Y21023D02*
X51289Y22202D01*
X49090Y21023D02*
X50111D01*
X41737Y22324D02*
Y22623D01*
X41161Y21748D02*
X41737Y22324D01*
X45022Y22619D02*
X45026Y22623D01*
X41742Y22619D02*
X45022D01*
X41737Y22623D02*
X41742Y22619D01*
X69942Y51921D02*
Y51922D01*
Y51920D02*
Y51921D01*
X49282Y50711D02*
Y55021D01*
X50235Y47524D02*
Y49758D01*
X49282Y50711D02*
X50235Y49758D01*
X51642Y51689D02*
X51924D01*
X54238Y51049D02*
Y54330D01*
Y51049D02*
X54259Y51028D01*
Y49949D02*
Y51028D01*
X55838Y53667D02*
X57220Y55050D01*
X55838Y51712D02*
Y53667D01*
Y51712D02*
X55859Y51691D01*
Y48627D02*
Y51691D01*
X57977Y52690D02*
X58198D01*
X60558Y52469D02*
X62713Y50314D01*
X60558Y52469D02*
Y53667D01*
X59175Y55050D02*
X60558Y53667D01*
X57220Y55050D02*
X59175D01*
X52812Y48501D02*
X54259Y49949D01*
X54955Y47723D02*
X55859Y48627D01*
X47875Y46847D02*
Y49855D01*
X47682Y50049D02*
X47875Y49855D01*
X47059Y44487D02*
X48722Y42824D01*
X41450Y57850D02*
X45515Y53785D01*
Y45869D02*
Y53785D01*
X58009Y59081D02*
X64114Y52975D01*
X69429Y43634D02*
X69503D01*
X69824Y43313D01*
X71779D01*
X71829Y43362D01*
X72186Y43004D01*
X70802Y45673D02*
X70872D01*
X69942Y51920D02*
X69943Y51920D01*
X69942Y51922D02*
Y51996D01*
Y51922D02*
X69943Y51921D01*
X71746Y53850D02*
X72500D01*
X70920Y54675D02*
X71746Y53850D01*
X70525Y54675D02*
X70920D01*
X70000Y55200D02*
X70525Y54675D01*
X72500Y47300D02*
Y53850D01*
X69683Y51659D02*
X69943Y51920D01*
X69942Y51921D02*
X69943Y51921D01*
X66822Y52938D02*
Y54828D01*
X63690Y52674D02*
X63789D01*
X62713Y50314D02*
X69658D01*
X62050Y48714D02*
X66199D01*
X58158Y52606D02*
X62050Y48714D01*
X54259Y54351D02*
Y54958D01*
X54238Y54330D02*
X54259Y54351D01*
X63635Y46354D02*
Y46546D01*
X63023Y40878D02*
Y41634D01*
X62290Y36490D02*
X65350Y39550D01*
X67154Y1036D02*
Y38016D01*
X67710Y38572D01*
Y42461D01*
X69634Y38035D02*
X70555Y38957D01*
X69634Y9713D02*
Y38035D01*
X57650Y40450D02*
Y41550D01*
X55110Y38090D02*
X60490D01*
X52714Y36490D02*
X62290D01*
X58410Y34890D02*
X65293Y28007D01*
X52052Y34890D02*
X58410D01*
X49832Y37110D02*
X52052Y34890D01*
X66746Y43424D02*
Y48167D01*
X66199Y48714D02*
X66746Y48167D01*
X58915Y46082D02*
X59572D01*
X54959Y43356D02*
Y44434D01*
X48639Y42800D02*
X48699D01*
X42823Y43198D02*
X43919D01*
X39266Y44492D02*
X42920Y40838D01*
X39106Y42390D02*
X42257Y39238D01*
X52595Y48501D02*
X52812D01*
X50235Y47524D02*
X51618Y46142D01*
X45515Y45869D02*
X46898Y44487D01*
X54959Y44434D02*
X56555Y46030D01*
Y47060D01*
X57937Y48442D01*
X53734Y46142D02*
X54955Y47362D01*
Y47723D01*
X69942Y51921D02*
X69943Y51920D01*
X63023Y40878D02*
X63150Y40750D01*
X57937Y48442D02*
X60059D01*
X46898Y44487D02*
X47059D01*
X48699Y42800D02*
X48722Y42824D01*
X13232Y71169D02*
Y75878D01*
X38193Y47828D02*
X42823Y43198D01*
X25122Y47828D02*
X38193D01*
X52760Y40440D02*
X54223Y38977D01*
X59572Y46082D02*
X59579Y46090D01*
X58776Y42676D02*
Y45286D01*
X57650Y41550D02*
X58776Y42676D01*
X57894Y52606D02*
X58158D01*
X42920Y40838D02*
X44712D01*
X42257Y39238D02*
X44049D01*
X60059Y48442D02*
X61387Y47114D01*
X51618Y46142D02*
X53734D01*
X61387Y47114D02*
X63067D01*
X44049Y39238D02*
X44578Y38710D01*
X63789Y52674D02*
X63801Y52686D01*
X63813Y52674D01*
X44712Y40838D02*
X45110Y40440D01*
X63067Y47114D02*
X63635Y46546D01*
X69658Y50314D02*
X69658Y51920D01*
X69943Y50345D02*
Y51920D01*
X43100Y36775D02*
Y36850D01*
X36807Y39949D02*
X40740Y36016D01*
Y25883D02*
Y36016D01*
X68442Y46973D02*
X69429Y47960D01*
X68442Y46579D02*
Y46973D01*
X68440Y46578D02*
X68442Y46579D01*
X68440Y44622D02*
Y46578D01*
Y44622D02*
X69429Y43634D01*
X72186Y43004D02*
X74400Y45218D01*
X72186Y43004D02*
X74630Y40561D01*
X69429Y47960D02*
Y49831D01*
X70872Y45673D02*
X72500Y47300D01*
X69429Y49831D02*
X69943Y50345D01*
X66746Y43424D02*
X67710Y42461D01*
X63813Y52674D02*
X64114Y52975D01*
X90225Y7732D02*
X90482Y7990D01*
X28652Y30766D02*
X40462Y18955D01*
X30784Y8914D02*
Y8935D01*
X30764Y8956D02*
X30784Y8935D01*
X30764Y8956D02*
X31174Y9366D01*
X24756Y6100D02*
X35087D01*
X41752Y16650D02*
X41807Y16596D01*
X39546Y16650D02*
X41752D01*
X39320Y16876D02*
X39546Y16650D01*
X31270Y16876D02*
X39320D01*
X41090Y15050D02*
X41144Y14996D01*
X38883Y15050D02*
X41090D01*
X38657Y15276D02*
X38883Y15050D01*
X31933Y15276D02*
X38657D01*
X32369Y13450D02*
X40427D01*
X31837Y12917D02*
X32369Y13450D01*
X40427D02*
X40481Y13396D01*
X32499Y11317D02*
X33032Y11850D01*
X39764D01*
X36400Y7050D02*
X38355D01*
X35750Y7700D02*
X36400Y7050D01*
X32840Y7700D02*
X35750D01*
X35738Y5450D02*
X39018D01*
X35087Y6100D02*
X35738Y5450D01*
X38355Y7050D02*
X39006Y7700D01*
X39669Y6100D02*
X55987D01*
X39018Y5450D02*
X39669Y6100D01*
X37378Y9409D02*
Y9772D01*
X40481Y13396D02*
X48843D01*
X41144Y14996D02*
X46258D01*
X41807Y16596D02*
X44662D01*
X40462Y18955D02*
X42785D01*
X39006Y7700D02*
X56650D01*
X43500Y36375D02*
X44235Y37110D01*
X23338Y39949D02*
X36807D01*
X17837Y45450D02*
X23338Y39949D01*
X23160Y42390D02*
X39106D01*
X3043Y62507D02*
X23160Y42390D01*
X24958Y44492D02*
X39266D01*
X6900Y62550D02*
X24958Y44492D01*
X47185Y26583D02*
Y27285D01*
X51478Y22013D02*
X52378D01*
X51289Y22202D02*
X51478Y22013D01*
X43272Y26689D02*
X43382Y26579D01*
X48843Y13396D02*
X55073Y19626D01*
X46258Y14996D02*
X49975Y18713D01*
X26561Y27931D02*
X28517D01*
X26347Y27718D02*
X26561Y27931D01*
X13553Y27718D02*
X26347D01*
X44172Y34554D02*
X45216D01*
X44235Y37110D02*
X49832D01*
X45110Y40440D02*
X52760D01*
X32653Y19236D02*
Y19297D01*
X32414Y19236D02*
X32653D01*
X30511Y16117D02*
X31270Y16876D01*
X31174Y14517D02*
X31933Y15276D01*
X17404Y11317D02*
X32499D01*
X50028Y18660D02*
X50235D01*
X49975Y18713D02*
X50028Y18660D01*
X44662Y16596D02*
X49090Y21023D01*
X43272Y33654D02*
X44172Y34554D01*
X69634Y9713D02*
X73284Y6062D01*
X72155Y30817D02*
X72173Y30835D01*
X78720Y21283D02*
Y55764D01*
X78135Y20697D02*
X78720Y21283D01*
X73433Y20697D02*
X78135D01*
X72155Y21975D02*
X73433Y20697D01*
X72155Y21975D02*
Y30817D01*
X80968Y58012D02*
X86055D01*
X78720Y55764D02*
X80968Y58012D01*
X55000Y31213D02*
X55046Y31258D01*
Y32005D01*
X50566Y26733D02*
Y27413D01*
Y26004D02*
Y26733D01*
X47185Y27285D02*
X47366Y27466D01*
X43272Y26689D02*
Y33654D01*
X43100Y36775D02*
X43500Y36375D01*
X47366Y27301D02*
Y27466D01*
Y32559D01*
X48850Y34043D02*
Y34750D01*
X44578Y38710D02*
X50495D01*
X16431Y45450D02*
X17837D01*
X32564Y19386D02*
X32653Y19297D01*
X31986Y19964D02*
Y24463D01*
X28517Y27931D02*
X31986Y24463D01*
X29243Y18768D02*
X29533Y18477D01*
X26744Y22362D02*
X29243Y19864D01*
Y18768D02*
Y19864D01*
X14615Y14517D02*
X31174D01*
X13180Y16117D02*
X30511D01*
X24756Y6100D02*
X24829Y6173D01*
X19917D02*
X24829D01*
X16405Y25571D02*
X27541D01*
X4189Y13354D02*
X16405Y25571D01*
X31986Y19964D02*
X32564Y19386D01*
X31950Y20000D02*
X31986Y19964D01*
X992Y16551D02*
X4189Y13354D01*
X1969Y2559D02*
Y4906D01*
X73284Y0D02*
Y6062D01*
X52914Y69618D02*
Y74803D01*
Y69618D02*
X54860Y67672D01*
Y55558D02*
Y67672D01*
X47820Y70232D02*
X53250Y64801D01*
X47820Y70232D02*
Y74803D01*
X102777Y3634D02*
Y6546D01*
X101432Y7891D02*
X102777Y6546D01*
X101432Y7891D02*
Y15551D01*
X27847Y59319D02*
Y60248D01*
Y59319D02*
X33193Y53972D01*
X33256Y54035D02*
X40653D01*
X33193Y53972D02*
X33256Y54035D01*
X42113Y59450D02*
X47584Y53979D01*
X57270Y7080D02*
X58766D01*
X56650Y7700D02*
X57270Y7080D01*
X56925Y3634D02*
Y5162D01*
X55987Y6100D02*
X56925Y5162D01*
X17045Y204D02*
Y10958D01*
Y204D02*
X17249Y0D01*
X58000D02*
Y2559D01*
X56925Y3634D02*
X58000Y2559D01*
X31174Y9366D02*
X32840Y7700D01*
X17252Y59298D02*
Y74803D01*
X12050Y60900D02*
X25122Y47828D01*
X17252Y59298D02*
X27122Y49428D01*
X40782D01*
X42146Y48064D01*
X31222Y51028D02*
X42803D01*
X42146Y47213D02*
Y48064D01*
X43236Y61590D02*
X44193Y62547D01*
X38873Y61590D02*
X43236D01*
X44193Y62547D02*
Y64984D01*
Y60110D02*
Y62547D01*
Y60110D02*
X49282Y55021D01*
X26550Y55700D02*
X31222Y51028D01*
X63095Y4695D02*
X65293Y6893D01*
Y28007D01*
X62933Y8535D02*
Y23910D01*
X62252Y7854D02*
X62933Y8535D01*
X59033Y12856D02*
Y20590D01*
X56673Y21568D02*
X58650Y23545D01*
Y30900D01*
X56673Y18963D02*
Y21568D01*
X55073Y19626D02*
Y22574D01*
X57050Y24550D01*
Y29163D01*
X51924Y51689D02*
X52334Y52099D01*
Y55295D01*
X90583Y7732D02*
X91823Y7732D01*
X93662Y5893D01*
X90225Y7732D02*
X90583D01*
X55000Y31213D02*
X57050Y29163D01*
X47366Y32559D02*
X48850Y34043D01*
X65750Y55900D02*
X66822Y54828D01*
X32872Y67590D02*
X38873Y61590D01*
X30807Y67590D02*
X32872D01*
X35013Y59450D02*
X42113D01*
X27441Y67021D02*
X35013Y59450D01*
X27441Y67021D02*
Y74803D01*
X47584Y50146D02*
Y53979D01*
X54259Y54958D02*
X54860Y55558D01*
X52334Y55295D02*
X53250Y56211D01*
X51924Y51689D02*
X52061D01*
X52587Y48500D02*
X52589Y48501D01*
X50495Y38710D02*
X51304Y37900D01*
X42250Y67900D02*
Y74328D01*
X63103Y58547D02*
X65750Y55900D01*
X57894Y52606D02*
X57977Y52690D01*
X11748Y31941D02*
X17658Y37850D01*
X67154Y1036D02*
X68189Y0D01*
X74630Y24650D02*
Y40561D01*
X84193Y6890D02*
X84484Y6599D01*
X85495D01*
X85539Y6555D01*
X86862D01*
X80051Y7694D02*
X83473Y4272D01*
Y0D02*
Y4272D01*
X80051Y7694D02*
Y10934D01*
X86862Y10937D02*
X87980Y12055D01*
X86862Y6555D02*
Y10937D01*
Y6555D02*
X88369Y5048D01*
X83473Y48323D02*
X85850Y50700D01*
X83473Y14356D02*
Y48323D01*
X80051Y10934D02*
X83473Y14356D01*
X81873Y15019D02*
Y54273D01*
X78378Y11524D02*
X81873Y15019D01*
X78378Y0D02*
Y11524D01*
X93662Y0D02*
Y5893D01*
X89339Y33642D02*
X95492Y39795D01*
X89339Y31559D02*
Y33642D01*
Y31559D02*
X97858Y23039D01*
Y12055D02*
Y23039D01*
X87980Y12055D02*
X97858D01*
X88179Y44900D02*
X90618Y47339D01*
X87800Y44900D02*
X88179D01*
X90618Y47339D02*
X94492D01*
X102748Y39083D01*
Y16868D02*
Y39083D01*
X101432Y15551D02*
X102748Y16868D01*
X88369Y198D02*
X88568Y0D01*
X88369Y198D02*
Y5048D01*
X85850Y50700D02*
Y53350D01*
X81873Y54273D02*
X82050Y54450D01*
X70000Y55200D02*
Y64850D01*
X68197Y66653D02*
Y74803D01*
Y66653D02*
X70000Y64850D01*
X51304Y37900D02*
X52714Y36490D01*
X54223Y38977D02*
X55110Y38090D01*
X60490D02*
X63150Y40750D01*
X34350Y57850D02*
X41450D01*
X39850Y63950D02*
Y65500D01*
X58009Y59081D02*
Y74803D01*
X12158D02*
X13232Y75878D01*
X12050Y74696D02*
X12158Y74803D01*
X12050Y60900D02*
Y74696D01*
X6900Y62550D02*
Y71006D01*
X3043Y62507D02*
Y71169D01*
X63095Y0D02*
Y4695D01*
X2104Y2695D02*
X3043Y1756D01*
X2104Y2695D02*
Y2695D01*
X7062Y1377D02*
X7400Y1715D01*
X7062Y1377D02*
Y2559D01*
Y0D02*
Y1377D01*
X1969Y2559D02*
X2104Y2695D01*
X1969Y0D02*
Y2559D01*
Y0D02*
X3043Y-1075D01*
X98757Y0D02*
Y4343D01*
X96550Y6550D02*
X98757Y4343D01*
X103851Y0D02*
Y2559D01*
X102777Y3634D02*
X103851Y2559D01*
X22347Y74803D02*
X22445Y74705D01*
Y69755D02*
Y74705D01*
Y69755D02*
X34350Y57850D01*
X12158Y72244D02*
Y74803D01*
Y72244D02*
X13232Y71169D01*
X42250Y74328D02*
X42725Y74803D01*
X63103Y58547D02*
Y74803D01*
X7600Y71707D02*
X8138Y71169D01*
X7600Y71707D02*
Y71707D01*
X6900Y71006D02*
X7600Y71707D01*
X7063Y72244D02*
Y74803D01*
X8138Y71169D02*
Y73728D01*
X7063Y74803D02*
X8138Y73728D01*
Y71169D02*
Y71169D01*
X8138Y71169D01*
X7332Y71975D02*
X7600Y71707D01*
X7063Y72244D02*
X7600Y71707D01*
X8138Y71169D02*
X8138D01*
X1969Y72244D02*
Y74803D01*
Y72244D02*
X3043Y71169D01*
D35*
X4189Y23354D02*
D03*
Y18354D02*
D03*
D36*
Y13354D02*
D03*
D38*
X51642Y51689D02*
D03*
X58198Y52690D02*
D03*
X70802Y45673D02*
D03*
X69942Y51996D02*
D03*
X72500Y53850D02*
D03*
X66822Y52938D02*
D03*
X63690Y52674D02*
D03*
X63635Y46354D02*
D03*
X63023Y41634D02*
D03*
X65350Y39550D02*
D03*
X57650Y40450D02*
D03*
X58915Y46082D02*
D03*
X54959Y43356D02*
D03*
X48639Y42800D02*
D03*
X43919Y43198D02*
D03*
X52595Y48501D02*
D03*
X47875Y46847D02*
D03*
X43100Y36850D02*
D03*
X74400Y45218D02*
D03*
X30784Y8914D02*
D03*
X37378Y9409D02*
D03*
X42785Y18955D02*
D03*
X47185Y26583D02*
D03*
X52378Y22013D02*
D03*
X43382Y26579D02*
D03*
X28606Y30720D02*
D03*
X25370Y30078D02*
D03*
X41161Y21748D02*
D03*
X45216Y34554D02*
D03*
X32653Y19236D02*
D03*
X50235Y18660D02*
D03*
X72173Y30835D02*
D03*
X86055Y58012D02*
D03*
X55046Y32005D02*
D03*
X50566Y26733D02*
D03*
X48850Y34750D02*
D03*
X70555Y38957D02*
D03*
X29533Y18477D02*
D03*
X26744Y22362D02*
D03*
X19917Y6173D02*
D03*
X27541Y25571D02*
D03*
X27847Y60248D02*
D03*
X40653Y54035D02*
D03*
X58766Y7080D02*
D03*
X42803Y51028D02*
D03*
X42146Y47213D02*
D03*
X26550Y55700D02*
D03*
X62933Y23910D02*
D03*
X54368Y26922D02*
D03*
X59033Y20590D02*
D03*
X62252Y7854D02*
D03*
X90583Y7732D02*
D03*
X30807Y67590D02*
D03*
X44193Y64984D02*
D03*
X17658Y37850D02*
D03*
X74630Y24650D02*
D03*
X84193Y6890D02*
D03*
X89339Y31559D02*
D03*
X95492Y39795D02*
D03*
X97858Y12055D02*
D03*
X87800Y44900D02*
D03*
X85850Y53350D02*
D03*
X82050Y54450D02*
D03*
X16431Y45450D02*
D03*
X58650Y30900D02*
D03*
X39850Y63950D02*
D03*
X96550Y6550D02*
D03*
D39*
X98757Y1181D02*
D03*
X93662D02*
D03*
X103851D02*
D03*
X88568D02*
D03*
X58000D02*
D03*
X63095D02*
D03*
X68189D02*
D03*
X73284D02*
D03*
X78378D02*
D03*
X83473D02*
D03*
X52906D02*
D03*
X47811D02*
D03*
X42717D02*
D03*
X12156D02*
D03*
X17249D02*
D03*
X22343D02*
D03*
X27436D02*
D03*
X32530D02*
D03*
X37623D02*
D03*
X7062D02*
D03*
X1969D02*
D03*
X7063Y73622D02*
D03*
X12158D02*
D03*
X1969D02*
D03*
X17252D02*
D03*
X47820D02*
D03*
X42725D02*
D03*
X37630D02*
D03*
X32536D02*
D03*
X27441D02*
D03*
X22347D02*
D03*
X52914D02*
D03*
X58009D02*
D03*
X63103D02*
D03*
X93664D02*
D03*
X88571D02*
D03*
X83477D02*
D03*
X78384D02*
D03*
X73290D02*
D03*
X68197D02*
D03*
X98758D02*
D03*
X103851D02*
D03*
M02*
