G04*
G04 #@! TF.GenerationSoftware,Altium Limited,Altium Designer,20.0.2 (26)*
G04*
G04 Layer_Physical_Order=1*
G04 Layer_Color=255*
%FSLAX25Y25*%
%MOIN*%
G70*
G01*
G75*
%ADD11C,0.01000*%
%ADD26R,0.03347X0.03347*%
%ADD27R,0.03347X0.03347*%
%ADD28R,0.05118X0.02362*%
%ADD29R,0.04272X0.02165*%
%ADD30R,0.03583X0.04803*%
%ADD31R,0.03937X0.07087*%
%ADD32R,0.04724X0.05512*%
%ADD33R,0.05807X0.01181*%
%ADD34R,0.01181X0.05807*%
%ADD35C,0.03937*%
%ADD36R,0.03937X0.03937*%
%ADD37R,0.03150X0.05512*%
%ADD38C,0.02520*%
D11*
X27087Y28361D02*
X28164D01*
X25370Y30078D02*
X27087Y28361D01*
X29001Y62447D02*
X36556Y70002D01*
Y73728D01*
X58752Y20310D02*
X61199Y17863D01*
X37623Y0D02*
Y9527D01*
X34827Y12323D02*
X37623Y9527D01*
X50220Y13950D02*
Y18713D01*
X54943Y32005D02*
X55290Y32351D01*
X40655Y14709D02*
X42436D01*
X69182Y52418D02*
X69943Y51657D01*
X23492Y19772D02*
X23756D01*
X48847Y54496D02*
X50220Y55869D01*
X51642Y51689D02*
X52198D01*
X51642D02*
X52469Y50861D01*
X53478Y54110D02*
X55534Y52053D01*
X50723Y54110D02*
X53478D01*
X58198Y52690D02*
Y53396D01*
X60594Y52915D02*
X62716Y55037D01*
X60594Y51749D02*
Y52915D01*
X59175Y50330D02*
X60594Y51749D01*
X62194Y51178D02*
X63690Y52674D01*
X62194Y48737D02*
Y51178D01*
X47641Y51028D02*
X50723Y54110D01*
X55534Y52015D02*
Y52053D01*
X57894Y53700D02*
X58198Y53396D01*
X59158Y50330D02*
X59175D01*
X61275Y47818D02*
X62194Y48737D01*
X45257Y33746D02*
X45730Y34220D01*
X43521Y24988D02*
Y27042D01*
X64923Y43994D02*
X68962Y48032D01*
X62657Y43994D02*
X64923D01*
X69434Y35466D02*
X79791D01*
X66889Y33497D02*
X79791D01*
X60663Y39723D02*
X66889Y33497D01*
X60663Y39723D02*
Y41159D01*
X70893Y48036D02*
X74919D01*
X75678Y47277D01*
X66353Y49632D02*
X70227D01*
X63451Y46730D02*
X66353Y49632D01*
X74186Y49636D02*
X74860Y50310D01*
X70231Y49636D02*
X74186D01*
X70890Y48032D02*
X70893Y48036D01*
X68962Y48032D02*
X70890D01*
X70227Y49632D02*
X70231Y49636D01*
X70802Y44702D02*
Y45673D01*
X69942Y51922D02*
Y51996D01*
Y51922D02*
X69943Y51921D01*
X71800Y53850D02*
X72500D01*
X74860Y50310D02*
Y56145D01*
X69942Y51921D02*
X69943Y51921D01*
X66239Y52938D02*
X66822D01*
X64090Y55543D02*
Y59041D01*
X63584Y55037D02*
X64090Y55543D01*
X62716Y55037D02*
X63584D01*
X63256Y52674D02*
X63690D01*
X55534Y52015D02*
X57272Y50276D01*
X63635Y46354D02*
Y46546D01*
X61275Y45377D02*
X62657Y43994D01*
X63023Y41634D02*
Y41853D01*
X65350Y39550D02*
X69434Y35466D01*
X58099Y43722D02*
X60663Y41159D01*
X57650Y32246D02*
Y40450D01*
X55290Y32351D02*
Y42116D01*
X53690Y33986D02*
Y41287D01*
X52599Y42378D02*
X53690Y41287D01*
X50999Y41715D02*
X52050Y40665D01*
Y34613D02*
Y40665D01*
X68110Y54988D02*
X69182Y53915D01*
X68110Y54988D02*
Y58958D01*
X61275Y45377D02*
Y47818D01*
X58915Y46082D02*
Y50086D01*
X57272Y47777D02*
Y50276D01*
X56555Y47060D02*
X57272Y47777D01*
X56555Y45105D02*
Y47060D01*
Y45105D02*
X57937Y43722D01*
X54959Y42447D02*
Y43356D01*
X52599Y42378D02*
Y44333D01*
X50999Y41715D02*
Y44996D01*
X48639Y42800D02*
X48722D01*
X46279Y43778D02*
X47662Y45160D01*
X46279Y41823D02*
Y43778D01*
Y41823D02*
X46990Y41112D01*
Y36240D02*
Y41112D01*
X43919Y43198D02*
X44252D01*
X42146Y44762D02*
Y47213D01*
X41559Y44176D02*
X42146Y44762D01*
X41559Y44109D02*
Y44176D01*
X38821Y41371D02*
X41559Y44109D01*
X41153Y39403D02*
X44600Y42850D01*
X44252Y43198D02*
X44600Y42850D01*
X52682Y45089D02*
X54955Y47362D01*
Y47723D01*
X55672Y48439D01*
Y49479D01*
X54290Y50861D02*
X55672Y49479D01*
X52595Y48340D02*
Y48501D01*
X47875Y45648D02*
Y46847D01*
X75678Y47277D02*
X79791D01*
X70086Y55564D02*
X71800Y53850D01*
X70086Y55564D02*
Y58950D01*
X69942Y51921D02*
X69943Y51920D01*
X63023Y41853D02*
X63310Y42140D01*
X47875Y45648D02*
X48037Y45487D01*
X51082Y46827D02*
X52595Y48340D01*
X47710Y45160D02*
X48037Y45487D01*
X47662Y45160D02*
X47710D01*
X48722Y42800D02*
X48850Y42672D01*
X51082Y45752D02*
Y46827D01*
Y45079D02*
Y45752D01*
X50999Y44996D02*
X51082Y45079D01*
X52599Y44333D02*
X52682Y44416D01*
Y45089D01*
X57937Y43722D02*
X58099D01*
X58915Y50086D02*
X59158Y50330D01*
X54959Y42447D02*
X55290Y42116D01*
X48850Y34750D02*
Y42672D01*
X66141Y53035D02*
Y58957D01*
Y53035D02*
X66239Y52938D01*
X52469Y50861D02*
X54290D01*
X69182Y52418D02*
Y53915D01*
X60153Y55959D02*
Y59041D01*
X57894Y53700D02*
X60153Y55959D01*
X69943Y51657D02*
Y51920D01*
X43100Y36700D02*
Y36850D01*
X74400Y45218D02*
X79700D01*
X75378Y42858D02*
X75859Y43340D01*
X79791D01*
X63451Y46730D02*
X63635Y46546D01*
X70800Y44700D02*
X70802Y44702D01*
X63059Y52871D02*
X63256Y52674D01*
X89659Y5319D02*
X95319D01*
X88223Y6755D02*
X89659Y5319D01*
X88223Y6755D02*
Y6761D01*
X85735Y9250D02*
X88223Y6761D01*
X83215Y9250D02*
X85735D01*
X87623Y10850D02*
X90583Y7890D01*
X82553Y10850D02*
X87623D01*
X42572Y18955D02*
X43521Y19905D01*
X98758Y66904D02*
Y74803D01*
X89866Y58012D02*
X98758Y66904D01*
X86055Y58012D02*
X89866D01*
X103851Y67866D02*
Y74803D01*
X83794Y47809D02*
X103851Y67866D01*
X23492Y13445D02*
X28023Y8914D01*
X30784D01*
X30826Y8956D01*
X32530Y0D02*
Y7252D01*
X30826Y8956D02*
X32530Y7252D01*
X42572Y18955D02*
X42785D01*
X45121Y19956D02*
Y23388D01*
Y19956D02*
X46058Y19019D01*
X41364Y36325D02*
X43475D01*
X40783Y35744D02*
X41364Y36325D01*
X37855Y35744D02*
X40783D01*
X34609Y39403D02*
X41153D01*
X47185Y24933D02*
Y26583D01*
X46208Y28943D02*
X49093D01*
X45970Y28705D02*
X46208Y28943D01*
X44593Y28705D02*
X45970D01*
X46582Y30546D02*
X46630Y30594D01*
X45497Y30546D02*
X46582D01*
X45919Y32146D02*
X45968Y32194D01*
X41086Y32146D02*
X45919D01*
X45121Y33882D02*
X45257Y33746D01*
X52378Y19908D02*
X52596Y19690D01*
X52378Y19908D02*
Y22013D01*
X34700Y31619D02*
X39058D01*
X40277Y30400D01*
X41603D01*
X41742Y30539D01*
X45490D01*
X45497Y30546D01*
X42404Y28939D02*
X44359D01*
X42108Y28642D02*
X42404Y28939D01*
X44359D02*
X44593Y28705D01*
X43382Y26579D02*
Y27015D01*
X40940Y32000D02*
X41086Y32146D01*
X45350Y34600D02*
X45730Y34220D01*
X45350Y34600D02*
X46990Y36240D01*
X39443Y33497D02*
X40940Y32000D01*
X34609Y33497D02*
X39443D01*
X43521Y19905D02*
Y22726D01*
X46058Y17902D02*
Y19019D01*
X27740Y32438D02*
X28606Y31571D01*
X23033Y31295D02*
X24176Y32438D01*
X27740D01*
X16414Y24676D02*
X23033Y31295D01*
X16414Y24676D02*
X16943Y24147D01*
X28164Y28361D02*
X30902Y25623D01*
X28606Y30720D02*
Y31571D01*
X41100Y21686D02*
X41161Y21748D01*
X45968Y32194D02*
X46194D01*
X45216Y33977D02*
Y34554D01*
X41913Y28642D02*
X42108D01*
X40697Y25550D02*
X43521Y22726D01*
Y24988D02*
X45121Y23388D01*
X40697Y27426D02*
X41913Y28642D01*
X46194Y32194D02*
X47819D01*
X46194Y32194D02*
X46194Y32194D01*
X43100Y36700D02*
X43475Y36325D01*
X40697Y25550D02*
Y27426D01*
X32653Y19236D02*
X35710D01*
X51667Y29701D02*
X52787D01*
X51059Y29093D02*
X51667Y29701D01*
X49243Y29093D02*
X51059D01*
X49093Y28943D02*
X49243Y29093D01*
X52787Y29701D02*
X53206Y29282D01*
X52595Y17734D02*
X52596Y17735D01*
X52595Y17682D02*
Y17734D01*
X52378Y17466D02*
X52595Y17682D01*
X52378Y16851D02*
Y17466D01*
X46058Y17902D02*
X46275Y17685D01*
Y17020D02*
Y17685D01*
Y17020D02*
X46276Y17018D01*
Y13956D02*
Y17018D01*
X47658Y18565D02*
X47875Y18348D01*
Y17682D02*
Y18348D01*
Y17682D02*
X48342Y17216D01*
Y13859D02*
Y17216D01*
X46856Y30594D02*
X48481D01*
X46856Y30594D02*
X46856Y30594D01*
X46630Y30594D02*
X46856D01*
X45121Y33882D02*
X45216Y33977D01*
X47819Y32194D02*
X48015Y32390D01*
X48481Y30594D02*
X48677Y30790D01*
X43382Y27015D02*
X43409Y27042D01*
X43521D01*
X59886Y28799D02*
X70138D01*
X59627Y28540D02*
X59886Y28799D01*
X56087Y28540D02*
X59627D01*
X55345Y29282D02*
X56087Y28540D01*
X53206Y29282D02*
X55345D01*
X70138Y28799D02*
X72173Y30835D01*
X48677Y30790D02*
X50494D01*
X53690Y33986D01*
X54943Y32005D02*
X55046D01*
X49828Y32390D02*
X52050Y34613D01*
X50566Y26733D02*
X50913D01*
X50931Y26750D01*
X47185Y24933D02*
X47813Y24305D01*
X46276Y13956D02*
X46373Y13859D01*
X52596Y17735D02*
Y19690D01*
X47813Y20675D02*
Y24305D01*
X47658Y20520D02*
X47813Y20675D01*
X71640Y37434D02*
X79791D01*
X70555Y38519D02*
X71640Y37434D01*
X63310Y42140D02*
X70709D01*
X71599Y41250D01*
X74137D01*
X70555Y38519D02*
Y38957D01*
X29533Y18477D02*
X30075D01*
X27722Y20002D02*
X29405Y21686D01*
X23723Y20002D02*
X27722D01*
X23492Y19772D02*
X23723Y20002D01*
X23756Y19772D02*
X28591Y14937D01*
X24650Y22362D02*
X26744D01*
X30075Y18477D02*
X31676Y16876D01*
X22063Y24949D02*
X24650Y22362D01*
X27941Y15709D02*
X28724Y14925D01*
X29405Y21686D02*
X34609D01*
X30902Y25623D02*
X34609D01*
X29456Y23655D02*
X34609D01*
X27541Y25571D02*
X29456Y23655D01*
X32876Y16876D02*
X34827Y14925D01*
X31676Y16876D02*
X32876D01*
X16943Y19547D02*
Y24147D01*
X34827Y12323D02*
Y14925D01*
X21711Y34498D02*
X27924Y40712D01*
X29524Y40049D02*
Y43624D01*
X22370Y32895D02*
X29524Y40049D01*
X11939Y34498D02*
X21711D01*
X22370Y32895D02*
Y32898D01*
X12602D02*
X22370D01*
X10757Y31054D02*
X12602Y32898D01*
X10757Y12231D02*
Y31054D01*
X9157Y31716D02*
X11939Y34498D01*
X9157Y11516D02*
Y31716D01*
X16943Y13445D02*
X23492D01*
X21983Y10133D02*
X27436Y4680D01*
X18277Y10133D02*
X21983D01*
X17551Y9407D02*
X18277Y10133D01*
X13581Y9407D02*
X17551D01*
X10757Y12231D02*
X13581Y9407D01*
X21320Y8533D02*
X23098Y6755D01*
X18940Y8533D02*
X21320D01*
X18214Y7807D02*
X18940Y8533D01*
X12866Y7807D02*
X18214D01*
X9157Y11516D02*
X12866Y7807D01*
X4189Y13354D02*
X11370Y6173D01*
X19917D01*
X27924Y40712D02*
Y44924D01*
X35710Y19236D02*
X35860Y19386D01*
X40596Y14650D01*
X96632Y41263D02*
X102400D01*
X29001Y60248D02*
Y62447D01*
Y54078D02*
Y60248D01*
X13173Y38000D02*
X17737D01*
X96949Y49394D02*
X97602Y48740D01*
X88344Y49394D02*
X96949D01*
X85394Y46444D02*
X88344Y49394D01*
X97602Y46100D02*
Y48740D01*
X77309Y71366D02*
Y75878D01*
X78384Y70041D02*
Y72441D01*
X76509Y68166D02*
X78384Y70041D01*
X39246Y68166D02*
X76509D01*
X32752Y61673D02*
X39246Y68166D01*
X38583Y69766D02*
X72116D01*
X30601Y61784D02*
X38583Y69766D01*
X72116D02*
X73290Y70940D01*
X83477Y68954D02*
Y74803D01*
X81090Y66566D02*
X83477Y68954D01*
X49516Y66566D02*
X81090D01*
X93127Y66706D02*
Y71904D01*
X89788Y63366D02*
X93127Y66706D01*
X58466Y63366D02*
X89788D01*
X88571Y69146D02*
Y72441D01*
X84391Y64966D02*
X88571Y69146D01*
X57266Y64966D02*
X84391D01*
X27847Y60248D02*
X29001D01*
X30601Y50172D02*
Y61784D01*
X38294Y62394D02*
X39850Y63950D01*
X38294Y53058D02*
Y62394D01*
Y53058D02*
X38642Y52710D01*
Y44291D02*
Y52710D01*
X41486Y54496D02*
X44991D01*
X59075Y1075D02*
Y4052D01*
X60335Y5312D02*
X61496D01*
X59075Y4052D02*
X60335Y5312D01*
X52906Y4818D02*
X58139Y10052D01*
X58766Y7080D02*
Y7706D01*
X60153Y9093D02*
Y13859D01*
X58766Y7706D02*
X60153Y9093D01*
X23098Y756D02*
Y6755D01*
X22343Y0D02*
X23098Y756D01*
X27436Y2362D02*
Y4680D01*
X42803Y51028D02*
X47641D01*
X44991Y54496D02*
X48847D01*
X37691Y43340D02*
X38642Y44291D01*
X32752Y51342D02*
X32807Y51287D01*
X31438Y49336D02*
X34519D01*
X30601Y50172D02*
X31438Y49336D01*
X32752Y51342D02*
Y61673D01*
X36556Y73728D02*
X37630Y74803D01*
X25151Y45200D02*
Y50228D01*
X29001Y54078D01*
X15799Y65900D02*
X23963Y57736D01*
X52906Y0D02*
Y4818D01*
X69995Y13859D02*
Y20753D01*
X66839Y23910D02*
X69995Y20753D01*
X62933Y23910D02*
X66839D01*
X54368Y26922D02*
X72357D01*
X74630Y24650D01*
X64090Y13859D02*
Y18871D01*
X53117Y24562D02*
X58399D01*
X64090Y18871D01*
X58752Y20310D02*
X59033Y20590D01*
X62121Y13859D02*
Y16941D01*
X61199Y17863D02*
X62121Y16941D01*
X51979Y25700D02*
X53117Y24562D01*
X61496Y5312D02*
X82615D01*
X61496D02*
Y7098D01*
X62252Y7854D01*
X90583Y7732D02*
Y7890D01*
X95319Y5319D02*
X96550Y6550D01*
X50931Y26750D02*
X51979Y25702D01*
X48015Y32390D02*
X49828D01*
X57650Y32246D02*
X58650Y31246D01*
X47658Y18565D02*
Y20520D01*
X69943Y51657D02*
X70246Y51354D01*
X51979Y25700D02*
Y25702D01*
X34609Y21686D02*
X41100D01*
X21901Y65900D02*
X23592Y67590D01*
X30807D01*
X50220Y55869D02*
Y58950D01*
X42436Y59041D02*
Y63227D01*
X44193Y64984D01*
X44405Y55082D02*
Y59041D01*
Y55082D02*
X44991Y54496D01*
X50220Y58950D02*
X50310Y59041D01*
X6878Y48094D02*
X8949Y46024D01*
X6878Y59854D02*
X10075Y63052D01*
X6878Y48094D02*
Y59854D01*
X8949Y42224D02*
Y46024D01*
Y42224D02*
X13173Y38000D01*
X16319Y51219D02*
X17000Y51900D01*
X14144Y51219D02*
X16319D01*
X8949Y46024D02*
X14144Y51219D01*
X74630Y18820D02*
Y24650D01*
Y18820D02*
X75677Y17773D01*
X75894Y39493D02*
X79700D01*
X74137Y41250D02*
X75894Y39493D01*
X80215Y8512D02*
X82553Y10850D01*
X68542Y8512D02*
X80215D01*
X67749Y9305D02*
X68542Y8512D01*
X67749Y9305D02*
Y10500D01*
X68130Y10882D01*
X80878Y6912D02*
X83215Y9250D01*
X67879Y6912D02*
X80878D01*
X66149Y8643D02*
X67879Y6912D01*
X66149Y8643D02*
Y13769D01*
X82615Y5312D02*
X84193Y6890D01*
X68130Y10882D02*
Y13756D01*
X68027Y13859D02*
X68130Y13756D01*
X56193Y10461D02*
X56216D01*
X53540Y7808D02*
X56193Y10461D01*
X50708Y7808D02*
X53540D01*
X54247Y10778D02*
Y13859D01*
X53325Y9856D02*
X54247Y10778D01*
X48156Y9856D02*
X53325D01*
X47811Y4911D02*
X50708Y7808D01*
X58000Y0D02*
X59075Y1075D01*
X56216Y10461D02*
Y13859D01*
X95550Y40574D02*
X97602Y42627D01*
X71964Y59041D02*
X74860Y56145D01*
X70800Y44700D02*
X72642Y42858D01*
X75378D01*
X75877Y17773D02*
X78286Y20181D01*
X73469Y15364D02*
X75877Y17773D01*
X75677D02*
X75877D01*
X79881Y49155D02*
X82877D01*
X79791Y49245D02*
X79881Y49155D01*
X82877D02*
X85850Y52127D01*
X79791Y45308D02*
X79836Y45353D01*
X82917D01*
X79836Y43385D02*
X79881Y43430D01*
X79791Y43340D02*
X79836Y43385D01*
X83211D01*
X82917Y45353D02*
X83794Y46231D01*
Y47809D01*
X87300Y44900D02*
X87800D01*
X86437Y44037D02*
X87300Y44900D01*
X85394Y45568D02*
Y46444D01*
X83211Y43385D02*
X85394Y45568D01*
X86433Y44037D02*
X86437D01*
X85788Y43392D02*
X86433Y44037D01*
X85788Y43388D02*
Y43392D01*
X83862Y41462D02*
X85788Y43388D01*
X79881Y41462D02*
X83862D01*
X85850Y52127D02*
Y53350D01*
X82050Y51449D02*
X82194Y51304D01*
X82050Y51449D02*
Y54450D01*
X79700Y45218D02*
X79791Y45308D01*
X68027Y59041D02*
X68110Y58958D01*
X69995Y59041D02*
X70086Y58950D01*
X71964Y13859D02*
Y15274D01*
X72054Y15364D01*
X73469D01*
X78286Y20181D02*
Y21596D01*
X78376Y21686D01*
X79791D01*
X16513Y45200D02*
X19049D01*
X16431Y45118D02*
X16513Y45200D01*
X13446Y45450D02*
X16431D01*
X13338Y45343D02*
X13446Y45450D01*
X16431Y45118D02*
Y45450D01*
X58650Y30900D02*
Y31246D01*
X37487Y35375D02*
X37855Y35744D01*
X87779Y18900D02*
Y21100D01*
Y14521D02*
Y18900D01*
X90150Y12150D02*
X91850D01*
X87779Y14521D02*
X90150Y12150D01*
X34609Y41371D02*
X38821D01*
X52188Y16661D02*
X52378Y16851D01*
X52188Y13950D02*
X52279Y13859D01*
X52188Y13950D02*
Y16661D01*
X50220Y13950D02*
X50310Y13859D01*
X58139Y10052D02*
Y13814D01*
X47811Y0D02*
Y4911D01*
X58139Y13814D02*
X58184Y13859D01*
X58094Y13769D02*
X58139Y13814D01*
X42717Y4417D02*
X48156Y9856D01*
X42717Y0D02*
Y4417D01*
X91500Y42824D02*
Y46100D01*
X89250Y40574D02*
X91500Y42824D01*
X79791Y41371D02*
X79881Y41462D01*
X66058Y13859D02*
X66149Y13769D01*
X34609Y43340D02*
X37691D01*
X46373Y63423D02*
X49516Y66566D01*
X46373Y59041D02*
Y63423D01*
X40596Y14650D02*
X40655Y14709D01*
X42436Y13859D02*
Y14709D01*
X24644Y55640D02*
X25268D01*
X84750Y35680D02*
X86994Y37925D01*
X84750Y32750D02*
Y35680D01*
X30277Y47277D02*
X34609D01*
X27924Y44924D02*
X30277Y47277D01*
X31208Y45308D02*
X34609D01*
X29524Y43624D02*
X31208Y45308D01*
X66058Y59041D02*
X66141Y58957D01*
X34609Y31529D02*
X34700Y31619D01*
X23963Y56321D02*
X24644Y55640D01*
X23963Y56321D02*
Y57736D01*
X25151Y45200D02*
X25450Y44901D01*
Y40500D02*
Y44901D01*
X17737Y38000D02*
X22950D01*
X25450Y40500D01*
X4362Y38501D02*
Y45343D01*
Y38501D02*
X4863Y38000D01*
X10075Y56949D02*
X12506Y59380D01*
X17000D01*
X9901Y52400D02*
Y56775D01*
X10075Y56949D01*
X3799Y52400D02*
X4362Y51837D01*
Y45343D02*
Y51837D01*
X3675Y52524D02*
Y56949D01*
Y52524D02*
X3799Y52400D01*
X8650Y68850D02*
X16666D01*
X17252Y69436D02*
Y74803D01*
X16666Y68850D02*
X17252Y69436D01*
X4848Y65048D02*
X8650Y68850D01*
X3675Y63052D02*
X4848Y64225D01*
Y65048D01*
X26361Y1287D02*
X27436Y2362D01*
X26361Y1287D02*
X26361Y3437D01*
X27436Y2362D01*
Y0D02*
Y2362D01*
X100550Y20552D02*
X102750Y18352D01*
X83438Y31438D02*
X84750Y32750D01*
X79881Y31438D02*
X83438D01*
X95550Y31126D02*
Y31519D01*
X92087Y27663D02*
X95550Y31126D01*
X86433Y27663D02*
X92087D01*
X84536Y29560D02*
X86433Y27663D01*
X79791Y29560D02*
X84536D01*
X87225Y23917D02*
X96153D01*
X83828Y27314D02*
X87225Y23917D01*
X80069Y27314D02*
X83828D01*
X82780Y25400D02*
X83479D01*
X79791Y27592D02*
X80069Y27314D01*
X79791Y31529D02*
X79881Y31438D01*
X89250Y39787D02*
Y40181D01*
X87388Y37925D02*
X89250Y39787D01*
X86994Y37925D02*
X87388D01*
X89250Y40181D02*
Y40574D01*
X97602Y42627D02*
Y46100D01*
X95550Y40181D02*
Y40574D01*
Y40181D02*
X96632Y41263D01*
X95550Y31519D02*
X95617Y31587D01*
X98826D01*
X102400Y35161D01*
X79791Y25623D02*
X79881Y25533D01*
X82647D01*
X82780Y25400D01*
X83479D02*
X87779Y21100D01*
X97621D02*
Y22448D01*
X96153Y23917D02*
X97621Y22448D01*
X97917Y12250D02*
X102750D01*
X98169Y20552D02*
X100550D01*
X97621Y21100D02*
X98169Y20552D01*
X73290Y70940D02*
Y74803D01*
X78384Y72441D02*
Y74803D01*
X77309Y75878D02*
X78384Y74803D01*
X87496Y73516D02*
X88571Y72441D01*
X87496Y71366D02*
X87496Y73516D01*
X92590Y72441D02*
X93127Y71904D01*
X93664Y72441D01*
X92590Y71366D02*
X93127Y71904D01*
X92590Y72441D02*
X92590Y71366D01*
X79791Y51214D02*
X82104D01*
X82194Y51304D01*
X34609Y35466D02*
X34700Y35375D01*
X37487D01*
X34519Y49336D02*
X34609Y49245D01*
X58184Y63084D02*
X58466Y63366D01*
X56216Y63916D02*
X57266Y64966D01*
X77309Y71366D02*
X78384Y72441D01*
X56216Y59041D02*
Y63916D01*
X88571Y72441D02*
Y74803D01*
X87496Y71366D02*
X88571Y72441D01*
X58184Y59041D02*
Y63084D01*
X93664Y72441D02*
Y74803D01*
D26*
X16943Y19547D02*
D03*
Y13445D02*
D03*
X23492Y19547D02*
D03*
Y13445D02*
D03*
X102300Y40801D02*
D03*
Y34699D02*
D03*
X102750Y12250D02*
D03*
Y18352D02*
D03*
X3675Y63052D02*
D03*
Y56949D02*
D03*
X10075D02*
D03*
Y63052D02*
D03*
D27*
X15961Y24949D02*
D03*
X22063D02*
D03*
X28724Y14925D02*
D03*
X34827D02*
D03*
X97602Y46100D02*
D03*
X91500D02*
D03*
X97917Y12250D02*
D03*
X91814D02*
D03*
X15799Y65900D02*
D03*
X21901D02*
D03*
X9901Y52400D02*
D03*
X3799D02*
D03*
X25151Y45200D02*
D03*
X19049D02*
D03*
D28*
X17000Y59380D02*
D03*
Y51900D02*
D03*
X25268Y55640D02*
D03*
D29*
X13338Y45343D02*
D03*
X4362D02*
D03*
D30*
X4863Y38000D02*
D03*
X17737D02*
D03*
D31*
X87779Y18900D02*
D03*
X97621D02*
D03*
D32*
X95550Y31519D02*
D03*
Y40181D02*
D03*
X89250D02*
D03*
Y31519D02*
D03*
D33*
X79791Y21686D02*
D03*
Y23655D02*
D03*
Y25623D02*
D03*
Y27592D02*
D03*
Y29560D02*
D03*
Y31529D02*
D03*
Y33497D02*
D03*
Y35466D02*
D03*
Y37434D02*
D03*
Y39403D02*
D03*
Y41371D02*
D03*
Y43340D02*
D03*
Y45308D02*
D03*
Y47277D02*
D03*
Y49245D02*
D03*
Y51214D02*
D03*
X34609D02*
D03*
Y49245D02*
D03*
Y47277D02*
D03*
Y45308D02*
D03*
Y43340D02*
D03*
Y41371D02*
D03*
Y39403D02*
D03*
Y37434D02*
D03*
Y35466D02*
D03*
Y33497D02*
D03*
Y31529D02*
D03*
Y29560D02*
D03*
Y27592D02*
D03*
Y25623D02*
D03*
Y23655D02*
D03*
Y21686D02*
D03*
D34*
X71964Y59041D02*
D03*
X69995D02*
D03*
X68027D02*
D03*
X66058D02*
D03*
X64090D02*
D03*
X62121D02*
D03*
X60153D02*
D03*
X58184D02*
D03*
X56216D02*
D03*
X54247D02*
D03*
X52279D02*
D03*
X50310D02*
D03*
X48342D02*
D03*
X46373D02*
D03*
X44405D02*
D03*
X42436D02*
D03*
Y13859D02*
D03*
X44405D02*
D03*
X46373D02*
D03*
X48342D02*
D03*
X50310D02*
D03*
X52279D02*
D03*
X54247D02*
D03*
X56216D02*
D03*
X58184D02*
D03*
X60153D02*
D03*
X62121D02*
D03*
X64090D02*
D03*
X66058D02*
D03*
X68027D02*
D03*
X69995D02*
D03*
X71964D02*
D03*
D35*
X4189Y23354D02*
D03*
Y18354D02*
D03*
D36*
Y13354D02*
D03*
D37*
X98757Y1181D02*
D03*
X93662D02*
D03*
X103851D02*
D03*
X88568D02*
D03*
X58000D02*
D03*
X63095D02*
D03*
X68189D02*
D03*
X73284D02*
D03*
X78378D02*
D03*
X83473D02*
D03*
X52906D02*
D03*
X47811D02*
D03*
X42717D02*
D03*
X12156D02*
D03*
X17249D02*
D03*
X22343D02*
D03*
X27436D02*
D03*
X32530D02*
D03*
X37623D02*
D03*
X7062D02*
D03*
X1969D02*
D03*
X7063Y73622D02*
D03*
X12158D02*
D03*
X1969D02*
D03*
X17252D02*
D03*
X47820D02*
D03*
X42725D02*
D03*
X37630D02*
D03*
X32536D02*
D03*
X27441D02*
D03*
X22347D02*
D03*
X52914D02*
D03*
X58009D02*
D03*
X63103D02*
D03*
X93664D02*
D03*
X88571D02*
D03*
X83477D02*
D03*
X78384D02*
D03*
X73290D02*
D03*
X68197D02*
D03*
X98758D02*
D03*
X103851D02*
D03*
D38*
X51642Y51689D02*
D03*
X58198Y52690D02*
D03*
X70802Y45673D02*
D03*
X69942Y51996D02*
D03*
X72500Y53850D02*
D03*
X66822Y52938D02*
D03*
X63690Y52674D02*
D03*
X63635Y46354D02*
D03*
X63023Y41634D02*
D03*
X65350Y39550D02*
D03*
X57650Y40450D02*
D03*
X58915Y46082D02*
D03*
X54959Y43356D02*
D03*
X48639Y42800D02*
D03*
X43919Y43198D02*
D03*
X52595Y48501D02*
D03*
X47875Y46847D02*
D03*
X43100Y36850D02*
D03*
X74400Y45218D02*
D03*
X30784Y8914D02*
D03*
X37378Y9409D02*
D03*
X42785Y18955D02*
D03*
X47185Y26583D02*
D03*
X52378Y22013D02*
D03*
X43382Y26579D02*
D03*
X28606Y30720D02*
D03*
X25370Y30078D02*
D03*
X41161Y21748D02*
D03*
X45216Y34554D02*
D03*
X32653Y19236D02*
D03*
X50235Y18660D02*
D03*
X72173Y30835D02*
D03*
X86055Y58012D02*
D03*
X55046Y32005D02*
D03*
X50566Y26733D02*
D03*
X48850Y34750D02*
D03*
X70555Y38957D02*
D03*
X29533Y18477D02*
D03*
X26744Y22362D02*
D03*
X19917Y6173D02*
D03*
X27541Y25571D02*
D03*
X27847Y60248D02*
D03*
X40653Y54035D02*
D03*
X58766Y7080D02*
D03*
X42803Y51028D02*
D03*
X42146Y47213D02*
D03*
X26550Y55700D02*
D03*
X62933Y23910D02*
D03*
X54368Y26922D02*
D03*
X59033Y20590D02*
D03*
X62252Y7854D02*
D03*
X90583Y7732D02*
D03*
X30807Y67590D02*
D03*
X44193Y64984D02*
D03*
X17658Y37850D02*
D03*
X74630Y24650D02*
D03*
X84193Y6890D02*
D03*
X89339Y31559D02*
D03*
X95492Y39795D02*
D03*
X97858Y12055D02*
D03*
X87800Y44900D02*
D03*
X85850Y53350D02*
D03*
X82050Y54450D02*
D03*
X16431Y45450D02*
D03*
X58650Y30900D02*
D03*
X39850Y63950D02*
D03*
X96550Y6550D02*
D03*
M02*
