G04*
G04 #@! TF.GenerationSoftware,Altium Limited,Altium Designer,20.0.2 (26)*
G04*
G04 Layer_Color=8388736*
%FSLAX25Y25*%
%MOIN*%
G70*
G01*
G75*
%ADD14R,0.04147X0.04147*%
%ADD15R,0.04147X0.04147*%
%ADD16R,0.05918X0.03162*%
%ADD17R,0.05072X0.02965*%
%ADD18R,0.04383X0.05603*%
%ADD19R,0.04737X0.07887*%
%ADD20R,0.05524X0.06312*%
%ADD21R,0.06607X0.01981*%
%ADD22R,0.01981X0.06607*%
%ADD23C,0.04737*%
%ADD24R,0.04737X0.04737*%
%ADD25R,0.03950X0.06312*%
D14*
X16943Y19547D02*
D03*
Y13445D02*
D03*
X23492Y19547D02*
D03*
Y13445D02*
D03*
X102300Y40801D02*
D03*
Y34699D02*
D03*
X102750Y12250D02*
D03*
Y18352D02*
D03*
X3675Y63052D02*
D03*
Y56949D02*
D03*
X10075D02*
D03*
Y63052D02*
D03*
D15*
X15961Y24949D02*
D03*
X22063D02*
D03*
X28724Y14925D02*
D03*
X34827D02*
D03*
X97602Y46100D02*
D03*
X91500D02*
D03*
X97917Y12250D02*
D03*
X91814D02*
D03*
X15799Y65900D02*
D03*
X21901D02*
D03*
X9901Y52400D02*
D03*
X3799D02*
D03*
X25151Y45200D02*
D03*
X19049D02*
D03*
D16*
X17000Y59380D02*
D03*
Y51900D02*
D03*
X25268Y55640D02*
D03*
D17*
X13338Y45343D02*
D03*
X4362D02*
D03*
D18*
X4863Y38000D02*
D03*
X17737D02*
D03*
D19*
X87779Y18900D02*
D03*
X97621D02*
D03*
D20*
X95550Y31519D02*
D03*
Y40181D02*
D03*
X89250D02*
D03*
Y31519D02*
D03*
D21*
X79791Y21686D02*
D03*
Y23655D02*
D03*
Y25623D02*
D03*
Y27592D02*
D03*
Y29560D02*
D03*
Y31529D02*
D03*
Y33497D02*
D03*
Y35466D02*
D03*
Y37434D02*
D03*
Y39403D02*
D03*
Y41371D02*
D03*
Y43340D02*
D03*
Y45308D02*
D03*
Y47277D02*
D03*
Y49245D02*
D03*
Y51214D02*
D03*
X34609D02*
D03*
Y49245D02*
D03*
Y47277D02*
D03*
Y45308D02*
D03*
Y43340D02*
D03*
Y41371D02*
D03*
Y39403D02*
D03*
Y37434D02*
D03*
Y35466D02*
D03*
Y33497D02*
D03*
Y31529D02*
D03*
Y29560D02*
D03*
Y27592D02*
D03*
Y25623D02*
D03*
Y23655D02*
D03*
Y21686D02*
D03*
D22*
X71964Y59041D02*
D03*
X69995D02*
D03*
X68027D02*
D03*
X66058D02*
D03*
X64090D02*
D03*
X62121D02*
D03*
X60153D02*
D03*
X58184D02*
D03*
X56216D02*
D03*
X54247D02*
D03*
X52279D02*
D03*
X50310D02*
D03*
X48342D02*
D03*
X46373D02*
D03*
X44405D02*
D03*
X42436D02*
D03*
Y13859D02*
D03*
X44405D02*
D03*
X46373D02*
D03*
X48342D02*
D03*
X50310D02*
D03*
X52279D02*
D03*
X54247D02*
D03*
X56216D02*
D03*
X58184D02*
D03*
X60153D02*
D03*
X62121D02*
D03*
X64090D02*
D03*
X66058D02*
D03*
X68027D02*
D03*
X69995D02*
D03*
X71964D02*
D03*
D23*
X4189Y23354D02*
D03*
Y18354D02*
D03*
D24*
Y13354D02*
D03*
D25*
X98757Y1181D02*
D03*
X93662D02*
D03*
X103851D02*
D03*
X88568D02*
D03*
X58000D02*
D03*
X63095D02*
D03*
X68189D02*
D03*
X73284D02*
D03*
X78378D02*
D03*
X83473D02*
D03*
X52906D02*
D03*
X47811D02*
D03*
X42717D02*
D03*
X12156D02*
D03*
X17249D02*
D03*
X22343D02*
D03*
X27436D02*
D03*
X32530D02*
D03*
X37623D02*
D03*
X7062D02*
D03*
X1969D02*
D03*
X7063Y73622D02*
D03*
X12158D02*
D03*
X1969D02*
D03*
X17252D02*
D03*
X47820D02*
D03*
X42725D02*
D03*
X37630D02*
D03*
X32536D02*
D03*
X27441D02*
D03*
X22347D02*
D03*
X52914D02*
D03*
X58009D02*
D03*
X63103D02*
D03*
X93664D02*
D03*
X88571D02*
D03*
X83477D02*
D03*
X78384D02*
D03*
X73290D02*
D03*
X68197D02*
D03*
X98758D02*
D03*
X103851D02*
D03*
M02*
