M48
;Layer_Color=9474304
;FILE_FORMAT=2:5
INCH,TZ
;TYPE=PLATED
T1F00S00C0.01220
T2F00S00C0.02362
T3F00S00C0.03150
%
T01
X84193Y6890
X90583Y7732
X96550Y6550
X97858Y12055
X89339Y31559
X95492Y39795
X87800Y44900
X74400Y45218
X70802Y45673
X70555Y38957
X65350Y39550
X72173Y30835
X74630Y24650
X62933Y23910
X59033Y20590
X52378Y22013
X50235Y18660
X42785Y18955
X41161Y21748
X43382Y26579
X47185Y26583
X50566Y26733
X54368Y26922
X55046Y32005
X58650Y30900
X57650Y40450
X54959Y43356
X48639Y42800
X43919Y43198
X43100Y36850
X45216Y34554
X48850Y34750
X63023Y41634
X62252Y7854
X58766Y7080
X37378Y9409
X30784Y8914
X29533Y18477
X32653Y19236
X26744Y22362
X27541Y25571
X28606Y30720
X25370Y30078
X17658Y37850
X16431Y45450
X19917Y6173
X26550Y55700
X27847Y60248
X30807Y67590
X39850Y63950
X44193Y64984
X40653Y54035
X42803Y51028
X42146Y47213
X47875Y46847
X52595Y48501
X51642Y51689
X58198Y52690
X58915Y46082
X63635Y46354
X63690Y52674
X66822Y52938
X69942Y51996
X72500Y53850
X82050Y54450
X85850Y53350
X86055Y58012
T02
X4189Y13354
Y18354
Y23354
T03
X68189Y0
X73284
X78378
X83473
X88568
X93662
X98757
X103851
X63095
X58000
X52906
X47811
X42717
X37623
X32530
X27436
X22343
X17249
X12156
X7062
X1969
Y74803
X7063
X12158
X17252
X22347
X27441
X32536
X37630
X42725
X47820
X52914
X58009
X63103
X68197
X73290
X78384
X83477
X88571
X93664
X98758
X103851
M30
