G04*
G04 #@! TF.GenerationSoftware,Altium Limited,Altium Designer,20.0.2 (26)*
G04*
G04 Layer_Physical_Order=1*
G04 Layer_Color=255*
%FSLAX25Y25*%
%MOIN*%
G70*
G01*
G75*
%ADD11C,0.01000*%
%ADD14R,0.03150X0.06299*%
%ADD15C,0.03937*%
%ADD16C,0.09843*%
%ADD17C,0.02500*%
D11*
X537000Y265100D02*
Y272200D01*
X549459Y260209D02*
X553000Y263750D01*
X541664Y260209D02*
X549459D01*
X539774Y262100D02*
X541664Y260209D01*
X534600Y262100D02*
X539774D01*
X548463Y245877D02*
Y246220D01*
X554800Y245700D02*
Y246400D01*
X544886Y242300D02*
X548463Y245877D01*
X529615Y303385D02*
X534100Y298900D01*
X381968Y243145D02*
X384370Y245547D01*
Y247716D01*
X427802Y245991D02*
X433579Y251768D01*
X427802Y235039D02*
Y245991D01*
X388392Y247992D02*
X388818D01*
X387077Y246677D02*
X388392Y247992D01*
X390100Y242400D02*
X392167Y240333D01*
X381968Y243145D02*
X381986Y243128D01*
X437983Y235039D02*
Y246700D01*
X449274Y268100D02*
X521586D01*
X443074Y261900D02*
X449274Y268100D01*
X532200Y259350D02*
Y276250D01*
Y259350D02*
X533750Y257800D01*
X557150D01*
X521586Y268100D02*
X525586Y264100D01*
X529615Y235039D02*
Y266385D01*
X519900Y276100D02*
X529615Y266385D01*
X450200Y276100D02*
X519900D01*
X549977Y264523D02*
Y307480D01*
X537000Y272200D02*
X548000Y283200D01*
X553000Y263750D02*
Y300482D01*
X530150Y278300D02*
X532200Y276250D01*
X534705Y235039D02*
Y241150D01*
X544886Y235039D02*
Y242300D01*
X553500Y244400D02*
X554800Y245700D01*
X557150Y257800D02*
X561168Y253782D01*
X557150Y244034D02*
Y248750D01*
X558700Y237600D02*
Y242384D01*
X558750Y242434D01*
Y243832D01*
X561168Y246250D01*
X553500Y241123D02*
Y244400D01*
X549977Y237600D02*
X553500Y241123D01*
X556392Y243276D02*
X557150Y244034D01*
X561168Y246250D02*
Y253782D01*
X493980Y238630D02*
X498185Y242835D01*
X499646D01*
X501421Y240869D02*
X502651Y242100D01*
X501421Y237521D02*
Y240869D01*
X514688Y242362D02*
X514850Y242200D01*
X514646Y242362D02*
X514688D01*
X510984Y241299D02*
Y243032D01*
X510354Y240669D02*
X510984Y241299D01*
X507559Y242717D02*
X508277D01*
X508278Y242716D01*
X504161Y238600D02*
X508278Y242716D01*
X499071Y237400D02*
X501300D01*
X501421Y237521D01*
X502651Y242100D02*
X504304D01*
X504449Y242441D02*
X504645D01*
X504596Y242392D02*
X504645Y242441D01*
X504449Y242245D02*
Y242441D01*
X504304Y242100D02*
X504449Y242245D01*
X510354Y240669D02*
X510363D01*
Y238811D02*
Y240669D01*
X384685Y291142D02*
X386642D01*
X387077Y291577D01*
X366714Y235039D02*
Y258798D01*
X350000Y275512D02*
X366714Y258798D01*
X350000Y275512D02*
Y277067D01*
X361623Y235039D02*
Y257471D01*
X353838Y265256D02*
X361623Y257471D01*
X350000Y265256D02*
X353838D01*
X366714Y303743D02*
Y307480D01*
X351849Y288878D02*
X366714Y303743D01*
X350000Y288878D02*
X351849D01*
X361623Y300915D02*
Y307480D01*
X360236Y299528D02*
X361623Y300915D01*
X351161Y299528D02*
X360236D01*
X350000Y300689D02*
X351161Y299528D01*
X578504Y241653D02*
Y263524D01*
X575430Y238580D02*
X578504Y241653D01*
X575430Y235039D02*
Y238580D01*
X585256Y265256D02*
X592047D01*
X580521Y260521D02*
X585256Y265256D01*
X580521Y235039D02*
Y260521D01*
X578228Y296811D02*
Y301732D01*
X575430Y304530D02*
X578228Y301732D01*
X575430Y304530D02*
Y307480D01*
X578228Y296811D02*
X581968Y293071D01*
X587854D01*
X592047Y288878D01*
X582126Y296024D02*
X587382D01*
X580521Y297629D02*
X582126Y296024D01*
X580521Y297629D02*
Y307480D01*
X587382Y296024D02*
X592047Y300689D01*
X578504Y263524D02*
X592047Y277067D01*
X574882Y247402D02*
X576043D01*
X572700Y245220D02*
X574882Y247402D01*
X572700Y241260D02*
Y245220D01*
X558700Y237600D02*
X560158D01*
X387077Y291577D02*
Y307480D01*
Y288823D02*
Y291577D01*
X514343Y235039D02*
Y242100D01*
X493980Y304300D02*
X495000D01*
X443074Y241100D02*
Y261900D01*
Y235039D02*
Y241100D01*
X389600Y285000D02*
Y302500D01*
X387600Y283000D02*
X389600Y285000D01*
X383750Y283000D02*
X387600D01*
X381986Y284764D02*
X383750Y283000D01*
X381986Y284764D02*
Y307480D01*
X555068Y235039D02*
Y239380D01*
X556392Y240704D01*
Y243276D01*
X493980Y235039D02*
Y238630D01*
X548000Y283200D02*
Y299850D01*
X544886Y302964D02*
X548000Y299850D01*
X544886Y302964D02*
Y307480D01*
X395500Y240400D02*
X397258Y238642D01*
Y235039D02*
Y238642D01*
X568000Y268000D02*
Y302800D01*
X565549Y302900D02*
X568000Y302800D01*
X565249Y307480D02*
X565549Y302900D01*
X381986Y235039D02*
Y243128D01*
X560158Y301758D02*
Y307480D01*
X565249Y235039D02*
Y240799D01*
X566850Y242400D01*
X387077Y235039D02*
Y246677D01*
X432892Y243892D02*
X432900Y243900D01*
X432892Y235039D02*
Y243892D01*
X549977Y235039D02*
Y237600D01*
X394600Y302600D02*
X396300Y304300D01*
X397258Y307480D01*
X407439Y300131D02*
Y307480D01*
X417620Y235039D02*
Y249620D01*
X427200Y259200D01*
X422711Y301900D02*
Y307480D01*
X407439Y263039D02*
X427050Y282650D01*
X407439Y235039D02*
Y263039D01*
X536500Y294857D02*
Y302705D01*
X534705Y304500D02*
X536500Y302705D01*
X534705Y304500D02*
Y307480D01*
X529615Y303385D02*
Y307480D01*
X560158Y235039D02*
Y237600D01*
X499199Y278300D02*
X530150D01*
X489800Y287699D02*
X499199Y278300D01*
X553000Y300482D02*
X555068Y302550D01*
Y307480D01*
X412530Y235039D02*
Y257330D01*
X371805Y303295D02*
X373200Y301900D01*
X371805Y303295D02*
Y307480D01*
X376895Y301000D02*
Y307480D01*
X417620Y292500D02*
Y307480D01*
X422711Y235039D02*
Y241550D01*
X376895Y239147D02*
X378750Y241002D01*
X376895Y235039D02*
Y239147D01*
X438400Y287900D02*
X450200Y276100D01*
X414630Y287900D02*
X438400D01*
X412530Y290000D02*
X414630Y287900D01*
X412530Y290000D02*
Y307480D01*
X570340Y235039D02*
Y238900D01*
X572700Y241260D01*
X371805Y239905D02*
X371950Y240050D01*
X371805Y235039D02*
Y239905D01*
X392167Y235039D02*
Y240333D01*
X499071Y235039D02*
Y237400D01*
X504161Y303139D02*
Y307480D01*
Y303139D02*
X506050Y301250D01*
Y283500D02*
Y301250D01*
Y283500D02*
X507300Y282250D01*
X504161Y235039D02*
Y238600D01*
X509252Y237700D02*
X510363Y238811D01*
X509252Y235039D02*
Y237700D01*
X405900Y291900D02*
X409000Y295000D01*
X400600Y291900D02*
X405900D01*
X392167Y300333D02*
X400600Y291900D01*
X392167Y300333D02*
Y307480D01*
X432892Y301250D02*
Y307480D01*
X429342Y297700D02*
X432892Y301250D01*
X514443Y242200D02*
X514850D01*
X514343Y242100D02*
X514443Y242200D01*
X495000Y304300D02*
X497450Y301850D01*
X493980Y304300D02*
Y307480D01*
X500821Y302000D02*
X501879D01*
X499071Y303750D02*
X500821Y302000D01*
X499071Y303750D02*
Y307480D01*
X491689Y301400D02*
X493600D01*
X488889Y304200D02*
X491689Y301400D01*
X488889Y304200D02*
Y307480D01*
X483799Y304101D02*
Y307480D01*
Y304101D02*
X487700Y300200D01*
X434742Y299400D02*
X448164D01*
X432892Y301250D02*
X434742Y299400D01*
X427802Y302600D02*
Y307480D01*
D14*
X381986Y235039D02*
D03*
X392167D02*
D03*
X387077D02*
D03*
X371805D02*
D03*
X366714D02*
D03*
X376895D02*
D03*
X361623D02*
D03*
X397258D02*
D03*
X402349D02*
D03*
X412530D02*
D03*
X407439D02*
D03*
X437983D02*
D03*
X448164D02*
D03*
X443074D02*
D03*
X427802D02*
D03*
X422711D02*
D03*
X432892D02*
D03*
X417620D02*
D03*
X453255D02*
D03*
X458346D02*
D03*
X468527D02*
D03*
X463436D02*
D03*
X493980D02*
D03*
X504161D02*
D03*
X499071D02*
D03*
X483799D02*
D03*
X478708D02*
D03*
X488889D02*
D03*
X473617D02*
D03*
X509252D02*
D03*
X514343D02*
D03*
X524524D02*
D03*
X519433D02*
D03*
X381986Y307480D02*
D03*
X392167D02*
D03*
X387077D02*
D03*
X371805D02*
D03*
X366714D02*
D03*
X376895D02*
D03*
X361623D02*
D03*
X397258D02*
D03*
X402349D02*
D03*
X412530D02*
D03*
X407439D02*
D03*
X437983D02*
D03*
X448164D02*
D03*
X443074D02*
D03*
X427802D02*
D03*
X422711D02*
D03*
X432892D02*
D03*
X417620D02*
D03*
X453255D02*
D03*
X458346D02*
D03*
X468527D02*
D03*
X463436D02*
D03*
X493980D02*
D03*
X504161D02*
D03*
X499071D02*
D03*
X483799D02*
D03*
X478708D02*
D03*
X488889D02*
D03*
X473617D02*
D03*
X509252D02*
D03*
X514343D02*
D03*
X524524D02*
D03*
X519433D02*
D03*
X575430D02*
D03*
X580521D02*
D03*
X570340D02*
D03*
X565249D02*
D03*
X529615D02*
D03*
X544886D02*
D03*
X534705D02*
D03*
X539796D02*
D03*
X555068D02*
D03*
X560158D02*
D03*
X549977D02*
D03*
Y235039D02*
D03*
X560158D02*
D03*
X555068D02*
D03*
X539796D02*
D03*
X534705D02*
D03*
X544886D02*
D03*
X529615D02*
D03*
X565249D02*
D03*
X570340D02*
D03*
X580521D02*
D03*
X575430D02*
D03*
D15*
X525236Y291038D02*
X538082D01*
X488889Y254839D02*
X489601Y255551D01*
X451215D02*
X489601D01*
X448164Y252500D02*
X451215Y255551D01*
X489601D02*
X493048Y258998D01*
X488889Y254839D02*
Y255195D01*
Y235039D02*
Y254839D01*
X539494Y235341D02*
Y248640D01*
X539472Y248661D02*
X539494Y248640D01*
Y235341D02*
X539796Y235039D01*
Y301755D02*
Y307480D01*
Y301755D02*
X540319Y301232D01*
X539796Y301755D02*
X544886Y298100D01*
X515458Y291038D02*
X525236D01*
X525276Y287835D02*
Y290999D01*
X525236Y291038D02*
X525276Y290999D01*
X540319Y293275D02*
Y301232D01*
X538082Y291038D02*
X540319Y293275D01*
X509500Y296996D02*
Y300900D01*
Y296996D02*
X515458Y291038D01*
X509252Y301148D02*
X509500Y300900D01*
X493048Y258998D02*
X519433D01*
X448164Y235039D02*
Y252500D01*
X519433Y245783D02*
Y258998D01*
X478708Y299492D02*
Y307480D01*
Y299492D02*
X480100Y298100D01*
X389665Y253445D02*
X402349Y240761D01*
Y235039D02*
Y240761D01*
X519433Y235039D02*
Y245783D01*
X402349Y295000D02*
Y307480D01*
X509252Y301148D02*
Y307480D01*
D16*
X350000Y241634D02*
D03*
Y253445D02*
D03*
Y265256D02*
D03*
Y277067D02*
D03*
Y288878D02*
D03*
Y300689D02*
D03*
X592047Y241634D02*
D03*
Y253445D02*
D03*
Y265256D02*
D03*
Y277067D02*
D03*
Y288878D02*
D03*
Y300689D02*
D03*
D17*
X456599Y255586D02*
D03*
X537000Y265100D02*
D03*
X542638Y262559D02*
D03*
X543312Y249978D02*
D03*
X548463Y246220D02*
D03*
X554800Y246400D02*
D03*
X539472Y248661D02*
D03*
X534100Y298900D02*
D03*
X525276Y287835D02*
D03*
X367874Y282677D02*
D03*
X384370Y247716D02*
D03*
X388818Y247992D02*
D03*
X390100Y242400D02*
D03*
X433579Y251768D02*
D03*
X453255Y248700D02*
D03*
X437983Y246700D02*
D03*
X534600Y262100D02*
D03*
X525586Y264100D02*
D03*
X549977Y264523D02*
D03*
X524700Y256600D02*
D03*
X532100Y243600D02*
D03*
X534705Y241150D02*
D03*
X548900Y240650D02*
D03*
X561100Y242400D02*
D03*
X499646Y242835D02*
D03*
X514646Y242362D02*
D03*
X510984Y243032D02*
D03*
X507559Y242717D02*
D03*
X504449Y242835D02*
D03*
X384685Y291142D02*
D03*
X576043Y247402D02*
D03*
X544886Y298100D02*
D03*
X480100D02*
D03*
X509500Y300900D02*
D03*
X430400Y302600D02*
D03*
X389600Y302500D02*
D03*
X557150Y248750D02*
D03*
X387077Y288823D02*
D03*
X443074Y241100D02*
D03*
X395500Y240400D02*
D03*
X568000Y268000D02*
D03*
X560158Y301758D02*
D03*
X566850Y242400D02*
D03*
X570300Y242600D02*
D03*
X394600Y302600D02*
D03*
X407439Y300131D02*
D03*
X427200Y259200D02*
D03*
X422711Y301900D02*
D03*
X555350Y298950D02*
D03*
X565600Y300500D02*
D03*
X427050Y282650D02*
D03*
X536500Y294857D02*
D03*
X389665Y253445D02*
D03*
X489800Y287699D02*
D03*
X412530Y257330D02*
D03*
X558500Y296600D02*
D03*
X373200Y301900D02*
D03*
X376895Y301000D02*
D03*
X417620Y292500D02*
D03*
X563200Y293750D02*
D03*
X422711Y241550D02*
D03*
X519433Y245783D02*
D03*
X378750Y241002D02*
D03*
X432900Y243900D02*
D03*
X371950Y240050D02*
D03*
X507300Y282250D02*
D03*
X402349Y295000D02*
D03*
X523800Y301400D02*
D03*
X409000Y295000D02*
D03*
X429342Y297700D02*
D03*
X497450Y301850D02*
D03*
X501879Y302000D02*
D03*
X493600Y301400D02*
D03*
X487700Y300200D02*
D03*
X448164Y299400D02*
D03*
X427802Y302600D02*
D03*
M02*
