M48
;Layer_Color=9474304
;FILE_FORMAT=2:5
INCH,TZ
;TYPE=PLATED
T1F00S00C0.01200
T2F00S00C0.05512
%
T01
X499646Y242835
X504449
X507559Y242717
X510984Y243032
X514646Y242362
X519433Y245783
X532100Y243600
X534705Y241150
X539472Y248661
X543312Y249978
X548463Y246220
X548900Y240650
X554800Y246400
X557150Y248750
X561100Y242400
X566850
X570300Y242600
X576043Y247402
X568000Y268000
X549977Y264523
X542638Y262559
X537000Y265100
X534600Y262100
X525586Y264100
X524700Y256600
X525276Y287835
X523800Y301400
X534100Y298900
X536500Y294857
X544886Y298100
X555350Y298950
X558500Y296600
X560158Y301758
X565600Y300500
X563200Y293750
X509500Y300900
X501879Y302000
X497450Y301850
X493600Y301400
X487700Y300200
X480100Y298100
X489800Y287699
X507300Y282250
X448164Y299400
X429342Y297700
X430400Y302600
X427802
X422711Y301900
X417620Y292500
X409000Y295000
X402349
X407439Y300131
X394600Y302600
X389600Y302500
X376895Y301000
X373200Y301900
X384685Y291142
X387077Y288823
X367874Y282677
X371950Y240050
X378750Y241002
X384370Y247716
X388818Y247992
X389665Y253445
X390100Y242400
X395500Y240400
X422711Y241550
X432900Y243900
X437983Y246700
X433579Y251768
X427200Y259200
X412530Y257330
X427050Y282650
X456599Y255586
X453255Y248700
X443074Y241100
T02
X592047Y241634
Y253445
Y265256
Y277067
Y288878
Y300689
X350000
Y288878
Y277067
Y265256
Y253445
Y241634
M30
