G04*
G04 #@! TF.GenerationSoftware,Altium Limited,Altium Designer,20.0.2 (26)*
G04*
G04 Layer_Physical_Order=2*
G04 Layer_Color=36540*
%FSLAX25Y25*%
%MOIN*%
G70*
G01*
G75*
%ADD11C,0.01000*%
%ADD15C,0.03937*%
%ADD16C,0.09843*%
%ADD17C,0.02500*%
D11*
X526586Y265100D02*
X537000D01*
X417620Y292500D02*
X561950D01*
X390100Y242400D02*
X394400Y246700D01*
X457953Y252795D02*
X515370D01*
X457953D02*
X457972Y252776D01*
X456965Y251768D02*
X457972Y252776D01*
X433579Y251768D02*
X456965D01*
X438956Y249050D02*
X439706Y248300D01*
X437010Y249050D02*
X438956D01*
X436260Y248300D02*
X437010Y249050D01*
X409495Y248300D02*
X436260D01*
X514911Y245420D02*
X516996Y243336D01*
X498908Y245420D02*
X514911D01*
X498088Y244600D02*
X498908Y245420D01*
X442863Y248300D02*
X446563Y244600D01*
X439706Y248300D02*
X442863D01*
X402627Y255168D02*
Y256428D01*
Y255168D02*
X404095Y253701D01*
X409495Y248300D01*
X446563Y244600D02*
X498088D01*
X394400Y246700D02*
X437983D01*
X442200D02*
X448415Y240485D01*
X437983Y246700D02*
X442200D01*
X382500Y276555D02*
X402627Y256428D01*
X382500Y276555D02*
Y277600D01*
X523883Y255783D02*
X524700Y256600D01*
X518358Y255783D02*
X523883D01*
X515370Y252795D02*
X518358Y255783D01*
X525586Y264100D02*
X526586Y265100D01*
X524700Y256600D02*
X532293D01*
X532755Y257062D01*
X518450Y241150D02*
X534705D01*
X516996Y242604D02*
X518450Y241150D01*
X505532Y238035D02*
X546285D01*
X376150Y235850D02*
X554550D01*
X532755Y257062D02*
X549262D01*
X569650Y277450D01*
X546285Y238035D02*
X548900Y240650D01*
X554550Y235850D02*
X561100Y242400D01*
X503082Y240485D02*
X505532Y238035D01*
X448415Y240485D02*
X503082D01*
X516996Y242604D02*
Y243336D01*
X384685Y291142D02*
X386642D01*
X393200Y297700D01*
X425500Y299500D02*
X428600Y302600D01*
X569650Y277450D02*
Y302350D01*
X428600Y302600D02*
X430400D01*
X420850Y299500D02*
X425500D01*
X414550Y305800D02*
X420850Y299500D01*
X392900Y305800D02*
X414550D01*
X389600Y302500D02*
X392900Y305800D01*
X441174Y239200D02*
X443074Y241100D01*
X396700Y239200D02*
X441174D01*
X395500Y240400D02*
X396700Y239200D01*
X567000Y305000D02*
X569650Y302350D01*
X560158Y301758D02*
X563400Y305000D01*
X567000D01*
X384600Y300131D02*
X407439D01*
X381250Y296781D02*
X384600Y300131D01*
X381250Y278850D02*
Y296781D01*
Y278850D02*
X382500Y277600D01*
X422711Y301900D02*
X430311Y309500D01*
X544800D01*
X555350Y298950D01*
X565600Y287100D02*
Y300500D01*
X563100Y284600D02*
X565600Y287100D01*
X429000Y284600D02*
X563100D01*
X427050Y282650D02*
X429000Y284600D01*
X561950Y292500D02*
X563200Y293750D01*
X371950Y240050D02*
X376150Y235850D01*
X517400Y295000D02*
X523800Y301400D01*
X409000Y295000D02*
X517400D01*
X393200Y297700D02*
X429342D01*
D15*
X539472Y248472D02*
Y248661D01*
X538500Y247500D02*
X539472Y248472D01*
X536542Y252714D02*
X537821Y253994D01*
X519629Y252714D02*
X536542D01*
X537821Y253994D02*
X579687D01*
X367874Y271319D02*
Y282677D01*
X350000Y253445D02*
X367874Y271319D01*
X453255Y248700D02*
X515615D01*
X521150Y247500D02*
X538500D01*
X519433Y245783D02*
X521150Y247500D01*
X515615Y248700D02*
X519629Y252714D01*
X579687Y253994D02*
X592047Y241634D01*
X480100Y298100D02*
X488300Y306300D01*
X504100D01*
X509500Y300900D01*
X350000Y253445D02*
X389665D01*
D16*
X350000D02*
D03*
X592047Y241634D02*
D03*
D17*
X537000Y265100D02*
D03*
X539472Y248661D02*
D03*
X367874Y282677D02*
D03*
X390100Y242400D02*
D03*
X433579Y251768D02*
D03*
X453255Y248700D02*
D03*
X437983Y246700D02*
D03*
X525586Y264100D02*
D03*
X524700Y256600D02*
D03*
X534705Y241150D02*
D03*
X548900Y240650D02*
D03*
X561100Y242400D02*
D03*
X384685Y291142D02*
D03*
X480100Y298100D02*
D03*
X509500Y300900D02*
D03*
X430400Y302600D02*
D03*
X389600Y302500D02*
D03*
X443074Y241100D02*
D03*
X395500Y240400D02*
D03*
X560158Y301758D02*
D03*
X407439Y300131D02*
D03*
X422711Y301900D02*
D03*
X555350Y298950D02*
D03*
X565600Y300500D02*
D03*
X427050Y282650D02*
D03*
X389665Y253445D02*
D03*
X417620Y292500D02*
D03*
X563200Y293750D02*
D03*
X519433Y245783D02*
D03*
X371950Y240050D02*
D03*
X523800Y301400D02*
D03*
X409000Y295000D02*
D03*
X429342Y297700D02*
D03*
X427802Y302600D02*
D03*
M02*
