G04*
G04 #@! TF.GenerationSoftware,Altium Limited,Altium Designer,20.0.2 (26)*
G04*
G04 Layer_Physical_Order=1*
G04 Layer_Color=255*
%FSLAX25Y25*%
%MOIN*%
G70*
G01*
G75*
%ADD11C,0.01000*%
%ADD14R,0.02953X0.03701*%
%ADD15R,0.03701X0.02953*%
%ADD16R,0.02756X0.02362*%
%ADD17R,0.02441X0.02362*%
%ADD18R,0.02362X0.02441*%
%ADD19R,0.03347X0.03347*%
%ADD20R,0.05118X0.02362*%
%ADD21R,0.04272X0.02165*%
%ADD22R,0.03583X0.04803*%
%ADD23R,0.03347X0.03347*%
%ADD24R,0.03937X0.07087*%
%ADD25R,0.04724X0.05512*%
%ADD26R,0.05807X0.01181*%
%ADD27R,0.01181X0.05807*%
%ADD45C,0.03937*%
%ADD46R,0.03937X0.03937*%
%ADD47R,0.03150X0.05512*%
%ADD48C,0.02520*%
D11*
X86257Y12968D02*
X89133Y10092D01*
X83866Y13693D02*
X84591Y12968D01*
X86257D01*
X74673Y16568D02*
X75877Y17773D01*
X73469Y15364D02*
X74673Y16568D01*
X78354Y13693D02*
Y14067D01*
X77378Y15043D02*
X78354Y14067D01*
X77004Y15043D02*
X77378D01*
X75479Y16568D02*
X77004Y15043D01*
X74673Y16568D02*
X75479D01*
X91796Y9856D02*
X92202D01*
X91560Y10092D02*
X91796Y9856D01*
X89133Y10092D02*
X91560D01*
X70918Y9856D02*
X89369D01*
X92202D02*
X98524Y16178D01*
X82781Y49155D02*
X85850Y52223D01*
X79881Y49155D02*
X82781D01*
X85850Y52223D02*
Y53350D01*
X88193Y60094D02*
X91949D01*
X28764Y18173D02*
X38974D01*
X96437Y52953D02*
X96811D01*
X95461Y51976D02*
X96437Y52953D01*
X95461Y51476D02*
Y51976D01*
X92299Y48315D02*
X95461Y51476D01*
X96738Y58537D02*
X103851Y65651D01*
X69773Y51827D02*
X69943Y51657D01*
X20417Y20610D02*
X21493Y21686D01*
X14130Y19571D02*
X15169Y20610D01*
X94450Y58465D02*
X96811D01*
X82634Y59630D02*
X82768Y59764D01*
X78079Y59630D02*
X82634D01*
X91949Y60094D02*
X98758Y66904D01*
X82050Y51449D02*
Y54450D01*
X83794Y47809D02*
X94450Y58465D01*
X82050Y51449D02*
X82194Y51304D01*
X82104Y51214D02*
X82194Y51304D01*
X79791Y51214D02*
X82104D01*
X94862Y45390D02*
X94886D01*
X74612Y38002D02*
X75180Y37434D01*
X70037Y38002D02*
X74612D01*
X75180Y37434D02*
X79791D01*
X65477Y41250D02*
X74137D01*
X64551Y40324D02*
X65477Y41250D01*
X65133Y35466D02*
X79791D01*
X64480Y36118D02*
X65133Y35466D01*
X63637Y33497D02*
X79791D01*
X60663Y36471D02*
X63637Y33497D01*
X64551Y39851D02*
Y40324D01*
X14339Y54090D02*
X15909Y52520D01*
X60663Y36471D02*
Y41159D01*
X62252Y7229D02*
Y7854D01*
X59075Y4052D02*
X62252Y7229D01*
X89357Y7890D02*
X90583D01*
X88991Y8256D02*
X89357Y7890D01*
X68798Y8256D02*
X88991D01*
X85006Y6656D02*
X86343Y5319D01*
X95319D01*
X90583Y7732D02*
Y7890D01*
X10650Y33138D02*
X15677D01*
X16488Y34893D02*
X18350D01*
X21709Y33049D02*
Y33055D01*
X21516Y32862D02*
X21709Y33055D01*
X21655Y33392D02*
X21709Y33339D01*
X21091Y33957D02*
X21655Y33392D01*
X22542Y35409D02*
X27635D01*
X21091Y33957D02*
X22542Y35409D01*
X21120Y27954D02*
X21409Y28244D01*
X21701Y27953D02*
Y28839D01*
X21409Y28244D02*
X21505Y28148D01*
X21701Y27953D01*
X23553Y30691D02*
X25052D01*
X21701Y28839D02*
X23553Y30691D01*
X21120Y27954D02*
X21312D01*
X21182Y28471D02*
X21409Y28244D01*
X21118Y28535D02*
X21182Y28471D01*
X27791Y59114D02*
X28458Y59781D01*
Y61905D01*
X27791Y56363D02*
Y59114D01*
X26827Y55398D02*
X27791Y56363D01*
X44314Y55550D02*
Y58950D01*
X43801Y55037D02*
X44314Y55550D01*
X41390Y55037D02*
X43801D01*
X45305Y33794D02*
X45730Y34220D01*
X45208Y33794D02*
X45305D01*
X45350Y34600D02*
X46279Y35530D01*
X54943Y32005D02*
X55290Y32351D01*
X38177Y15515D02*
Y15516D01*
X41100Y21686D02*
X41161Y21748D01*
X43521Y19905D02*
Y22726D01*
X40697Y25550D02*
X43521Y22726D01*
X43458Y26185D02*
X43521Y26122D01*
X45121Y18633D02*
Y23388D01*
X43521Y24988D02*
X45121Y23388D01*
X43521Y24988D02*
Y26122D01*
X38974Y18173D02*
X40186Y19386D01*
X28172Y37513D02*
X29087Y38427D01*
X15102Y28941D02*
X15677Y29516D01*
X27406Y43949D02*
Y45711D01*
X18350Y34893D02*
X27406Y43949D01*
X30606Y44386D02*
X31528Y45308D01*
X29006Y45049D02*
X31234Y47277D01*
X28760Y47065D02*
Y54602D01*
X27406Y45711D02*
X28760Y47065D01*
X29006Y42234D02*
Y45049D01*
X25402Y38630D02*
X29006Y42234D01*
X30606Y41130D02*
Y44386D01*
X31528Y45308D02*
X34609D01*
X31234Y47277D02*
X34609D01*
X25402Y37894D02*
Y38630D01*
X29087Y38427D02*
Y39611D01*
X30606Y41130D01*
X28172Y37513D02*
X28947D01*
X27865Y35254D02*
X29354Y33764D01*
X27790Y35254D02*
X27865D01*
X30882Y56724D02*
Y60472D01*
X28760Y54602D02*
X30882Y56724D01*
X26550Y61210D02*
Y62669D01*
X25102Y59763D02*
X26550Y61210D01*
X28458Y61905D02*
X34290Y67736D01*
X25102Y57370D02*
Y59763D01*
X26827Y51903D02*
Y55398D01*
X25151Y50228D02*
X26827Y51903D01*
X25102Y52442D02*
Y57370D01*
X17314Y50653D02*
X23314D01*
X25102Y52442D01*
X33303Y64486D02*
X35890Y67074D01*
X33303Y55228D02*
Y64486D01*
X30601Y52526D02*
X33303Y55228D01*
X77309Y71366D02*
Y75878D01*
X32807Y51287D02*
X35012Y53492D01*
Y63933D02*
X37490Y66411D01*
X35012Y53492D02*
Y63933D01*
X36720Y60821D02*
X39850Y63950D01*
X36720Y54159D02*
Y60821D01*
Y54159D02*
X38642Y52238D01*
X15677Y34083D02*
X16488Y34893D01*
X40807Y55620D02*
X41390Y55037D01*
X39384Y55620D02*
X40807D01*
X39165Y55839D02*
X39384Y55620D01*
X46859Y52508D02*
X50220Y55869D01*
X41764Y52508D02*
X46859D01*
X46665Y50051D02*
X50723Y54110D01*
X43722Y50051D02*
X46665D01*
X38642Y44291D02*
Y52238D01*
X44314Y58950D02*
X44405Y59041D01*
X7533Y10621D02*
Y20952D01*
X3848Y24637D02*
X7533Y20952D01*
X9233Y11503D02*
X10991Y9746D01*
X12997Y23403D02*
X23542D01*
X9233Y11503D02*
Y21575D01*
X6891Y23916D02*
X9233Y21575D01*
X11593Y22263D02*
X11857D01*
X12997Y23403D01*
X23571Y23374D02*
X31247D01*
X23542Y23403D02*
X23571Y23374D01*
X34489Y23377D02*
X34590Y23478D01*
X31250Y23377D02*
X34489D01*
X31247Y23374D02*
X31250Y23377D01*
X26535Y25121D02*
X27007Y25593D01*
X10110Y25121D02*
X26535D01*
X21493Y21686D02*
X34609D01*
X27007Y25593D02*
X34579D01*
X34609Y25623D01*
X12039Y17551D02*
X25091D01*
X25157Y17618D01*
X58756Y20306D02*
X61199Y17863D01*
X58752Y20310D02*
X58756Y20306D01*
X34834Y12229D02*
X35100Y11963D01*
X34193Y12870D02*
X34240Y12917D01*
X34834Y11696D02*
Y12229D01*
X34567Y10709D02*
X37839Y7437D01*
X34567Y11429D02*
Y12496D01*
X31815Y15248D02*
X33394Y13669D01*
X21158Y15248D02*
X31815D01*
X20417Y14508D02*
X21158Y15248D01*
X38984Y14709D02*
X42436D01*
X38956Y14737D02*
X38984Y14709D01*
X16067Y11531D02*
X28827D01*
Y8358D02*
Y11531D01*
Y8358D02*
X29304Y7881D01*
X32530Y4655D01*
X36205Y9196D02*
Y9791D01*
X34567Y11429D02*
X36205Y9791D01*
X34834Y12229D02*
Y12591D01*
X34567Y12496D02*
X34834Y12229D01*
X34240Y12917D02*
X34567Y12591D01*
X33394Y13764D02*
X34240Y12917D01*
X34834Y11696D02*
X35100Y11963D01*
X34567Y11429D02*
X34834Y11696D01*
X34193Y12870D02*
X34567Y12496D01*
Y12591D01*
Y10709D02*
Y11429D01*
X33394Y13669D02*
X34193Y12870D01*
X33394Y13669D02*
Y13764D01*
X22360Y9756D02*
X27436Y4680D01*
X3165Y30016D02*
X3587D01*
X4721Y31150D01*
X6098D02*
Y33358D01*
Y28941D02*
Y31150D01*
X4721D02*
X6098D01*
X10429Y33358D02*
X10650Y33138D01*
X10429Y28941D02*
X15102D01*
X3771Y24637D02*
X3848D01*
X6891Y23916D02*
Y24936D01*
X68135Y6656D02*
X85006D01*
X68130Y8924D02*
X68798Y8256D01*
X66149Y8643D02*
X68135Y6656D01*
X97397Y15051D02*
X98524Y16178D01*
X94819Y15051D02*
X97397D01*
X93846Y16024D02*
X94819Y15051D01*
X92299Y48315D02*
X94535Y46079D01*
X87265Y48315D02*
X92299D01*
X69995Y13859D02*
X70086Y13769D01*
Y10688D02*
Y13769D01*
Y10688D02*
X70918Y9856D01*
X86248Y21583D02*
X86295Y21535D01*
Y17449D02*
Y21535D01*
X89504Y15303D02*
Y15342D01*
X88823Y16024D02*
X89504Y15342D01*
X87721Y16024D02*
X88823D01*
X86295Y17449D02*
X87721Y16024D01*
X93126Y15303D02*
Y15342D01*
X93807Y16024D01*
X93846D01*
X100972Y19287D02*
X101012D01*
X100291Y18606D02*
X100972Y19287D01*
X100291Y17945D02*
Y18606D01*
X98524Y16178D02*
X100291Y17945D01*
X96091Y22257D02*
Y22931D01*
X96743Y22909D02*
X101012D01*
X96091Y22257D02*
X96743Y22909D01*
X79791Y27592D02*
X90081D01*
X93274Y24399D01*
X94622D01*
X96091Y22931D01*
X79791Y25623D02*
X79881Y25533D01*
X82593D01*
X82780Y25345D01*
X83150D01*
X83869Y24626D01*
X84780D01*
X86248Y23157D01*
Y21583D02*
Y23157D01*
X90088Y43851D02*
X91627Y45390D01*
X87388Y37925D02*
X90088Y40625D01*
X83794Y32451D02*
Y36586D01*
X79881Y31438D02*
X82781D01*
X83794Y32451D01*
X91567Y35890D02*
X94298Y33158D01*
X86543Y35890D02*
X91567D01*
X85575Y34921D02*
X86543Y35890D01*
X85134Y37925D02*
X87388D01*
X83794Y36586D02*
X85134Y37925D01*
X85575Y31256D02*
Y34921D01*
X83879Y29560D02*
X85575Y31256D01*
X94886Y45390D02*
X95550Y44726D01*
Y40181D02*
Y44726D01*
X91264Y45390D02*
X91627D01*
X90088Y40625D02*
Y43851D01*
X95590Y40221D02*
X98826D01*
X101165Y37882D01*
X101847Y37161D02*
X101886D01*
X101165Y37843D02*
X101847Y37161D01*
X101165Y37843D02*
Y37882D01*
X95550Y31519D02*
X99866D01*
X101165Y32819D01*
Y32858D01*
X101847Y33539D01*
X101886D01*
X40755Y35466D02*
X41157Y35063D01*
X40075Y30546D02*
X48877D01*
X40689Y32194D02*
X49632D01*
X39386Y33497D02*
X40689Y32194D01*
X39092Y31529D02*
X40075Y30546D01*
X34609Y31529D02*
X39092D01*
X34609Y33497D02*
X39386D01*
X41157Y35063D02*
X41463D01*
X34290Y67803D02*
X36556Y70068D01*
Y73728D01*
X29354Y31543D02*
Y33764D01*
X27635Y35409D02*
X27790Y35254D01*
X29354Y31543D02*
X31337Y29560D01*
X25151Y45414D02*
Y50228D01*
X18408Y38671D02*
X25151Y45414D01*
X8949Y43602D02*
X12390Y40161D01*
X8949Y43602D02*
Y49413D01*
X18039Y39039D02*
Y40161D01*
Y39039D02*
X18408Y38671D01*
X12390Y40161D02*
X18039D01*
X8949Y49413D02*
X9792Y50256D01*
X12673Y53137D01*
X6886Y53161D02*
X9792Y50256D01*
X6886Y53161D02*
Y62898D01*
X50566Y26733D02*
X50913D01*
X11827Y47772D02*
X14223Y45375D01*
X16946D01*
X19067Y47496D01*
X12673Y53137D02*
Y57669D01*
X3748Y45956D02*
Y55216D01*
Y45956D02*
X4362Y45343D01*
X15909Y52059D02*
X17314Y50653D01*
X15909Y52059D02*
Y52520D01*
X20190Y61955D02*
Y66076D01*
Y61955D02*
X21665Y60480D01*
X21705Y67590D02*
X30807D01*
X20190Y66076D02*
X21705Y67590D01*
X21665Y54094D02*
Y60480D01*
X14614Y59610D02*
X16532D01*
X12673Y57669D02*
X14614Y59610D01*
X24799Y63350D02*
X25869D01*
X26550Y62669D01*
X30601Y50172D02*
Y52526D01*
Y50172D02*
X31438Y49336D01*
X39850Y63950D02*
Y65500D01*
X16532Y66024D02*
Y67091D01*
X10560Y60052D02*
X16532Y66024D01*
X38516Y69766D02*
X72116D01*
X39179Y68166D02*
X76509D01*
X37490Y66478D02*
X39179Y68166D01*
X35890Y67140D02*
X38516Y69766D01*
X34290Y67736D02*
Y67803D01*
X35890Y67074D02*
Y67140D01*
X37490Y66411D02*
Y66478D01*
X55847Y10115D02*
X56193Y10461D01*
X55847Y10115D02*
Y10115D01*
X52337Y6605D02*
X55847Y10115D01*
X49505Y6605D02*
X52337D01*
X47811Y4911D02*
X49505Y6605D01*
X51674Y8205D02*
X54247Y10778D01*
X45673Y8205D02*
X51674D01*
X42717Y5248D02*
X45673Y8205D01*
X49943Y19411D02*
X50220Y19135D01*
X49925Y19430D02*
X49943Y19411D01*
X26032Y32965D02*
Y33049D01*
X25902Y32835D02*
X26032Y32965D01*
X50220Y13950D02*
Y19135D01*
X48342Y13859D02*
Y17675D01*
X52369Y13950D02*
Y21756D01*
X66721Y49632D02*
X70227D01*
X63635Y46546D02*
X66721Y49632D01*
X58623Y53207D02*
X60153Y54737D01*
X58387Y53207D02*
X58623D01*
X58198Y53396D02*
X58387Y53207D01*
X60153Y54737D02*
Y59041D01*
X42195Y28939D02*
X46152D01*
X40697Y27441D02*
X42195Y28939D01*
X40697Y25550D02*
Y27441D01*
X47185Y18832D02*
X48342Y17675D01*
X47185Y18832D02*
Y26583D01*
X69879Y28540D02*
X72173Y30835D01*
X56087Y28540D02*
X69879D01*
X51543Y28994D02*
X51595Y28943D01*
X49589Y28994D02*
X51543D01*
X49540Y28946D02*
X49589Y28994D01*
X46160Y28946D02*
X49540D01*
X34609Y35466D02*
X40755D01*
X52599Y42378D02*
Y44446D01*
X50298Y30594D02*
X53146Y33442D01*
X50999Y46905D02*
X52595Y48501D01*
X52745Y51689D02*
X55188Y49246D01*
X51642Y51689D02*
X52745D01*
X54955Y47723D02*
X55188Y47956D01*
X54955Y46801D02*
Y47723D01*
X52599Y44446D02*
X54955Y46801D01*
X55188Y47956D02*
Y49246D01*
X62194Y51178D02*
X63690Y52674D01*
X62194Y51086D02*
Y51178D01*
X61275Y50167D02*
X62194Y51086D01*
X61275Y45377D02*
Y50167D01*
X45121Y18633D02*
X46275Y17479D01*
Y13958D02*
Y17479D01*
Y13958D02*
X46373Y13859D01*
X64090D02*
Y18879D01*
X52369Y21756D02*
X52721Y22107D01*
X58407Y24562D02*
X64090Y18879D01*
X52638Y24562D02*
X58407D01*
X50566Y26634D02*
X52638Y24562D01*
X59033Y20590D02*
X59041D01*
X58752Y20310D02*
X59033Y20590D01*
X50220Y13950D02*
X50310Y13859D01*
X52279D02*
X52369Y13950D01*
X27867Y30634D02*
X30862Y27639D01*
X25054Y30689D02*
X27788D01*
X25052Y30691D02*
X25054Y30689D01*
X31337Y29560D02*
X34609D01*
X30862Y27639D02*
X34562D01*
X18811Y8146D02*
X18821Y8156D01*
X10328Y8146D02*
X18811D01*
X10318Y8156D02*
X10328Y8146D01*
X9998Y8156D02*
X10318D01*
X7533Y10621D02*
X9998Y8156D01*
X34562Y27639D02*
X34609Y27592D01*
X32296Y33497D02*
X34609D01*
X48926Y30594D02*
X50298D01*
X48877Y30546D02*
X48926Y30594D01*
X46152Y28939D02*
X46160Y28946D01*
X48850Y34750D02*
Y42672D01*
X51244Y33807D02*
Y41471D01*
X49632Y32194D02*
X51244Y33807D01*
X40186Y19386D02*
X43002D01*
X45216Y33977D02*
Y34554D01*
X43919Y43198D02*
X44252D01*
X42146Y44762D02*
Y47213D01*
X41559Y44176D02*
X42146Y44762D01*
X48639Y42800D02*
X48722D01*
X47710Y45160D02*
X48037Y45487D01*
X47662Y45160D02*
X47710D01*
X46279Y43778D02*
X47662Y45160D01*
X53391Y29282D02*
X55345D01*
X53052Y28943D02*
X53391Y29282D01*
X54368Y26922D02*
X72357D01*
X52599Y42378D02*
X53146Y41832D01*
Y33442D02*
Y41832D01*
X50999Y41715D02*
Y46905D01*
Y41715D02*
X51244Y41471D01*
X45350Y34600D02*
X45730Y34220D01*
X55345Y29282D02*
X56087Y28540D01*
X51595Y28943D02*
X53052D01*
X47875Y45648D02*
X48037Y45487D01*
X47875Y45648D02*
Y46847D01*
X45121Y33882D02*
X45216Y33977D01*
X45121Y33882D02*
X45208Y33794D01*
X50913Y26733D02*
X50929Y26749D01*
X44252Y43198D02*
X44600Y42850D01*
X41559Y44109D02*
Y44176D01*
X51351Y51398D02*
X51642Y51689D01*
X20776Y8156D02*
X22343Y6589D01*
Y0D02*
Y6589D01*
X18821Y8156D02*
X20776D01*
X15169Y20610D02*
X20417D01*
X37623Y0D02*
X37839Y216D01*
Y7437D01*
X14130Y13468D02*
X16067Y11531D01*
X18158Y9756D02*
X22360D01*
X18148Y9746D02*
X18158Y9756D01*
X10991Y9746D02*
X18148D01*
X8350Y5796D02*
X19798D01*
X4465Y9681D02*
X8350Y5796D01*
X42717Y0D02*
Y5248D01*
X47811Y0D02*
Y4911D01*
X43002Y19386D02*
X43521Y19905D01*
X32530Y0D02*
Y4655D01*
X6886Y62898D02*
X10142Y66154D01*
Y60052D02*
X10560D01*
X10142Y55508D02*
Y60052D01*
X9850Y55216D02*
X10142Y55508D01*
X3742Y55222D02*
Y60052D01*
Y55222D02*
X3748Y55216D01*
X3742Y66154D02*
X7024Y69436D01*
X17252Y71170D02*
Y74803D01*
X15518Y69436D02*
X17252Y71170D01*
X7024Y69436D02*
X15518D01*
X53478Y54110D02*
X55534Y52053D01*
X50723Y54110D02*
X53478D01*
X58198Y52690D02*
Y53396D01*
X60594Y52915D02*
X62716Y55037D01*
X60594Y51749D02*
Y52915D01*
X59175Y50330D02*
X60594Y51749D01*
X55534Y52015D02*
Y52053D01*
X59158Y50330D02*
X59175D01*
X64923Y43994D02*
X68962Y48032D01*
X62657Y43994D02*
X64923D01*
X70893Y48036D02*
X74919D01*
X75678Y47277D01*
X74186Y49636D02*
X74860Y50310D01*
X70231Y49636D02*
X74186D01*
X70890Y48032D02*
X70893Y48036D01*
X68962Y48032D02*
X70890D01*
X70227Y49632D02*
X70231Y49636D01*
X70802Y44702D02*
Y45673D01*
X69942Y51922D02*
Y51996D01*
Y51922D02*
X69943Y51921D01*
X71800Y53850D02*
X72500D01*
X74860Y50310D02*
Y56145D01*
X69942Y51921D02*
X69943Y51921D01*
X66239Y52938D02*
X66822D01*
X64090Y55543D02*
Y59041D01*
X63584Y55037D02*
X64090Y55543D01*
X62716Y55037D02*
X63584D01*
X63256Y52674D02*
X63690D01*
X55534Y52015D02*
X57272Y50276D01*
X63635Y46354D02*
Y46546D01*
X61275Y45377D02*
X62657Y43994D01*
X58099Y43722D02*
X60663Y41159D01*
X57650Y32246D02*
Y40450D01*
X55290Y32351D02*
Y42116D01*
X68110Y54988D02*
X69182Y53915D01*
X68110Y54988D02*
Y58958D01*
X58915Y46082D02*
Y50086D01*
X57272Y47777D02*
Y50276D01*
X56555Y47060D02*
X57272Y47777D01*
X56555Y45105D02*
Y47060D01*
Y45105D02*
X57937Y43722D01*
X54959Y42447D02*
Y43356D01*
X46279Y35530D02*
Y43778D01*
X38821Y41371D02*
X41559Y44109D01*
X41153Y39403D02*
X44600Y42850D01*
X75678Y47277D02*
X79791D01*
X70086Y55564D02*
X71800Y53850D01*
X70086Y55564D02*
Y58950D01*
X69942Y51921D02*
X69943Y51920D01*
X48722Y42800D02*
X48850Y42672D01*
X57937Y43722D02*
X58099D01*
X58915Y50086D02*
X59158Y50330D01*
X54959Y42447D02*
X55290Y42116D01*
X66141Y53035D02*
Y58957D01*
Y53035D02*
X66239Y52938D01*
X69182Y52418D02*
Y53915D01*
X69943Y51657D02*
Y51920D01*
X74400Y45218D02*
X79700D01*
X75378Y42858D02*
X75859Y43340D01*
X79791D01*
X70800Y44700D02*
X70802Y44702D01*
X63059Y52871D02*
X63256Y52674D01*
X98758Y66904D02*
Y74803D01*
X103851Y65651D02*
Y74803D01*
X34609Y39403D02*
X41153D01*
X54943Y32005D02*
X55046D01*
X85394Y46444D02*
X87265Y48315D01*
X78384Y70041D02*
Y72441D01*
X76509Y68166D02*
X78384Y70041D01*
X72116Y69766D02*
X73290Y70940D01*
X83477Y68954D02*
Y74803D01*
X81090Y66566D02*
X83477Y68954D01*
X49516Y66566D02*
X81090D01*
X93127Y66706D02*
Y71904D01*
X89788Y63366D02*
X93127Y66706D01*
X58466Y63366D02*
X89788D01*
X88571Y69146D02*
Y72441D01*
X84391Y64966D02*
X88571Y69146D01*
X57266Y64966D02*
X84391D01*
X59075Y1075D02*
Y4052D01*
X52906Y4818D02*
X58139Y10052D01*
X58766Y7080D02*
Y7706D01*
X60153Y9093D02*
Y13859D01*
X58766Y7706D02*
X60153Y9093D01*
X27436Y2362D02*
Y4680D01*
X37691Y43340D02*
X38642Y44291D01*
X31438Y49336D02*
X34519D01*
X36556Y73728D02*
X37630Y74803D01*
X52906Y0D02*
Y4818D01*
X69995Y13859D02*
Y20753D01*
X66839Y23910D02*
X69995Y20753D01*
X62933Y23910D02*
X66839D01*
X72357Y26922D02*
X74630Y24650D01*
X62121Y13859D02*
Y16941D01*
X61199Y17863D02*
X62121Y16941D01*
X95319Y5319D02*
X96550Y6550D01*
X57650Y32246D02*
X58650Y31246D01*
X69943Y51657D02*
X70246Y51354D01*
X34609Y21686D02*
X41100D01*
X50220Y55869D02*
Y58950D01*
X42436Y59041D02*
Y63227D01*
X44193Y64984D01*
X50220Y58950D02*
X50310Y59041D01*
X74630Y18820D02*
Y24650D01*
Y18820D02*
X75677Y17773D01*
X75894Y39493D02*
X79700D01*
X74137Y41250D02*
X75894Y39493D01*
X66149Y8643D02*
Y13769D01*
X68130Y8924D02*
Y13756D01*
X68027Y13859D02*
X68130Y13756D01*
X56193Y10461D02*
X56216D01*
X54247Y10778D02*
Y13859D01*
X58000Y0D02*
X59075Y1075D01*
X56216Y10461D02*
Y13859D01*
X71964Y59041D02*
X74860Y56145D01*
X70800Y44700D02*
X72642Y42858D01*
X75378D01*
X75877Y17773D02*
X78286Y20181D01*
X75677Y17773D02*
X75877D01*
X79791Y49245D02*
X79881Y49155D01*
X79791Y45308D02*
X79836Y45353D01*
X82917D01*
X79836Y43385D02*
X79881Y43430D01*
X79791Y43340D02*
X79836Y43385D01*
X83211D01*
X82917Y45353D02*
X83794Y46231D01*
Y47809D01*
X87300Y44900D02*
X87800D01*
X86437Y44037D02*
X87300Y44900D01*
X85394Y45568D02*
Y46444D01*
X83211Y43385D02*
X85394Y45568D01*
X86433Y44037D02*
X86437D01*
X85788Y43392D02*
X86433Y44037D01*
X85788Y43388D02*
Y43392D01*
X83862Y41462D02*
X85788Y43388D01*
X79881Y41462D02*
X83862D01*
X79700Y45218D02*
X79791Y45308D01*
X68027Y59041D02*
X68110Y58958D01*
X69995Y59041D02*
X70086Y58950D01*
X71964Y13859D02*
Y15274D01*
X72054Y15364D01*
X73469D01*
X78286Y20181D02*
Y21596D01*
X78376Y21686D01*
X79791D01*
X58650Y30900D02*
Y31246D01*
X34609Y41371D02*
X38821D01*
X58139Y10052D02*
Y13814D01*
X58184Y13859D01*
X58094Y13769D02*
X58139Y13814D01*
X79791Y41371D02*
X79881Y41462D01*
X66058Y13859D02*
X66149Y13769D01*
X34609Y43340D02*
X37691D01*
X46373Y63423D02*
X49516Y66566D01*
X46373Y59041D02*
Y63423D01*
X42436Y13859D02*
Y14709D01*
X66058Y59041D02*
X66141Y58957D01*
X4362Y38501D02*
Y45343D01*
Y38501D02*
X4863Y38000D01*
X26361Y1287D02*
X27436Y2362D01*
X26361Y1287D02*
X26361Y3437D01*
X27436Y2362D01*
Y0D02*
Y2362D01*
X79791Y29560D02*
X83879D01*
X79791Y31529D02*
X79881Y31438D01*
X73290Y70940D02*
Y74803D01*
X78384Y72441D02*
Y74803D01*
X77309Y75878D02*
X78384Y74803D01*
X87496Y73516D02*
X88571Y72441D01*
X87496Y71366D02*
X87496Y73516D01*
X92590Y72441D02*
X93127Y71904D01*
X93664Y72441D01*
X92590Y71366D02*
X93127Y71904D01*
X92590Y72441D02*
X92590Y71366D01*
X34519Y49336D02*
X34609Y49245D01*
X58184Y63084D02*
X58466Y63366D01*
X56216Y63916D02*
X57266Y64966D01*
X77309Y71366D02*
X78384Y72441D01*
X56216Y59041D02*
Y63916D01*
X88571Y72441D02*
Y74803D01*
X87496Y71366D02*
X88571Y72441D01*
X58184Y59041D02*
Y63084D01*
X93664Y72441D02*
Y74803D01*
D14*
X83866Y13693D02*
D03*
X78354D02*
D03*
X82768Y59764D02*
D03*
X88279D02*
D03*
D15*
X96811Y52953D02*
D03*
Y58465D02*
D03*
X15677Y34083D02*
D03*
Y28571D02*
D03*
D16*
X10429Y28941D02*
D03*
X6098D02*
D03*
X10429Y33358D02*
D03*
X6098D02*
D03*
X21701Y27953D02*
D03*
X26032D02*
D03*
X21701Y32972D02*
D03*
X26032D02*
D03*
D17*
X101677Y37138D02*
D03*
Y33516D02*
D03*
X101012Y19287D02*
D03*
Y22909D02*
D03*
D18*
X94886Y45390D02*
D03*
X91264D02*
D03*
X93126Y15303D02*
D03*
X89504D02*
D03*
D19*
X28764Y18287D02*
D03*
Y12185D02*
D03*
X34972Y18287D02*
D03*
Y12185D02*
D03*
X15126Y20630D02*
D03*
Y14527D02*
D03*
X21413Y20630D02*
D03*
Y14527D02*
D03*
X3742Y66154D02*
D03*
Y60052D02*
D03*
X10142D02*
D03*
Y66154D02*
D03*
D20*
X16532Y67091D02*
D03*
Y59610D02*
D03*
X24799Y63350D02*
D03*
D21*
X13106Y48520D02*
D03*
X4130D02*
D03*
D22*
X4878Y40130D02*
D03*
X17752D02*
D03*
D23*
X15563Y54094D02*
D03*
X21665D02*
D03*
X9850Y55216D02*
D03*
X3748D02*
D03*
X24587Y47512D02*
D03*
X18484D02*
D03*
D24*
X86248Y21583D02*
D03*
X96091D02*
D03*
D25*
X95550Y31519D02*
D03*
Y40181D02*
D03*
X89250D02*
D03*
Y31519D02*
D03*
D26*
X79791Y21686D02*
D03*
Y23655D02*
D03*
Y25623D02*
D03*
Y27592D02*
D03*
Y29560D02*
D03*
Y31529D02*
D03*
Y33497D02*
D03*
Y35466D02*
D03*
Y37434D02*
D03*
Y39403D02*
D03*
Y41371D02*
D03*
Y43340D02*
D03*
Y45308D02*
D03*
Y47277D02*
D03*
Y49245D02*
D03*
Y51214D02*
D03*
X34609D02*
D03*
Y49245D02*
D03*
Y47277D02*
D03*
Y45308D02*
D03*
Y43340D02*
D03*
Y41371D02*
D03*
Y39403D02*
D03*
Y37434D02*
D03*
Y35466D02*
D03*
Y33497D02*
D03*
Y31529D02*
D03*
Y29560D02*
D03*
Y27592D02*
D03*
Y25623D02*
D03*
Y23655D02*
D03*
Y21686D02*
D03*
D27*
X71964Y59041D02*
D03*
X69995D02*
D03*
X68027D02*
D03*
X66058D02*
D03*
X64090D02*
D03*
X62121D02*
D03*
X60153D02*
D03*
X58184D02*
D03*
X56216D02*
D03*
X54247D02*
D03*
X52279D02*
D03*
X50310D02*
D03*
X48342D02*
D03*
X46373D02*
D03*
X44405D02*
D03*
X42436D02*
D03*
Y13859D02*
D03*
X44405D02*
D03*
X46373D02*
D03*
X48342D02*
D03*
X50310D02*
D03*
X52279D02*
D03*
X54247D02*
D03*
X56216D02*
D03*
X58184D02*
D03*
X60153D02*
D03*
X62121D02*
D03*
X64090D02*
D03*
X66058D02*
D03*
X68027D02*
D03*
X69995D02*
D03*
X71964D02*
D03*
D45*
X4465Y19681D02*
D03*
Y14681D02*
D03*
D46*
Y9681D02*
D03*
D47*
X98757Y1181D02*
D03*
X93662D02*
D03*
X103851D02*
D03*
X88568D02*
D03*
X58000D02*
D03*
X63095D02*
D03*
X68189D02*
D03*
X73284D02*
D03*
X78378D02*
D03*
X83473D02*
D03*
X52906D02*
D03*
X47811D02*
D03*
X42717D02*
D03*
X12156D02*
D03*
X17249D02*
D03*
X22343D02*
D03*
X27436D02*
D03*
X32530D02*
D03*
X37623D02*
D03*
X7062D02*
D03*
X1969D02*
D03*
X7063Y73622D02*
D03*
X12158D02*
D03*
X1969D02*
D03*
X17252D02*
D03*
X47820D02*
D03*
X42725D02*
D03*
X37630D02*
D03*
X32536D02*
D03*
X27441D02*
D03*
X22347D02*
D03*
X52914D02*
D03*
X58009D02*
D03*
X63103D02*
D03*
X93664D02*
D03*
X88571D02*
D03*
X83477D02*
D03*
X78384D02*
D03*
X73290D02*
D03*
X68197D02*
D03*
X98758D02*
D03*
X103851D02*
D03*
D48*
X78079Y59630D02*
D03*
X88193Y60094D02*
D03*
X82050Y54450D02*
D03*
X85850Y53350D02*
D03*
X70037Y38002D02*
D03*
X64551Y39851D02*
D03*
X64480Y36118D02*
D03*
X90583Y7732D02*
D03*
X21312Y27954D02*
D03*
X26032Y27953D02*
D03*
X21312Y33049D02*
D03*
X38177Y15516D02*
D03*
X41161Y21748D02*
D03*
X43458Y26185D02*
D03*
X25402Y37894D02*
D03*
X28947Y37513D02*
D03*
X30882Y60472D02*
D03*
X27791Y59114D02*
D03*
X25102Y57370D02*
D03*
X39165Y55839D02*
D03*
X41764Y52508D02*
D03*
X43722Y50051D02*
D03*
X15642Y28638D02*
D03*
X10110Y25192D02*
D03*
X11593Y22263D02*
D03*
X12039Y17551D02*
D03*
X25157Y17618D02*
D03*
X29304Y7881D02*
D03*
X36205Y9196D02*
D03*
X3165Y30016D02*
D03*
X3771Y24637D02*
D03*
X6891Y24936D02*
D03*
X98524Y16178D02*
D03*
X41157Y35063D02*
D03*
X18039Y40161D02*
D03*
X14223Y45375D02*
D03*
X39850Y65500D02*
D03*
X49943Y19411D02*
D03*
X59041Y20590D02*
D03*
X52721Y22107D02*
D03*
X26032Y33049D02*
D03*
X50566Y26634D02*
D03*
X48850Y34750D02*
D03*
X47185Y26583D02*
D03*
X45216Y34554D02*
D03*
X43919Y43198D02*
D03*
X48639Y42800D02*
D03*
X54368Y26922D02*
D03*
X19798Y5796D02*
D03*
X51642Y51689D02*
D03*
X58198Y52690D02*
D03*
X70802Y45673D02*
D03*
X69942Y51996D02*
D03*
X72500Y53850D02*
D03*
X66822Y52938D02*
D03*
X63690Y52674D02*
D03*
X63635Y46354D02*
D03*
X57650Y40450D02*
D03*
X58915Y46082D02*
D03*
X54959Y43356D02*
D03*
X52595Y48501D02*
D03*
X47875Y46847D02*
D03*
X74400Y45218D02*
D03*
X72173Y30835D02*
D03*
X55046Y32005D02*
D03*
X58766Y7080D02*
D03*
X42146Y47213D02*
D03*
X62933Y23910D02*
D03*
X62252Y7854D02*
D03*
X30807Y67590D02*
D03*
X44193Y64984D02*
D03*
X74630Y24650D02*
D03*
X89339Y31559D02*
D03*
X95492Y39795D02*
D03*
X87800Y44900D02*
D03*
X58650Y30900D02*
D03*
X96550Y6550D02*
D03*
M02*
