G04*
G04 #@! TF.GenerationSoftware,Altium Limited,Altium Designer,20.0.2 (26)*
G04*
G04 Layer_Color=8388736*
%FSLAX25Y25*%
%MOIN*%
G70*
G01*
G75*
%ADD28R,0.03753X0.04501*%
%ADD29R,0.04501X0.03753*%
%ADD30R,0.03556X0.03162*%
%ADD31R,0.03241X0.03162*%
%ADD32R,0.03162X0.03241*%
%ADD33R,0.04147X0.04147*%
%ADD34R,0.05918X0.03162*%
%ADD35R,0.05072X0.02965*%
%ADD36R,0.04383X0.05603*%
%ADD37R,0.04147X0.04147*%
%ADD38R,0.04737X0.07887*%
%ADD39R,0.05524X0.06312*%
%ADD40R,0.06607X0.01981*%
%ADD41R,0.01981X0.06607*%
%ADD42C,0.04737*%
%ADD43R,0.04737X0.04737*%
%ADD44R,0.03950X0.06312*%
D28*
X83866Y13693D02*
D03*
X78354D02*
D03*
X82768Y59764D02*
D03*
X88279D02*
D03*
D29*
X96811Y52953D02*
D03*
Y58465D02*
D03*
X15677Y34083D02*
D03*
Y28571D02*
D03*
D30*
X10429Y28941D02*
D03*
X6098D02*
D03*
X10429Y33358D02*
D03*
X6098D02*
D03*
X21701Y27953D02*
D03*
X26032D02*
D03*
X21701Y32972D02*
D03*
X26032D02*
D03*
D31*
X101677Y37138D02*
D03*
Y33516D02*
D03*
X101012Y19287D02*
D03*
Y22909D02*
D03*
D32*
X94886Y45390D02*
D03*
X91264D02*
D03*
X93126Y15303D02*
D03*
X89504D02*
D03*
D33*
X28764Y18287D02*
D03*
Y12185D02*
D03*
X34972Y18287D02*
D03*
Y12185D02*
D03*
X15126Y20630D02*
D03*
Y14527D02*
D03*
X21413Y20630D02*
D03*
Y14527D02*
D03*
X3742Y66154D02*
D03*
Y60052D02*
D03*
X10142D02*
D03*
Y66154D02*
D03*
D34*
X16532Y67091D02*
D03*
Y59610D02*
D03*
X24799Y63350D02*
D03*
D35*
X13106Y48520D02*
D03*
X4130D02*
D03*
D36*
X4878Y40130D02*
D03*
X17752D02*
D03*
D37*
X15563Y54094D02*
D03*
X21665D02*
D03*
X9850Y55216D02*
D03*
X3748D02*
D03*
X24587Y47512D02*
D03*
X18484D02*
D03*
D38*
X86248Y21583D02*
D03*
X96091D02*
D03*
D39*
X95550Y31519D02*
D03*
Y40181D02*
D03*
X89250D02*
D03*
Y31519D02*
D03*
D40*
X79791Y21686D02*
D03*
Y23655D02*
D03*
Y25623D02*
D03*
Y27592D02*
D03*
Y29560D02*
D03*
Y31529D02*
D03*
Y33497D02*
D03*
Y35466D02*
D03*
Y37434D02*
D03*
Y39403D02*
D03*
Y41371D02*
D03*
Y43340D02*
D03*
Y45308D02*
D03*
Y47277D02*
D03*
Y49245D02*
D03*
Y51214D02*
D03*
X34609D02*
D03*
Y49245D02*
D03*
Y47277D02*
D03*
Y45308D02*
D03*
Y43340D02*
D03*
Y41371D02*
D03*
Y39403D02*
D03*
Y37434D02*
D03*
Y35466D02*
D03*
Y33497D02*
D03*
Y31529D02*
D03*
Y29560D02*
D03*
Y27592D02*
D03*
Y25623D02*
D03*
Y23655D02*
D03*
Y21686D02*
D03*
D41*
X71964Y59041D02*
D03*
X69995D02*
D03*
X68027D02*
D03*
X66058D02*
D03*
X64090D02*
D03*
X62121D02*
D03*
X60153D02*
D03*
X58184D02*
D03*
X56216D02*
D03*
X54247D02*
D03*
X52279D02*
D03*
X50310D02*
D03*
X48342D02*
D03*
X46373D02*
D03*
X44405D02*
D03*
X42436D02*
D03*
Y13859D02*
D03*
X44405D02*
D03*
X46373D02*
D03*
X48342D02*
D03*
X50310D02*
D03*
X52279D02*
D03*
X54247D02*
D03*
X56216D02*
D03*
X58184D02*
D03*
X60153D02*
D03*
X62121D02*
D03*
X64090D02*
D03*
X66058D02*
D03*
X68027D02*
D03*
X69995D02*
D03*
X71964D02*
D03*
D42*
X4465Y19681D02*
D03*
Y14681D02*
D03*
D43*
Y9681D02*
D03*
D44*
X98757Y1181D02*
D03*
X93662D02*
D03*
X103851D02*
D03*
X88568D02*
D03*
X58000D02*
D03*
X63095D02*
D03*
X68189D02*
D03*
X73284D02*
D03*
X78378D02*
D03*
X83473D02*
D03*
X52906D02*
D03*
X47811D02*
D03*
X42717D02*
D03*
X12156D02*
D03*
X17249D02*
D03*
X22343D02*
D03*
X27436D02*
D03*
X32530D02*
D03*
X37623D02*
D03*
X7062D02*
D03*
X1969D02*
D03*
X7063Y73622D02*
D03*
X12158D02*
D03*
X1969D02*
D03*
X17252D02*
D03*
X47820D02*
D03*
X42725D02*
D03*
X37630D02*
D03*
X32536D02*
D03*
X27441D02*
D03*
X22347D02*
D03*
X52914D02*
D03*
X58009D02*
D03*
X63103D02*
D03*
X93664D02*
D03*
X88571D02*
D03*
X83477D02*
D03*
X78384D02*
D03*
X73290D02*
D03*
X68197D02*
D03*
X98758D02*
D03*
X103851D02*
D03*
M02*
