G04*
G04 #@! TF.GenerationSoftware,Altium Limited,Altium Designer,20.0.2 (26)*
G04*
G04 Layer_Color=65535*
%FSLAX25Y25*%
%MOIN*%
G70*
G01*
G75*
%ADD10C,0.00787*%
%ADD11C,0.01000*%
%ADD12C,0.00984*%
%ADD13C,0.00600*%
D10*
X1524Y40445D02*
G03*
X1524Y40445I-210J0D01*
G01*
X921Y23224D02*
X8008D01*
X921Y6138D02*
Y23224D01*
Y6138D02*
X8008D01*
Y23224D01*
X20469Y69098D02*
X20862D01*
Y57602D02*
Y69098D01*
X20469Y57602D02*
X20862D01*
X20469D02*
Y69098D01*
X13972Y69256D02*
X19091D01*
X5350Y46000D02*
X15240D01*
X5350Y51039D02*
X11886D01*
X8165Y43476D02*
X14465D01*
X8165Y36783D02*
X14465D01*
X38893Y18143D02*
X75507D01*
X38893D02*
Y54757D01*
X75507D01*
Y18143D02*
Y54757D01*
D11*
X99177Y27496D02*
G03*
X99177Y27496I-281J0D01*
G01*
X89201Y18630D02*
X93138D01*
X89201Y24535D02*
X93138D01*
X-13600Y4598D02*
Y-1400D01*
Y1599D01*
X-9601D01*
Y4598D01*
Y-1400D01*
X-3603D02*
X-7602D01*
X-3603Y2599D01*
Y3598D01*
X-4603Y4598D01*
X-6602D01*
X-7602Y3598D01*
X-12550Y77048D02*
Y71050D01*
Y74049D01*
X-8551D01*
Y77048D01*
Y71050D01*
X-6552D02*
X-4553D01*
X-5552D01*
Y77048D01*
X-6552Y76048D01*
D12*
X82200Y18733D02*
G03*
X82200Y18733I-492J0D01*
G01*
D13*
X26008Y10512D02*
Y19961D01*
X31520Y10512D02*
Y19961D01*
X32217Y10512D02*
Y19961D01*
X37728Y10512D02*
Y19961D01*
X12370Y12854D02*
Y22303D01*
X17882Y12854D02*
Y22303D01*
X18657Y12854D02*
Y22303D01*
X24169Y12854D02*
Y22303D01*
X13890Y51338D02*
X23339D01*
X13890Y56850D02*
X23339D01*
X986Y58378D02*
Y67827D01*
X6498Y58378D02*
Y67827D01*
X6800Y53642D02*
Y56791D01*
X16811Y50268D02*
X26260D01*
X16811Y44756D02*
X26260D01*
X12898Y58378D02*
Y67827D01*
X7386Y58378D02*
Y67827D01*
M02*
