M48
;Layer_Color=9474304
;FILE_FORMAT=2:5
INCH,TZ
;TYPE=PLATED
T1F00S00C0.01220
T2F00S00C0.02362
T3F00S00C0.03150
%
T01
X90583Y7732
X96550Y6550
X98524Y16178
X89339Y31559
X95492Y39795
X87800Y44900
X74400Y45218
X70802Y45673
X70037Y38002
X64551Y39851
X64480Y36118
X72173Y30835
X74630Y24650
X62933Y23910
X59041Y20590
X52721Y22107
X49943Y19411
X50566Y26634
X47185Y26583
X43458Y26185
X41161Y21748
X38177Y15516
X36205Y9196
X29304Y7881
X19798Y5796
X25157Y17618
X26032Y27953
X21312Y27954
Y33049
X26032
X25402Y37894
X28947Y37513
X18039Y40161
X14223Y45375
X15642Y28638
X10110Y25192
X6891Y24936
X3771Y24637
X3165Y30016
X11593Y22263
X12039Y17551
X41157Y35063
X45216Y34554
X48850Y34750
X48639Y42800
X43919Y43198
X54959Y43356
X57650Y40450
X58650Y30900
X55046Y32005
X54368Y26922
X58766Y7080
X62252Y7854
X58915Y46082
X58198Y52690
X51642Y51689
X52595Y48501
X47875Y46847
X42146Y47213
X43722Y50051
X41764Y52508
X39165Y55839
X39850Y65500
X44193Y64984
X30807Y67590
X30882Y60472
X27791Y59114
X25102Y57370
X63690Y52674
X66822Y52938
X69942Y51996
X72500Y53850
X82050Y54450
X85850Y53350
X88193Y60094
X78079Y59630
X63635Y46354
T02
X4465Y9681
Y14681
Y19681
T03
X68189Y0
X73284
X78378
X83473
X88568
X93662
X98757
X103851
X63095
X58000
X52906
X47811
X42717
X37623
X32530
X27436
X22343
X17249
X12156
X7062
X1969
Y74803
X7063
X12158
X17252
X22347
X27441
X32536
X37630
X42725
X47820
X52914
X58009
X63103
X68197
X73290
X78384
X83477
X88571
X93664
X98758
X103851
M30
