G04*
G04 #@! TF.GenerationSoftware,Altium Limited,Altium Designer,20.0.2 (26)*
G04*
G04 Layer_Color=32768*
%FSLAX25Y25*%
%MOIN*%
G70*
G01*
G75*
%ADD53C,0.00197*%
D53*
X76287Y11252D02*
X85933D01*
X76287D02*
Y16134D01*
X85933D01*
Y11252D02*
Y16134D01*
X94370Y50886D02*
Y60532D01*
X99252D01*
Y50886D02*
Y60532D01*
X94370Y50886D02*
X99252D01*
X80701Y62205D02*
X90346D01*
Y57323D02*
Y62205D01*
X80701Y57323D02*
X90346D01*
X80701D02*
Y62205D01*
X18118Y26504D02*
Y36150D01*
X13236Y26504D02*
X18118D01*
X13236D02*
Y36150D01*
X18118D01*
X3736Y26776D02*
X12791D01*
X3736D02*
Y31106D01*
X12791D01*
Y26776D02*
Y31106D01*
X3736Y31193D02*
X12791D01*
X3736D02*
Y35524D01*
X12791D01*
Y31193D02*
Y35524D01*
X103488Y31744D02*
Y38909D01*
X99866Y31744D02*
X103488D01*
X99866D02*
Y38909D01*
X103488D01*
X89492Y43579D02*
X96658D01*
X89492D02*
Y47201D01*
X96658D01*
Y43579D02*
Y47201D01*
X99201Y17516D02*
Y24681D01*
X102823D01*
Y17516D02*
Y24681D01*
X99201Y17516D02*
X102823D01*
X87732Y13492D02*
X94898D01*
X87732D02*
Y17114D01*
X94898D01*
Y13492D02*
Y17114D01*
X19339Y30118D02*
X28394D01*
Y25787D02*
Y30118D01*
X19339Y25787D02*
X28394D01*
X19339D02*
Y30118D01*
Y35138D02*
X28394D01*
Y30807D02*
Y35138D01*
X19339Y30807D02*
X28394D01*
X19339D02*
Y35138D01*
X12988Y70319D02*
X28343D01*
Y56382D02*
Y70319D01*
X12988Y56382D02*
X28343D01*
X12988D02*
Y70319D01*
X843Y43992D02*
X16394D01*
X843D02*
Y53047D01*
X16394D01*
Y43992D02*
Y53047D01*
X30724Y9974D02*
X83676D01*
X30724D02*
Y62926D01*
X83676D01*
Y9974D02*
Y62926D01*
M02*
