M48
;Layer_Color=9474304
;FILE_FORMAT=2:5
INCH,TZ
;TYPE=PLATED
T1F00S00C0.01200
T2F00S00C0.05512
%
T01
X157764Y12795
X161857
X165949
X170041
X174134
X178921Y16531
X191588Y14348
X194193Y11898
X198961Y19410
X202801Y20726
X207953Y16378
X208388Y11398
X215904Y18858
X218268Y21220
X221260Y13898
X226338Y13148
X229788Y13348
X235433Y15253
X227488Y38748
X209465Y35271
X202801Y33391
X194909Y30957
X193858Y40630
X185075Y34848
X184188Y27348
X184764Y58583
X190433Y66535
X193542Y65747
X204375Y68848
X212323Y72244
X218660Y72716
X218189Y65591
X222715Y68110
X225079Y70433
X230748Y68465
X183288Y72148
X168988Y71648
X161368Y72748
X156358
X151348
X146339
X139588Y68848
X149288Y58447
X166788Y52998
X107652Y70148
X88831Y68448
X89888Y73348
X87290
X82199Y72648
X77109Y63248
X68740Y63071
X61837Y65748
X66927Y70879
X54088Y73348
X49088Y73248
X36384Y71748
X31142Y71811
X27362Y53425
X44173Y61890
X46565Y59571
X49153Y24193
X48306Y18740
X43858Y18465
X38238Y11750
X31438Y10798
X51655Y12518
X57539Y11299
X82199Y12298
X92388Y14648
X97471Y17448
X93068Y22516
X86688Y29948
X72018Y28078
X86538Y53398
X116087Y26334
X112743Y19448
X102562Y11848
T02
X251535Y12382
Y24193
Y36004
Y47815
Y59626
Y71437
X9488
Y59626
Y47815
Y36004
Y24193
Y12382
M30
