G04*
G04 #@! TF.GenerationSoftware,Altium Limited,Altium Designer,20.0.2 (26)*
G04*
G04 Layer_Physical_Order=4*
G04 Layer_Color=16711680*
%FSLAX25Y25*%
%MOIN*%
G70*
G01*
G75*
%ADD10C,0.03937*%
%ADD12C,0.01000*%
%ADD15R,0.03150X0.06299*%
%ADD16C,0.09843*%
%ADD17C,0.02500*%
G36*
X193072Y72439D02*
X193072Y72439D01*
X193157Y72010D01*
X193188Y71964D01*
X192759Y70964D01*
X190033D01*
X190033Y70964D01*
X189603Y70879D01*
X189240Y70636D01*
X189240Y70636D01*
X187120Y68516D01*
X186877Y68152D01*
X186792Y67723D01*
X186792Y67723D01*
Y54938D01*
X180024Y48170D01*
X171165D01*
X170782Y49093D01*
X181314Y59625D01*
X181315Y59625D01*
X181558Y59989D01*
X181643Y60418D01*
X181643Y60418D01*
Y64702D01*
X189896Y72955D01*
X189896Y72955D01*
X190139Y73319D01*
X190224Y73748D01*
Y74479D01*
X191278D01*
Y74479D01*
X192019D01*
Y74479D01*
X193072D01*
Y72439D01*
D02*
G37*
G36*
X142165Y67811D02*
X141524Y67170D01*
X94953D01*
X93502Y68620D01*
Y74479D01*
X94555D01*
Y74479D01*
X95296D01*
Y74479D01*
X99646D01*
Y74479D01*
X100387D01*
Y74479D01*
X104737D01*
Y74479D01*
X105478D01*
Y74479D01*
X106531D01*
Y71624D01*
X106319Y71482D01*
X105910Y70870D01*
X105766Y70148D01*
X105910Y69426D01*
X106319Y68814D01*
X106931Y68405D01*
X107652Y68262D01*
X108374Y68405D01*
X108986Y68814D01*
X109395Y69426D01*
X109539Y70148D01*
X109395Y70870D01*
X108986Y71482D01*
X108774Y71624D01*
Y74479D01*
X109827D01*
Y74479D01*
X110568D01*
Y74479D01*
X114918D01*
Y74479D01*
X115659D01*
Y74479D01*
X120009D01*
Y74479D01*
X120750D01*
Y74479D01*
X125099D01*
Y74479D01*
X125840D01*
Y74479D01*
X130190D01*
Y74479D01*
X130931D01*
Y74479D01*
X135280D01*
Y74479D01*
X136022D01*
Y74479D01*
X140371D01*
Y74479D01*
X141112D01*
Y74479D01*
X142165D01*
Y67811D01*
D02*
G37*
G36*
X176747Y74479D02*
X177800D01*
Y61546D01*
X169621Y53367D01*
X168536Y53696D01*
X168531Y53720D01*
X168122Y54332D01*
X167510Y54741D01*
X166788Y54884D01*
X166363Y54800D01*
X165586Y55300D01*
X165410Y55505D01*
Y70832D01*
X169057Y74479D01*
X170915D01*
Y75177D01*
X176747D01*
Y74479D01*
D02*
G37*
G36*
X79283Y74479D02*
X80024D01*
X80529Y73479D01*
X80457Y73370D01*
X80313Y72648D01*
X80457Y71926D01*
X80865Y71314D01*
X81477Y70905D01*
X82199Y70762D01*
X82921Y70905D01*
X83533Y71314D01*
X83942Y71926D01*
X84085Y72648D01*
X83982Y73170D01*
X84443Y73860D01*
X84654Y74066D01*
X84708Y74061D01*
X85404Y73348D01*
X85547Y72626D01*
X85956Y72014D01*
X86568Y71605D01*
X87290Y71462D01*
X88012Y71605D01*
X88589Y71991D01*
X89166Y71605D01*
X89888Y71462D01*
X90259Y71536D01*
X91100Y71024D01*
X91226Y70875D01*
X91110Y70096D01*
X90334Y69838D01*
X90152Y69790D01*
X89552Y70191D01*
X88831Y70334D01*
X88109Y70191D01*
X87497Y69782D01*
X87088Y69170D01*
X86944Y68448D01*
X87088Y67726D01*
X87497Y67114D01*
X88109Y66705D01*
X88831Y66562D01*
X89552Y66705D01*
X90164Y67114D01*
X90403Y67472D01*
X90615Y67529D01*
X91302Y67529D01*
X91514Y67472D01*
X91588Y67363D01*
X93695Y65255D01*
X93695Y65255D01*
X94059Y65012D01*
X94488Y64926D01*
X94488Y64926D01*
X141374D01*
X142118Y64477D01*
X142251Y64019D01*
X142494Y63655D01*
X147452Y58697D01*
X147402Y58447D01*
X147546Y57725D01*
X147954Y57113D01*
X148566Y56704D01*
X149288Y56561D01*
X150010Y56704D01*
X150622Y57113D01*
X151031Y57725D01*
X151174Y58447D01*
X151031Y59169D01*
X150622Y59781D01*
X150010Y60189D01*
X149288Y60333D01*
X149038Y60283D01*
X144409Y64913D01*
Y67347D01*
X144409Y67347D01*
X144409Y67347D01*
Y70644D01*
X145408Y71144D01*
X145617Y71005D01*
X146339Y70862D01*
X147060Y71005D01*
X147672Y71414D01*
X148081Y72026D01*
X148170Y72474D01*
X148513Y72712D01*
X149431Y72347D01*
X149574Y72186D01*
X149606Y72026D01*
X150014Y71414D01*
X150626Y71005D01*
X151348Y70862D01*
X152070Y71005D01*
X152682Y71414D01*
X153091Y72026D01*
X153180Y72474D01*
X153523Y72712D01*
X154441Y72347D01*
X154584Y72186D01*
X154615Y72026D01*
X155024Y71414D01*
X155636Y71005D01*
X156358Y70862D01*
X157080Y71005D01*
X157692Y71414D01*
X158101Y72026D01*
X158601Y72293D01*
X159625Y72026D01*
X160034Y71414D01*
X160646Y71005D01*
X161368Y70862D01*
X162089Y71005D01*
X162167Y71057D01*
X163167Y70522D01*
Y54448D01*
X163167Y54448D01*
X163252Y54019D01*
X163495Y53655D01*
X164381Y52770D01*
X163966Y51770D01*
X97853D01*
X76143Y73479D01*
X76558Y74479D01*
X79283D01*
Y74479D01*
D02*
G37*
G36*
X47484Y74177D02*
X47346Y73970D01*
X47202Y73248D01*
X47346Y72526D01*
X47754Y71914D01*
X48366Y71505D01*
X49088Y71362D01*
X49810Y71505D01*
X50422Y71914D01*
X50831Y72526D01*
X50974Y73248D01*
X50857Y73836D01*
X51247Y74514D01*
X51451Y74781D01*
X51661Y74783D01*
X51819Y74617D01*
X52306Y73874D01*
X52202Y73348D01*
X52346Y72626D01*
X52754Y72014D01*
X53366Y71605D01*
X54088Y71462D01*
X54810Y71605D01*
X55422Y72014D01*
X55564Y72227D01*
X64400D01*
X64581Y72082D01*
X65110Y71227D01*
X65041Y70879D01*
X65185Y70157D01*
X65594Y69545D01*
X66206Y69136D01*
X66927Y68993D01*
X67649Y69136D01*
X68261Y69545D01*
X68670Y70157D01*
X68814Y70879D01*
X68744Y71227D01*
X69274Y72082D01*
X69455Y72227D01*
X74224D01*
X95656Y50794D01*
X95242Y49794D01*
X63646D01*
X46992Y66448D01*
X46628Y66692D01*
X46199Y66777D01*
X46198Y66777D01*
X42941D01*
X38220Y71498D01*
X38270Y71748D01*
X38126Y72470D01*
X37717Y73082D01*
X37105Y73491D01*
X36384Y73634D01*
X35662Y73491D01*
X35050Y73082D01*
X34641Y72470D01*
X34497Y71748D01*
X34641Y71026D01*
X35050Y70414D01*
X35662Y70005D01*
X36384Y69862D01*
X36634Y69912D01*
X41683Y64862D01*
X41683Y64862D01*
X42047Y64619D01*
X42476Y64534D01*
X42730Y64353D01*
X42840Y63223D01*
X42431Y62612D01*
X42287Y61890D01*
X42431Y61168D01*
X42840Y60556D01*
X43451Y60147D01*
X44173Y60004D01*
X44772Y59103D01*
X44822Y58850D01*
X45231Y58238D01*
X45843Y57829D01*
X46565Y57685D01*
X47287Y57829D01*
X47899Y58238D01*
X48307Y58850D01*
X48451Y59571D01*
X48307Y60293D01*
X47899Y60905D01*
X47287Y61314D01*
X46565Y61458D01*
X45966Y62358D01*
X45916Y62612D01*
X45671Y62978D01*
X45780Y63949D01*
X45933Y64141D01*
X46130Y64138D01*
X62388Y47879D01*
X62388Y47879D01*
X62752Y47636D01*
X63182Y47551D01*
X63182Y47551D01*
X88598D01*
X88981Y46627D01*
X72268Y29914D01*
X72018Y29964D01*
X71296Y29820D01*
X70684Y29412D01*
X70275Y28800D01*
X70132Y28078D01*
X70275Y27356D01*
X70684Y26744D01*
X71296Y26335D01*
X72018Y26192D01*
X72740Y26335D01*
X73352Y26744D01*
X73761Y27356D01*
X73904Y28078D01*
X73854Y28328D01*
X91453Y45926D01*
X180488D01*
X180488Y45926D01*
X180917Y46012D01*
X181281Y46255D01*
X188706Y53680D01*
X188706Y53680D01*
X188950Y54044D01*
X189035Y54473D01*
X189035Y54473D01*
Y59801D01*
X190035Y60215D01*
X194695Y55555D01*
X195059Y55312D01*
X195488Y55226D01*
X195488Y55226D01*
X234078D01*
X234078Y55226D01*
X234507Y55312D01*
X234871Y55555D01*
X240802Y61486D01*
X240802Y61486D01*
X241045Y61850D01*
X241131Y62279D01*
Y74479D01*
X242184D01*
X242559Y73634D01*
Y10382D01*
X242184Y9537D01*
X241131D01*
Y13076D01*
X241131Y13076D01*
X241045Y13505D01*
X240802Y13869D01*
X240802Y13869D01*
X238625Y16046D01*
X238261Y16289D01*
X237832Y16375D01*
X237832Y16375D01*
X236909D01*
X236767Y16587D01*
X236155Y16996D01*
X235433Y17140D01*
X234711Y16996D01*
X234099Y16587D01*
X234017Y16464D01*
X232805Y16261D01*
X232565Y16502D01*
X232201Y16745D01*
X231772Y16830D01*
X231772Y16830D01*
X228825D01*
X228396Y16745D01*
X228032Y16502D01*
X228032Y16502D01*
X226527Y14997D01*
X226338Y15034D01*
X225616Y14891D01*
X224769Y15298D01*
X222896Y17171D01*
X222532Y17414D01*
X222103Y17500D01*
X222103Y17500D01*
X218425D01*
X218241Y17650D01*
X217735Y18475D01*
X218268Y19334D01*
X218990Y19478D01*
X219601Y19887D01*
X220010Y20499D01*
X220154Y21220D01*
X220010Y21942D01*
X219601Y22554D01*
X218990Y22963D01*
X218268Y23107D01*
X217546Y22963D01*
X216934Y22554D01*
X216525Y21942D01*
X216467Y21652D01*
X215904Y20744D01*
X215183Y20600D01*
X214571Y20191D01*
X214162Y19580D01*
X214018Y18858D01*
X214089Y18499D01*
X213568Y17650D01*
X213384Y17500D01*
X209428D01*
X209286Y17712D01*
X208738Y18078D01*
X208665Y18163D01*
X208434Y19188D01*
X222869Y33623D01*
X226808D01*
X226808Y33623D01*
X227237Y33708D01*
X227601Y33951D01*
X230631Y36981D01*
X230631Y36982D01*
X230874Y37345D01*
X230960Y37775D01*
Y41264D01*
X230960Y41264D01*
X230874Y41693D01*
X230631Y42057D01*
X230631Y42057D01*
X228916Y43773D01*
X228552Y44016D01*
X228122Y44102D01*
X228122Y44102D01*
X148920D01*
X148920Y44102D01*
X148491Y44016D01*
X148127Y43773D01*
X148127Y43773D01*
X135975Y31621D01*
X87514D01*
X87410Y31691D01*
X86688Y31834D01*
X85966Y31691D01*
X85354Y31282D01*
X84945Y30670D01*
X84802Y29948D01*
X84945Y29226D01*
X85354Y28614D01*
X85966Y28205D01*
X86688Y28062D01*
X87410Y28205D01*
X88022Y28614D01*
X88431Y29226D01*
X88461Y29378D01*
X136440D01*
X136440Y29378D01*
X136869Y29463D01*
X137233Y29706D01*
X149385Y41858D01*
X191343D01*
X192017Y40858D01*
X191972Y40630D01*
X192116Y39908D01*
X192525Y39296D01*
X193136Y38887D01*
X193858Y38744D01*
X194580Y38887D01*
X195192Y39296D01*
X195601Y39908D01*
X195745Y40630D01*
X195699Y40858D01*
X196374Y41858D01*
X226985D01*
X227152Y41587D01*
X226766Y40491D01*
X226154Y40082D01*
X225746Y39470D01*
X225602Y38748D01*
X225598Y38743D01*
X207031D01*
X207031Y38743D01*
X206601Y38657D01*
X206237Y38414D01*
X206237Y38414D01*
X203051Y35228D01*
X202801Y35277D01*
X202079Y35134D01*
X201467Y34725D01*
X201058Y34113D01*
X200914Y33391D01*
X201058Y32669D01*
X201467Y32057D01*
X202079Y31648D01*
X202801Y31505D01*
X203522Y31648D01*
X204134Y32057D01*
X204543Y32669D01*
X204687Y33391D01*
X204637Y33641D01*
X206632Y35636D01*
X207276Y35388D01*
X207596Y35186D01*
X207722Y34549D01*
X208131Y33937D01*
X208743Y33528D01*
X209465Y33385D01*
X210187Y33528D01*
X210799Y33937D01*
X211208Y34549D01*
X211351Y35271D01*
X211306Y35500D01*
X211981Y36500D01*
X221251D01*
X221565Y35662D01*
X221574Y35500D01*
X207636Y21562D01*
X206712Y21945D01*
Y22283D01*
X206712Y22284D01*
X206627Y22713D01*
X206384Y23076D01*
X206384Y23076D01*
X204769Y24691D01*
X204406Y24934D01*
X203976Y25019D01*
X203976Y25019D01*
X196490D01*
X186911Y34598D01*
X186961Y34848D01*
X186817Y35570D01*
X186408Y36182D01*
X185796Y36591D01*
X185075Y36734D01*
X184353Y36591D01*
X183741Y36182D01*
X183332Y35570D01*
X183188Y34848D01*
X183332Y34126D01*
X183741Y33514D01*
X184353Y33105D01*
X185075Y32962D01*
X185325Y33012D01*
X195232Y23105D01*
X195596Y22862D01*
X196025Y22776D01*
X196025Y22776D01*
X200834D01*
X200910Y22691D01*
X201277Y21776D01*
X201058Y21448D01*
X200914Y20726D01*
X201058Y20005D01*
X201256Y19708D01*
X198491Y16942D01*
X198248Y16578D01*
X198194Y16309D01*
X197922Y16119D01*
X197860Y16092D01*
X197162Y15960D01*
X186025Y27098D01*
X186074Y27348D01*
X185931Y28070D01*
X185522Y28682D01*
X184910Y29091D01*
X184188Y29234D01*
X183466Y29091D01*
X182854Y28682D01*
X182446Y28070D01*
X182302Y27348D01*
X182446Y26626D01*
X182854Y26014D01*
X183466Y25605D01*
X184188Y25462D01*
X184439Y25512D01*
X193355Y16595D01*
X192717Y15819D01*
X192310Y16091D01*
X191588Y16234D01*
X190866Y16091D01*
X190254Y15682D01*
X189846Y15070D01*
X189702Y14348D01*
X189752Y14098D01*
X188310Y12656D01*
X188067Y12292D01*
X187981Y11863D01*
X187981Y11863D01*
Y9537D01*
X186928D01*
Y9331D01*
X181096D01*
Y9537D01*
X179535D01*
X175956Y13116D01*
X175876Y13517D01*
X175468Y14129D01*
X174856Y14538D01*
X174134Y14682D01*
X173412Y14538D01*
X172800Y14129D01*
X172649Y13903D01*
X171526D01*
X171375Y14129D01*
X170763Y14538D01*
X170041Y14682D01*
X169320Y14538D01*
X168708Y14129D01*
X168557Y13903D01*
X167434D01*
X167283Y14129D01*
X166671Y14538D01*
X165949Y14682D01*
X165227Y14538D01*
X164615Y14129D01*
X164464Y13903D01*
X163341D01*
X163190Y14129D01*
X162578Y14538D01*
X161857Y14682D01*
X161135Y14538D01*
X160523Y14129D01*
X160372Y13903D01*
X159249D01*
X159098Y14129D01*
X158486Y14538D01*
X157764Y14682D01*
X157042Y14538D01*
X156430Y14129D01*
X156021Y13517D01*
X155878Y12795D01*
X156021Y12073D01*
X156430Y11462D01*
X156643Y11320D01*
Y9537D01*
X156384D01*
Y9331D01*
X150552D01*
Y9537D01*
X149460D01*
X149414Y9768D01*
X149171Y10132D01*
X149171Y10132D01*
X146344Y12958D01*
X145980Y13202D01*
X145551Y13287D01*
X145551Y13287D01*
X125748D01*
X125748Y13287D01*
X125319Y13202D01*
X124955Y12958D01*
X122131Y10135D01*
X121888Y9771D01*
X121842Y9537D01*
X120750D01*
Y9537D01*
X120009D01*
Y9537D01*
X115659D01*
X115334Y10402D01*
Y19448D01*
X115246Y20119D01*
X114987Y20743D01*
X114575Y21280D01*
X114039Y21692D01*
X113414Y21950D01*
X112743Y22039D01*
X112073Y21950D01*
X111448Y21692D01*
X110911Y21280D01*
X110500Y20743D01*
X110241Y20119D01*
X110152Y19448D01*
Y10402D01*
X109827Y9537D01*
X105478D01*
Y9537D01*
X104737D01*
X104007Y10191D01*
X103937Y10393D01*
X103911Y10537D01*
X104304Y11126D01*
X104448Y11848D01*
X104304Y12570D01*
X103896Y13182D01*
X103284Y13591D01*
X102562Y13734D01*
X101840Y13591D01*
X101228Y13182D01*
X100819Y12570D01*
X100675Y11848D01*
X100819Y11126D01*
X101213Y10537D01*
X101186Y10393D01*
X101116Y10191D01*
X100387Y9537D01*
X99646D01*
Y9537D01*
X95296D01*
Y9537D01*
X94555D01*
Y9537D01*
X90206D01*
Y9537D01*
X89465D01*
Y9537D01*
X85115D01*
Y9537D01*
X84374D01*
Y9537D01*
X82927D01*
X82829Y10537D01*
X82921Y10555D01*
X83533Y10964D01*
X83942Y11576D01*
X84085Y12298D01*
X83942Y13020D01*
X83533Y13632D01*
X82921Y14041D01*
X82199Y14184D01*
X81949Y14134D01*
X79642Y16441D01*
X79938Y17446D01*
X80066Y17618D01*
X87832D01*
X90552Y14898D01*
X90502Y14648D01*
X90645Y13926D01*
X91054Y13314D01*
X91666Y12905D01*
X92388Y12762D01*
X93110Y12905D01*
X93722Y13314D01*
X94131Y13926D01*
X94274Y14648D01*
X94131Y15370D01*
X93722Y15982D01*
X93110Y16391D01*
X92388Y16534D01*
X92138Y16485D01*
X89619Y19003D01*
X90034Y20003D01*
X90615D01*
X90615Y20003D01*
X91044Y20088D01*
X91408Y20332D01*
X92049Y20972D01*
X92346Y20774D01*
X93068Y20630D01*
X93789Y20774D01*
X94402Y21183D01*
X94810Y21795D01*
X94954Y22516D01*
X94810Y23238D01*
X94402Y23850D01*
X93789Y24259D01*
X93068Y24403D01*
X92346Y24259D01*
X91734Y23850D01*
X91351Y23278D01*
X91291Y23266D01*
X90927Y23023D01*
X90927Y23023D01*
X90150Y22246D01*
X46518D01*
X46518Y22246D01*
X46089Y22161D01*
X45725Y21918D01*
X45725Y21918D01*
X44109Y20301D01*
X43858Y20351D01*
X43136Y20207D01*
X42524Y19798D01*
X42116Y19186D01*
X41972Y18465D01*
X42112Y17760D01*
X42116Y17738D01*
X42117Y17665D01*
X41719Y16713D01*
X41647Y16644D01*
X41343Y16441D01*
X41343Y16441D01*
X38489Y13587D01*
X38238Y13636D01*
X37516Y13493D01*
X36904Y13084D01*
X36496Y12472D01*
X36352Y11750D01*
X36496Y11028D01*
X36824Y10537D01*
X36686Y10019D01*
X36420Y9537D01*
X34209D01*
Y9537D01*
X33690D01*
X33589Y9644D01*
X33386Y9955D01*
X33272Y10537D01*
X33324Y10798D01*
X33181Y11520D01*
X32772Y12132D01*
X32160Y12541D01*
X31438Y12684D01*
X30716Y12541D01*
X30104Y12132D01*
X29695Y11520D01*
X29552Y10798D01*
X29604Y10537D01*
X29118Y9537D01*
X28377D01*
Y9537D01*
X24027D01*
X23702Y10402D01*
Y10759D01*
X23614Y11429D01*
X23355Y12054D01*
X22943Y12591D01*
X21320Y14214D01*
X20784Y14626D01*
X20159Y14884D01*
X19488Y14973D01*
X18983Y15482D01*
X19429Y75177D01*
X46982D01*
X47484Y74177D01*
D02*
G37*
G36*
X80363Y12548D02*
X80313Y12298D01*
X80457Y11576D01*
X80865Y10964D01*
X81477Y10555D01*
X81570Y10537D01*
X81471Y9537D01*
X80024D01*
Y9537D01*
X79283D01*
Y9537D01*
X74934D01*
Y9537D01*
X74193D01*
Y9537D01*
X69843D01*
Y9537D01*
X69102D01*
Y9537D01*
X64753D01*
Y9537D01*
X64012D01*
Y9537D01*
X59790D01*
X59163Y10233D01*
X59140Y10283D01*
X59183Y10429D01*
X59282Y10577D01*
X59426Y11299D01*
X59282Y12021D01*
X58873Y12633D01*
X58261Y13042D01*
X57539Y13185D01*
X56818Y13042D01*
X56206Y12633D01*
X55797Y12021D01*
X55653Y11299D01*
X55797Y10577D01*
X55292Y9781D01*
X54571Y9537D01*
X53830D01*
Y9537D01*
X49481D01*
Y9537D01*
X48740D01*
Y9537D01*
X44390D01*
Y9537D01*
X43649D01*
Y9537D01*
X40056D01*
X39791Y10019D01*
X39653Y10537D01*
X39981Y11028D01*
X40124Y11750D01*
X40075Y12000D01*
X42601Y14526D01*
X49661D01*
X49674Y14513D01*
X50104Y13526D01*
X49913Y13240D01*
X49769Y12518D01*
X49913Y11796D01*
X50322Y11184D01*
X50934Y10775D01*
X51655Y10632D01*
X52377Y10775D01*
X52989Y11184D01*
X53398Y11796D01*
X53542Y12518D01*
X53398Y13240D01*
X53206Y13526D01*
X53636Y14513D01*
X53649Y14526D01*
X78385D01*
X80363Y12548D01*
D02*
G37*
%LPC*%
G36*
X31142Y73697D02*
X30420Y73554D01*
X29808Y73145D01*
X29399Y72533D01*
X29256Y71811D01*
X29399Y71089D01*
X29808Y70477D01*
X30420Y70068D01*
X31142Y69925D01*
X31864Y70068D01*
X32476Y70477D01*
X32884Y71089D01*
X33028Y71811D01*
X32884Y72533D01*
X32476Y73145D01*
X31864Y73554D01*
X31142Y73697D01*
D02*
G37*
G36*
X77109Y65134D02*
X76387Y64991D01*
X75775Y64582D01*
X75366Y63970D01*
X75222Y63248D01*
X75366Y62526D01*
X75775Y61914D01*
X76387Y61505D01*
X77109Y61362D01*
X77830Y61505D01*
X78442Y61914D01*
X78851Y62526D01*
X78995Y63248D01*
X78851Y63970D01*
X78442Y64582D01*
X77830Y64991D01*
X77109Y65134D01*
D02*
G37*
G36*
X68740Y64957D02*
X68018Y64814D01*
X67406Y64405D01*
X66997Y63793D01*
X66854Y63071D01*
X66997Y62349D01*
X67406Y61737D01*
X68018Y61328D01*
X68740Y61185D01*
X69462Y61328D01*
X70074Y61737D01*
X70483Y62349D01*
X70626Y63071D01*
X70483Y63793D01*
X70074Y64405D01*
X69462Y64814D01*
X68740Y64957D01*
D02*
G37*
G36*
X86538Y55284D02*
X85816Y55141D01*
X85204Y54732D01*
X84795Y54120D01*
X84652Y53398D01*
X84795Y52676D01*
X85204Y52064D01*
X85816Y51655D01*
X86538Y51512D01*
X87260Y51655D01*
X87872Y52064D01*
X88281Y52676D01*
X88424Y53398D01*
X88281Y54120D01*
X87872Y54732D01*
X87260Y55141D01*
X86538Y55284D01*
D02*
G37*
G36*
X194909Y32843D02*
X194187Y32700D01*
X193575Y32291D01*
X193166Y31679D01*
X193023Y30957D01*
X193166Y30235D01*
X193575Y29623D01*
X194187Y29214D01*
X194909Y29071D01*
X195631Y29214D01*
X196243Y29623D01*
X196652Y30235D01*
X196795Y30957D01*
X196652Y31679D01*
X196243Y32291D01*
X195631Y32700D01*
X194909Y32843D01*
D02*
G37*
G36*
X97471Y19334D02*
X96749Y19191D01*
X96137Y18782D01*
X95728Y18170D01*
X95585Y17448D01*
X95728Y16726D01*
X96137Y16114D01*
X96749Y15705D01*
X97471Y15562D01*
X98193Y15705D01*
X98805Y16114D01*
X99214Y16726D01*
X99357Y17448D01*
X99214Y18170D01*
X98805Y18782D01*
X98193Y19191D01*
X97471Y19334D01*
D02*
G37*
%LPD*%
D10*
X91486Y26335D02*
X151972D01*
X178248Y17205D02*
X178921Y16531D01*
X161102Y17205D02*
X178248D01*
X153468Y24839D02*
X161102Y17205D01*
X184012Y5787D02*
Y11441D01*
X178921Y16531D02*
X184012Y11441D01*
X151972Y26335D02*
X153468Y24839D01*
X27362Y53425D02*
Y61997D01*
X21112Y68248D02*
X27362Y61997D01*
X89344Y24193D02*
X91486Y26335D01*
X49153Y24193D02*
X89344D01*
X112743Y5787D02*
Y19448D01*
X204375Y68848D02*
Y78228D01*
X21112Y68248D02*
Y78228D01*
X153468Y5787D02*
Y24839D01*
X41474Y78228D02*
X46565D01*
X52174Y65748D02*
X61837D01*
X49185Y68737D02*
X52174Y65748D01*
X46988Y68737D02*
X49185D01*
X45096Y70629D02*
X46988Y68737D01*
X45096Y70629D02*
Y75579D01*
X46565Y77047D01*
Y78228D01*
X168988Y71648D02*
X172231D01*
X173831Y73248D01*
Y78228D01*
X9488Y12382D02*
X19488D01*
X21112Y10759D01*
Y5787D02*
Y10759D01*
X112743Y5787D02*
X117834D01*
X107652D02*
X112743D01*
X102562D02*
X107652D01*
X87290D02*
X92381D01*
X97471D02*
X102562D01*
X92381D02*
X97471D01*
X21112Y78228D02*
X26202D01*
X31293D01*
X36384D01*
X41474D01*
X46565D02*
X51655D01*
X36384Y5787D02*
X41474D01*
X46565D01*
X51655D01*
X31293D02*
X36384D01*
X21112D02*
X26202D01*
X31293D01*
D12*
X221260Y12402D02*
Y13898D01*
X220630Y11772D02*
X221260Y12402D01*
X220630Y6771D02*
Y11772D01*
X207031Y37621D02*
X226361D01*
X202801Y33391D02*
X207031Y37621D01*
X78849Y15648D02*
X82199Y12298D01*
X42136Y15648D02*
X78849D01*
X38238Y11750D02*
X42136Y15648D01*
X48306Y18740D02*
X88297D01*
X43858Y18465D02*
X46518Y21125D01*
X43858Y18465D02*
Y19016D01*
Y17666D02*
Y18465D01*
X193768Y8150D02*
X194193D01*
X240009Y5787D02*
Y13076D01*
X237832Y15253D02*
X240009Y13076D01*
X233083Y10311D02*
X234918Y8476D01*
X233083Y10311D02*
Y14397D01*
X231772Y15709D02*
X233083Y14397D01*
X235433Y15253D02*
X237832D01*
X219647Y5787D02*
X220630Y6771D01*
X223976Y7362D02*
Y14504D01*
X207953Y16378D02*
X222103D01*
X223976Y14504D01*
Y7362D02*
X224737Y6601D01*
Y5787D02*
Y6601D01*
X214556Y5787D02*
Y11743D01*
X212551Y13748D02*
X214556Y11743D01*
X207023Y13748D02*
X212551D01*
X205602Y15169D02*
Y17941D01*
Y15169D02*
X207023Y13748D01*
X226361Y37621D02*
X227488Y38748D01*
X229838Y37775D02*
Y41264D01*
X228122Y42980D02*
X229838Y41264D01*
X148920Y42980D02*
X228122D01*
X222405Y34744D02*
X226808D01*
X229838Y37775D01*
X205602Y17941D02*
X222405Y34744D01*
X136440Y30500D02*
X148920Y42980D01*
X193768Y8150D02*
X196588Y10969D01*
X194193Y5787D02*
Y8150D01*
X196588Y10969D02*
Y14948D01*
X228825Y15709D02*
X231772D01*
X226338Y13221D02*
X228825Y15709D01*
X226338Y13148D02*
Y13221D01*
X234918Y5787D02*
Y8476D01*
X202801Y19666D02*
Y20726D01*
X199284Y16149D02*
X202801Y19666D01*
X199284Y5787D02*
Y16149D01*
X145551Y12165D02*
X148378Y9339D01*
X125748Y12165D02*
X145551D01*
X122924Y9342D02*
X125748Y12165D01*
X148378Y5787D02*
Y9339D01*
X122924Y5787D02*
Y9342D01*
X87240Y30500D02*
X136440D01*
X212323Y72213D02*
X214556Y74446D01*
X227388Y60709D02*
X233228Y66549D01*
X200039Y60709D02*
X227388D01*
X196181Y64567D02*
X200039Y60709D01*
X235827Y63858D02*
Y77320D01*
X230472Y58504D02*
X235827Y63858D01*
X197756Y58504D02*
X230472D01*
X193542Y62718D02*
X197756Y58504D01*
X153468Y74868D02*
Y78228D01*
X151348Y72748D02*
X153468Y74868D01*
X156358Y72748D02*
X156938D01*
X146339D02*
X148378Y74787D01*
X161368Y72748D02*
X163650Y75030D01*
X156938Y72748D02*
X158559Y74369D01*
X172913Y7348D02*
X173831D01*
X170041Y12795D02*
X172913Y9923D01*
Y7348D02*
Y9923D01*
X161850Y12795D02*
X163650Y10996D01*
X174376Y13110D02*
X178921Y8565D01*
X157764Y6582D02*
Y12795D01*
Y6582D02*
X158559Y5787D01*
X165949Y12795D02*
X168032Y10713D01*
Y6496D02*
Y10713D01*
Y6496D02*
X168740Y5787D01*
X163650D02*
Y10996D01*
X148378Y74787D02*
Y78228D01*
X214556Y74446D02*
Y78228D01*
X212323Y72213D02*
Y72244D01*
X222715Y68110D02*
Y72007D01*
X222716Y72008D01*
X220717Y74007D02*
X222716Y72008D01*
X220717Y74007D02*
Y75578D01*
X202047Y65709D02*
X214984D01*
X199381Y68375D02*
X202047Y65709D01*
X214984D02*
X217216Y67940D01*
X224737Y70775D02*
Y78228D01*
Y70775D02*
X225079Y70433D01*
X219647Y76648D02*
X220717Y75578D01*
X227953Y65709D02*
X230709Y68465D01*
X230748D01*
X221394Y65709D02*
X227953D01*
X217216Y67940D02*
X219162D01*
X221394Y65709D01*
X199284Y69612D02*
Y78228D01*
Y69612D02*
X199381Y69515D01*
Y68375D02*
Y69515D01*
X233228Y66549D02*
Y71063D01*
X229828Y74463D02*
X233228Y71063D01*
X229828Y74463D02*
Y78228D01*
X234918D02*
X235827Y77320D01*
X216299Y63701D02*
X218189Y65591D01*
X200354Y63701D02*
X216299D01*
X194193Y72439D02*
X197781Y68852D01*
X194193Y72439D02*
Y78228D01*
X197781Y66274D02*
X200354Y63701D01*
X197781Y66274D02*
Y68852D01*
X196181Y64567D02*
Y68189D01*
X194528Y69842D02*
X196181Y68189D01*
X190033Y69842D02*
X194528D01*
X187913Y67723D02*
X190033Y69842D01*
X193542Y62718D02*
Y65747D01*
X190433Y61403D02*
X195488Y56348D01*
X190433Y61403D02*
Y66535D01*
X187913Y54473D02*
Y67723D01*
X180488Y47048D02*
X187913Y54473D01*
X168775Y48672D02*
X180521Y60418D01*
X63182Y48672D02*
X168775D01*
X189103Y73748D02*
Y78228D01*
X180521Y65167D02*
X189103Y73748D01*
X180521Y60418D02*
Y65167D01*
X205591Y20193D02*
Y22284D01*
X203976Y23898D02*
X205591Y22284D01*
X196025Y23898D02*
X203976D01*
X204002Y18604D02*
X205591Y20193D01*
X204002Y6160D02*
X204375Y5787D01*
X185075Y34848D02*
X196025Y23898D01*
X204002Y6160D02*
Y18604D01*
X184188Y27348D02*
X196588Y14948D01*
X178921Y61081D02*
Y78228D01*
X168488Y50648D02*
X178921Y61081D01*
X97388Y50648D02*
X168488D01*
X46518Y21125D02*
X90615D01*
X88297Y18740D02*
X92388Y14648D01*
X92781Y22230D02*
X93068Y22516D01*
X91720Y22230D02*
X92781D01*
X90615Y21125D02*
X91720Y22230D01*
X86688Y29948D02*
X87240Y30500D01*
X189103Y11863D02*
X191588Y14348D01*
X189103Y5787D02*
Y11863D01*
X208388Y11398D02*
X209465Y10321D01*
X174134Y13110D02*
X174376D01*
X143287Y64448D02*
Y67347D01*
X92381Y68156D02*
Y78228D01*
Y68156D02*
X94488Y66048D01*
X141988D01*
X143287Y67347D01*
Y78228D01*
X89888Y73348D02*
X89988Y78228D01*
X229828Y5787D02*
Y13308D01*
X229788Y13348D02*
X229828Y13308D01*
X74688Y73348D02*
X97388Y50648D01*
X54088Y73348D02*
X74688D01*
X195488Y56348D02*
X234078D01*
X240009Y62279D01*
Y78228D01*
X143287Y64448D02*
X149288Y58447D01*
X90988Y47048D02*
X180488D01*
X72018Y28078D02*
X90988Y47048D01*
X36384Y71748D02*
X42476Y65655D01*
X46199D01*
X63182Y48672D01*
X219647Y76648D02*
Y78228D01*
X209465Y5787D02*
Y10321D01*
X165738Y52998D02*
X166788D01*
X164288Y54448D02*
X165738Y52998D01*
X164288Y54448D02*
Y71296D01*
X168740Y75748D01*
Y78228D01*
X173831Y5787D02*
Y7348D01*
X89988Y78228D02*
X92381D01*
X87290D02*
X89988D01*
X184012Y72872D02*
Y78228D01*
X183288Y72148D02*
X184012Y72872D01*
X178921Y5787D02*
Y8565D01*
X143287Y5787D02*
Y9948D01*
X143187Y10048D02*
X143287Y9948D01*
X128115Y10048D02*
X143187D01*
X128015Y9948D02*
X128115Y10048D01*
X128015Y5787D02*
Y9948D01*
X158559Y74369D02*
Y78228D01*
X163650Y75030D02*
Y78228D01*
X107652Y70148D02*
Y78228D01*
X87290Y73348D02*
Y78228D01*
X92381D02*
X97471D01*
X82199D02*
X87290D01*
X77109D02*
X82199D01*
X72018D02*
X77109D01*
X133106D02*
X138196D01*
X128015D02*
X133106D01*
X107652D02*
X112743D01*
X122924D02*
X128015D01*
X112743D02*
X117834D01*
X122924D01*
X133106Y5787D02*
X138196D01*
D15*
X41474Y78228D02*
D03*
X51655D02*
D03*
X46565D02*
D03*
X31293D02*
D03*
X26202D02*
D03*
X36384D02*
D03*
X21112D02*
D03*
X56746D02*
D03*
X61837D02*
D03*
X72018D02*
D03*
X66927D02*
D03*
X97471D02*
D03*
X107652D02*
D03*
X102562D02*
D03*
X87290D02*
D03*
X82199D02*
D03*
X92381D02*
D03*
X77109D02*
D03*
X112743D02*
D03*
X117834D02*
D03*
X128015D02*
D03*
X122924D02*
D03*
X153468D02*
D03*
X163650D02*
D03*
X158559D02*
D03*
X143287D02*
D03*
X138196D02*
D03*
X148378D02*
D03*
X133106D02*
D03*
X168740D02*
D03*
X173831D02*
D03*
X184012D02*
D03*
X178921D02*
D03*
X41474Y5787D02*
D03*
X51655D02*
D03*
X46565D02*
D03*
X31293D02*
D03*
X26202D02*
D03*
X36384D02*
D03*
X21112D02*
D03*
X56746D02*
D03*
X61837D02*
D03*
X72018D02*
D03*
X66927D02*
D03*
X97471D02*
D03*
X107652D02*
D03*
X102562D02*
D03*
X87290D02*
D03*
X82199D02*
D03*
X92381D02*
D03*
X77109D02*
D03*
X112743D02*
D03*
X117834D02*
D03*
X128015D02*
D03*
X122924D02*
D03*
X153468D02*
D03*
X163650D02*
D03*
X158559D02*
D03*
X143287D02*
D03*
X138196D02*
D03*
X148378D02*
D03*
X133106D02*
D03*
X168740D02*
D03*
X173831D02*
D03*
X184012D02*
D03*
X178921D02*
D03*
X234918D02*
D03*
X240009D02*
D03*
X229828D02*
D03*
X224737D02*
D03*
X189103D02*
D03*
X204375D02*
D03*
X194193D02*
D03*
X199284D02*
D03*
X214556D02*
D03*
X219647D02*
D03*
X209465D02*
D03*
Y78228D02*
D03*
X219647D02*
D03*
X214556D02*
D03*
X199284D02*
D03*
X194193D02*
D03*
X204375D02*
D03*
X189103D02*
D03*
X224737D02*
D03*
X229828D02*
D03*
X240009D02*
D03*
X234918D02*
D03*
D16*
X9488Y12382D02*
D03*
Y24193D02*
D03*
Y36004D02*
D03*
Y47815D02*
D03*
Y59626D02*
D03*
Y71437D02*
D03*
X251535Y12382D02*
D03*
Y24193D02*
D03*
Y36004D02*
D03*
Y47815D02*
D03*
Y59626D02*
D03*
Y71437D02*
D03*
D17*
X202801Y33391D02*
D03*
X48306Y18740D02*
D03*
X43858Y18465D02*
D03*
X51655Y12518D02*
D03*
X57539Y11299D02*
D03*
X235433Y15253D02*
D03*
X221260Y13898D02*
D03*
X207953Y16378D02*
D03*
X215904Y18858D02*
D03*
X218268Y21220D02*
D03*
X193858Y40630D02*
D03*
X194909Y30957D02*
D03*
X68740Y63071D02*
D03*
X31142Y71811D02*
D03*
X165949Y12795D02*
D03*
X157764D02*
D03*
X161857D02*
D03*
X151348Y72748D02*
D03*
X146339D02*
D03*
X212323Y72244D02*
D03*
X218660Y72716D02*
D03*
X225079Y70433D02*
D03*
X222715Y68110D02*
D03*
X230748Y68465D02*
D03*
X218189Y65591D02*
D03*
X193542Y65747D02*
D03*
X190433Y66535D02*
D03*
X116087Y26334D02*
D03*
X202801Y20726D02*
D03*
X198961Y19410D02*
D03*
X184764Y58583D02*
D03*
X27362Y53425D02*
D03*
X93068Y22516D02*
D03*
X112743Y19448D02*
D03*
X97471Y17448D02*
D03*
X185075Y34848D02*
D03*
X209465Y35271D02*
D03*
X184188Y27348D02*
D03*
X191588Y14348D02*
D03*
X194193Y11898D02*
D03*
X208388Y11398D02*
D03*
X174134Y12795D02*
D03*
X170041D02*
D03*
X44173Y61890D02*
D03*
X204375Y68848D02*
D03*
X139588D02*
D03*
X168988Y71648D02*
D03*
X89888Y73348D02*
D03*
X49088Y73248D02*
D03*
X46565Y59571D02*
D03*
X102562Y11848D02*
D03*
X227488Y38748D02*
D03*
X226338Y13148D02*
D03*
X229788Y13348D02*
D03*
X54088Y73348D02*
D03*
X66927Y70879D02*
D03*
X86688Y29948D02*
D03*
X82199Y72648D02*
D03*
X86538Y53398D02*
D03*
X49153Y24193D02*
D03*
X149288Y58447D02*
D03*
X72018Y28078D02*
D03*
X36384Y71748D02*
D03*
X77109Y63248D02*
D03*
X82199Y12298D02*
D03*
X178921Y16531D02*
D03*
X38238Y11750D02*
D03*
X92388Y14648D02*
D03*
X31438Y10798D02*
D03*
X166788Y52998D02*
D03*
X61837Y65748D02*
D03*
X183288Y72148D02*
D03*
X88831Y68448D02*
D03*
X156358Y72748D02*
D03*
X161368D02*
D03*
X107652Y70148D02*
D03*
X87290Y73348D02*
D03*
M02*
