G04*
G04 #@! TF.GenerationSoftware,Altium Limited,Altium Designer,20.0.2 (26)*
G04*
G04 Layer_Color=32896*
%FSLAX25Y25*%
%MOIN*%
G70*
G01*
G75*
%ADD10C,0.03937*%
%ADD11C,0.00787*%
%ADD12C,0.01000*%
D10*
X131811Y68425D02*
G03*
X131811Y68425I-1969J0D01*
G01*
X238386Y68425D02*
G03*
X238386Y68425I-1969J0D01*
G01*
D11*
X18749Y1850D02*
X242371D01*
Y82165D01*
X18749D02*
X242371D01*
X18749Y1850D02*
Y82165D01*
D12*
X135866Y1949D02*
Y81968D01*
X238819Y53740D02*
Y59738D01*
X236820Y57739D01*
X234820Y59738D01*
Y53740D01*
X232821Y58738D02*
X231821Y59738D01*
X229822D01*
X228822Y58738D01*
Y54740D01*
X229822Y53740D01*
X231821D01*
X232821Y54740D01*
Y58738D01*
X130827Y53740D02*
Y59738D01*
X127828D01*
X126828Y58738D01*
Y56739D01*
X127828Y55739D01*
X130827D01*
X124829Y58738D02*
X123829Y59738D01*
X121830D01*
X120830Y58738D01*
Y54740D01*
X121830Y53740D01*
X123829D01*
X124829Y54740D01*
Y58738D01*
X53386Y26811D02*
Y32809D01*
X51386Y30810D01*
X49387Y32809D01*
Y26811D01*
X47388Y32809D02*
Y26811D01*
X44389D01*
X43389Y27811D01*
Y28810D01*
X44389Y29810D01*
X47388D01*
X44389D01*
X43389Y30810D01*
Y31809D01*
X44389Y32809D01*
X47388D01*
X35392Y26811D02*
X33392D01*
X34392D01*
Y32809D01*
X35392Y31809D01*
X30393Y26811D02*
Y27811D01*
X29394D01*
Y26811D01*
X30393D01*
X25395Y31809D02*
X24395Y32809D01*
X22396D01*
X21396Y31809D01*
Y27811D01*
X22396Y26811D01*
X24395D01*
X25395Y27811D01*
Y31809D01*
M02*
