G04*
G04 #@! TF.GenerationSoftware,Altium Limited,Altium Designer,20.0.2 (26)*
G04*
G04 Layer_Color=65535*
%FSLAX25Y25*%
%MOIN*%
G70*
G01*
G75*
%ADD10C,0.03937*%
%ADD11C,0.00787*%
%ADD12C,0.01000*%
D10*
X195197Y68071D02*
G03*
X195197Y68071I-1969J0D01*
G01*
X128661D02*
G03*
X128661Y68071I-1969J0D01*
G01*
X70000Y16496D02*
G03*
X70000Y16496I-1969J0D01*
G01*
X115787Y16496D02*
G03*
X115787Y16496I-1969J0D01*
G01*
D11*
X18749Y82165D02*
X242371D01*
Y1850D02*
Y82165D01*
X18749Y1850D02*
X242371D01*
X18749D02*
Y82165D01*
D12*
X120512Y2244D02*
Y81772D01*
X1614Y4508D02*
X17362D01*
Y79311D01*
X1614D02*
X17362D01*
X1614Y4508D02*
Y79311D01*
X243661Y4508D02*
X259409D01*
Y79311D01*
X243661D02*
X259409D01*
X243661Y4508D02*
Y79311D01*
X74646Y2441D02*
Y81772D01*
X186614Y2244D02*
Y81772D01*
X70496Y30339D02*
Y24340D01*
X68497Y26340D01*
X66497Y24340D01*
Y30339D01*
X61499D02*
Y24340D01*
X64498Y27340D01*
X60499D01*
X116756Y30339D02*
Y24340D01*
X114757Y26340D01*
X112757Y24340D01*
Y30339D01*
X110758Y25340D02*
X109758Y24340D01*
X107759D01*
X106759Y25340D01*
Y26340D01*
X107759Y27340D01*
X108758D01*
X107759D01*
X106759Y28339D01*
Y29339D01*
X107759Y30339D01*
X109758D01*
X110758Y29339D01*
X123583Y53858D02*
Y59856D01*
X125582Y57857D01*
X127581Y59856D01*
Y53858D01*
X133579D02*
X129581D01*
X133579Y57857D01*
Y58857D01*
X132580Y59856D01*
X130580D01*
X129581Y58857D01*
X190079Y53858D02*
Y59856D01*
X192078Y57857D01*
X194077Y59856D01*
Y53858D01*
X196077D02*
X198076D01*
X197076D01*
Y59856D01*
X196077Y58857D01*
M02*
