G04*
G04 #@! TF.GenerationSoftware,Altium Limited,Altium Designer,20.0.2 (26)*
G04*
G04 Layer_Physical_Order=1*
G04 Layer_Color=255*
%FSLAX25Y25*%
%MOIN*%
G70*
G01*
G75*
%ADD15C,0.01000*%
%ADD41C,0.03347*%
%ADD42R,0.03347X0.03347*%
%ADD43R,0.04291X0.04409*%
%ADD44R,0.04331X0.01968*%
%ADD45R,0.03347X0.03347*%
%ADD46R,0.13504X0.06024*%
%ADD47R,0.04724X0.02559*%
%ADD48R,0.04000X0.06000*%
%ADD49R,0.06000X0.04000*%
%ADD50R,0.16929X0.03347*%
%ADD51R,0.09449X0.03307*%
%ADD52R,0.01063X0.02913*%
%ADD53R,0.05787X0.04016*%
%ADD54R,0.05472X0.03780*%
%ADD55R,0.03780X0.05472*%
%ADD56R,0.05709X0.03543*%
%ADD57R,0.00984X0.07185*%
%ADD58R,0.02362X0.00984*%
%ADD59R,0.00984X0.02362*%
%ADD60R,0.07480X0.13386*%
%ADD61R,0.02165X0.02165*%
%ADD62R,0.02165X0.02165*%
%ADD63R,0.03347X0.06299*%
%ADD64C,0.01181*%
%ADD65R,0.03150X0.05512*%
%ADD66C,0.02559*%
G36*
X65250Y73150D02*
Y69100D01*
X80050Y69100D01*
Y62450D01*
X79976Y62524D01*
X56572D01*
X54789Y64400D01*
X48450Y64400D01*
X46650Y62550D01*
X41850D01*
X41850Y45325D01*
X37350D01*
Y68950D01*
X56572Y68950D01*
Y70000D01*
X36100Y70000D01*
Y73150D01*
X65250Y73150D01*
D02*
G37*
G36*
X91300Y73150D02*
X115200D01*
Y69850D01*
X99250Y69850D01*
X99250Y64150D01*
X91400Y64150D01*
X91400Y50300D01*
X82550Y50300D01*
X82550Y52450D01*
X69300D01*
Y33100D01*
X72750Y33100D01*
X72900Y32950D01*
X84150Y32950D01*
X84200Y32900D01*
X84251Y28750D01*
X70150D01*
X70150Y21300D01*
X64600Y21300D01*
X64600Y26487D01*
X57437Y26487D01*
Y13613D01*
X57200Y13350D01*
X33100Y13350D01*
X33100Y20300D01*
X22400Y20300D01*
Y22900D01*
X950D01*
Y68648D01*
X6850D01*
X6850Y46350D01*
X9250Y43950D01*
X24200Y43950D01*
Y40700D01*
X15331D01*
Y36900D01*
X4550D01*
Y26450D01*
X21850D01*
Y27000D01*
Y33100D01*
X25650D01*
X27350Y31400D01*
X31750D01*
X32550Y32200D01*
X32550Y34350D01*
X37400Y39200D01*
X37400Y44350D01*
X41831D01*
Y44300D01*
X50700D01*
Y41050D01*
X41831D01*
Y37250D01*
Y37231D01*
X38200Y33600D01*
Y24950D01*
X38200Y20300D01*
X47250Y20300D01*
X47250Y33650D01*
X51050D01*
Y32000D01*
X51450D01*
X58220Y32000D01*
X63350Y37069D01*
X63350Y47950D01*
X64150Y48750D01*
Y53900D01*
X61250Y53900D01*
X61250Y58300D01*
X82550Y58300D01*
Y73150D01*
X91300Y73150D01*
D02*
G37*
G36*
X101300Y67950D02*
X114700D01*
Y56350D01*
X98750D01*
Y52550D01*
X93350D01*
Y62300D01*
X101250D01*
Y68000D01*
X101300Y67950D01*
D02*
G37*
G36*
X43650Y54700D02*
X50950D01*
Y52150D01*
X46724Y52150D01*
X44450Y50182D01*
X44450Y48300D01*
X44450Y46600D01*
X43300D01*
Y55050D01*
X43650Y54700D01*
D02*
G37*
G36*
X17150Y54350D02*
X24450D01*
Y51800D01*
X20224Y51800D01*
X17950Y49832D01*
X17950Y47950D01*
X17950Y46250D01*
X16800D01*
Y54700D01*
X17150Y54350D01*
D02*
G37*
G36*
X29000Y69525D02*
X16600Y69525D01*
X16600Y67956D01*
X19150D01*
X19150Y61750D01*
X19000Y61600D01*
X15350D01*
Y44875D01*
X10550D01*
Y69525D01*
X400D01*
Y72825D01*
X29000D01*
Y69525D01*
D02*
G37*
G36*
X112850Y40800D02*
Y36950D01*
X107350D01*
X105600Y35200D01*
X99750Y35200D01*
X98050Y33500D01*
X94400D01*
X94450Y34400D01*
X94500Y34450D01*
X96800D01*
X99900Y37550D01*
Y39100D01*
X105550D01*
X106950Y40500D01*
Y40850D01*
X112800D01*
X112850Y40800D01*
D02*
G37*
G36*
X77150Y40700D02*
X78600Y39250D01*
X83300D01*
X84150Y38400D01*
Y37450D01*
X87175Y34425D01*
X89475D01*
X89525Y34375D01*
X89575Y33475D01*
X86025D01*
X84325Y35175D01*
X78375Y35175D01*
X76850Y36700D01*
X71350Y36700D01*
X71350Y40700D01*
X77150Y40700D01*
D02*
G37*
G36*
X16900Y39800D02*
X19750D01*
X19750Y35150D01*
X17700Y33100D01*
X17700Y29100D01*
X17300D01*
X15700Y29100D01*
X5700D01*
X5500Y29300D01*
X5500Y33250D01*
X14500Y33250D01*
Y34650D01*
X16800Y36950D01*
Y39800D01*
X16850Y39850D01*
X16900Y39800D01*
D02*
G37*
G36*
X112800Y32900D02*
Y28900D01*
X99950D01*
X99900Y28950D01*
Y32950D01*
X112750D01*
X112800Y32900D01*
D02*
G37*
G36*
X92600Y29550D02*
X93850Y28300D01*
X93850Y25000D01*
X90150Y25000D01*
Y28300D01*
X91450Y29522D01*
X91450Y36350D01*
X92600D01*
X92600Y29550D01*
D02*
G37*
G36*
X43400Y40150D02*
X46250D01*
X46250Y35500D01*
X43400Y32650D01*
X43400Y20950D01*
X39150Y20950D01*
X39150Y33050D01*
X43300Y37200D01*
Y40150D01*
X43350Y40200D01*
X43400Y40150D01*
D02*
G37*
G36*
X114500Y14300D02*
X109150D01*
Y27250D01*
X114450D01*
X114500Y14300D01*
D02*
G37*
G36*
X31600Y13286D02*
X18200Y13190D01*
Y19000D01*
X31600D01*
Y13286D01*
D02*
G37*
G36*
X63650Y19450D02*
X75877Y19450D01*
X75877Y5500D01*
X49800Y5500D01*
X49800Y1850D01*
X16250Y1850D01*
X16150Y1750D01*
Y10800D01*
X46750D01*
Y11400D01*
X59550Y11400D01*
X59550Y19450D01*
X59550Y25750D01*
X63650D01*
X63650Y19450D01*
D02*
G37*
G36*
X106350Y5050D02*
X115550Y5050D01*
Y1550D01*
X81900Y1550D01*
X81900Y5800D01*
X96350Y5800D01*
X96350Y13300D01*
X106350D01*
Y5050D01*
D02*
G37*
D15*
X9201Y9550D02*
X12785D01*
X13835Y8500D01*
X14150D01*
X9201Y15950D02*
X9551Y15600D01*
Y13350D02*
Y15600D01*
X1926Y14777D02*
X3100D01*
Y15950D02*
Y16100D01*
Y13350D02*
Y14777D01*
X1926D02*
X3099Y15950D01*
X82700Y42450D02*
X84950D01*
X33851Y41150D02*
Y47350D01*
X6278Y13428D02*
X8501Y15651D01*
X11701Y454D02*
Y4599D01*
X10150Y6150D02*
X11701Y4599D01*
X7350Y6150D02*
X10150D01*
X6278Y7222D02*
X7350Y6150D01*
X6278Y7222D02*
Y13428D01*
X2949Y6705D02*
Y10050D01*
Y6705D02*
X5900Y3754D01*
Y1162D02*
Y3754D01*
Y1162D02*
X7062Y0D01*
X11701Y454D02*
X12156Y0D01*
X19851Y15550D02*
X30210D01*
X13001Y15950D02*
X13301Y15650D01*
Y9349D02*
Y15650D01*
X89200Y47850D02*
Y49850D01*
X88650Y46350D02*
X90700D01*
X77170Y57550D02*
X82679D01*
X72250D02*
X77170D01*
X83479Y52371D02*
X84500Y51350D01*
X97344Y30434D02*
Y30450D01*
X48483Y42683D02*
X49637Y43836D01*
X41900Y41529D02*
X43053Y42683D01*
X21983Y42333D02*
X23137Y43486D01*
X15400Y41179D02*
X16554Y42333D01*
X50200Y30550D02*
X50551Y30199D01*
X23700Y30200D02*
X24051Y29849D01*
X92032Y41350D02*
Y42968D01*
X88650Y46350D02*
X92032Y42968D01*
X95575Y31409D02*
X96369D01*
X97344Y30434D01*
X94008Y44908D02*
X97700Y48600D01*
X89200Y47850D02*
X90700Y46350D01*
X84500Y51350D02*
X87700D01*
X68750Y53300D02*
X83479D01*
X68400Y52950D02*
X68750Y53300D01*
X68400Y29550D02*
Y52950D01*
X83479Y53300D02*
Y56529D01*
Y52371D02*
Y53300D01*
X83850Y45250D02*
Y47400D01*
X81101D02*
X83850D01*
X88544Y41350D02*
X90063D01*
X85844Y44050D02*
X88544Y41350D01*
X85050Y44050D02*
X85844D01*
X82700Y42450D02*
Y42850D01*
X87807Y38504D02*
Y39593D01*
X84950Y42450D02*
X87807Y39593D01*
X83850Y45250D02*
X85050Y44050D01*
X83850Y47400D02*
X84215D01*
X80592Y40458D02*
X84506D01*
X79600Y41450D02*
X80592Y40458D01*
X84506D02*
X85425Y39539D01*
Y38330D02*
Y39539D01*
Y38330D02*
X87228Y36527D01*
X112034Y15329D02*
Y22606D01*
X96256Y41107D02*
X98449Y43300D01*
X104551Y41701D02*
Y43300D01*
X103165Y40315D02*
X104551Y41701D01*
X99401Y40315D02*
X103165D01*
X94008Y42031D02*
Y44908D01*
X30210Y15550D02*
X30500Y15840D01*
X98050Y24501D02*
Y29728D01*
Y18399D02*
X101444D01*
X103422Y20378D01*
X110951Y7771D02*
Y8853D01*
X108550Y11254D02*
X110951Y8853D01*
X107950Y11854D02*
X109361Y10443D01*
X107950Y11854D02*
Y15850D01*
X103422Y20378D02*
X107950Y15850D01*
X13301Y9349D02*
X14150Y8500D01*
X107550Y38939D02*
X107589Y38900D01*
X109850D01*
X112034Y22606D02*
X112478Y23050D01*
X103422Y20378D02*
Y23050D01*
X110951Y7771D02*
X112034D01*
X63103Y72700D02*
X63850D01*
X58755D02*
X63103D01*
X73950Y65550D02*
X78550D01*
X65200Y65750D02*
X73750D01*
X52925Y72464D02*
X58009D01*
X63750Y64300D02*
X65200Y65750D01*
X102758Y30900D02*
X109850D01*
X97750Y30450D02*
X101300D01*
X60301Y47750D02*
X62200Y49649D01*
Y52000D01*
X73750Y65750D02*
X73950Y65550D01*
X71750Y57050D02*
X72250Y57550D01*
X83479Y56529D02*
X83590Y56640D01*
X82679Y57550D02*
X83590Y56640D01*
X60351Y41500D02*
Y47700D01*
X42139Y72150D02*
Y74217D01*
X38530Y72150D02*
X42139D01*
X38530D02*
Y73903D01*
X51956Y72314D02*
X52914Y73272D01*
X63103Y72700D02*
Y74803D01*
Y71953D02*
Y72700D01*
Y71953D02*
X63850Y72700D01*
X58009Y71953D02*
X58755Y72700D01*
X52914Y72453D02*
X52925Y72464D01*
X50693Y49157D02*
X51611Y48238D01*
X48718Y49157D02*
X50693D01*
X51611Y48238D02*
X53711D01*
X48074Y48512D02*
X48718Y49157D01*
X48074Y47862D02*
Y48512D01*
X47737Y47525D02*
X48074Y47862D01*
X58009Y72464D02*
Y74803D01*
Y71953D02*
Y72464D01*
X52914Y73272D02*
Y74803D01*
Y72453D02*
Y73272D01*
X47820D02*
Y73389D01*
Y74803D01*
Y73389D02*
X48894Y72314D01*
X51956D01*
X42725Y72441D02*
X43677Y71489D01*
Y72075D01*
X43800Y72198D01*
X46745D01*
X47820Y73272D01*
X42725Y72441D02*
Y74803D01*
X42139Y74217D02*
X42725Y74803D01*
X37630D02*
X38530Y73903D01*
X66760Y29550D02*
X68400D01*
X64184Y26974D02*
X66760Y29550D01*
X57924Y26974D02*
X64184D01*
X56950Y26000D02*
X57924Y26974D01*
X56950Y24443D02*
Y26000D01*
X42750Y15160D02*
X49650D01*
X55644Y23137D02*
X56950Y24443D01*
X47737Y46600D02*
Y47525D01*
X54249Y38152D02*
X56100Y36301D01*
X54249Y38152D02*
Y41500D01*
X49705Y37840D02*
Y38765D01*
Y37840D02*
X49737Y37809D01*
X50662D01*
X52170Y36301D01*
X56100D01*
X50551Y30199D02*
X56100D01*
X41831Y38765D02*
Y39691D01*
X41900Y39759D01*
Y41529D01*
X43053Y42683D02*
X45768D01*
X49705Y45675D02*
Y46600D01*
X49637Y45606D02*
X49705Y45675D01*
X49637Y43836D02*
Y45606D01*
X45768Y42683D02*
X48483D01*
X47737Y41936D02*
X48483Y42683D01*
X47737Y38765D02*
Y41936D01*
X45768Y46600D02*
Y48713D01*
X60301Y47750D02*
X60351Y47700D01*
X53711Y48238D02*
X54199Y47750D01*
X45768Y48713D02*
X47812Y50757D01*
X57294D01*
X60301Y47750D01*
X55644Y16250D02*
Y23137D01*
X49650Y15160D02*
X54554D01*
X55644Y16250D01*
X87700Y51350D02*
X89200Y49850D01*
X30795Y50407D02*
X33801Y47400D01*
X21312Y50407D02*
X30795D01*
X19268Y48363D02*
X21312Y50407D01*
X24193Y48807D02*
X25111Y47888D01*
X22218Y48807D02*
X24193D01*
X21574Y48162D02*
X22218Y48807D01*
X27211Y47888D02*
X27699Y47400D01*
X25111Y47888D02*
X27211D01*
X21574Y47512D02*
Y48162D01*
X21237Y47175D02*
X21574Y47512D01*
X33801Y47400D02*
X33851Y47350D01*
X19268Y46250D02*
Y48363D01*
X21237Y38415D02*
Y41586D01*
X21983Y42333D01*
X19268D02*
X21983D01*
X23137Y43486D02*
Y45256D01*
X23205Y45325D01*
Y46250D01*
X16554Y42333D02*
X19268D01*
X15400Y39409D02*
Y41179D01*
X15331Y39341D02*
X15400Y39409D01*
X15331Y38415D02*
Y39341D01*
X24051Y29849D02*
X29600D01*
X25670Y35951D02*
X29600D01*
X24162Y37459D02*
X25670Y35951D01*
X23237Y37459D02*
X24162D01*
X23205Y37490D02*
X23237Y37459D01*
X23205Y37490D02*
Y38415D01*
X27749Y37802D02*
Y41150D01*
Y37802D02*
X29600Y35951D01*
X21237Y46250D02*
Y47175D01*
X96256Y38504D02*
Y41107D01*
X92078Y35828D02*
X92600Y36350D01*
X92039Y35828D02*
X92078D01*
X87228Y36527D02*
X88488D01*
X81758Y30450D02*
X86050D01*
X81300Y30908D02*
X81758Y30450D01*
X87415Y31409D02*
X88488D01*
X86456Y30450D02*
X87415Y31409D01*
X86050Y30450D02*
X86456D01*
X71300Y44400D02*
Y48301D01*
X72699Y49700D01*
X87815Y38496D02*
X88488D01*
X87807Y38504D02*
X87815Y38496D01*
X74500Y44500D02*
Y47899D01*
X72699Y49700D02*
X74500Y47899D01*
X79100Y49401D02*
X81101Y47400D01*
X79100Y44500D02*
Y49401D01*
X78801Y49700D02*
X79100Y49401D01*
X94000Y42023D02*
X94008Y42031D01*
X94000Y41350D02*
Y42023D01*
X95575Y38496D02*
X96248D01*
X96256Y38504D01*
X95575Y36527D02*
X95583Y36535D01*
X96843D01*
X98122Y37814D01*
Y39036D01*
X99401Y40315D01*
X92777Y36527D02*
X95575D01*
X92600Y36350D02*
X92777Y36527D01*
X92032Y32736D02*
Y35820D01*
X92039Y35828D01*
D41*
X45920Y56561D02*
G03*
X57180Y56561I5630J3798D01*
G01*
Y64156D02*
G03*
X45920Y64156I-5630J-3798D01*
G01*
X30680Y63806D02*
G03*
X19420Y63806I-5630J-3798D01*
G01*
Y56211D02*
G03*
X30680Y56211I5630J3798D01*
G01*
D42*
X3099Y15950D02*
D03*
X9201D02*
D03*
X54199Y47750D02*
D03*
X60301D02*
D03*
X54249Y41500D02*
D03*
X60351D02*
D03*
X9201Y9550D02*
D03*
X3099D02*
D03*
X13749Y15950D02*
D03*
X19851D02*
D03*
X72699Y49700D02*
D03*
X78801D02*
D03*
X98449Y43300D02*
D03*
X104551D02*
D03*
X33801Y47400D02*
D03*
X27699D02*
D03*
X33851Y41150D02*
D03*
X27749D02*
D03*
D43*
X96250Y54701D02*
D03*
Y67299D02*
D03*
D44*
X112228Y23550D02*
D03*
X103172D02*
D03*
D45*
X98050Y18399D02*
D03*
Y24501D02*
D03*
X56100Y30199D02*
D03*
Y36301D02*
D03*
X29600Y35951D02*
D03*
Y29849D02*
D03*
D46*
X108000Y65066D02*
D03*
Y49633D02*
D03*
D47*
X112234Y8220D02*
D03*
Y15779D02*
D03*
X103966Y12000D02*
D03*
D48*
X49150Y24000D02*
D03*
X41150D02*
D03*
Y30650D02*
D03*
X49150D02*
D03*
X4750Y59300D02*
D03*
X12750D02*
D03*
X23700Y30200D02*
D03*
X15700D02*
D03*
X89700Y48600D02*
D03*
X97700D02*
D03*
X4750Y65750D02*
D03*
X12750D02*
D03*
X4750Y52400D02*
D03*
X12750D02*
D03*
D49*
X71325Y64300D02*
D03*
Y56300D02*
D03*
X78400Y64300D02*
D03*
Y56300D02*
D03*
X64250Y64300D02*
D03*
Y56300D02*
D03*
X109850Y30900D02*
D03*
Y38900D02*
D03*
X74350Y30700D02*
D03*
Y38700D02*
D03*
X8800Y39150D02*
D03*
Y31150D02*
D03*
D50*
X51550Y67150D02*
D03*
Y53567D02*
D03*
X25050Y53217D02*
D03*
Y66800D02*
D03*
D51*
X45768Y42683D02*
D03*
X19268Y42333D02*
D03*
D52*
X41831Y46600D02*
D03*
X43800D02*
D03*
X45768D02*
D03*
X47737D02*
D03*
X49705D02*
D03*
Y38765D02*
D03*
X47737D02*
D03*
X45768D02*
D03*
X43800D02*
D03*
X41831D02*
D03*
X15331Y38415D02*
D03*
X17300D02*
D03*
X19268D02*
D03*
X21237D02*
D03*
X23205D02*
D03*
Y46250D02*
D03*
X21237D02*
D03*
X19268D02*
D03*
X17300D02*
D03*
X15331D02*
D03*
D53*
X81300Y30908D02*
D03*
Y37207D02*
D03*
X102750Y30908D02*
D03*
Y37207D02*
D03*
D54*
X49650Y8940D02*
D03*
Y15160D02*
D03*
X42750Y8940D02*
D03*
Y15160D02*
D03*
X67300Y16990D02*
D03*
Y23210D02*
D03*
D55*
X61865Y16250D02*
D03*
X55644D02*
D03*
X61865Y23137D02*
D03*
X55644D02*
D03*
D56*
X27550Y8360D02*
D03*
Y15840D02*
D03*
D57*
X92032Y32736D02*
D03*
D58*
X88488Y31409D02*
D03*
Y33968D02*
D03*
Y36527D02*
D03*
Y38496D02*
D03*
X95575D02*
D03*
Y36527D02*
D03*
Y33968D02*
D03*
Y31409D02*
D03*
D59*
X90063Y41350D02*
D03*
X92032D02*
D03*
X94000D02*
D03*
D60*
X77154Y19750D02*
D03*
X90146D02*
D03*
D61*
X74500Y44500D02*
D03*
X79100D02*
D03*
D62*
X83650Y46800D02*
D03*
Y51400D02*
D03*
D63*
X58341Y65674D02*
D03*
X44759D02*
D03*
X58341Y55044D02*
D03*
X44759D02*
D03*
X18259Y54694D02*
D03*
X31841D02*
D03*
X18259Y65324D02*
D03*
X31841D02*
D03*
D64*
X49509Y42683D02*
D03*
X45768D02*
D03*
X42028D02*
D03*
X15528Y42333D02*
D03*
X19268D02*
D03*
X23009D02*
D03*
D65*
X1969Y1181D02*
D03*
X7062D02*
D03*
X37623D02*
D03*
X32530D02*
D03*
X27436D02*
D03*
X22343D02*
D03*
X17249D02*
D03*
X12156D02*
D03*
X42717D02*
D03*
X47811D02*
D03*
X52906D02*
D03*
X83473D02*
D03*
X78378D02*
D03*
X73284D02*
D03*
X68189D02*
D03*
X63095D02*
D03*
X58000D02*
D03*
X88568D02*
D03*
X103851D02*
D03*
X93662D02*
D03*
X98757D02*
D03*
X108946D02*
D03*
X114040D02*
D03*
Y73622D02*
D03*
X108947D02*
D03*
X78386D02*
D03*
X83479D02*
D03*
X88573D02*
D03*
X93666D02*
D03*
X98760D02*
D03*
X103853D02*
D03*
X73292D02*
D03*
X68198D02*
D03*
X63103D02*
D03*
X32536D02*
D03*
X37630D02*
D03*
X42725D02*
D03*
X47820D02*
D03*
X52914D02*
D03*
X58009D02*
D03*
X27441D02*
D03*
X12157D02*
D03*
X22347D02*
D03*
X17252D02*
D03*
X7063D02*
D03*
X1969D02*
D03*
D66*
X3100Y13350D02*
D03*
X13050Y54300D02*
D03*
X14000Y47200D02*
D03*
X9551Y13350D02*
D03*
X30000Y14600D02*
D03*
Y17550D02*
D03*
X26875Y14600D02*
D03*
Y17550D02*
D03*
X23750Y14600D02*
D03*
Y17550D02*
D03*
X104650Y30450D02*
D03*
X61450Y23700D02*
D03*
X4850Y48600D02*
D03*
Y52300D02*
D03*
Y59700D02*
D03*
X73400Y30450D02*
D03*
X73100Y38200D02*
D03*
X97350Y54050D02*
D03*
X95100Y56300D02*
D03*
X97350Y58500D02*
D03*
X103200Y49750D02*
D03*
X106277D02*
D03*
X112431D02*
D03*
X109354D02*
D03*
X111831Y18857D02*
D03*
Y15779D02*
D03*
Y21934D02*
D03*
Y25011D02*
D03*
X82700Y42850D02*
D03*
X79600Y41450D02*
D03*
X95100Y60750D02*
D03*
X104450Y37000D02*
D03*
X14150Y8500D02*
D03*
X101300Y30450D02*
D03*
X67480Y56450D02*
D03*
X64250D02*
D03*
X73940D02*
D03*
X70710D02*
D03*
X80400D02*
D03*
X77170D02*
D03*
X71300Y44400D02*
D03*
X62200Y52000D02*
D03*
X64600Y65200D02*
D03*
X49300Y22350D02*
D03*
X49200Y25450D02*
D03*
X41400Y22300D02*
D03*
Y25450D02*
D03*
Y32250D02*
D03*
Y29100D02*
D03*
X49200Y32250D02*
D03*
X49300Y29150D02*
D03*
X22800Y28800D02*
D03*
X22700Y31900D02*
D03*
X10550Y38150D02*
D03*
X7200Y38200D02*
D03*
X4850Y63400D02*
D03*
Y56000D02*
D03*
Y67100D02*
D03*
X15800Y28750D02*
D03*
Y31900D02*
D03*
X10700Y31000D02*
D03*
X7350D02*
D03*
X33700Y44350D02*
D03*
X76500Y30450D02*
D03*
X76150Y38200D02*
D03*
X79600Y37000D02*
D03*
X82950D02*
D03*
X101200D02*
D03*
X97750Y30450D02*
D03*
X86050D02*
D03*
X79850D02*
D03*
M02*
