G04*
G04 #@! TF.GenerationSoftware,Altium Limited,Altium Designer,20.0.2 (26)*
G04*
G04 Layer_Color=65535*
%FSLAX25Y25*%
%MOIN*%
G70*
G01*
G75*
%ADD10C,0.00787*%
%ADD11C,0.00394*%
%ADD12C,0.00600*%
%ADD13C,0.01200*%
%ADD14C,0.00500*%
%ADD15C,0.01000*%
D10*
X42225Y35202D02*
G03*
X42225Y35202I-394J0D01*
G01*
X15725Y34852D02*
G03*
X15725Y34852I-394J0D01*
G01*
X92608Y52496D02*
Y66905D01*
X99892Y55094D02*
Y66905D01*
X104353Y21089D02*
X114393D01*
X104353Y26011D02*
X111047D01*
X102016Y57350D02*
X113984D01*
X107706Y6291D02*
X108494D01*
X107706D02*
Y17709D01*
X108494D01*
Y6291D02*
Y17709D01*
X109872Y5957D02*
X114596D01*
X25483Y12100D02*
X29617D01*
X75776Y27624D02*
X91524D01*
X75776Y11876D02*
X91524D01*
D11*
X97937Y31409D02*
G03*
X97543Y31409I-197J0D01*
G01*
D02*
G03*
X97937Y31409I197J0D01*
G01*
X88095Y29933D02*
X90063D01*
X94000D02*
X95969D01*
X88095Y39775D02*
Y41744D01*
X95969Y39775D02*
Y41744D01*
D12*
X1426Y13194D02*
X10874D01*
X1426Y18706D02*
X10874D01*
X100806Y16726D02*
Y26174D01*
X95294Y16726D02*
Y26174D01*
X52526Y44994D02*
X61974D01*
X52526Y50506D02*
X61974D01*
X58856Y28526D02*
Y37974D01*
X53344Y28526D02*
Y37974D01*
X52576Y38744D02*
X62024D01*
X52576Y44256D02*
X62024D01*
X1426Y12306D02*
X10874D01*
X1426Y6794D02*
X10874D01*
X12076Y13194D02*
X21524D01*
X12076Y18706D02*
X21524D01*
X75749Y48125D02*
Y51275D01*
X101499Y41725D02*
Y44875D01*
X26026Y50156D02*
X35474D01*
X26026Y44644D02*
X35474D01*
X26076Y43906D02*
X35524D01*
X26076Y38394D02*
X35524D01*
X26844Y28176D02*
Y37624D01*
X32356Y28176D02*
Y37624D01*
D13*
X45149Y21540D02*
Y26460D01*
X68865Y60301D02*
X73786D01*
X75940D02*
X80861D01*
X45149Y28190D02*
Y33110D01*
X61790Y60301D02*
X66711D01*
X8751Y56840D02*
Y61760D01*
X107389Y34901D02*
X112311D01*
X19699Y27740D02*
Y32660D01*
X71890Y34701D02*
X76810D01*
X93701Y46139D02*
Y51060D01*
X8751Y63289D02*
Y68211D01*
X6340Y35149D02*
X11260D01*
X8751Y49940D02*
Y54861D01*
D14*
X50965Y46620D02*
X51674D01*
Y38746D02*
Y46620D01*
X50965Y38746D02*
X51674D01*
X39863Y46620D02*
X40572D01*
X39863Y38746D02*
Y46620D01*
Y38746D02*
X40572D01*
X13363Y38396D02*
X14072D01*
X13363D02*
Y46270D01*
X14072D01*
X24465Y38396D02*
X25174D01*
Y46270D01*
X24465D02*
X25174D01*
D15*
X78800Y34058D02*
X83800D01*
X100250D02*
X105250D01*
X47150Y12050D02*
X52150D01*
X58754Y13750D02*
Y18750D01*
X40250Y12050D02*
X45250D01*
X58754Y20638D02*
Y25638D01*
X64800Y20100D02*
X69800D01*
X73257Y42138D02*
X80343D01*
X73257Y46862D02*
X80343D01*
X86012Y45557D02*
Y52643D01*
X81288Y45557D02*
Y52643D01*
X-15150Y4198D02*
Y-1800D01*
Y1199D01*
X-11151D01*
Y4198D01*
Y-1800D01*
X-5153D02*
X-9152D01*
X-5153Y2199D01*
Y3198D01*
X-6153Y4198D01*
X-8152D01*
X-9152Y3198D01*
X-13750Y79098D02*
Y73100D01*
Y76099D01*
X-9751D01*
Y79098D01*
Y73100D01*
X-7752D02*
X-5753D01*
X-6752D01*
Y79098D01*
X-7752Y78098D01*
M02*
