M48
;Layer_Color=9474304
;FILE_FORMAT=2:5
INCH,TZ
;TYPE=PLATED
T1F00S00C0.00787
T2F00S00C0.01378
T3F00S00C0.03150
%
T01
X15528Y42333
X19268
X23009
X42028Y42683
X45768
X49509
T02
X73400Y30450
X76500
X79850
X86050
X82950Y37000
X79600
Y41450
X82700Y42850
X76150Y38200
X73100
X71300Y44400
X101200Y37000
X104450
X104650Y30450
X101300
X97750
X111831Y25011
Y21934
Y18857
Y15779
X61450Y23700
X49300Y22350
X49200Y25450
X49300Y29150
X49200Y32250
X41400
Y29100
Y25450
Y22300
X30000Y17550
Y14600
X26875
Y17550
X23750
Y14600
X22800Y28800
X22700Y31900
X15800
Y28750
X10700Y31000
X7350
X7200Y38200
X10550Y38150
X9551Y13350
X3100
X14150Y8500
X33700Y44350
X14000Y47200
X13050Y54300
X4850Y56000
Y52300
Y48600
Y59700
Y63400
Y67100
X62200Y52000
X64250Y56450
X67480
X70710
X73940
X77170
X80400
X95100Y56300
X97350Y58500
Y54050
X95100Y60750
X103200Y49750
X106277
X109354
X112431
X64600Y65200
T03
X68189Y0
X73284
X78378
X83473
X88568
X93662
X98757
X103851
X108946
X114040
X63095
X58000
X52906
X47811
X42717
X37623
X32530
X27436
X22343
X17249
X12156
X7062
X1969
Y74803
X7063
X12157
X17252
X22347
X27441
X32536
X37630
X42725
X47820
X52914
X58009
X63103
X68198
X73292
X78386
X83479
X88573
X93666
X98760
X103853
X108947
X114040
M30
