G04*
G04 #@! TF.GenerationSoftware,Altium Limited,Altium Designer,20.0.2 (26)*
G04*
G04 Layer_Physical_Order=2*
G04 Layer_Color=16711680*
%FSLAX25Y25*%
%MOIN*%
G70*
G01*
G75*
%ADD15C,0.01000*%
%ADD64C,0.01181*%
%ADD66C,0.02559*%
%ADD67R,0.03150X0.05906*%
G36*
X115999Y74450D02*
Y53041D01*
X114999Y52842D01*
X114909Y53059D01*
X114450Y53249D01*
X114450Y53250D01*
X114368Y53249D01*
X109171Y53249D01*
X109050Y53299D01*
X101300D01*
X100841Y53109D01*
X100651Y52650D01*
Y46821D01*
X100601Y46700D01*
X100791Y46241D01*
X100841Y46191D01*
X101300Y46001D01*
X108450D01*
X108450Y14323D01*
X108545Y14095D01*
X108637Y13867D01*
X108640Y13866D01*
X108641Y13863D01*
X108868Y13769D01*
X109095Y13673D01*
X114445Y13633D01*
X114445Y13633D01*
X114447Y13634D01*
X114450Y13633D01*
X114681Y13729D01*
X114906Y13820D01*
X114907Y13823D01*
X114909Y13824D01*
X115003Y14051D01*
X115999Y13838D01*
Y4734D01*
X111865D01*
Y4734D01*
X111121D01*
Y4734D01*
X106771D01*
Y4734D01*
X106026D01*
Y4734D01*
X101677D01*
Y4734D01*
X100932D01*
Y4734D01*
X96582D01*
Y4734D01*
X95837D01*
Y4734D01*
X91487D01*
Y4734D01*
X90742D01*
Y4734D01*
X86393D01*
Y4734D01*
X85648D01*
Y4734D01*
X81298D01*
Y4734D01*
X80553D01*
Y4734D01*
X76204D01*
Y4734D01*
X75459D01*
Y4734D01*
X71109D01*
Y4734D01*
X70364D01*
Y4734D01*
X66015D01*
Y4734D01*
X65270D01*
Y4734D01*
X60920D01*
Y4734D01*
X60175D01*
Y4734D01*
X55825D01*
Y4734D01*
X55080D01*
Y4734D01*
X50731D01*
Y4734D01*
X49986D01*
Y4734D01*
X45636D01*
Y4734D01*
X44891D01*
Y4734D01*
X40542D01*
Y4734D01*
X39798D01*
Y4734D01*
X35448D01*
Y4734D01*
X34704D01*
Y4734D01*
X30355D01*
Y4734D01*
X29611D01*
Y4734D01*
X25261D01*
Y4734D01*
X24517D01*
Y4734D01*
X20168D01*
Y4734D01*
X19424D01*
Y4734D01*
X15074D01*
Y4734D01*
X14330D01*
Y4734D01*
X9981D01*
Y4734D01*
X9237D01*
Y4734D01*
X4887D01*
Y4734D01*
X4143D01*
Y4734D01*
X-206D01*
X-350Y5674D01*
Y15883D01*
X650Y16186D01*
X657Y16176D01*
X1779Y15054D01*
X1745Y14705D01*
X1330Y14083D01*
X1184Y13350D01*
X1330Y12617D01*
X1745Y11995D01*
X2367Y11580D01*
X3100Y11434D01*
X3833Y11580D01*
X4455Y11995D01*
X4871Y12617D01*
X5016Y13350D01*
X4871Y14083D01*
X4582Y14515D01*
X4760Y15333D01*
X4896Y15613D01*
X5160Y15728D01*
X7635D01*
X7752Y15611D01*
X8196Y14705D01*
X7781Y14083D01*
X7635Y13350D01*
X7781Y12617D01*
X8196Y11995D01*
X8818Y11580D01*
X9551Y11434D01*
X10284Y11580D01*
X10906Y11995D01*
X11322Y12617D01*
X11468Y13350D01*
X11322Y14083D01*
X10906Y14705D01*
X10691Y14849D01*
Y15380D01*
X10691Y15380D01*
X10606Y15810D01*
X11406Y16412D01*
X12530Y15288D01*
Y10915D01*
X12530Y10915D01*
X12615Y10486D01*
X12858Y10122D01*
X12834Y9881D01*
X12795Y9855D01*
X12380Y9233D01*
X12234Y8500D01*
X12380Y7767D01*
X12795Y7145D01*
X13417Y6729D01*
X14150Y6584D01*
X14883Y6729D01*
X15505Y7145D01*
X15921Y7767D01*
X16066Y8500D01*
X15921Y9233D01*
X15505Y9855D01*
X15271Y10011D01*
Y10416D01*
X15186Y10846D01*
X14943Y11209D01*
X14943Y11209D01*
X14773Y11380D01*
Y15753D01*
X14773Y15753D01*
X14687Y16182D01*
X14444Y16546D01*
X14444Y16546D01*
X13013Y17977D01*
X13396Y18901D01*
X17551D01*
X17550Y13082D01*
X17550Y13000D01*
X17551Y13000D01*
X17741Y12541D01*
X18200Y12351D01*
X18200Y12350D01*
X18282Y12351D01*
X70850Y12350D01*
X71309Y12541D01*
X71499Y13000D01*
X71499Y33117D01*
X72499Y33951D01*
X106800Y33950D01*
X107259Y34141D01*
X107449Y34600D01*
X107449Y39468D01*
X107449Y39550D01*
X107449Y39550D01*
X107259Y40009D01*
X106800Y40199D01*
X106800Y40200D01*
X106719Y40199D01*
X99649D01*
Y62300D01*
X99459Y62759D01*
X99000Y62949D01*
X92150D01*
X91691Y62759D01*
X91501Y62300D01*
Y40199D01*
X83779D01*
X83727Y40332D01*
X83613Y41199D01*
X84055Y41495D01*
X84470Y42117D01*
X84616Y42850D01*
X84470Y43583D01*
X84055Y44205D01*
X83433Y44620D01*
X82700Y44766D01*
X82424Y44712D01*
X77964Y49173D01*
X77600Y49416D01*
X77170Y49501D01*
X77170Y49501D01*
X63643D01*
X63340Y50501D01*
X63555Y50645D01*
X63971Y51267D01*
X64116Y52000D01*
X63971Y52733D01*
X63555Y53355D01*
X62933Y53771D01*
X62672Y53823D01*
Y61685D01*
X64324Y63338D01*
X64600Y63284D01*
X65333Y63429D01*
X65955Y63845D01*
X66370Y64467D01*
X66516Y65200D01*
X66370Y65933D01*
X65955Y66555D01*
X65333Y66970D01*
X64600Y67116D01*
X63867Y66970D01*
X63245Y66555D01*
X62830Y65933D01*
X62684Y65200D01*
X62738Y64925D01*
X60757Y62943D01*
X60514Y62579D01*
X60428Y62150D01*
X60428Y62150D01*
Y52728D01*
X60284Y52000D01*
X60430Y51267D01*
X60845Y50645D01*
X61060Y50501D01*
X60757Y49501D01*
X38898D01*
X36256Y52143D01*
X35892Y52386D01*
X35463Y52472D01*
X35463Y52472D01*
X15292D01*
X14757Y53472D01*
X14820Y53567D01*
X14966Y54300D01*
X14820Y55033D01*
X14405Y55655D01*
X13783Y56071D01*
X13050Y56216D01*
X12317Y56071D01*
X11695Y55655D01*
X11280Y55033D01*
X11223Y54749D01*
X10575Y54072D01*
X10145Y53986D01*
X9781Y53743D01*
X6436Y50398D01*
X6193Y50034D01*
X6108Y49605D01*
X6108Y49605D01*
Y47707D01*
X657Y42256D01*
X650Y42246D01*
X-350Y42549D01*
Y69129D01*
X-206Y70069D01*
X4143D01*
Y70069D01*
X4888D01*
Y70069D01*
X9238D01*
Y70069D01*
X9983D01*
Y70069D01*
X14332D01*
Y70069D01*
X15077D01*
Y70069D01*
X19427D01*
Y70069D01*
X20172D01*
Y70069D01*
X24521D01*
Y70069D01*
X25266D01*
Y70069D01*
X29616D01*
Y70069D01*
X30361D01*
Y70069D01*
X34710D01*
Y70069D01*
X35456D01*
Y70069D01*
X39805D01*
Y70069D01*
X40550D01*
Y70069D01*
X44900D01*
Y70069D01*
X45645D01*
Y70069D01*
X49994D01*
Y70069D01*
X50739D01*
Y70069D01*
X55089D01*
Y70069D01*
X55834D01*
Y70069D01*
X60183D01*
Y70069D01*
X60928D01*
Y70069D01*
X65278D01*
Y70069D01*
X66023D01*
Y70069D01*
X70372D01*
Y70069D01*
X71118D01*
Y70069D01*
X75467D01*
Y70069D01*
X76211D01*
Y70069D01*
X80561D01*
Y74450D01*
X115999D01*
D02*
G37*
G36*
X36977Y45987D02*
X36977Y45987D01*
X37341Y45743D01*
X37771Y45658D01*
X37771Y45658D01*
X65608D01*
X66022Y44658D01*
X60657Y39293D01*
X60414Y38929D01*
X60328Y38500D01*
X60328Y38500D01*
Y25211D01*
X60095Y25055D01*
X59680Y24433D01*
X59534Y23700D01*
X59680Y22967D01*
X60095Y22345D01*
X60717Y21929D01*
X60868Y21899D01*
X60769Y20899D01*
X44349D01*
Y33950D01*
X44159Y34409D01*
X43700Y34599D01*
X36600D01*
X36141Y34409D01*
X35950Y33950D01*
Y26699D01*
X18549Y26700D01*
X18549Y33950D01*
X18359Y34409D01*
X17900Y34600D01*
X5771Y34600D01*
Y39635D01*
X11658Y45522D01*
X12318Y45738D01*
X13010Y45601D01*
X13267Y45430D01*
X14000Y45284D01*
X14733Y45430D01*
X15355Y45845D01*
X15511Y46078D01*
X30385D01*
X31838Y44625D01*
X31784Y44350D01*
X31929Y43617D01*
X32345Y42995D01*
X32967Y42579D01*
X33700Y42434D01*
X34433Y42579D01*
X35055Y42995D01*
X35471Y43617D01*
X35616Y44350D01*
X35471Y45083D01*
X35055Y45705D01*
X34433Y46121D01*
X33700Y46266D01*
X33424Y46212D01*
X32008Y47628D01*
X32422Y48628D01*
X34335D01*
X36977Y45987D01*
D02*
G37*
G36*
X99000Y39550D02*
X106800D01*
X106800Y34600D01*
X71900Y34600D01*
X70850Y34600D01*
X70850Y13000D01*
X18200Y13000D01*
X18200Y19550D01*
X5750Y19550D01*
X5750Y33950D01*
X17900Y33950D01*
X17900Y26050D01*
X36600Y26050D01*
Y33950D01*
X43700D01*
Y20250D01*
X64500D01*
X64500Y39550D01*
X71700Y39550D01*
X71800D01*
Y39550D01*
X72190D01*
X72700Y39550D01*
Y39550D01*
X92150Y39550D01*
Y62300D01*
X99000D01*
Y39550D01*
D02*
G37*
G36*
X109100Y52600D02*
X114450Y52600D01*
Y14283D01*
X109100Y14323D01*
X109100Y46650D01*
X101300D01*
X101250Y46700D01*
X101300Y46750D01*
Y52650D01*
X109050D01*
X109100Y52600D01*
D02*
G37*
D15*
X9570Y13844D02*
Y15380D01*
X3100Y13850D02*
Y15319D01*
X1450Y16969D02*
X3100Y15319D01*
X1450Y16969D02*
Y41463D01*
X3050Y18432D02*
X4632Y16850D01*
X3050Y18432D02*
Y40800D01*
X4632Y16850D02*
X8100D01*
X4650Y19094D02*
Y40100D01*
Y19094D02*
X5294Y18450D01*
X10954D01*
X7230Y49605D02*
X10575Y52950D01*
X7230Y47242D02*
Y49605D01*
X10575Y52950D02*
X11685D01*
X1450Y41463D02*
X7230Y47242D01*
X13035Y54300D02*
X13050D01*
X11685Y52950D02*
X13035Y54300D01*
X9554Y49667D02*
X11237Y51350D01*
X9554Y47304D02*
Y49667D01*
X3050Y40800D02*
X9554Y47304D01*
X11154Y49004D02*
X11900Y49750D01*
X11154Y46604D02*
Y49004D01*
X4650Y40100D02*
X11154Y46604D01*
X30850Y47200D02*
X33700Y44350D01*
X14000Y47200D02*
X30850D01*
X8100Y16850D02*
X9570Y15380D01*
X10954Y18450D02*
X13651Y15753D01*
Y10915D02*
Y15753D01*
X14150Y8500D02*
Y10416D01*
X13651Y10915D02*
X14150Y10416D01*
X11237Y51350D02*
X35463D01*
X11900Y49750D02*
X34800D01*
X67350Y44400D02*
X71300D01*
X61450Y38500D02*
X67350Y44400D01*
X61450Y23700D02*
Y38500D01*
X35463Y51350D02*
X38433Y48379D01*
X77170D01*
X37771Y46780D02*
X74270D01*
X34800Y49750D02*
X37771Y46780D01*
X77170Y48379D02*
X82700Y42850D01*
X74270Y46780D02*
X79600Y41450D01*
X14150Y8500D02*
X14200Y8550D01*
X61550Y62150D02*
X64600Y65200D01*
X61550Y52650D02*
Y62150D01*
Y52650D02*
X62200Y52000D01*
D64*
X49509Y42683D02*
D03*
X45768D02*
D03*
X42028D02*
D03*
X15528Y42333D02*
D03*
X19268D02*
D03*
X23009D02*
D03*
D66*
X3100Y13350D02*
D03*
X13050Y54300D02*
D03*
X14000Y47200D02*
D03*
X9551Y13350D02*
D03*
X30000Y14600D02*
D03*
Y17550D02*
D03*
X26875Y14600D02*
D03*
Y17550D02*
D03*
X23750Y14600D02*
D03*
Y17550D02*
D03*
X104650Y30450D02*
D03*
X61450Y23700D02*
D03*
X4850Y48600D02*
D03*
Y52300D02*
D03*
Y59700D02*
D03*
X73400Y30450D02*
D03*
X73100Y38200D02*
D03*
X97350Y54050D02*
D03*
X95100Y56300D02*
D03*
X97350Y58500D02*
D03*
X103200Y49750D02*
D03*
X106277D02*
D03*
X112431D02*
D03*
X109354D02*
D03*
X111831Y18857D02*
D03*
Y15779D02*
D03*
Y21934D02*
D03*
Y25011D02*
D03*
X82700Y42850D02*
D03*
X79600Y41450D02*
D03*
X95100Y60750D02*
D03*
X104450Y37000D02*
D03*
X14150Y8500D02*
D03*
X101300Y30450D02*
D03*
X67480Y56450D02*
D03*
X64250D02*
D03*
X73940D02*
D03*
X70710D02*
D03*
X80400D02*
D03*
X77170D02*
D03*
X71300Y44400D02*
D03*
X62200Y52000D02*
D03*
X64600Y65200D02*
D03*
X49300Y22350D02*
D03*
X49200Y25450D02*
D03*
X41400Y22300D02*
D03*
Y25450D02*
D03*
Y32250D02*
D03*
Y29100D02*
D03*
X49200Y32250D02*
D03*
X49300Y29150D02*
D03*
X22800Y28800D02*
D03*
X22700Y31900D02*
D03*
X10550Y38150D02*
D03*
X7200Y38200D02*
D03*
X4850Y63400D02*
D03*
Y56000D02*
D03*
Y67100D02*
D03*
X15800Y28750D02*
D03*
Y31900D02*
D03*
X10700Y31000D02*
D03*
X7350D02*
D03*
X33700Y44350D02*
D03*
X76500Y30450D02*
D03*
X76150Y38200D02*
D03*
X79600Y37000D02*
D03*
X82950D02*
D03*
X101200D02*
D03*
X97750Y30450D02*
D03*
X86050D02*
D03*
X79850D02*
D03*
D67*
X1969Y1181D02*
D03*
X7062D02*
D03*
X37623D02*
D03*
X32530D02*
D03*
X27436D02*
D03*
X22343D02*
D03*
X17249D02*
D03*
X12156D02*
D03*
X42717D02*
D03*
X47811D02*
D03*
X52906D02*
D03*
X83473D02*
D03*
X78378D02*
D03*
X73284D02*
D03*
X68189D02*
D03*
X63095D02*
D03*
X58000D02*
D03*
X88568D02*
D03*
X103851D02*
D03*
X93662D02*
D03*
X98757D02*
D03*
X108946D02*
D03*
X114040D02*
D03*
Y73622D02*
D03*
X108947D02*
D03*
X78386D02*
D03*
X83479D02*
D03*
X88573D02*
D03*
X93666D02*
D03*
X98760D02*
D03*
X103853D02*
D03*
X73292D02*
D03*
X68198D02*
D03*
X63103D02*
D03*
X32536D02*
D03*
X37630D02*
D03*
X42725D02*
D03*
X47820D02*
D03*
X52914D02*
D03*
X58009D02*
D03*
X27441D02*
D03*
X12157D02*
D03*
X22347D02*
D03*
X17252D02*
D03*
X7063D02*
D03*
X1969D02*
D03*
M02*
