G04*
G04 #@! TF.GenerationSoftware,Altium Limited,Altium Designer,20.0.2 (26)*
G04*
G04 Layer_Color=32768*
%FSLAX25Y25*%
%MOIN*%
G70*
G01*
G75*
%ADD11C,0.00394*%
%ADD70C,0.00197*%
D11*
X99118Y26783D02*
Y44893D01*
X84945D02*
X99118D01*
X84945Y26783D02*
Y44893D01*
Y26783D02*
X99118D01*
D70*
X91722Y51906D02*
Y70095D01*
X100778D01*
Y51906D02*
Y70095D01*
X91722Y51906D02*
X100778D01*
X99924Y19022D02*
X115476D01*
X99924D02*
Y28078D01*
X115476D01*
Y19022D02*
Y28078D01*
X115736Y45637D02*
Y69063D01*
X100264Y45637D02*
X115736D01*
X100264D02*
Y69063D01*
X115736D01*
X100620Y5110D02*
X115580D01*
X100620D02*
Y18890D01*
X115580D01*
Y5110D02*
Y18890D01*
X77796Y28309D02*
Y39805D01*
X84804D01*
Y28309D02*
Y39805D01*
X77796Y28309D02*
X84804D01*
X99246D02*
Y39805D01*
X106254D01*
Y28309D02*
Y39805D01*
X99246Y28309D02*
X106254D01*
X46303Y17640D02*
X52996D01*
X46303Y6459D02*
Y17640D01*
Y6459D02*
X52996D01*
Y17640D01*
X53164Y12903D02*
Y19597D01*
Y12903D02*
X64345D01*
Y19597D01*
X53164D02*
X64345D01*
X39404Y17640D02*
X46097D01*
X39404Y6459D02*
Y17640D01*
Y6459D02*
X46097D01*
Y17640D01*
X53164Y19791D02*
Y26484D01*
Y19791D02*
X64345D01*
Y26484D01*
X53164D02*
X64345D01*
X63954Y25691D02*
X70647D01*
X63954Y14510D02*
Y25691D01*
Y14510D02*
X70647D01*
Y25691D01*
X23613Y5604D02*
Y18596D01*
X31487D01*
Y5604D02*
Y18596D01*
X23613Y5604D02*
X31487D01*
X94871Y10498D02*
Y29002D01*
X72430D02*
X94871D01*
X72430Y10498D02*
Y29002D01*
Y10498D02*
X94871D01*
M02*
