G04*
G04 #@! TF.GenerationSoftware,Altium Limited,Altium Designer,20.0.2 (26)*
G04*
G04 Layer_Physical_Order=2*
G04 Layer_Color=16711680*
%FSLAX25Y25*%
%MOIN*%
G70*
G01*
G75*
%ADD12C,0.01000*%
%ADD23C,0.02520*%
%ADD24R,0.03150X0.05906*%
G36*
X45832Y75315D02*
X45874Y75101D01*
Y70581D01*
X50224D01*
Y70581D01*
X50968D01*
Y70581D01*
X55317D01*
X55433Y69629D01*
Y6198D01*
X55317Y5246D01*
X50968D01*
Y5246D01*
X50222D01*
X49414Y5707D01*
X49169Y6047D01*
X49084Y6476D01*
X48841Y6840D01*
X48841Y6840D01*
X46344Y9336D01*
X45980Y9579D01*
X45551Y9665D01*
X45551Y9665D01*
X25385D01*
X25238Y9884D01*
X24623Y10295D01*
X23898Y10440D01*
X23172Y10295D01*
X22557Y9884D01*
X22146Y9269D01*
X22001Y8543D01*
X22146Y7818D01*
X22557Y7202D01*
X23172Y6791D01*
X23898Y6647D01*
X24623Y6791D01*
X25238Y7202D01*
X25385Y7422D01*
X45087D01*
X46263Y6246D01*
X45873Y5246D01*
X45873D01*
Y726D01*
X45830Y512D01*
X44873Y197D01*
X41034D01*
X40077Y512D01*
X40034Y726D01*
Y5246D01*
X35684D01*
Y5246D01*
X34940D01*
Y5246D01*
X30591D01*
Y5246D01*
X29847D01*
Y5246D01*
X25497D01*
Y5246D01*
X24754D01*
Y5246D01*
X20404D01*
Y5246D01*
X19660D01*
Y5246D01*
X15310D01*
Y5246D01*
X14567D01*
Y5246D01*
X10217D01*
Y5246D01*
X9473D01*
Y5246D01*
X5123D01*
Y5246D01*
X4380D01*
Y5246D01*
X787D01*
X-209Y6147D01*
X59Y70581D01*
X4380D01*
Y70581D01*
X5125D01*
Y70581D01*
X9475D01*
Y70581D01*
X9926D01*
X10926Y69873D01*
Y68898D01*
X10926Y68898D01*
X11011Y68468D01*
X11254Y68105D01*
X13347Y66012D01*
Y41389D01*
X13128Y41242D01*
X12717Y40627D01*
X12572Y39902D01*
X12717Y39176D01*
X13128Y38561D01*
X13743Y38150D01*
X14469Y38005D01*
X15194Y38150D01*
X15809Y38561D01*
X16220Y39176D01*
X16365Y39902D01*
X16220Y40627D01*
X15809Y41242D01*
X15590Y41389D01*
Y66476D01*
X15505Y66906D01*
X15262Y67269D01*
X15261Y67269D01*
X13169Y69362D01*
Y70581D01*
X14570D01*
Y70581D01*
X15313D01*
Y70581D01*
X16367D01*
Y68772D01*
X16367Y68772D01*
X16452Y68342D01*
X16695Y67979D01*
X18327Y66347D01*
Y41133D01*
X18108Y40986D01*
X17697Y40371D01*
X17552Y39646D01*
X17697Y38920D01*
X18108Y38305D01*
X18723Y37894D01*
X19449Y37749D01*
X20175Y37894D01*
X20460Y38085D01*
X21454Y37648D01*
X21460Y37642D01*
Y34859D01*
X21460Y34859D01*
X21545Y34430D01*
X21789Y34066D01*
X34010Y21845D01*
X34374Y21602D01*
X34803Y21516D01*
X34803Y21516D01*
X34930D01*
X35076Y21297D01*
X35692Y20886D01*
X36417Y20741D01*
X37143Y20886D01*
X37758Y21297D01*
X38169Y21912D01*
X38314Y22638D01*
X38169Y23363D01*
X37758Y23979D01*
X37143Y24390D01*
X36417Y24534D01*
X35692Y24390D01*
X35076Y23979D01*
X35051Y23976D01*
X23703Y35324D01*
Y70581D01*
X24757D01*
Y70581D01*
X25500D01*
Y70581D01*
X26554D01*
Y42600D01*
X26554Y42600D01*
X26639Y42171D01*
X26882Y41807D01*
X33524Y35165D01*
Y31409D01*
X33305Y31262D01*
X32894Y30647D01*
X32749Y29921D01*
X32894Y29196D01*
X33305Y28580D01*
X33920Y28169D01*
X34646Y28025D01*
X35371Y28169D01*
X35987Y28580D01*
X36398Y29196D01*
X36542Y29921D01*
X36398Y30647D01*
X35987Y31262D01*
X35767Y31409D01*
Y35630D01*
X35682Y36059D01*
X35439Y36423D01*
X35439Y36423D01*
X28797Y43065D01*
Y70581D01*
X29850D01*
Y70581D01*
X30594D01*
Y70581D01*
X34944D01*
Y70581D01*
X35687D01*
Y70581D01*
X40037D01*
Y75101D01*
X40080Y75315D01*
X40112Y75354D01*
X45799D01*
X45832Y75315D01*
D02*
G37*
D12*
X34646Y29921D02*
Y35630D01*
X27675Y42600D02*
X34646Y35630D01*
X27675Y42600D02*
Y75315D01*
X22582Y34859D02*
X34803Y22638D01*
X36417D01*
X22582Y34859D02*
Y75315D01*
X45551Y8543D02*
X48048Y6047D01*
Y512D02*
Y6047D01*
X23898Y8543D02*
X45551D01*
X17488Y68772D02*
X19449Y66811D01*
Y39646D02*
Y66811D01*
X17488Y68772D02*
Y75315D01*
X12047Y74967D02*
X12395Y75315D01*
X12047Y68898D02*
Y74967D01*
X14469Y39902D02*
Y66476D01*
X12047Y68898D02*
X14469Y66476D01*
D23*
X34646Y29921D02*
D03*
X36417Y22638D02*
D03*
X23898Y8543D02*
D03*
X19449Y39646D02*
D03*
X14469Y39902D02*
D03*
D24*
X53143Y74134D02*
D03*
X48049D02*
D03*
X17488D02*
D03*
X22582D02*
D03*
X27675D02*
D03*
X32769D02*
D03*
X37862D02*
D03*
X42956D02*
D03*
X12395D02*
D03*
X2205D02*
D03*
X7300D02*
D03*
X2205Y1693D02*
D03*
X7298D02*
D03*
X37859D02*
D03*
X32766D02*
D03*
X27672D02*
D03*
X22579D02*
D03*
X17485D02*
D03*
X12392D02*
D03*
X42953D02*
D03*
X53143D02*
D03*
X48048D02*
D03*
M02*
