G04*
G04 #@! TF.GenerationSoftware,Altium Limited,Altium Designer,20.0.2 (26)*
G04*
G04 Layer_Color=8421504*
%FSLAX25Y25*%
%MOIN*%
G70*
G01*
G75*
%ADD10R,0.03347X0.03347*%
%ADD11R,0.01772X0.06713*%
%ADD12R,0.05610X0.01772*%
%ADD13R,0.03347X0.03347*%
D10*
X38760Y22913D02*
D03*
X44862D02*
D03*
X18524Y8504D02*
D03*
X12421D02*
D03*
X31791Y67205D02*
D03*
X25689D02*
D03*
X21122D02*
D03*
X15020D02*
D03*
D11*
X32382Y60583D02*
D03*
X29823D02*
D03*
X27264D02*
D03*
X24705D02*
D03*
X22146D02*
D03*
X19587D02*
D03*
X17028D02*
D03*
X14469D02*
D03*
Y33039D02*
D03*
X17028D02*
D03*
X19587D02*
D03*
X22146D02*
D03*
X24705D02*
D03*
X27264D02*
D03*
X29823D02*
D03*
X32382D02*
D03*
D12*
X13811Y22579D02*
D03*
Y20020D02*
D03*
Y17461D02*
D03*
Y14902D02*
D03*
X31228D02*
D03*
Y17461D02*
D03*
Y20020D02*
D03*
Y22579D02*
D03*
D13*
X39291Y32067D02*
D03*
Y38169D02*
D03*
Y49272D02*
D03*
Y43169D02*
D03*
Y56634D02*
D03*
Y62736D02*
D03*
M02*
