M48
;Layer_Color=9474304
;FILE_FORMAT=2:5
INCH,TZ
;TYPE=PLATED
T1F00S00C0.01220
T2F00S00C0.03150
%
T01
X23898Y8543
X36417Y22638
X34646Y29921
X19449Y39646
X14469Y39902
T02
X2205Y512
X7298
X12392
X17485
X22579
X27672
X32766
X37859
X42953
X48048
X53143
Y75315
X48049
X42956
X37862
X32769
X27675
X22582
X17488
X12395
X7300
X2205
M30
