G04*
G04 #@! TF.GenerationSoftware,Altium Limited,Altium Designer,20.0.2 (26)*
G04*
G04 Layer_Physical_Order=1*
G04 Layer_Color=255*
%FSLAX25Y25*%
%MOIN*%
G70*
G01*
G75*
%ADD12C,0.01000*%
%ADD18R,0.03347X0.03347*%
%ADD19R,0.01772X0.06713*%
%ADD20R,0.05610X0.01772*%
%ADD21R,0.03347X0.03347*%
%ADD22R,0.03150X0.05512*%
%ADD23C,0.02520*%
G36*
X45832Y75315D02*
X45874Y75101D01*
Y70778D01*
X50224D01*
Y70778D01*
X50968D01*
Y70778D01*
X55197D01*
Y5049D01*
X50968D01*
Y5049D01*
X50222D01*
Y5049D01*
X45873D01*
Y726D01*
X45830Y512D01*
X44961Y0D01*
X40946D01*
X40077Y512D01*
X40034Y726D01*
Y5049D01*
X39665D01*
Y15984D01*
X39665Y15984D01*
X39579Y16413D01*
X39336Y16777D01*
X39336Y16777D01*
X37860Y18254D01*
X37496Y18497D01*
X37067Y18582D01*
X37067Y18582D01*
X34633D01*
Y18946D01*
X27823D01*
Y15975D01*
Y13416D01*
X31644D01*
Y5049D01*
X30591D01*
Y5049D01*
X29847D01*
Y5049D01*
X25497D01*
Y5049D01*
X24754D01*
Y5049D01*
X20404D01*
Y5049D01*
X19660D01*
Y5049D01*
X15310D01*
Y5049D01*
X14567D01*
Y5049D01*
X10217D01*
Y5049D01*
X9473D01*
Y5049D01*
X8090D01*
Y7382D01*
X10148D01*
Y6231D01*
X14694D01*
Y10777D01*
X10148D01*
Y9625D01*
X8090D01*
Y16701D01*
X9557Y18168D01*
X10406Y18534D01*
Y18534D01*
X17216D01*
Y21093D01*
Y24065D01*
X10406D01*
Y23700D01*
X7894D01*
X7464Y23615D01*
X7101Y23372D01*
X7101Y23372D01*
X1412Y17683D01*
X1168Y17319D01*
X1083Y16890D01*
X1083Y16890D01*
Y6406D01*
X1030Y6384D01*
X33Y7054D01*
X286Y61000D01*
X443Y61061D01*
X1287Y61165D01*
X1412Y60979D01*
X19923Y42467D01*
X19449Y41542D01*
X18723Y41398D01*
X18108Y40986D01*
X17697Y40371D01*
X17552Y39646D01*
X17697Y38920D01*
X18108Y38305D01*
X18327Y38158D01*
Y36996D01*
X15590D01*
Y38414D01*
X15809Y38561D01*
X16220Y39176D01*
X16365Y39902D01*
X16220Y40627D01*
X15809Y41242D01*
X15194Y41653D01*
X14469Y41798D01*
X13743Y41653D01*
X13128Y41242D01*
X12717Y40627D01*
X12572Y39902D01*
X12717Y39176D01*
X13128Y38561D01*
X13347Y38414D01*
Y36996D01*
X12983D01*
Y29083D01*
X15959D01*
X15991Y28921D01*
X16235Y28557D01*
X17140Y27652D01*
X17140Y27652D01*
X17504Y27409D01*
X17933Y27323D01*
X22697D01*
X22697Y27323D01*
X22697Y27323D01*
X32151D01*
X32151Y27323D01*
X32580Y27409D01*
X32944Y27652D01*
X33438Y28146D01*
X33438Y28146D01*
X33598Y28385D01*
X33920Y28169D01*
X34646Y28025D01*
X35371Y28169D01*
X35987Y28580D01*
X36133Y28800D01*
X37146D01*
X37146Y28800D01*
X37575Y28885D01*
X37939Y29128D01*
X38604Y29794D01*
X41565D01*
Y34340D01*
X37018D01*
Y31380D01*
X37010Y31371D01*
X35987Y31262D01*
X35371Y31673D01*
X34646Y31817D01*
X33868Y32682D01*
Y36996D01*
X28337D01*
Y29566D01*
X26191D01*
Y36996D01*
X25826D01*
Y39272D01*
X25826Y39272D01*
X25741Y39701D01*
X25498Y40065D01*
X3326Y62236D01*
Y70778D01*
X4380D01*
Y70778D01*
X5125D01*
Y70778D01*
X6178D01*
Y67751D01*
X6178Y67751D01*
X6263Y67322D01*
X6507Y66958D01*
X11875Y61590D01*
X11875Y61590D01*
X12239Y61347D01*
X12668Y61261D01*
X12983D01*
Y56626D01*
X16479D01*
Y55060D01*
X16479Y55060D01*
X16565Y54631D01*
X16808Y54267D01*
X22596Y48479D01*
X22596Y48479D01*
X22960Y48235D01*
X23389Y48150D01*
X23389Y48150D01*
X37018D01*
Y46998D01*
X41565D01*
Y51545D01*
X37975D01*
X37907Y51720D01*
X37808Y52545D01*
X37998Y52671D01*
X38911Y53585D01*
X38911Y53585D01*
X39154Y53949D01*
X39236Y54361D01*
X41565D01*
Y58907D01*
X37018D01*
Y55569D01*
X36997Y55461D01*
X36657Y54586D01*
X28917D01*
Y56626D01*
X31309D01*
Y60860D01*
X31330Y60969D01*
X31330Y60969D01*
Y64931D01*
X34065D01*
Y69478D01*
X34065D01*
X33820Y70478D01*
X33988Y70778D01*
X34944D01*
Y70778D01*
X35687D01*
Y70778D01*
X40037D01*
Y75101D01*
X40080Y75315D01*
X40241Y75512D01*
X45670D01*
X45832Y75315D01*
D02*
G37*
%LPC*%
G36*
X41033Y25187D02*
X36487D01*
Y24591D01*
X36417Y24534D01*
X35692Y24390D01*
X35541Y24289D01*
X34633Y24065D01*
X34633Y24065D01*
Y24065D01*
X34633Y24065D01*
X32077D01*
X31969Y24086D01*
X31860Y24065D01*
X27823D01*
Y21093D01*
X32521D01*
X32768Y21044D01*
X33015Y21093D01*
X34633D01*
X34633Y21093D01*
X35579Y20961D01*
X35692Y20886D01*
X36417Y20741D01*
X36487Y20685D01*
Y20640D01*
X41033D01*
Y25187D01*
D02*
G37*
G36*
X20797Y10777D02*
X16250D01*
Y6231D01*
X20797D01*
Y7382D01*
X22436D01*
X22557Y7202D01*
X23172Y6791D01*
X23898Y6647D01*
X24623Y6791D01*
X25238Y7202D01*
X25650Y7818D01*
X25794Y8543D01*
X25650Y9269D01*
X25238Y9884D01*
X24623Y10295D01*
X23898Y10440D01*
X23172Y10295D01*
X22557Y9884D01*
X22384Y9625D01*
X20797D01*
Y10777D01*
D02*
G37*
%LPD*%
D12*
X18386Y65039D02*
X19201Y64224D01*
X17185Y65039D02*
X18386D01*
X19201Y60969D02*
Y64224D01*
X13526Y69978D02*
X31317D01*
X31894Y70556D01*
Y74441D01*
X12165Y71339D02*
X13526Y69978D01*
X31894Y74441D02*
X32769Y75315D01*
X12165Y75086D02*
X12395Y75315D01*
X12165Y71339D02*
Y75086D01*
X21122Y67205D02*
X22146Y66181D01*
Y60583D02*
Y66181D01*
X24705Y66260D02*
X25650Y67205D01*
X24705Y60583D02*
Y66260D01*
X30209Y65661D02*
X31752Y67205D01*
X30209Y60969D02*
Y65661D01*
X32382Y33039D02*
Y33394D01*
Y33039D02*
Y33039D01*
X32205Y33217D02*
X32382Y33394D01*
X32205Y33217D02*
X32382Y33039D01*
X32645Y30858D02*
X33582Y29921D01*
X32645Y28939D02*
Y30858D01*
X33582Y29921D02*
X34646D01*
X17933Y28445D02*
X22697D01*
X17028Y29350D02*
X17933Y28445D01*
X29823D02*
X32151D01*
X22697D02*
X29823D01*
X22306Y28836D02*
X22697Y28445D01*
X37146Y29921D02*
X39291Y32067D01*
X34646Y29921D02*
X37146D01*
X39291Y38169D02*
Y43169D01*
X45000Y22205D02*
Y40827D01*
X42658Y43169D02*
X45000Y40827D01*
X39291Y43169D02*
X42658D01*
X32151Y28445D02*
X32645Y28939D01*
X42953Y4291D02*
X44470Y5808D01*
X42953Y512D02*
Y4291D01*
X44470Y19805D02*
Y21674D01*
Y5808D02*
Y19805D01*
X31443D02*
X44470D01*
Y21674D02*
X45000Y22205D01*
X38484Y22638D02*
X38760Y22913D01*
X36417Y22638D02*
X38484D01*
X33791D02*
X36417D01*
X33516Y22913D02*
X33791Y22638D01*
X32768Y22165D02*
X33516Y22913D01*
X31228Y20020D02*
X31443Y19805D01*
X31969Y22965D02*
X32768Y22165D01*
X31583Y22579D02*
X31969Y22965D01*
X31228Y22579D02*
X31583D01*
X44449Y48327D02*
Y64907D01*
X42956Y66401D02*
X44449Y64907D01*
X39291Y43169D02*
X44449Y48327D01*
X31319Y43169D02*
X39291D01*
X27264Y39114D02*
X31319Y43169D01*
X27264Y33039D02*
Y39114D01*
X32382Y33039D02*
X32645Y32776D01*
X29823Y28445D02*
Y33039D01*
X22146D02*
X22306Y32879D01*
Y28836D02*
Y32879D01*
X17028Y29350D02*
Y33039D01*
X31228Y14902D02*
X32380D01*
X32766Y14516D01*
Y512D02*
Y14516D01*
X37859Y512D02*
X38543Y1196D01*
Y15984D01*
X31228Y17461D02*
X37067D01*
X38543Y15984D01*
X18524Y8504D02*
X23858D01*
X23898Y8543D01*
X24429Y20020D02*
X31228D01*
X21870Y17461D02*
X24429Y20020D01*
X13811Y17461D02*
X21870D01*
X13811Y14902D02*
Y17461D01*
X6968Y7992D02*
Y17165D01*
Y841D02*
Y7992D01*
X7480Y8504D02*
X12421D01*
X6968Y7992D02*
X7480Y8504D01*
X6968Y841D02*
X7298Y512D01*
X6968Y17165D02*
X9823Y20020D01*
X13811D01*
X7894Y22579D02*
X13811D01*
X2205Y16890D02*
X7894Y22579D01*
X2205Y512D02*
Y16890D01*
X42956Y66401D02*
Y75315D01*
X39291Y62736D02*
X42956Y66401D01*
X28381Y53465D02*
X37205D01*
X27264Y60583D02*
X27650Y60197D01*
Y57286D02*
Y60197D01*
Y57286D02*
X27795Y57141D01*
Y54050D02*
Y57141D01*
Y54050D02*
X28381Y53465D01*
X38118Y55461D02*
X39291Y56634D01*
X38118Y54378D02*
Y55461D01*
X37205Y53465D02*
X38118Y54378D01*
X17028Y60583D02*
X17413Y60197D01*
Y57328D02*
Y60197D01*
Y57328D02*
X17601Y57141D01*
Y55060D02*
Y57141D01*
Y55060D02*
X23389Y49272D01*
X39370D01*
X32382Y60583D02*
X37138D01*
X39291Y62736D01*
X29823Y60583D02*
X30209Y60969D01*
X19201D02*
X19587Y60583D01*
X15020Y67205D02*
X17185Y65039D01*
X19449Y33177D02*
X19587Y33039D01*
X19449Y33177D02*
Y39646D01*
X14469Y33039D02*
Y39902D01*
X14370Y40000D02*
X14469Y39902D01*
X24705Y33039D02*
Y39272D01*
X2205Y61772D02*
X24705Y39272D01*
X2205Y61772D02*
Y75315D01*
X7300Y67751D02*
Y75315D01*
Y67751D02*
X12668Y62383D01*
X14083D01*
X14469Y61997D01*
Y60583D02*
Y61997D01*
D18*
X38760Y22913D02*
D03*
X44862D02*
D03*
X18524Y8504D02*
D03*
X12421D02*
D03*
X31791Y67205D02*
D03*
X25689D02*
D03*
X21122D02*
D03*
X15020D02*
D03*
D19*
X32382Y60583D02*
D03*
X29823D02*
D03*
X27264D02*
D03*
X24705D02*
D03*
X22146D02*
D03*
X19587D02*
D03*
X17028D02*
D03*
X14469D02*
D03*
Y33039D02*
D03*
X17028D02*
D03*
X19587D02*
D03*
X22146D02*
D03*
X24705D02*
D03*
X27264D02*
D03*
X29823D02*
D03*
X32382D02*
D03*
D20*
X13811Y22579D02*
D03*
Y20020D02*
D03*
Y17461D02*
D03*
Y14902D02*
D03*
X31228D02*
D03*
Y17461D02*
D03*
Y20020D02*
D03*
Y22579D02*
D03*
D21*
X39291Y32067D02*
D03*
Y38169D02*
D03*
Y49272D02*
D03*
Y43169D02*
D03*
Y56634D02*
D03*
Y62736D02*
D03*
D22*
X53143Y74134D02*
D03*
X48049D02*
D03*
X17488D02*
D03*
X22582D02*
D03*
X27675D02*
D03*
X32769D02*
D03*
X37862D02*
D03*
X42956D02*
D03*
X12395D02*
D03*
X2205D02*
D03*
X7300D02*
D03*
X2205Y1693D02*
D03*
X7298D02*
D03*
X37859D02*
D03*
X32766D02*
D03*
X27672D02*
D03*
X22579D02*
D03*
X17485D02*
D03*
X12392D02*
D03*
X42953D02*
D03*
X53143D02*
D03*
X48048D02*
D03*
D23*
X34646Y29921D02*
D03*
X36417Y22638D02*
D03*
X23898Y8543D02*
D03*
X19449Y39646D02*
D03*
X14469Y39902D02*
D03*
M02*
