G04*
G04 #@! TF.GenerationSoftware,Altium Limited,Altium Designer,20.0.2 (26)*
G04*
G04 Layer_Color=8388736*
%FSLAX25Y25*%
%MOIN*%
G70*
G01*
G75*
%ADD13R,0.04150X0.04150*%
%ADD14R,0.02575X0.07516*%
%ADD15R,0.06413X0.02575*%
%ADD16R,0.04150X0.04150*%
%ADD17R,0.03953X0.06315*%
D13*
X38760Y22913D02*
D03*
X44862D02*
D03*
X18524Y8504D02*
D03*
X12421D02*
D03*
X31791Y67205D02*
D03*
X25689D02*
D03*
X21122D02*
D03*
X15020D02*
D03*
D14*
X32382Y60583D02*
D03*
X29823D02*
D03*
X27264D02*
D03*
X24705D02*
D03*
X22146D02*
D03*
X19587D02*
D03*
X17028D02*
D03*
X14469D02*
D03*
Y33039D02*
D03*
X17028D02*
D03*
X19587D02*
D03*
X22146D02*
D03*
X24705D02*
D03*
X27264D02*
D03*
X29823D02*
D03*
X32382D02*
D03*
D15*
X13811Y22579D02*
D03*
Y20020D02*
D03*
Y17461D02*
D03*
Y14902D02*
D03*
X31228D02*
D03*
Y17461D02*
D03*
Y20020D02*
D03*
Y22579D02*
D03*
D16*
X39291Y32067D02*
D03*
Y38169D02*
D03*
Y49272D02*
D03*
Y43169D02*
D03*
Y56634D02*
D03*
Y62736D02*
D03*
D17*
X53143Y74134D02*
D03*
X48049D02*
D03*
X17488D02*
D03*
X22582D02*
D03*
X27675D02*
D03*
X32769D02*
D03*
X37862D02*
D03*
X42956D02*
D03*
X12395D02*
D03*
X2205D02*
D03*
X7300D02*
D03*
X2205Y1693D02*
D03*
X7298D02*
D03*
X37859D02*
D03*
X32766D02*
D03*
X27672D02*
D03*
X22579D02*
D03*
X17485D02*
D03*
X12392D02*
D03*
X42953D02*
D03*
X53143D02*
D03*
X48048D02*
D03*
M02*
