G04*
G04 #@! TF.GenerationSoftware,Altium Limited,Altium Designer,20.0.2 (26)*
G04*
G04 Layer_Color=65535*
%FSLAX25Y25*%
%MOIN*%
G70*
G01*
G75*
%ADD10C,0.00600*%
%ADD11C,0.00787*%
%ADD12C,0.01000*%
D10*
X41811Y21339D02*
Y24488D01*
X10748Y11260D02*
X20197D01*
X10748Y5748D02*
X20197D01*
X28741Y65630D02*
Y68780D01*
X37717Y35118D02*
X40866D01*
X37716Y46221D02*
X40866D01*
X37717Y59685D02*
X40866D01*
X18071Y65630D02*
Y68779D01*
D11*
X35630Y37776D02*
Y55847D01*
X11220Y37776D02*
X35630D01*
X11220D02*
Y55847D01*
X35630D01*
X34646Y57224D02*
Y63937D01*
X17992Y24646D02*
X27047D01*
Y12835D02*
Y24646D01*
X17992Y12835D02*
X27047D01*
X17992D02*
Y24646D01*
X11004Y24843D02*
X16614D01*
D12*
X25945Y6496D02*
Y10432D01*
X27913D01*
X28569Y9776D01*
Y8464D01*
X27913Y7808D01*
X25945D01*
X27257D02*
X28569Y6496D01*
X29881D02*
X31192D01*
X30537D01*
Y10432D01*
X29881Y9776D01*
X-14134Y77219D02*
Y71220D01*
Y74220D01*
X-10135D01*
Y77219D01*
Y71220D01*
X-8136D02*
X-6136D01*
X-7136D01*
Y77219D01*
X-8136Y76219D01*
X-14134Y3872D02*
Y-2126D01*
Y873D01*
X-10135D01*
Y3872D01*
Y-2126D01*
X-4137D02*
X-8136D01*
X-4137Y1873D01*
Y2872D01*
X-5137Y3872D01*
X-7136D01*
X-8136Y2872D01*
M02*
