G04 #@! TF.GenerationSoftware,KiCad,Pcbnew,(6.0.1)*
G04 #@! TF.CreationDate,2022-03-04T19:07:33+03:00*
G04 #@! TF.ProjectId,EXT_M_V1.1,4558545f-4d5f-4563-912e-312e6b696361,rev?*
G04 #@! TF.SameCoordinates,Original*
G04 #@! TF.FileFunction,Soldermask,Bot*
G04 #@! TF.FilePolarity,Negative*
%FSLAX46Y46*%
G04 Gerber Fmt 4.6, Leading zero omitted, Abs format (unit mm)*
G04 Created by KiCad (PCBNEW (6.0.1)) date 2022-03-04 19:07:33*
%MOMM*%
%LPD*%
G01*
G04 APERTURE LIST*
%ADD10R,0.800000X1.400000*%
G04 APERTURE END LIST*
D10*
G04 #@! TO.C,J2*
X170959917Y-104300000D03*
X172253641Y-104300000D03*
X173547415Y-104300000D03*
X174841139Y-104300000D03*
X176134913Y-104300000D03*
X177428637Y-104300000D03*
X178722411Y-104300000D03*
X180016135Y-104300000D03*
X181309909Y-104300000D03*
X182603937Y-104300000D03*
X183897966Y-104300000D03*
X185191943Y-104300000D03*
X186485972Y-104300000D03*
X187780000Y-104300000D03*
X189074029Y-104300000D03*
X190368057Y-104300000D03*
X191662085Y-104300000D03*
X192956114Y-104300000D03*
X194250091Y-104300000D03*
X195544120Y-104300000D03*
X196838148Y-104300000D03*
X198132177Y-104300000D03*
G04 #@! TD*
G04 #@! TO.C,J1*
X198130083Y-85900000D03*
X196836359Y-85900000D03*
X195542585Y-85900000D03*
X194248861Y-85900000D03*
X192955087Y-85900000D03*
X191661363Y-85900000D03*
X190367589Y-85900000D03*
X189073865Y-85900000D03*
X187780091Y-85900000D03*
X186486063Y-85900000D03*
X185192034Y-85900000D03*
X183898057Y-85900000D03*
X182604028Y-85900000D03*
X181310000Y-85900000D03*
X180015971Y-85900000D03*
X178721943Y-85900000D03*
X177427915Y-85900000D03*
X176133886Y-85900000D03*
X174839909Y-85900000D03*
X173545880Y-85900000D03*
X172251852Y-85900000D03*
X170957823Y-85900000D03*
G04 #@! TD*
M02*
