G04 #@! TF.GenerationSoftware,KiCad,Pcbnew,(6.0.1)*
G04 #@! TF.CreationDate,2022-03-04T19:07:32+03:00*
G04 #@! TF.ProjectId,EXT_M_V1.1,4558545f-4d5f-4563-912e-312e6b696361,rev?*
G04 #@! TF.SameCoordinates,Original*
G04 #@! TF.FileFunction,Copper,L1,Top*
G04 #@! TF.FilePolarity,Positive*
%FSLAX46Y46*%
G04 Gerber Fmt 4.6, Leading zero omitted, Abs format (unit mm)*
G04 Created by KiCad (PCBNEW (6.0.1)) date 2022-03-04 19:07:32*
%MOMM*%
%LPD*%
G01*
G04 APERTURE LIST*
G04 #@! TA.AperFunction,ComponentPad*
%ADD10R,0.800000X1.400000*%
G04 #@! TD*
G04 #@! TA.AperFunction,SMDPad,CuDef*
%ADD11R,0.300000X1.500000*%
G04 #@! TD*
G04 #@! TA.AperFunction,SMDPad,CuDef*
%ADD12R,2.000000X3.000000*%
G04 #@! TD*
G04 #@! TA.AperFunction,Conductor*
%ADD13C,0.254000*%
G04 #@! TD*
G04 APERTURE END LIST*
D10*
G04 #@! TO.P,J2,1*
G04 #@! TO.N,/M3_D7*
X170959917Y-104300000D03*
G04 #@! TO.P,J2,2*
G04 #@! TO.N,/B3*
X172253641Y-104300000D03*
G04 #@! TO.P,J2,3*
G04 #@! TO.N,/B5*
X173547415Y-104300000D03*
G04 #@! TO.P,J2,4*
G04 #@! TO.N,/B4*
X174841139Y-104300000D03*
G04 #@! TO.P,J2,5*
G04 #@! TO.N,/B1*
X176134913Y-104300000D03*
G04 #@! TO.P,J2,6*
G04 #@! TO.N,/B2*
X177428637Y-104300000D03*
G04 #@! TO.P,J2,7*
G04 #@! TO.N,/GND*
X178722411Y-104300000D03*
G04 #@! TO.P,J2,8*
G04 #@! TO.N,unconnected-(J2-Pad8)*
X180016135Y-104300000D03*
G04 #@! TO.P,J2,9*
G04 #@! TO.N,unconnected-(J2-Pad9)*
X181309909Y-104300000D03*
G04 #@! TO.P,J2,10*
G04 #@! TO.N,unconnected-(J2-Pad10)*
X182603937Y-104300000D03*
G04 #@! TO.P,J2,11*
G04 #@! TO.N,unconnected-(J2-Pad11)*
X183897966Y-104300000D03*
G04 #@! TO.P,J2,12*
G04 #@! TO.N,unconnected-(J2-Pad12)*
X185191943Y-104300000D03*
G04 #@! TO.P,J2,13*
G04 #@! TO.N,unconnected-(J2-Pad13)*
X186485972Y-104300000D03*
G04 #@! TO.P,J2,14*
G04 #@! TO.N,unconnected-(J2-Pad14)*
X187780000Y-104300000D03*
G04 #@! TO.P,J2,15*
G04 #@! TO.N,/GND*
X189074029Y-104300000D03*
G04 #@! TO.P,J2,16*
G04 #@! TO.N,/M2_D1*
X190368057Y-104300000D03*
G04 #@! TO.P,J2,17*
G04 #@! TO.N,/M2_D2*
X191662085Y-104300000D03*
G04 #@! TO.P,J2,18*
G04 #@! TO.N,/M2_D3*
X192956114Y-104300000D03*
G04 #@! TO.P,J2,19*
G04 #@! TO.N,/M2_D4*
X194250091Y-104300000D03*
G04 #@! TO.P,J2,20*
G04 #@! TO.N,/M2_D5*
X195544120Y-104300000D03*
G04 #@! TO.P,J2,21*
G04 #@! TO.N,/GND*
X196838148Y-104300000D03*
G04 #@! TO.P,J2,22*
G04 #@! TO.N,unconnected-(J2-Pad22)*
X198132177Y-104300000D03*
G04 #@! TD*
D11*
G04 #@! TO.P,J3,1*
G04 #@! TO.N,/GND*
X178799999Y-95701520D03*
G04 #@! TO.P,J3,2*
G04 #@! TO.N,/B2*
X179300023Y-95701520D03*
G04 #@! TO.P,J3,3*
G04 #@! TO.N,/B1*
X179799997Y-95701520D03*
G04 #@! TO.P,J3,4*
G04 #@! TO.N,/B4*
X180300021Y-95701520D03*
G04 #@! TO.P,J3,5*
G04 #@! TO.N,/B5*
X180799995Y-95701520D03*
G04 #@! TO.P,J3,6*
G04 #@! TO.N,/B3*
X181300019Y-95701520D03*
G04 #@! TO.P,J3,7*
G04 #@! TO.N,/M3_D7*
X181799993Y-95701520D03*
G04 #@! TO.P,J3,8*
G04 #@! TO.N,/M3_D2*
X182300017Y-95701520D03*
G04 #@! TO.P,J3,9*
G04 #@! TO.N,/M3_D1*
X182799991Y-95701520D03*
G04 #@! TO.P,J3,10*
G04 #@! TO.N,/VCC3*
X183300015Y-95701520D03*
G04 #@! TO.P,J3,11*
G04 #@! TO.N,/VCC2*
X183799989Y-95701520D03*
G04 #@! TO.P,J3,12*
G04 #@! TO.N,/GND*
X184300013Y-95701520D03*
G04 #@! TO.P,J3,13*
G04 #@! TO.N,/M2_D6*
X184799987Y-95701520D03*
G04 #@! TO.P,J3,14*
G04 #@! TO.N,/M2_D7*
X185300011Y-95701520D03*
G04 #@! TO.P,J3,15*
G04 #@! TO.N,/M2_D8*
X185799985Y-95701520D03*
G04 #@! TO.P,J3,16*
G04 #@! TO.N,/M2_D9*
X186300009Y-95701520D03*
G04 #@! TO.P,J3,17*
G04 #@! TO.N,/M2_D10*
X186799983Y-95701520D03*
G04 #@! TO.P,J3,18*
G04 #@! TO.N,/GND*
X187300007Y-95701520D03*
G04 #@! TO.P,J3,19*
G04 #@! TO.N,/M2_D5*
X187799981Y-95701520D03*
G04 #@! TO.P,J3,20*
G04 #@! TO.N,/M2_D4*
X188300005Y-95701520D03*
G04 #@! TO.P,J3,21*
G04 #@! TO.N,/M2_D3*
X188799979Y-95701520D03*
G04 #@! TO.P,J3,22*
G04 #@! TO.N,/M2_D2*
X189300003Y-95701520D03*
G04 #@! TO.P,J3,23*
G04 #@! TO.N,/M2_D1*
X189800028Y-95701520D03*
G04 #@! TO.P,J3,24*
G04 #@! TO.N,/GND*
X190300052Y-95701520D03*
D12*
G04 #@! TO.P,J3,A*
G04 #@! TO.N,N/C*
X177150015Y-98701514D03*
X191949985Y-98701514D03*
G04 #@! TD*
D10*
G04 #@! TO.P,J1,1*
G04 #@! TO.N,unconnected-(J1-Pad1)*
X198130083Y-85900000D03*
G04 #@! TO.P,J1,2*
G04 #@! TO.N,unconnected-(J1-Pad2)*
X196836359Y-85900000D03*
G04 #@! TO.P,J1,3*
G04 #@! TO.N,unconnected-(J1-Pad3)*
X195542585Y-85900000D03*
G04 #@! TO.P,J1,4*
G04 #@! TO.N,/GND*
X194248861Y-85900000D03*
G04 #@! TO.P,J1,5*
G04 #@! TO.N,/M2_D10*
X192955087Y-85900000D03*
G04 #@! TO.P,J1,6*
G04 #@! TO.N,/M2_D9*
X191661363Y-85900000D03*
G04 #@! TO.P,J1,7*
G04 #@! TO.N,/M2_D8*
X190367589Y-85900000D03*
G04 #@! TO.P,J1,8*
G04 #@! TO.N,/M2_D7*
X189073865Y-85900000D03*
G04 #@! TO.P,J1,9*
G04 #@! TO.N,/M2_D6*
X187780091Y-85900000D03*
G04 #@! TO.P,J1,10*
G04 #@! TO.N,/GND*
X186486063Y-85900000D03*
G04 #@! TO.P,J1,11*
G04 #@! TO.N,unconnected-(J1-Pad11)*
X185192034Y-85900000D03*
G04 #@! TO.P,J1,12*
G04 #@! TO.N,unconnected-(J1-Pad12)*
X183898057Y-85900000D03*
G04 #@! TO.P,J1,13*
G04 #@! TO.N,unconnected-(J1-Pad13)*
X182604028Y-85900000D03*
G04 #@! TO.P,J1,14*
G04 #@! TO.N,unconnected-(J1-Pad14)*
X181310000Y-85900000D03*
G04 #@! TO.P,J1,15*
G04 #@! TO.N,unconnected-(J1-Pad15)*
X180015971Y-85900000D03*
G04 #@! TO.P,J1,16*
G04 #@! TO.N,unconnected-(J1-Pad16)*
X178721943Y-85900000D03*
G04 #@! TO.P,J1,17*
G04 #@! TO.N,unconnected-(J1-Pad17)*
X177427915Y-85900000D03*
G04 #@! TO.P,J1,18*
G04 #@! TO.N,unconnected-(J1-Pad18)*
X176133886Y-85900000D03*
G04 #@! TO.P,J1,19*
G04 #@! TO.N,/VCC2*
X174839909Y-85900000D03*
G04 #@! TO.P,J1,20*
G04 #@! TO.N,/VCC3*
X173545880Y-85900000D03*
G04 #@! TO.P,J1,21*
G04 #@! TO.N,/M3_D1*
X172251852Y-85900000D03*
G04 #@! TO.P,J1,22*
G04 #@! TO.N,/M3_D2*
X170957823Y-85900000D03*
G04 #@! TD*
D13*
G04 #@! TO.N,/GND*
X178594631Y-94655882D02*
X178800010Y-94861261D01*
X187138119Y-96789482D02*
X187300019Y-96627582D01*
X186488997Y-87469104D02*
X186488997Y-85599969D01*
X174793709Y-99558072D02*
X176178019Y-100942382D01*
X190148019Y-96789482D02*
X190300063Y-96637438D01*
X193310319Y-100650282D02*
X194250119Y-99710482D01*
X184300025Y-96643788D02*
X184300025Y-95600000D01*
X190300063Y-96637438D02*
X190300063Y-95600000D01*
X194251795Y-87275506D02*
X194251795Y-85599969D01*
X184300025Y-89658076D02*
X186488997Y-87469104D01*
X187461918Y-96789482D02*
X190148019Y-96789482D01*
X189309819Y-92217482D02*
X194251795Y-87275506D01*
X178725537Y-104599982D02*
X178725537Y-102893000D01*
X191405319Y-100650282D02*
X193310319Y-100650282D01*
X187300019Y-93858982D02*
X188941519Y-92217482D01*
X184300025Y-96643788D02*
X184445719Y-96789482D01*
X190427419Y-94655882D02*
X193183319Y-94655882D01*
X193183319Y-94655882D02*
X194250119Y-95722682D01*
X188941519Y-92217482D02*
X189309819Y-92217482D01*
X195316919Y-92217482D02*
X197368269Y-94268832D01*
X197368269Y-102459732D02*
X197368269Y-94268832D01*
X184445719Y-96789482D02*
X187138119Y-96789482D01*
X178823010Y-96564273D02*
X179048219Y-96789482D01*
X196841275Y-104599982D02*
X196841275Y-102986726D01*
X187300019Y-96627582D02*
X187300019Y-95600000D01*
X178800010Y-95600000D02*
X178800010Y-94861261D01*
X184200330Y-96789482D02*
X184300025Y-96689787D01*
X178823010Y-96564273D02*
X178823010Y-95623000D01*
X189449519Y-92217482D02*
X195316919Y-92217482D01*
X190300063Y-94783238D02*
X190427419Y-94655882D01*
X176178019Y-100942382D02*
X176774919Y-100942382D01*
X179048219Y-96789482D02*
X184200330Y-96789482D01*
X187300019Y-96627582D02*
X187461918Y-96789482D01*
X184300025Y-95600000D02*
X184300025Y-89658076D01*
X178800010Y-95600000D02*
X178823010Y-95623000D01*
X174793709Y-99558072D02*
X174793709Y-95468682D01*
X194250119Y-99710482D02*
X194250119Y-95722682D01*
X189077155Y-104599982D02*
X189077155Y-102978446D01*
X196841275Y-102986726D02*
X197368269Y-102459732D01*
X190300063Y-95600000D02*
X190300063Y-94783238D01*
X184300025Y-96689787D02*
X184300025Y-96643788D01*
X189077155Y-102978446D02*
X191405319Y-100650282D01*
X175606519Y-94655882D02*
X178594631Y-94655882D01*
X176774919Y-100942382D02*
X178725537Y-102893000D01*
X187300019Y-95600000D02*
X187300019Y-93858982D01*
X174793719Y-95468682D02*
X175606519Y-94655882D01*
G04 #@! TO.N,/M2_D10*
X186799994Y-93533507D02*
X192958021Y-87375480D01*
X186799994Y-95600000D02*
X186799994Y-93533507D01*
X192958021Y-87375480D02*
X192958021Y-85599969D01*
G04 #@! TO.N,/M2_D9*
X191664297Y-87335704D02*
X191664297Y-85599969D01*
X186300021Y-92699980D02*
X191664297Y-87335704D01*
X186300021Y-95600000D02*
X186300021Y-92699980D01*
G04 #@! TO.N,/M2_D8*
X190370523Y-87350014D02*
X190370523Y-85599969D01*
X185799996Y-91939530D02*
X190370548Y-87368978D01*
X185799996Y-95600000D02*
X185799996Y-91939530D01*
G04 #@! TO.N,/M2_D7*
X189076799Y-87402252D02*
X189076799Y-85599969D01*
X185300023Y-95600000D02*
X185300023Y-91179028D01*
X185300023Y-91179028D02*
X189076799Y-87402252D01*
G04 #@! TO.N,/M2_D6*
X184800024Y-90418552D02*
X187783025Y-87435551D01*
X187783025Y-87435551D02*
X187783025Y-85599969D01*
X184799998Y-95600000D02*
X184799998Y-90478903D01*
G04 #@! TO.N,/VCC2*
X181639019Y-90579182D02*
X183800000Y-92740163D01*
X183800000Y-95600000D02*
X183800000Y-92740163D01*
X174842843Y-87491406D02*
X174842843Y-85599969D01*
X174842843Y-87491406D02*
X177930619Y-90579182D01*
X177930619Y-90579182D02*
X181639019Y-90579182D01*
G04 #@! TO.N,/VCC3*
X173548814Y-87441977D02*
X177092419Y-90985582D01*
X181346919Y-90985582D02*
X183300027Y-92938690D01*
X177092419Y-90985582D02*
X181346919Y-90985582D01*
X173548814Y-87441977D02*
X173548814Y-85599969D01*
X183300027Y-95600000D02*
X183300027Y-92938690D01*
G04 #@! TO.N,/M3_D1*
X172254786Y-87468749D02*
X172254786Y-85599969D01*
X172254786Y-87468749D02*
X176178019Y-91391982D01*
X182800002Y-95600000D02*
X182800002Y-93187965D01*
X181004019Y-91391982D02*
X182800002Y-93187965D01*
X176178019Y-91391982D02*
X181004019Y-91391982D01*
G04 #@! TO.N,/M3_D2*
X182300029Y-95600000D02*
X182300029Y-93348392D01*
X175314419Y-91798382D02*
X180750019Y-91798382D01*
X170960757Y-87444720D02*
X170960757Y-85599969D01*
X170960757Y-87444720D02*
X175314419Y-91798382D01*
X180750019Y-91798382D02*
X182300029Y-93348392D01*
G04 #@! TO.N,/M3_D7*
X180457919Y-92217482D02*
X181800004Y-93559567D01*
X170963043Y-94257458D02*
X173003019Y-92217482D01*
X170963043Y-104599982D02*
X170963043Y-94257458D01*
X173003019Y-92217482D02*
X180457919Y-92217482D01*
X181800004Y-95600000D02*
X181800004Y-93559567D01*
G04 #@! TO.N,/B3*
X171601488Y-102271351D02*
X172256767Y-102926630D01*
X172256767Y-104599982D02*
X172256767Y-102926630D01*
X180242019Y-92623882D02*
X181300031Y-93681894D01*
X173384019Y-92623882D02*
X180242019Y-92623882D01*
X171601488Y-94406413D02*
X173384019Y-92623882D01*
X171601488Y-102271351D02*
X171601488Y-94406413D01*
X181300031Y-95600000D02*
X181300031Y-93681894D01*
G04 #@! TO.N,/B5*
X180800006Y-95600000D02*
X180800006Y-93842269D01*
X173550541Y-104599982D02*
X173550541Y-102950404D01*
X172239932Y-94685244D02*
X173832080Y-93030282D01*
X179988019Y-93030282D02*
X180800006Y-93842269D01*
X172239932Y-101639795D02*
X172239932Y-94685244D01*
X173832080Y-93030282D02*
X179988019Y-93030282D01*
X172239932Y-101639795D02*
X173550541Y-102950404D01*
G04 #@! TO.N,/B4*
X174844265Y-104599982D02*
X174844265Y-102923328D01*
X172878376Y-100957439D02*
X172878376Y-94947982D01*
X172878376Y-94947982D02*
X174389676Y-93436682D01*
X174389676Y-93436682D02*
X179645119Y-93436682D01*
X180300033Y-95600000D02*
X180300033Y-94091596D01*
X179645119Y-93436682D02*
X180300033Y-94091596D01*
X172878376Y-100957439D02*
X174844265Y-102923328D01*
G04 #@! TO.N,/B1*
X176138039Y-104599982D02*
X176138039Y-102921702D01*
X174819119Y-93843082D02*
X179353019Y-93843082D01*
X175352519Y-102136182D02*
X176138039Y-102921702D01*
X173516820Y-100554483D02*
X173516820Y-95145381D01*
X179353019Y-93843082D02*
X179800008Y-94290071D01*
X175098519Y-102136182D02*
X175352519Y-102136182D01*
X179800008Y-95600000D02*
X179800008Y-94290071D01*
X173516820Y-95145381D02*
X174819119Y-93843082D01*
X173516820Y-100554483D02*
X175098519Y-102136182D01*
G04 #@! TO.N,/B2*
X174155265Y-100100728D02*
X174155265Y-95383236D01*
X176038319Y-101539282D02*
X177431763Y-102932726D01*
X174155265Y-95383236D02*
X175289019Y-94249482D01*
X174155265Y-100100728D02*
X175593819Y-101539282D01*
X177431763Y-104599982D02*
X177431763Y-102932726D01*
X179300035Y-95600000D02*
X179300035Y-94564798D01*
X175593819Y-101539282D02*
X176038319Y-101539282D01*
X178984719Y-94249482D02*
X179300035Y-94564798D01*
X175289019Y-94249482D02*
X178984719Y-94249482D01*
G04 #@! TO.N,/M2_D1*
X190371133Y-103017968D02*
X192205419Y-101183682D01*
X189800039Y-94579682D02*
X190130239Y-94249482D01*
X189800039Y-95600000D02*
X189800039Y-94579682D01*
X190371133Y-104599982D02*
X190371133Y-103017968D01*
X190130239Y-94249482D02*
X193526219Y-94249482D01*
X192205419Y-101183682D02*
X193640519Y-101183682D01*
X193640519Y-101183682D02*
X194769811Y-100054390D01*
X194769811Y-100054390D02*
X194769811Y-95493074D01*
X193526219Y-94249482D02*
X194769811Y-95493074D01*
G04 #@! TO.N,/M2_D2*
X193919919Y-93843082D02*
X195289502Y-95212665D01*
X193805619Y-101805982D02*
X195289502Y-100322099D01*
X191665161Y-104599982D02*
X191665161Y-103044740D01*
X189300015Y-94489037D02*
X189923143Y-93843082D01*
X195289502Y-100322099D02*
X195289502Y-95212665D01*
X191665161Y-103044740D02*
X192903919Y-101805982D01*
X192903919Y-101805982D02*
X193805619Y-101805982D01*
X189300015Y-95600000D02*
X189300015Y-94489037D01*
X189923143Y-93843082D02*
X193919919Y-93843082D01*
G04 #@! TO.N,/M2_D3*
X189728919Y-93436682D02*
X194275519Y-93436682D01*
X193932619Y-102453682D02*
X195809194Y-100577107D01*
X193488119Y-102453682D02*
X193932619Y-102453682D01*
X195809194Y-100259607D02*
X195809194Y-94970357D01*
X194275519Y-93436682D02*
X195809194Y-94970357D01*
X192959189Y-104599982D02*
X192959189Y-102982612D01*
X195809194Y-100259607D02*
X195812219Y-100256582D01*
X195809194Y-100577107D02*
X195809194Y-100259607D01*
X188799990Y-94365611D02*
X189728919Y-93436682D01*
X188799990Y-95600000D02*
X188799990Y-94365611D01*
X195812219Y-100256582D02*
X195812219Y-100027982D01*
X192959189Y-102982612D02*
X193488119Y-102453682D01*
G04 #@! TO.N,/M2_D4*
X194253218Y-103047483D02*
X196328885Y-100971816D01*
X194643819Y-93030282D02*
X196328885Y-94715348D01*
X196328885Y-100971816D02*
X196328885Y-94715348D01*
X188300017Y-94290848D02*
X189560583Y-93030282D01*
X194253218Y-104599982D02*
X194253218Y-103047483D01*
X188300017Y-95600000D02*
X188300017Y-94290848D01*
X189560583Y-93030282D02*
X194643819Y-93030282D01*
G04 #@! TO.N,/M2_D5*
X187799992Y-94092373D02*
X189268483Y-92623882D01*
X195012119Y-92623882D02*
X196848577Y-94460340D01*
X195547246Y-102998055D02*
X196848577Y-101696724D01*
X189268483Y-92623882D02*
X195012119Y-92623882D01*
X187799992Y-95600000D02*
X187799992Y-94092373D01*
X195547246Y-104599982D02*
X195547246Y-102998055D01*
X196848577Y-101696724D02*
X196848577Y-94460340D01*
G04 #@! TD*
M02*
