M48
; DRILL file {KiCad (6.0.1)} date Fri Mar  4 19:07:36 2022
; FORMAT={-:-/ absolute / inch / decimal}
; #@! TF.CreationDate,2022-03-04T19:07:36+03:00
; #@! TF.GenerationSoftware,Kicad,Pcbnew,(6.0.1)
; #@! TF.FileFunction,MixedPlating,1,2
FMAT,2
INCH
; #@! TA.AperFunction,Plated,PTH,ComponentDrill
T1C0.0276
%
G90
G05
T1
X6.7306Y-3.3701
X6.7307Y-4.1181
X6.7816Y-3.3701
X6.7816Y-4.1181
X6.8325Y-3.3701
X6.8326Y-4.1181
X6.8835Y-3.3701
X6.8835Y-4.1181
X6.9344Y-3.3701
X6.9344Y-4.1181
X6.9854Y-3.3701
X6.9854Y-4.1181
X7.0363Y-3.3701
X7.0363Y-4.1181
X7.0872Y-3.3701
X7.0872Y-4.1181
X7.1382Y-4.1181
X7.1382Y-3.3701
X7.1891Y-4.1181
X7.1891Y-3.3701
X7.2401Y-4.1181
X7.2401Y-3.3701
X7.291Y-4.1181
X7.291Y-3.3701
X7.342Y-4.1181
X7.342Y-3.3701
X7.3929Y-4.1181
X7.3929Y-3.3701
X7.4439Y-3.3701
X7.4439Y-4.1181
X7.4948Y-3.3701
X7.4948Y-4.1181
X7.5457Y-3.3701
X7.5458Y-4.1181
X7.5967Y-3.3701
X7.5967Y-4.1181
X7.6476Y-3.3701
X7.6476Y-4.1181
X7.6985Y-3.3701
X7.6986Y-4.1181
X7.7495Y-3.3701
X7.7495Y-4.1181
X7.8004Y-3.3701
X7.8005Y-4.1181
T0
M30
